<svg width="343" height="258" fill="none" xmlns="http://www.w3.org/2000/svg"><path d="m6.227 196.572-4.633-8.576c-.69-1.244-1.074-2.928-1.074-4.683L.575 54.23c.001-1.756.39-3.444 1.078-4.683l4.596-9.004-.022 156.029z" fill="#FFCE44"/><path d="M37.175 257.239a10.406 10.406 0 0 1-7.514-3.231l-5.186-5.461a10.407 10.407 0 0 1-2.863-7.186v-10.97c0-2.987-1.156-5.792-3.26-7.905l-8.315-8.346a10.362 10.362 0 0 1-3.039-7.367V26.693c0-2.784 1.082-5.398 3.039-7.367l9.062-9.097a10.283 10.283 0 0 1 7.338-3.05h198.917v-.761H26.437c-2.974 0-5.769 1.16-7.874 3.273l-9.062 9.097a11.122 11.122 0 0 0-3.26 7.904V206.78a11.12 11.12 0 0 0 3.26 7.904l8.315 8.346a10.364 10.364 0 0 1 3.038 7.367v10.965c0 2.885 1.092 5.621 3.075 7.713l5.186 5.461a11.163 11.163 0 0 0 8.06 3.465h188.179v-.761H37.174z" fill="#FFCE44"/><path d="M40.86 252.483a9.918 9.918 0 0 1-7.165-3.081l-4.866-5.12a9.9 9.9 0 0 1-2.733-6.848v-10.276c0-2.751-1.067-5.342-3.01-7.29l-7.8-7.822a9.88 9.88 0 0 1-2.899-7.019V31.657a9.88 9.88 0 0 1 2.898-7.018l8.502-8.52a9.826 9.826 0 0 1 7-2.905H225v-.378H30.782c-2.744 0-5.329 1.07-7.27 3.017l-8.503 8.52A10.249 10.249 0 0 0 12 31.663v173.369c0 2.751 1.067 5.343 3.01 7.29l7.8 7.823a9.88 9.88 0 0 1 2.898 7.019v10.275a10.27 10.27 0 0 0 2.84 7.109l4.866 5.12a10.314 10.314 0 0 0 7.44 3.198H224.99v-.378H40.859v-.005zM53.21.005c-2.25 0-4.413.91-6.004 2.527L42.71 6.757l182.326.615V0H53.21v.005zM311.489 257.239a10.21 10.21 0 0 0 7.417-3.228l5.12-5.457a10.462 10.462 0 0 0 2.827-7.18v-10.961c0-2.984 1.141-5.787 3.219-7.898l8.208-8.339a10.42 10.42 0 0 0 3-7.361V26.88a10.44 10.44 0 0 0-3-7.361l-8.946-9.09a10.091 10.091 0 0 0-7.245-3.047h-97.052v-.76h97.052c2.937 0 5.695 1.16 7.774 3.27l8.946 9.09a11.182 11.182 0 0 1 3.219 7.898v179.94c0 2.984-1.141 5.787-3.219 7.898l-8.208 8.34a10.416 10.416 0 0 0-3 7.36v10.956c0 2.883-1.078 5.617-3.036 7.707l-5.119 5.457a10.948 10.948 0 0 1-7.957 3.462h-86.452v-.761h86.452z" fill="#FFCE44"/><path d="M307.479 252.483a9.75 9.75 0 0 0 7.082-3.081l4.81-5.12a9.96 9.96 0 0 0 2.702-6.848v-10.276a10.32 10.32 0 0 1 2.974-7.29l7.711-7.822a9.936 9.936 0 0 0 2.864-7.019V31.657a9.936 9.936 0 0 0-2.864-7.018l-8.404-8.52a9.654 9.654 0 0 0-6.919-2.905H225v-.378h92.435c2.712 0 5.267 1.07 7.187 3.017l8.404 8.52a10.31 10.31 0 0 1 2.974 7.29v173.369c0 2.751-1.054 5.343-2.974 7.29l-7.712 7.823a9.94 9.94 0 0 0-2.864 7.019v10.275c0 2.661-.996 5.183-2.806 7.109l-4.811 5.12a10.138 10.138 0 0 1-7.354 3.198H225v-.378h82.479v-.005zM297.538.005c2.251 0 4.413.91 6.004 2.526l4.623 4.697-83.128-.16V0h72.501v.005z" fill="#FFCE44"/></svg>