<svg width="314" height="201" fill="none" xmlns="http://www.w3.org/2000/svg"><path d="m5.905 153.143-4.634-6.681c-.69-.97-1.074-2.281-1.073-3.649l.05-100.565c0-1.367.39-2.682 1.077-3.648l4.597-7.014-.017 121.557z" fill="#FFCE44"/><path d="M33.545 200.406c-2.573 0-5.064-.917-6.84-2.519l-4.722-4.26c-1.68-1.519-2.607-3.508-2.607-5.604v-8.556c0-2.329-1.053-4.517-2.97-6.165l-7.57-6.509c-1.786-1.536-2.766-3.574-2.766-5.746V20.598c0-2.17.985-4.21 2.767-5.745l8.25-7.095c1.787-1.536 4.157-2.379 6.682-2.379h181.109v-.593H23.768c-2.707 0-5.252.905-7.168 2.553l-8.251 7.095c-1.917 1.648-2.97 3.836-2.97 6.164v140.454c0 2.328 1.053 4.516 2.97 6.164l7.57 6.51c1.786 1.536 2.766 3.574 2.766 5.745v8.552c0 2.25.995 4.384 2.8 6.015l4.722 4.26c1.902 1.718 4.581 2.702 7.338 2.702h171.333v-.594H33.545z" fill="#FFCE44"/><path d="M39.098 196.235c-2.44 0-4.802-.874-6.483-2.399l-4.404-3.986c-1.594-1.442-2.473-3.34-2.473-5.333v-8.001c0-2.142-.965-4.16-2.722-5.676l-7.06-6.091c-1.69-1.459-2.621-3.402-2.621-5.465V24.289c0-2.063.931-4.007 2.622-5.465l7.693-6.634c1.69-1.458 3.942-2.262 6.333-2.262h175.729v-.294H29.979c-2.483 0-4.822.832-6.58 2.349l-7.692 6.634c-1.757 1.516-2.723 3.53-2.723 5.676v134.995c0 2.142.966 4.16 2.723 5.676l7.059 6.091c1.69 1.459 2.622 3.402 2.622 5.465v8.002c0 2.071.912 4.035 2.569 5.535l4.403 3.986c1.748 1.583 4.202 2.49 6.733 2.49h166.609v-.294H39.098v-.004zM48.087.004c-2.065 0-4.048.709-5.508 1.968l-4.125 3.292 167.254.479V0H48.088v.004z" fill="#FFCE44"/><path d="M285.014 200.408c2.559 0 5.037-.916 6.804-2.515l4.697-4.252c1.671-1.516 2.593-3.501 2.593-5.593v-8.54c0-2.325 1.046-4.508 2.953-6.153l7.529-6.497c1.777-1.533 2.752-3.568 2.752-5.735V20.941c0-2.167-.98-4.201-2.752-5.734l-8.206-7.082c-1.777-1.533-4.135-2.374-6.646-2.374h-89.029V5.16h89.029c2.694 0 5.224.903 7.131 2.548l8.206 7.081c1.907 1.645 2.954 3.829 2.954 6.153v140.186c0 2.325-1.047 4.509-2.954 6.154l-7.529 6.496c-1.777 1.534-2.752 3.568-2.752 5.735v8.536c0 2.245-.989 4.375-2.785 6.004l-4.696 4.251c-1.892 1.715-4.552 2.697-7.299 2.697h-79.305v-.592h79.305z" fill="#FFCE44"/><path d="M281.209 196.235c2.439 0 4.802-.874 6.482-2.399l4.404-3.986c1.594-1.442 2.473-3.34 2.473-5.333v-8.001c0-2.142.965-4.16 2.722-5.676l7.059-6.091c1.691-1.459 2.622-3.402 2.622-5.466V24.289c0-2.063-.931-4.007-2.622-5.465l-7.692-6.634c-1.691-1.458-3.943-2.262-6.334-2.262h-84.616v-.294h84.616c2.482 0 4.821.832 6.579 2.349l7.692 6.634c1.758 1.516 2.723 3.53 2.723 5.676v134.995c0 2.142-.965 4.16-2.723 5.676l-7.059 6.091c-1.69 1.459-2.621 3.402-2.621 5.465v8.001c0 2.072-.913 4.036-2.57 5.536l-4.403 3.986c-1.748 1.583-4.202 2.49-6.732 2.49h-75.502v-.294h75.502v-.004zM272.216.004c2.065 0 4.049.709 5.508 1.968l4.241 3.659-76.256-.124V0h66.507v.004z" fill="#FFCE44"/></svg>