<svg width="24" height="24" fill="none" xmlns="http://www.w3.org/2000/svg"><path d="M23.318 7.952l-.575.316-.374.2H19.35l2.79-1.55.603-.344c-.144-.287-.316-.574-.46-.833l-.604.345-3.134 1.751V1.923a8.916 8.916 0 00-1.352-.746V9.99h6.671c-.115-.718-.316-1.378-.546-2.038zM12.02 0h-.23v7.809l-7.591-4.25-.46-.258c-.46.431-.892.92-1.295 1.436l.403.23 6.24 3.502h-3.02L1.985 6.172l-.345-.2a7.704 7.704 0 00-.517.947l.345.2 2.415 1.35H.518A13.007 13.007 0 00.173 9.99H13.14V.057A14.664 14.664 0 0012.02 0z" fill="#fff"/><path d="M22.745 6.574l-.604.345-2.79 1.55h3.02l.374-.201.575-.316c-.173-.488-.374-.918-.575-1.378zM2.847 4.966l-.403-.23c-.287.403-.575.805-.834 1.235l.345.201L6.04 8.47h3.019L2.847 4.966z" fill="#D61F26"/><path d="M18.519 1.923v5.914l3.134-1.751.604-.344c-.92-1.55-2.214-2.843-3.738-3.819zM3.738 3.301l.46.259 7.592 4.277V0a12.022 12.022 0 00-8.052 3.301z" fill="#334094"/><path d="M4.113 20.957l-.057.029a12.008 12.008 0 007.706 2.985v-.086c-2.933 0-5.607-1.12-7.649-2.928zM1.466 7.12l-.346-.201c-.23.488-.43 1.005-.603 1.55h3.335L1.466 7.12z" fill="#313374"/><path d="M23.318 16.02c.173-.489.316-1.006.431-1.522h-6.556v8.296c.46-.23.92-.488 1.352-.746v-5.369l3.163 1.78.316.172c.374-.574.719-1.205 1.007-1.837l-.374-.2-.95-.546h1.611v-.029zM.43 14.526H.258c.115.517.259 1.034.431 1.522h3.164l-2.445 1.378-.086.057c.345.66.747 1.292 1.179 1.866l.057-.028 5.837-3.273h3.02l-7.85 4.392-.058.029c.173.172.374.373.575.517l.058-.029 7.648-4.277V24h.23c.374 0 .748-.029 1.122-.057v-9.417H.43z" fill="#fff"/><path d="M22.86 16.019h-1.151l.949.546.374.2c.115-.258.201-.488.287-.746h-.46zm-14.463 0l-5.838 3.273-.057.028c.316.402.633.776 1.006 1.12l.058-.029 7.879-4.392H8.397z" fill="#D61F26"/><path d="M4.111 20.957c2.042 1.809 4.716 2.928 7.65 2.928V16.68l-7.65 4.277zM21.71 18.43l-3.163-1.78v5.399a11.698 11.698 0 003.48-3.445l-.317-.172z" fill="#334094"/><path d="M.835 16.019H.691c.173.488.374.976.633 1.435l.086-.057 2.444-1.378H.835z" fill="#313374"/><path d="M23.866 9.99h-6.671V1.178C15.93.574 14.58.172 13.141.057v9.934H.173a12.144 12.144 0 00.086 4.536h12.853v9.416c1.438-.144 2.818-.517 4.054-1.12v-8.297h6.557c.172-.803.258-1.665.258-2.526.058-.689-.028-1.35-.115-2.01z" fill="#D61F26"/></svg>