<svg width="24" height="24" fill="none" xmlns="http://www.w3.org/2000/svg"><path d="M11.9 24c4.4 0 8.2-2.4 10.3-5.9H1.6C3.7 21.6 7.5 24 11.9 24zm0-24C7.5 0 3.7 2.4 1.6 5.9h20.6C20.1 2.3 16.3 0 11.9 0z" fill="#B5202E"/><path d="M22.3 5.8H1.7C.7 7.5.1 9.6 0 11.7v.4c0 2.2.6 4.2 1.7 5.9h20.6c1.1-1.8 1.7-3.9 1.7-6.1 0-2.2-.6-4.3-1.7-6.1z" fill="#F5C426"/><path fill-rule="evenodd" clip-rule="evenodd" d="M8 10.6c-.1 0-.1-.1 0 0l-.1-.1v-.1s0-.1.1-.1h1.1l.1.1v.2H8z" fill="#9E1C29"/><path fill-rule="evenodd" clip-rule="evenodd" d="M8.4 10.6h.4l.1-.1v-.2H7.6s-.1 0-.1.1v.1l.1.1h.8zm.4 0H8c-.1 0-.1-.1-.1-.1l-.1-.1v-.1s0-.1.1-.1h1.2l.1.1v.2l-.4.1z" fill="#000101"/><path fill-rule="evenodd" clip-rule="evenodd" d="M8.3 10.3c0-.1 0-.1.1-.1l.1.1c0 .1 0 .1-.1.1s-.1-.1-.1-.1z" fill="#C4B130"/><path fill-rule="evenodd" clip-rule="evenodd" d="M8.4 10.2l-.1.1c0 .1.1.1.1 0v-.1zm0 .2l-.1-.1c0-.1.1-.1.1 0v.1z" fill="#000101"/><path fill-rule="evenodd" clip-rule="evenodd" d="M8.3 10.3v-.1c.1 0 .1 0 0 .1.1.1 0 .1 0 .1v-.1zm0-.1c0-.1 0-.1 0 0 .1-.1.1-.1 0 0 .1 0 .1 0 0 0z" fill="#C4B130"/><path fill-rule="evenodd" clip-rule="evenodd" d="M8.4 10.1v.1h-.1v-.1h.1-.1.1V10v.1z" fill="#C4B130"/><path fill-rule="evenodd" clip-rule="evenodd" d="M8.4 10.1v.1h-.1v-.1h.1-.1.1V10v.1z" fill="#C4B130"/><path fill-rule="evenodd" clip-rule="evenodd" d="M8.4 10.2c-.1 0-.1 0 0 0-.1-.1-.1-.1 0 0-.1 0 0 0 0 0 0-.1 0-.1 0 0z" fill="#000101"/><path fill-rule="evenodd" clip-rule="evenodd" d="M8.4 10.6h-.3v-.3H8c.1 0 .2 0 .3.2h.2c.1-.1.2-.2.3-.2 0 0-.1 0-.1.1v.3h-.3v-.1z" fill="#C4B130"/><path fill-rule="evenodd" clip-rule="evenodd" d="M8.5 10.4l.2-.2-.2.2zm-.2.1c-.1-.2-.2-.2-.3-.2.1-.1.2 0 .3.2h.1-.1zm.3.1h-.5v-.2l-.1-.1.1.1v.2h.5v-.2l.1-.1s-.1 0-.1.1v.2z" fill="#000101"/><path fill-rule="evenodd" clip-rule="evenodd" d="M8.2 10.5l-.2-.2c0-.1.1 0 .2.2zm.3 0l.2-.2s-.1 0-.2.2z" fill="#000101"/><path fill-rule="evenodd" clip-rule="evenodd" d="M8 10.7s0-.1 0 0c.1-.1.2-.1.3-.1h.4-.3c-.2.1-.3.1-.4.1z" fill="#C4B130"/><path fill-rule="evenodd" clip-rule="evenodd" d="M8 10.7c.1-.1.2-.1.3-.1h.4v.1-.1h-.4c-.1 0-.2 0-.3.1.1 0 .2-.1.3-.1h.2-.2c-.1.1-.2.1-.3.1zm.4 0h-.3.6-.3zm0 .1H8c.2-.1.5-.1.7 0v.1c-.1-.1-.2-.1-.3-.1z" fill="#000101"/><path fill-rule="evenodd" clip-rule="evenodd" d="M8.7 10.6c-.1 0-.1-.1-.1-.1h-.9.4c.4.1.5.1.6.1z" fill="#C4B130"/><path fill-rule="evenodd" clip-rule="evenodd" d="M8.7 10.6h-.8v-.1h.8c-.1 0-.1.1 0 .1-.1 0-.1-.1-.1-.1h-.7.3c.3.1.4.1.5.1z" fill="#000101"/><path fill-rule="evenodd" clip-rule="evenodd" d="M8.4 10.5c.1.1.1.1.1 0h.2v.1h-.4c.1 0 .1 0 .1-.1 0 .1 0 .1-.1.1h-.4l-.1-.1h.6c-.1 0 0 0 0 0z" fill="#C4B130"/><path fill-rule="evenodd" clip-rule="evenodd" d="M8.1 10.6s0-.1 0 0l.1-.1c0 .1.1.1.1 0-.1.1-.2.1-.2.1 0-.1 0 0 0 0zm-.1 0c-.1 0-.1-.1-.1-.1l.1.1c-.1 0-.1 0 0 0-.1 0-.1 0 0 0s.1 0 .1-.1h.5-.5c0 .1 0 .1-.1.1zm.7 0c.1 0 .1-.1 0 0 .1 0 .1 0 0 0s-.1 0-.1-.1l.1.1c.1-.1.1-.1 0 0 .1 0 .1 0 0 0z" fill="#000101"/><path fill-rule="evenodd" clip-rule="evenodd" d="M8.7 10.6c-.1 0-.2-.1-.4-.1H8h.3c.2.1.3.1.4.1zm0 .1c-.2-.1-.6-.1-.7 0h.1c.2-.1.5-.1.6 0z" fill="#000101"/><path fill-rule="evenodd" clip-rule="evenodd" d="M8.2 10.7c0-.1 0-.1 0 0 .1-.1.1-.1 0 0 .1 0 .1 0 0 0z" fill="#fff"/><path fill-rule="evenodd" clip-rule="evenodd" d="M8.4 10.7c-.1 0-.1 0 0 0-.1-.1-.1-.1 0 0 0-.1 0-.1 0 0z" fill="#9E1C29"/><path fill-rule="evenodd" clip-rule="evenodd" d="M8.1 10.7c.1-.1.1 0 0 0 .1 0 .1 0 0 0zm.5 0c.1 0 0 0 0 0 0-.1 0 0 0 0z" fill="#408F6E"/><path fill-rule="evenodd" clip-rule="evenodd" d="M8.4 10.8h-.3c0-.1.1-.1.3 0 .1-.1.2-.1.3 0h-.3z" fill="#9E1C29"/><path fill-rule="evenodd" clip-rule="evenodd" d="M8.4 10.7h-.3c0 .1.1.1.3 0 .1.1.2 0 .3 0h-.3zm0 .1h-.3c.2-.1.4-.1.6 0h-.3z" fill="#000101"/><path fill-rule="evenodd" clip-rule="evenodd" d="M8.4 10.4h-.1.1v.1-.1z" fill="#C4B130"/><path fill-rule="evenodd" clip-rule="evenodd" d="M8.3 10.5h.1v-.1h-.1v.1zm.2 0h-.1v-.1l.1.1zm-.3 0h-.1l.1-.1v.1zm.4-.1h.1l-.1.1v-.1zm-.1.1h.1v-.1l-.1.1z" fill="#C4B130"/><path fill-rule="evenodd" clip-rule="evenodd" d="M8.3 10.5c0-.1.1-.1 0 0 .1-.1.1-.1 0 0 .1 0 .1 0 0 0 .1 0 0 0 0 0zm.6 0c-.1 0-.1 0 0 0-.1 0-.1.1 0 0-.1.1-.1.1 0 0zm-1.1.6h1.1v-.3H7.8v.3z" fill="#C4B130"/><path fill-rule="evenodd" clip-rule="evenodd" d="M8.9 10.8H7.8v.3h1.1v-.3zm0 .3H7.8v-.3h1.1v.3z" fill="#000101"/><path fill-rule="evenodd" clip-rule="evenodd" d="M7.9 11.3s.1 0 0 0h.8v-.2H8c0 .1 0 .1-.1.2.1 0 .1 0 0 0z" fill="#C4B130"/><path fill-rule="evenodd" clip-rule="evenodd" d="M8 11.3s0-.1 0 0v-.1h.3H8v.1c0-.1 0 0 0 0zm.8 0H8h.8c-.1 0-.1-.1 0 0-.1-.1 0-.1 0-.1v.1c0-.1 0 0 0 0z" fill="#000101"/><path fill-rule="evenodd" clip-rule="evenodd" d="M8 11.3h.8H8c-.1.1-.1 0 0 0-.1 0-.1 0 0 0z" fill="#C4B130"/><path fill-rule="evenodd" clip-rule="evenodd" d="M8 11.3l.8.1-.8-.1zm.8.1h-.9.9c0-.1 0-.1 0 0 0-.1 0 0 0 0z" fill="#000101"/><path fill-rule="evenodd" clip-rule="evenodd" d="M8 11.1h.8H8c-.1.1-.1 0 0 0-.1 0-.1 0 0 0z" fill="#C4B130"/><path fill-rule="evenodd" clip-rule="evenodd" d="M8 11.1h.8H8zm.8.1h-.9.9c0-.1 0-.1 0 0z" fill="#000101"/><path fill-rule="evenodd" clip-rule="evenodd" d="M9.1 15.9H7.5v.1h1.6v-.1z" fill="#3D5BA9"/><path fill-rule="evenodd" clip-rule="evenodd" d="M8 15.8h-.4v.1h.2c.1-.1.3-.1.4 0 .1.1.3.1.4 0 .1-.1.3-.1.4 0h.2v-.1h-.6c-.1.1-.3.1-.4 0H8zm1.1.2h-.2c-.1-.1-.3-.1-.4 0-.1.1-.3.1-.4 0h-.6v-.1c.1 0 .1 0 .2-.1s.3-.1.4 0c.1.1.3.1.4 0 .1-.1.3-.1.4 0h.2v.2z" fill="#000101"/><path fill-rule="evenodd" clip-rule="evenodd" d="M9.1 16H7.5v.1h1.6V16z" fill="#CBCACA"/><path fill-rule="evenodd" clip-rule="evenodd" d="M8 15.9h-.4v.1c.1 0 .1 0 .2-.1s.3-.1.4 0c.1.1.3.1.4 0 .1-.1.3-.1.4 0h.2v-.1H9c-.1-.1-.3-.1-.4 0-.1.1-.3.1-.4 0-.1.1-.1.1-.2.1zm1.1.2h-.2c-.1-.1-.3-.1-.4 0-.1.1-.3.1-.4 0-.1-.1-.3-.1-.4 0h-.2V16h.2c.1-.1.3-.1.4 0 .1.1.3.1.4 0 .1-.1.3-.1.4 0h.2v.1z" fill="#000101"/><path fill-rule="evenodd" clip-rule="evenodd" d="M9.1 16.1H7.5v.1h1.6v-.1z" fill="#3D5BA9"/><path fill-rule="evenodd" clip-rule="evenodd" d="M8 16h-.4v.1c.1 0 .1 0 .2-.1s.3-.1.4 0c.1.1.3.1.4 0 .1-.1.3-.1.4 0h.2v-.1H9c-.1-.1-.3-.1-.4 0-.1.1-.3.1-.4 0-.1.2-.1.1-.2.1zm1.1.2h-.2c-.1-.1-.3-.1-.4 0-.1.1-.3.1-.4 0h-.6v-.1c.1 0 .1 0 .2-.1s.3-.1.4 0c.1.1.3.1.4 0 .1-.1.3-.1.4 0h.2v.2z" fill="#000101"/><path fill-rule="evenodd" clip-rule="evenodd" d="M9.1 16.3H7.5v-.1h1.6v.1z" fill="#CBCACA"/><path fill-rule="evenodd" clip-rule="evenodd" d="M8 16.2h-.4v.1c.1 0 .1 0 .2-.1.1 0 .3-.1.4 0 .1.1.3.1.4 0 .1-.1.3-.1.4 0h.2v-.1H9c-.1-.1-.3-.1-.4 0-.1.1-.3.1-.4 0-.1.1-.1.1-.2.1zm1.1.2h-.2c-.1-.1-.3 0-.4 0-.1.1-.3.1-.4 0h-.6v-.1c.1 0 .1 0 .2-.1s.3-.1.4 0c.1.1.3.1.4 0 .1-.1.3-.1.4 0h.2v.2z" fill="#000101"/><path fill-rule="evenodd" clip-rule="evenodd" d="M9.1 16.5H7.5v-.1h1.6v.1z" fill="#3D5BA9"/><path fill-rule="evenodd" clip-rule="evenodd" d="M8 16.3h-.4v.1c.1 0 .1 0 .2-.1.1 0 .3-.1.4 0 .1.1.3.1.4 0 .1-.1.3-.1.4 0h.2v-.1h-.6c-.1.1-.3.1-.4 0-.1.1-.1.1-.2.1zm1.1.2h-.6c-.1.1-.3.1-.4 0h-.6v-.1c.1 0 .1 0 .2-.1h.4c.1.1.3.1.4 0 .1-.1.3-.1.4 0h.2v.2z" fill="#000101"/><path fill-rule="evenodd" clip-rule="evenodd" d="M7.9 15.4c0 .1-.1.2-.1.2h1.1c-.1 0-.1-.1-.1-.1h-.9c.1-.1 0-.1 0-.1z" fill="#C4B130"/><path fill-rule="evenodd" clip-rule="evenodd" d="M8.9 15.6H7.8c.1 0 .1-.1.1-.1 0 .1-.1.1-.1.1h1.1c-.1 0-.1-.1-.1-.1h-.6.6s.1 0 .1.1c0-.1 0-.1 0 0z" fill="#000101"/><path fill-rule="evenodd" clip-rule="evenodd" d="M8 15.3h.8H8c-.1.1-.1.1 0 0-.1 0-.1 0 0 0z" fill="#C4B130"/><path fill-rule="evenodd" clip-rule="evenodd" d="M8 15.3l.8.1-.8-.1zm.8.1h-.9.9c0-.1 0-.1 0 0z" fill="#000101"/><path fill-rule="evenodd" clip-rule="evenodd" d="M7.8 15.8h1.1v-.2H7.8v.2z" fill="#C4B130"/><path fill-rule="evenodd" clip-rule="evenodd" d="M8.9 15.6H7.8v.3h1.1v-.3zm0 .2H7.8v-.3h1.1v.3z" fill="#000101"/><path fill-rule="evenodd" clip-rule="evenodd" d="M7.7 14.3c-.1.1-.2.1-.2.2 0 0 0 .1.1.1.1.1.1.2.1.2.1-.1.1-.1.1-.2s0-.2-.1-.3z" fill="#9E1C29"/><path fill-rule="evenodd" clip-rule="evenodd" d="M7.7 14.3c-.1.1-.2.1-.2.2l.1.1c.1 0 .1.1.1.2 0 0 .1-.1.1-.2s0-.2-.1-.3zm0 .5c0-.1 0-.1 0 0 0-.1 0-.2-.1-.2s-.1-.1-.1-.1c0-.1.1-.1.2-.2.1.1.1.1.1.2s0 .2-.1.3z" fill="#000101"/><path fill-rule="evenodd" clip-rule="evenodd" d="M8 15.3h.8v-3.9H8v3.9z" fill="#CBCACA"/><path fill-rule="evenodd" clip-rule="evenodd" d="M8.5 15.3v-3.9 3.9zm.1 0v-3.9 3.9zm.2-3.9H8v3.9h.8v-3.9zm0 3.9H8v-3.9h.8v3.9z" fill="#000101"/><path fill-rule="evenodd" clip-rule="evenodd" d="M9.6 12.9c-.2-.1-.5-.1-.8-.1h-.4c-.5.1-.8.3-.8.4l-.2-.4c0-.2.4-.4.9-.5h.5c.3 0 .6 0 .8.1v.5z" fill="#9E1C29"/><path fill-rule="evenodd" clip-rule="evenodd" d="M8.8 12.3h-.5c-.4.1-.8.2-.9.4v.1l.2.4v-.1c.1-.1.4-.3.8-.3h.4c.3 0 .6.1.8.1v-.5c-.2-.1-.5-.1-.8-.1zm-1.2.9c0-.1-.2-.4-.2-.4v-.1c.1-.2.5-.3.9-.4.5-.1 1 0 1.3.1v.5c-.2-.1-.5-.1-.8-.1h-.4c-.4.1-.7.2-.8.3v.1z" fill="#000101"/><path fill-rule="evenodd" clip-rule="evenodd" d="M8 13.3c-.2 0-.4-.1-.4-.2s.1-.2.2-.2H8v.4z" fill="#9E1C29"/><path fill-rule="evenodd" clip-rule="evenodd" d="M7.8 13c-.2.1-.2.1-.2.2s.2.1.4.2V13h-.2zm.2.4c-.2 0-.4-.1-.4-.2s.1-.2.2-.2H8v.4z" fill="#000101"/><path fill-rule="evenodd" clip-rule="evenodd" d="M8.8 13c.1 0 .2.1.3.1 0 0-.1.2-.3.3V13z" fill="#9E1C29"/><path fill-rule="evenodd" clip-rule="evenodd" d="M8.8 13.1v.4c.2-.1.3-.2.3-.3-.1-.1-.2-.1-.3-.1zm0 .3V13c.1 0 .3 0 .3.1s-.2.3-.3.3z" fill="#000101"/><path fill-rule="evenodd" clip-rule="evenodd" d="M7.5 14.1c0-.1.2-.2.5-.3.1 0 .3-.1.4-.2.4-.2.7-.4.7-.5l.1.4c0 .1-.2.3-.6.5-.1.1-.4.2-.5.2-.2.1-.4.2-.4.3l-.2-.4z" fill="#9E1C29"/><path fill-rule="evenodd" clip-rule="evenodd" d="M9.1 13.2c0 .1-.3.3-.7.5-.2.1-.3.1-.4.2-.3.1-.5.2-.5.3l.1.4c.1-.1.2-.2.4-.2.1 0 .4-.1.5-.2.3-.2.6-.3.6-.4v-.6zm-1.6 1.3v-.4c0-.1.2-.2.5-.3.1 0 .2-.1.4-.2.4-.2.7-.4.7-.5 0 .1.1.4.1.4 0 .1-.3.3-.6.5-.1.1-.4.2-.5.2-.3.1-.5.2-.6.3.1 0 0 0 0 0z" fill="#000101"/><path fill-rule="evenodd" clip-rule="evenodd" d="M7.9 12.5H8v.1l-.1-.1zm0 .2c.1 0 .2-.1.1-.2 0 0-.1-.1-.1 0h-.1l.1.3v-.1zm.3-.3v.3h.2-.1l-.1-.3zm.5.3c0-.1.1-.2.1-.3-.1 0-.1.1-.1.3 0-.2-.1-.2-.1-.3h-.1c0 .1 0 .2.2.3-.1 0-.1 0 0 0-.1 0-.1 0 0 0zm.4-.3c-.2-.1-.2 0-.2 0 0 .1.2.1.2.2H9s-.1 0-.1-.1v.1H9c.1 0 .2 0 .2-.1s-.2-.1-.2-.2c0 .1 0 .1.1.1z" fill="#C4B130"/><path fill-rule="evenodd" clip-rule="evenodd" d="M15.6 10.5s0 .1 0 0h-.5v-.1s0-.1.1-.1h.8c.1 0 .1.1.1.1v.1h-.4s0 .1-.1 0c.1.1 0 0 0 0z" fill="#9E1C29"/><path fill-rule="evenodd" clip-rule="evenodd" d="M15.1 10.5c-.1-.1 0-.2.1-.2h.8-.7c-.2.1-.2.1-.2.2zm.9.1c-.1 0-.1-.1-.2-.1h-.6.8c-.1 0-.1.1 0 .1l.1-.1s0-.1-.1-.1h-.1.1c.1 0 .1.1.1.1v.1H16z" fill="#000101"/><path fill-rule="evenodd" clip-rule="evenodd" d="M15.6 10.3s0-.1 0 0c.1-.1.1-.1.1 0s0 .1-.1 0c0 .1 0 .1 0 0z" fill="#C4B130"/><path fill-rule="evenodd" clip-rule="evenodd" d="M15.6 10.2s0 .1 0 0c0 .2.1.2 0 0 .1.1.1 0 0 0zm0 .2s-.1 0-.1-.1.1-.1.1 0c.1.1.1.1 0 .1z" fill="#000101"/><path fill-rule="evenodd" clip-rule="evenodd" d="M15.6 10.3s0-.1 0 0c0-.1.1 0 0 0 .1.1 0 .1 0 0 0 .1 0 .1 0 0zm-.3.4s-.1-.1 0 0c.1-.1.2-.1.3-.1h.4-.3c-.2.1-.3.1-.4.1z" fill="#C4B130"/><path fill-rule="evenodd" clip-rule="evenodd" d="M15.3 10.7s-.1 0 0 0c.1-.1.2-.1.3-.1h.4v.1-.1h-.4c-.1 0-.2 0-.3.1.1 0 .2-.1.3-.1h.2-.2c-.1.1-.2.1-.3.1zm.3 0h-.3.3zm0 .1h-.4c.2-.1.5-.1.7 0v.1c0-.1-.2-.1-.3-.1z" fill="#000101"/><path fill-rule="evenodd" clip-rule="evenodd" d="M15.9 10.4c0-.1 0-.1 0 0 0-.1.1-.1 0 0 .1 0 0 0 0 0z" fill="#fff"/><path fill-rule="evenodd" clip-rule="evenodd" d="M16.1 10.5c0-.2-.1-.2-.2-.2h.1c.1 0 .1.1.1.2zm-.2-.1c0-.1-.1-.1-.2-.1.1-.1.2 0 .2.1z" fill="#000101"/><path fill-rule="evenodd" clip-rule="evenodd" d="M16 10.6s-.1 0 0 0c-.1 0-.1-.1-.1-.1H15h.4c.4.1.5.1.6.1z" fill="#C4B130"/><path fill-rule="evenodd" clip-rule="evenodd" d="M16 10.6h-.8v-.1h.8c-.1 0-.1.1 0 .1 0 0-.1 0 0 0-.1 0-.1-.1-.1-.1h-.7.3c.3.1.4.1.5.1zm-.9-.1c0-.2.1-.2.2-.2-.1 0-.2 0-.2.2zm.3-.1c0-.1.1-.2.2-.1-.1 0-.2 0-.2.1z" fill="#000101"/><path fill-rule="evenodd" clip-rule="evenodd" d="M15.6 10.5s.1 0 0 0c.1.1.1.1.1 0h.2v.1h-.4c.2 0 .1 0 .1-.1 0 .1 0 .1-.1.1h-.4l-.1-.1h.6z" fill="#C4B130"/><path fill-rule="evenodd" clip-rule="evenodd" d="M15.3 10.6s.1-.1 0 0l.1-.1c0 .1.1.1.1 0 0 .1-.1.1-.2.1.1-.1 0 0 0 0zm-.1 0c-.1 0-.1-.1-.1-.1l.1.1c.1 0 .1 0 0 0 .1 0 .1 0 .1-.1h.5-.5c.1.1.1.1-.1.1.1 0 .1 0 0 0zm.8 0c.1 0 .1-.1 0 0-.1 0-.1 0-.1-.1 0 0 0 .1.1.1.1-.1.1-.1 0 0 .1 0 .1 0 0 0z" fill="#000101"/><path fill-rule="evenodd" clip-rule="evenodd" d="M16 10.6c-.1 0-.2-.1-.4-.1h-.3.3c.2.1.3.1.4.1zm0 .1c-.2-.1-.5-.1-.7 0h.1c.1-.1.4-.1.6 0z" fill="#000101"/><path fill-rule="evenodd" clip-rule="evenodd" d="M15.6 10.7c0-.1 0-.1 0 0 .1-.1.1-.1 0 0 .1 0 .1 0 0 0z" fill="#9E1C29"/><path fill-rule="evenodd" clip-rule="evenodd" d="M15.4 10.7c-.1 0-.1 0 0 0-.1 0-.1 0 0 0 0-.1 0 0 0 0z" fill="#408F6E"/><path fill-rule="evenodd" clip-rule="evenodd" d="M15.7 10.7c0-.1 0-.1 0 0 .1-.1.1-.1 0 0 .1 0 .1 0 0 0z" fill="#fff"/><path fill-rule="evenodd" clip-rule="evenodd" d="M15.9 10.7c-.1-.1-.1 0 0 0-.1 0-.1 0 0 0z" fill="#408F6E"/><path fill-rule="evenodd" clip-rule="evenodd" d="M15.6 10.8h-.3c.1-.1.2-.1.3 0 .1-.1.2-.1.3 0h-.3z" fill="#9E1C29"/><path fill-rule="evenodd" clip-rule="evenodd" d="M15.6 10.7h-.3c.1.1.2.1.3 0 .1.1.2 0 .3 0h-.3zm0 .1h-.3c.2-.1.4-.1.6 0h-.3z" fill="#000101"/><path fill-rule="evenodd" clip-rule="evenodd" d="M15.3 10.5c-.1 0 0 0 0 0 0 .1 0 0 0 0zm.3-.1v.1-.1h.1-.1zm-.1.1h.1v-.1h-.1v.1z" fill="#C4B130"/><path fill-rule="evenodd" clip-rule="evenodd" d="M15.7 10.5h-.1v-.1h.1v.1zm-.4-.1l.1.1v-.1h-.1zm.2.1h-.1v-.1l.1.1zm.4-.1v.1l-.1-.1h.1z" fill="#C4B130"/><path fill-rule="evenodd" clip-rule="evenodd" d="M15.8 10.5h.1l-.1-.1v.1zm-.1-.3h-.1v-.1h.1-.1v.1h.1z" fill="#C4B130"/><path fill-rule="evenodd" clip-rule="evenodd" d="M15.7 10.2h-.1v-.1h.1-.1v.1h.1zm-.6.3c.1 0 .1.1 0 0 0 .1 0 .1 0 0zm0 .6h1.1v-.3h-1.1v.3z" fill="#C4B130"/><path fill-rule="evenodd" clip-rule="evenodd" d="M16.2 10.8h-1.1v.3h1.1v-.3zm0 .3h-1.1v-.3h1.1v.3z" fill="#000101"/><path fill-rule="evenodd" clip-rule="evenodd" d="M16.1 11.3c-.1 0-.1 0 0 0h-.8v-.2h.7c0 .1 0 .1.1.2-.1 0-.1 0 0 0z" fill="#C4B130"/><path fill-rule="evenodd" clip-rule="evenodd" d="M15.2 11.3s0-.1 0 0v-.1h.8-.8s.1 0 0 .1c.1-.1 0 0 0 0h.8v-.2.2h-.8z" fill="#000101"/><path fill-rule="evenodd" clip-rule="evenodd" d="M15.2 11.3h.8-.8c0 .1 0 0 0 0z" fill="#C4B130"/><path fill-rule="evenodd" clip-rule="evenodd" d="M15.2 11.3l.8.1-.8-.1zm.8.1h-.9.9c.1-.1.1-.1 0 0 .1-.1.1 0 0 0z" fill="#000101"/><path fill-rule="evenodd" clip-rule="evenodd" d="M15.2 11.1h.8-.8c0 .1 0 0 0 0z" fill="#C4B130"/><path fill-rule="evenodd" clip-rule="evenodd" d="M15.2 11.1h.8-.8zm.8.1h-.9.9c.1-.1.1-.1 0 0 .1 0 .1 0 0 0z" fill="#000101"/><path fill-rule="evenodd" clip-rule="evenodd" d="M14.9 15.9h1.6v.1h-1.6v-.1z" fill="#3D5BA9"/><path fill-rule="evenodd" clip-rule="evenodd" d="M15.2 15.8h-.4v.1h.2c.1-.1.3-.1.4 0 .1 0 .3.1.4 0 .1-.1.3 0 .4 0h.2v-.1h-.2c-.1 0-.3-.1-.4 0-.1.1-.3.1-.4 0h-.2zm1.2.2h-.2c-.1-.1-.3-.1-.4 0-.1.1-.3.1-.4 0-.1-.1-.3-.1-.4 0h-.2v-.1c.1 0 .1 0 .2-.1s.3-.1.4 0c.1.1.3.1.4 0 .1-.1.3-.1.4 0h.2v.2z" fill="#000101"/><path fill-rule="evenodd" clip-rule="evenodd" d="M14.9 16h1.6v.1h-1.6V16z" fill="#CBCACA"/><path fill-rule="evenodd" clip-rule="evenodd" d="M15.2 15.9h-.4v.1c.1 0 .1 0 .2-.1s.3-.1.4 0c.1.1.3.1.4 0 .1-.1.3-.1.4 0h.2v-.1h-.2c-.1-.1-.3-.1-.4 0-.1.1-.3.1-.4 0 0 .1-.1.1-.2.1zm1.2.2h-.2c-.1 0-.3-.1-.4 0-.1.1-.3.1-.4 0-.1-.1-.3-.1-.4 0h-.2V16h.2c.1-.1.3-.1.4 0 .1 0 .3.1.4 0 .1-.1.3 0 .4 0h.2v.1z" fill="#000101"/><path fill-rule="evenodd" clip-rule="evenodd" d="M14.9 16.1h1.6v.1h-1.6v-.1z" fill="#3D5BA9"/><path fill-rule="evenodd" clip-rule="evenodd" d="M15.2 16h-.4v.1h.2c.1-.1.3-.1.4 0 .1.1.3.1.4 0 .1-.1.3-.1.4 0h.2-.2c-.1 0-.3-.1-.4 0-.1.1-.3.1-.4 0 0 0-.1-.1-.2-.1zm1.2.2h-.6c-.1.1-.3.1-.4 0-.1-.1-.3-.1-.4 0h-.2v-.1c.1 0 .1 0 .2-.1s.3-.1.4 0c.1.1.3.1.4 0 .1-.1.3-.1.4 0h.2v.2z" fill="#000101"/><path fill-rule="evenodd" clip-rule="evenodd" d="M14.9 16.3h1.6v-.1h-1.6v.1z" fill="#CBCACA"/><path fill-rule="evenodd" clip-rule="evenodd" d="M15.2 16.2h-.4v.1h.2c.1-.1.3-.1.4 0 .1.1.3.1.4 0 .1-.1.3 0 .4 0h.2v-.1h-.6c-.1.1-.3.1-.4 0h-.2zm1.2.2h-.2c-.1 0-.3-.1-.4 0-.1.1-.3.1-.4 0-.1 0-.3-.1-.4 0h-.2v-.1h.2c.1-.1.3-.1.4 0 .1.1.3.1.4 0 .1-.1.3-.1.4 0h.2v.1z" fill="#000101"/><path fill-rule="evenodd" clip-rule="evenodd" d="M14.9 16.5h1.6v-.1h-1.6v.1z" fill="#3D5BA9"/><path fill-rule="evenodd" clip-rule="evenodd" d="M15.2 16.3h-.4v.1c.1 0 .1 0 .2-.1s.3-.1.4 0c.1.1.3.1.4 0 .1-.1.3-.1.4 0h.2v-.1h-.6c-.1.1-.3.1-.4 0 0 .1-.1.1-.2.1zm1.2.2h-.6c-.1.1-.3.1-.4 0h-.6v-.1h.2c.1-.1.3-.1.4 0 .1.1.3.1.4 0h.6v.1z" fill="#000101"/><path fill-rule="evenodd" clip-rule="evenodd" d="M16.1 15.4c-.1 0-.1 0 0 0 0 .1.1.2.1.2h-1.1c.1 0 .1-.1.1-.1h.9c-.1-.1-.1-.1 0-.1z" fill="#C4B130"/><path fill-rule="evenodd" clip-rule="evenodd" d="M16.2 15.6h-1.1c.1 0 .1-.1.1-.1 0 .1-.1.1-.1.1h1.1c-.1 0-.1-.1-.1-.1h-.6.6l.1.1c0-.1 0-.1 0 0z" fill="#000101"/><path fill-rule="evenodd" clip-rule="evenodd" d="M15.2 15.3h.8-.8c0 .1 0 .1 0 0z" fill="#C4B130"/><path fill-rule="evenodd" clip-rule="evenodd" d="M15.2 15.3l.8.1-.8-.1zm.8.1h-.9.9c.1-.1.1-.1 0 0 .1 0 .1 0 0 0z" fill="#000101"/><path fill-rule="evenodd" clip-rule="evenodd" d="M15.1 15.8h1.1v-.2h-1.1v.2z" fill="#C4B130"/><path fill-rule="evenodd" clip-rule="evenodd" d="M16.2 15.6h-1.1v.3h1.1v-.3zm0 .2h-1.1v-.3h1.1v.3z" fill="#000101"/><path fill-rule="evenodd" clip-rule="evenodd" d="M16.3 14.3c.1.1.2.1.2.2 0 0 0 .1-.1.1-.1.1-.1.2-.1.2-.1-.1-.1-.1-.1-.2s0-.2.1-.3z" fill="#9E1C29"/><path fill-rule="evenodd" clip-rule="evenodd" d="M16.3 14.3c-.1.1-.1.1-.1.2s0 .1.1.2c0-.1 0-.1.1-.2.1 0 .1-.1.1-.1-.1.1-.1 0-.2-.1zm0 .5c-.1-.1-.1-.1-.1-.2s0-.2.1-.2.2.1.2.2c0 0 0 .1-.1.1-.1-.1-.1 0-.1.1 0-.1 0 0 0 0z" fill="#000101"/><path fill-rule="evenodd" clip-rule="evenodd" d="M15.2 15.3h.8v-3.9h-.8v3.9z" fill="#CBCACA"/><path fill-rule="evenodd" clip-rule="evenodd" d="M15.8 15.3v-3.9 3.9zm.1 0v-3.9 3.9zm.1-3.9h-.8v3.9h.8v-3.9zm0 3.9h-.8v-3.9h.8v3.9z" fill="#000101"/><path fill-rule="evenodd" clip-rule="evenodd" d="M14.4 12.9c.2-.1.5-.1.8-.1h.4c.5.1.8.3.8.4l.2-.4c0-.2-.4-.4-.9-.5h-.5c-.3 0-.6 0-.8.1v.5z" fill="#9E1C29"/><path fill-rule="evenodd" clip-rule="evenodd" d="M15.2 12.7h.4c.4.1.7.2.8.3v.1l.2-.4v-.1c-.1-.1-.4-.3-.9-.4-.5-.1-1 0-1.3.1v.5c.2 0 .5-.1.8-.1zm1.2.5v-.1c-.1-.1-.4-.3-.8-.3h-.4c-.3 0-.6.1-.8.1v-.5c.2-.1.5-.1.8-.1h.5c.4.1.8.2.9.4v.1s-.2.3-.2.4z" fill="#000101"/><path fill-rule="evenodd" clip-rule="evenodd" d="M16 13.3c.2 0 .4-.1.4-.2s-.1-.2-.2-.2H16v.4z" fill="#9E1C29"/><path fill-rule="evenodd" clip-rule="evenodd" d="M16.2 13H16v.4c.2 0 .4-.1.4-.2s-.1-.2-.2-.2zm-.2.4V13h.2c.2.1.3.2.2.2 0 .1-.1.1-.4.2z" fill="#000101"/><path fill-rule="evenodd" clip-rule="evenodd" d="M15.2 13c-.1 0-.2.1-.3.1 0 0 .1.2.3.3V13z" fill="#9E1C29"/><path fill-rule="evenodd" clip-rule="evenodd" d="M15.199 13c-.1 0-.2.1-.3.1 0 0 0 .1.3.3V13zm0 .4c-.1-.1-.4-.2-.3-.3.1-.1.2-.1.3-.1v.4z" fill="#000101"/><path fill-rule="evenodd" clip-rule="evenodd" d="M16.5 14.1c0-.1-.2-.2-.5-.3-.1 0-.3-.1-.4-.2-.4-.2-.7-.4-.7-.5l-.1.4c0 .1.2.3.6.5.1.1.4.2.5.2.2.1.4.2.4.3l.2-.4z" fill="#9E1C29"/><path fill-rule="evenodd" clip-rule="evenodd" d="M14.9 13.2v.4c0 .1.3.3.6.5.1.1.4.2.5.2l.4.2.1-.4s-.2-.2-.5-.3c-.1 0-.2-.1-.4-.2-.3-.1-.6-.3-.7-.4zm1.5 1.3c0-.1-.2-.2-.4-.3-.1 0-.4-.1-.5-.2l-.6-.4c0-.1 0-.4.1-.4 0 .1.3.3.7.5.2.1.3.1.4.2.3.1.5.2.5.3l-.2.3z" fill="#000101"/><path fill-rule="evenodd" clip-rule="evenodd" d="M14.9 12.7c0-.1.1-.2.1-.3-.1 0-.1.1-.1.3-.1-.2-.1-.2-.2-.3h-.1l.3.3zm.3-.3s-.1 0 0 0l-.1.3h.2-.1v-.3zm.4 0h.1-.3.2l-.1.3.1-.3zm.2 0c.1.1.1.1 0 0 .1.1.1.1 0 0 .1.1 0 .1 0 .1v-.1zm-.1.3l.1-.1v.2h.1s0-.1-.1-.1c.1 0 .1 0 .1-.1v-.1h-.2v.2z" fill="#C4B130"/><path fill-rule="evenodd" clip-rule="evenodd" d="M16.2 12.7l.1-.1-.1.1zm0 .1v.1-.4l-.3.2s.1 0 .1-.1l.2.2z" fill="#C4B130"/><path fill-rule="evenodd" clip-rule="evenodd" d="M10.9 9.4c-.1 0-.1 0-.1.1s.2.1.2 0l-.1-.1zm0 .2c-.1 0-.1 0-.1-.1s.2-.1.2 0-.1.1-.1.1z" fill="#000101"/><path fill-rule="evenodd" clip-rule="evenodd" d="M12 8.7c.3 0 .6 0 .8.1.1 0 .3.1.4.1h.3c.1 0 .3 0 .5.1s.3.2.4.2l-.1.1v.2l-.2.2-.1.1-.2.2h-.1v.1l-1.6-.2-1.6.2V10h-.1l-.2-.2-.1-.1-.2-.2v-.2l-.1-.1c.1-.1.2-.2.4-.2.2-.1.4-.1.5-.1h.3c.2 0 .3-.1.4-.1 0-.1.2-.1.6-.1z" fill="#9E1C29"/><path fill-rule="evenodd" clip-rule="evenodd" d="M10.4 8.9c-.2 0-.3 0-.5.1s-.3.2-.4.2l.1.1v.2l.3.3.2.2h.1v.1l1.6-.2 1.6.2V10h.1l.3-.3.2-.2v-.2l.1-.1c-.1-.1-.2-.2-.4-.2-.2-.1-.4-.1-.5-.1h-.3c-.2 0-.3-.1-.4-.1-.4-.2-1.2-.2-1.6 0-.1 0-.2.1-.4.1h-.1zm3.2 1.3L12 10l-1.6.2v-.1h-.1l-.4-.3-.2-.2v-.2l-.1-.1c.1-.1.2-.2.4-.2.2-.1.4-.1.5-.1h.3c.2 0 .3-.1.4-.1.4-.2 1.2-.2 1.6 0 .1 0 .2.1.4.1h.3c.2 0 .3 0 .5.1s.3.2.4.2l-.1.1v.2l-.3.3-.2.2h-.1l-.1.1z" fill="#000101"/><path fill-rule="evenodd" clip-rule="evenodd" d="M12 10.8c-.6 0-1.1-.1-1.5-.2v-.2c.4-.1.9-.2 1.5-.2s1.1.1 1.5.2v.2c-.4.1-.9.2-1.5.2z" fill="#C4B130"/><path fill-rule="evenodd" clip-rule="evenodd" d="M12 10.3c-.6 0-1.1.1-1.5.2.4.1.9.2 1.5.2s1.1-.1 1.5-.2c-.4-.1-.9-.2-1.5-.2zm0 .5c-.6 0-1.1-.1-1.5-.2v-.2c.4-.1.9-.2 1.5-.2s1.1.1 1.5.2v.2c-.4.1-.9.2-1.5.2z" fill="#000101"/><path fill-rule="evenodd" clip-rule="evenodd" d="M12 10.7c-.5 0-1-.1-1.4-.2.4-.1.9-.2 1.4-.2.5 0 1 .1 1.4.2-.4.2-.9.2-1.4.2z" fill="#9E1C29"/><path fill-rule="evenodd" clip-rule="evenodd" d="M12 10.3c-.6 0-1.1.1-1.5.2v-.2c0-.1-.1-.1-.1-.1.4-.1 1-.2 1.7-.2s1.2.1 1.7.2c0 0-.1 0-.1.1v.2c-.6-.1-1.1-.2-1.7-.2z" fill="#C4B130"/><path fill-rule="evenodd" clip-rule="evenodd" d="M10.4 10.2s.1 0 .1.1v.2c.4-.1.9-.2 1.5-.2s1.1.1 1.5.2v-.1c0-.1.1-.1.1-.1-.4-.1-1-.2-1.7-.2-.5-.1-1.1 0-1.5.1zm3.1.3c-.4-.1-1-.2-1.5-.2-.6 0-1.1.1-1.5.2v-.2c0-.1-.1-.1-.1-.1.4-.1 1-.2 1.6-.2.6 0 1.2.1 1.7.2 0 0-.1 0-.1.1l-.1.2z" fill="#000101"/><path fill-rule="evenodd" clip-rule="evenodd" d="M12 10c-.7 0-1.2.1-1.7.2h-.1v-.1c.4-.1 1-.2 1.7-.2s1.3.1 1.7.2v.1h-.1c-.3-.1-.9-.2-1.5-.2z" fill="#C4B130"/><path fill-rule="evenodd" clip-rule="evenodd" d="M12 9.9c-.6 0-1.3.1-1.7.2v.1c.5-.1 1.1-.2 1.7-.3.6.1 1.2.2 1.7.3v-.1c-.5-.1-1.1-.2-1.7-.2zm1.7.3c-.5-.1-1.1-.2-1.7-.2-.6 0-1.2.1-1.7.2h-.1v-.1c.4-.1 1-.2 1.7-.2.6 0 1.3.1 1.7.2l.1.1zm-1.7.2c-.5 0-1 .1-1.4.2.4.1.9.1 1.4.1.5 0 1-.1 1.4-.2-.4 0-.9-.1-1.4-.1zm0 .3c-.5 0-1-.1-1.4-.2.4-.1.9-.2 1.4-.2.5 0 1 .1 1.4.2-.4.2-.9.2-1.4.2z" fill="#000101"/><path fill-rule="evenodd" clip-rule="evenodd" d="M11.5 10.2c0-.1 0-.1 0 0z" fill="#fff"/><path fill-rule="evenodd" clip-rule="evenodd" d="M12 10.2h-.2s-.1 0-.1-.1h.5s0 .1-.1.1H12z" fill="#9E1C29"/><path fill-rule="evenodd" clip-rule="evenodd" d="M11.8 10.1c0 .1 0 .1 0 0l.3.1h-.3v-.1zm.4.1h-.3s-.1 0-.1-.1c0 0 0-.1.1-.1h.3v.2z" fill="#000101"/><path fill-rule="evenodd" clip-rule="evenodd" d="M11.2 10.3H11v-.1h.3v.1h-.1z" fill="#408F6E"/><path fill-rule="evenodd" clip-rule="evenodd" d="M11 10.2s0 .1 0 0h.3-.3zm.1.1c-.1 0-.1 0 0 0v-.1h.2s.1 0 .1.1l-.1.1-.2-.1z" fill="#000101"/><path fill-rule="evenodd" clip-rule="evenodd" d="M10.7 10.3c0-.1 0-.1 0 0 .1-.1.1 0 .1 0h-.1z" fill="#fff"/><path fill-rule="evenodd" clip-rule="evenodd" d="M10.4 10.4v-.1h.2l-.1.1h-.1z" fill="#9E1C29"/><path fill-rule="evenodd" clip-rule="evenodd" d="M10.5 10.4h-.1v-.1h.2l-.1.1z" fill="#000101"/><path fill-rule="evenodd" clip-rule="evenodd" d="M12.8 10.3h.2v-.1h-.3v.1h.1z" fill="#408F6E"/><path fill-rule="evenodd" clip-rule="evenodd" d="M12.7 10.1s-.1.1 0 0l.2.1-.2-.1zm.2.2h-.2l-.1-.1s0-.1.1-.1h.2v.2c.1 0 0 0 0 0z" fill="#000101"/><path fill-rule="evenodd" clip-rule="evenodd" d="M12.3 10.2c0-.1.1-.1 0 0 .1 0 0 0 0 0zm.9.1c0-.1 0-.1 0 0 .1-.1.1 0 .1 0h-.1z" fill="#fff"/><path fill-rule="evenodd" clip-rule="evenodd" d="M13.6 10.4v-.1h-.2l.1.1h.1z" fill="#9E1C29"/><path fill-rule="evenodd" clip-rule="evenodd" d="M13.5 10.4l-.1-.1h.2l-.1.1zm-3 .2c.4-.1.9-.2 1.5-.2.5 0 1.1.1 1.5.2-.4-.1-.9-.2-1.5-.2s-1.1.1-1.5.2z" fill="#000101"/><path fill-rule="evenodd" clip-rule="evenodd" d="M10.8 9.1L11 9c-.1-.1-.2-.2-.2-.3 0-.2.3-.4.6-.4.2 0 .3 0 .4.1v-.1c-.1-.1-.3-.1-.4-.1-.4 0-.7.2-.7.5 0 .1 0 .2.1.4z" fill="#C4B130"/><path fill-rule="evenodd" clip-rule="evenodd" d="M11.4 8.2c-.4 0-.7.2-.7.5 0 .2.1.3.2.4l-.1.1h.1L11 9c-.1-.1-.2-.2-.2-.3 0-.3.2-.5.6-.5.2.1.3.1.4.2v-.1c-.1-.1-.3-.1-.4-.1zm-.5 1V9c-.1-.1-.2-.2-.2-.3 0-.3.3-.5.7-.5.2 0 .3 0 .4.1v.1c-.1-.1-.3-.1-.4-.1-.3 0-.6.2-.6.4s.1.3.2.4l-.1.1z" fill="#000101"/><path fill-rule="evenodd" clip-rule="evenodd" d="M10.8 9.1c-.1-.1-.2-.2-.2-.4s.1-.3.3-.4c-.1.1-.2.2-.2.3 0 .2 0 .3.1.5z" fill="#C4B130"/><path fill-rule="evenodd" clip-rule="evenodd" d="M10.8 8.3c-.2.1-.3.3-.3.4 0 .1.1.3.2.4V9c-.1-.1-.2-.2-.2-.3.2-.2.2-.3.3-.4zm0 .8c-.1-.1-.2-.2-.2-.4s.1-.3.3-.4c-.1.1-.1.2-.2.3 0 .2.1.3.2.4l-.1.1z" fill="#000101"/><path fill-rule="evenodd" clip-rule="evenodd" d="M9.7 9.3c-.1-.1-.1-.2-.1-.3v-.2c.1-.2.4-.4.8-.4h.3l-.1.1h-.2c-.4 0-.6.1-.7.3V9c0 .1.1.2.1.3l-.1.2-.1-.1.1-.1z" fill="#C4B130"/><path fill-rule="evenodd" clip-rule="evenodd" d="M10.4 8.4c-.4 0-.7.1-.8.4V9c0 .1 0 .2.1.3l-.1.2h.1l.1-.2c-.1-.1-.1-.2-.1-.3v-.2c0-.2.4-.3.7-.4.1.1.2.1.2.1v-.1h-.2zm-.8 1.1v-.2c-.1-.1-.1-.2-.1-.3v-.2c.1-.2.4-.4.8-.4h.3v.1h-.3c-.3 0-.6.1-.7.3V9c0 .1 0 .2.1.3l-.1.2z" fill="#000101"/><path fill-rule="evenodd" clip-rule="evenodd" d="M9.8 8.6c-.1.1-.2.1-.2.2V9c0 .1 0 .2.1.3l-.1.1c-.1-.1-.1-.2-.1-.3 0-.2.1-.4.3-.5z" fill="#C4B130"/><path fill-rule="evenodd" clip-rule="evenodd" d="M9.6 8.7c-.1.1-.1.2-.1.4 0 .1 0 .2.1.3l.1-.1c-.1-.1-.1-.2-.1-.3-.1-.1-.1-.2 0-.3 0 .1 0 0 0 0zm0 .7c-.1-.1-.1-.2-.1-.3 0-.2.1-.4.3-.5-.1.1-.2.1-.2.2V9c0 .1 0 .2.1.3l-.1.1z" fill="#000101"/><path fill-rule="evenodd" clip-rule="evenodd" d="M12 8.1c.1 0 .2.1.2.1v.2c0 .2 0 .3.1.4L12 9l-.3-.2c0-.1.1-.2.1-.4v-.2s.1-.1.2-.1z" fill="#C4B130"/><path fill-rule="evenodd" clip-rule="evenodd" d="M12 8.1c-.1 0-.2.1-.2.1v.3c0 .2 0 .3-.1.4l.3.2.3-.2c0-.1-.1-.2-.1-.4v-.3c-.1 0-.1-.1-.2-.1zm0 1.1l-.3-.3c0-.1.1-.3.1-.4v-.3c0-.2.3-.2.4 0v.3c0 .2 0 .3.1.4l-.3.3z" fill="#000101"/><path fill-rule="evenodd" clip-rule="evenodd" d="M12 8.2s.1 0 0 0c.1.1.1.2.1.3 0 .2 0 .3.1.4l-.2.2-.2-.2c0-.1.1-.2.1-.4 0-.1 0-.2.1-.3-.1 0-.1 0 0 0z" fill="#C4B130"/><path fill-rule="evenodd" clip-rule="evenodd" d="M12 8.2c-.1 0-.1 0 0 0-.1.1-.1.2-.1.3v.1c0 .2 0 .3-.1.4l.2.1.2-.2c0-.1-.1-.2-.1-.4v-.1s0-.1-.1-.2c.1 0 0 0 0 0zm0 .9l-.2-.2c0-.1.1-.2.1-.4v-.3c0-.1.2-.1.2 0v.3c0 .2 0 .3.1.4l-.2.2z" fill="#000101"/><path fill-rule="evenodd" clip-rule="evenodd" d="M13.2 9.1L13 9c.1-.1.2-.2.2-.3 0-.2-.3-.4-.6-.4-.2 0-.3 0-.4.1v-.1c.1-.1.3-.1.4-.1.4 0 .7.2.7.5 0 .1-.1.2-.1.4z" fill="#C4B130"/><path fill-rule="evenodd" clip-rule="evenodd" d="M12.6 8.2c.3 0 .6.2.6.4s-.1.3-.2.4l.1.1h.1l-.1-.1c.1-.1.2-.2.2-.3 0-.3-.3-.5-.7-.5-.2-.1-.3 0-.4 0v.1c.1 0 .2-.1.4-.1zm.5 1L13 9c.1-.1.2-.2.2-.3 0-.3-.3-.4-.6-.4-.2 0-.3 0-.4.1v-.1c.1-.1.3-.1.4-.1.4 0 .7.2.7.5 0 .2-.1.3-.2.4v.1z" fill="#000101"/><path fill-rule="evenodd" clip-rule="evenodd" d="M13.2 9.1c.1-.1.2-.2.2-.4s-.1-.3-.3-.4c.1.1.2.2.2.3 0 .2-.1.3-.1.5z" fill="#C4B130"/><path fill-rule="evenodd" clip-rule="evenodd" d="M13.1 8.3c.1.1.2.2.2.3 0 .2-.1.3-.2.4v.1c.1-.1.2-.2.2-.4.1-.1 0-.3-.2-.4zm.1.8l-.1-.1c.1-.1.2-.2.2-.3 0-.2-.1-.3-.2-.3.2.1.3.2.3.4 0 .1-.1.2-.2.3z" fill="#000101"/><path fill-rule="evenodd" clip-rule="evenodd" d="M14.3 9.3c.1-.1.1-.2.1-.3v-.2c-.1-.2-.4-.4-.8-.4h-.3l.1.1h.2c.4 0 .6.1.7.3V9c0 .1-.1.2-.1.3l.1.2.1-.1-.1-.1z" fill="#C4B130"/><path fill-rule="evenodd" clip-rule="evenodd" d="M13.6 8.5c.4 0 .7.1.7.3V9c0 .1 0 .2-.1.3l.1.2h.1l-.1-.1c.1-.1.1-.2.1-.3v-.2c-.1-.3-.5-.5-.8-.4-.1-.1-.2 0-.3 0l.1.1c0-.1.1-.1.2-.1zm.7 1l-.1-.2c.1-.1.1-.2.1-.3v-.2c-.1-.2-.4-.3-.7-.3h-.2s0-.1-.1-.1h.3c.4 0 .7.2.8.4V9c0 .1 0 .2-.1.3v.2z" fill="#000101"/><path fill-rule="evenodd" clip-rule="evenodd" d="M14.2 8.6c.1.1.2.1.2.2V9c0 .1 0 .2-.1.3l.1.1c.1-.1.1-.2.1-.3 0-.2-.1-.4-.3-.5z" fill="#C4B130"/><path fill-rule="evenodd" clip-rule="evenodd" d="M14.4 8.8c0 .1.1.2.1.2 0 .1 0 .2-.1.3l.1.1c.1-.1.1-.2.1-.3-.1-.1-.1-.3-.2-.3zm0 .6l-.1-.1c.1-.1.1-.2.1-.3v-.2c0-.1-.1-.2-.2-.2 0 0 .1 0 .1.1.1.1.2.3.2.4 0 .1 0 .2-.1.3z" fill="#000101"/><path fill-rule="evenodd" clip-rule="evenodd" d="M11.9 9c0-.1 0-.1 0 0 .1-.1.2 0 .2 0s-.1.1-.2 0c0 .1 0 0 0 0z" fill="#fff"/><path fill-rule="evenodd" clip-rule="evenodd" d="M12 8.9c-.1 0-.1 0 0 0-.1.2.1.2 0 0 .1 0 0 0 0 0zm0 .2c-.1 0-.1 0-.1-.1s.2-.1.2 0l-.1.1z" fill="#000101"/><path fill-rule="evenodd" clip-rule="evenodd" d="M11.9 8.8s0-.1 0 0c.1-.1.2 0 .2 0 0 .1-.1.1-.2 0 0 .1 0 .1 0 0z" fill="#fff"/><path fill-rule="evenodd" clip-rule="evenodd" d="M12 8.7c-.1 0-.1.1 0 0-.1.2.1.2 0 0 .1.1 0 0 0 0zm0 .2c-.1 0-.1 0-.1-.1s.2-.1.2 0-.1.1-.1.1z" fill="#000101"/><path fill-rule="evenodd" clip-rule="evenodd" d="M11.9 8.6c.1-.1.1 0 .1 0 .1.1 0 .1-.1 0 0 .1 0 .1 0 0z" fill="#fff"/><path fill-rule="evenodd" clip-rule="evenodd" d="M12 8.7c-.1 0-.1 0 0 0-.1-.2.1-.2 0 0 .1 0 0 0 0 0z" fill="#000101"/><path fill-rule="evenodd" clip-rule="evenodd" d="M11.9 8.5c0-.1.1-.1 0 0 .1 0 0 0 0 0zm0-.2s.1 0 0 0c.1 0 .1 0 0 0 .1 0 .1.1 0 0 .1.1 0 0 0 0z" fill="#fff"/><path fill-rule="evenodd" clip-rule="evenodd" d="M12 9.5s0 .1 0 0c0 .2.2.3.3.3.1 0 .2-.1.2-.2v-.1.1c0 .1.1.2.2.2s.2-.1.2-.2l.1-.1v.2c0 .1.1.2.2.2s.1 0 .2-.1v-.1.1c0 .1 0 .1.1.2 0 0 .1 0 .2-.1l.2-.2v.1l-.2.2c-.1 0-.1.1-.2.1s-.1-.1-.1-.1h-.2c-.1 0-.3-.1-.3-.2-.1.1-.2.1-.3.1-.1 0-.2 0-.3-.1-.1.1-.1.1-.2.1s-.2-.1-.3-.1c-.1.1-.2.1-.3.1-.1 0-.2 0-.2-.1-.1.1-.2.1-.3.1-.1 0-.2 0-.3-.1 0 .1-.2.2-.3.2h-.2c0 .1-.1.1-.1.1-.1 0-.2 0-.2-.1l-.2-.2v-.1l.2.2c.1.1.2.1.2.1.1 0 .1-.1.1-.2v-.1.1c0 .1.1.1.2.1s.2-.1.2-.2v-.2l.1.1c0 .1.1.2.2.2s.2-.1.2-.2v-.1.1c0 .1.1.2.2.2.5 0 .6-.1.7-.3-.1.1-.1 0 0 0z" fill="#C4B130"/><path fill-rule="evenodd" clip-rule="evenodd" d="M13.7 10.1c-.1 0-.2-.1-.2-.1-.1.1-.4 0-.5-.1-.1.2-.4.1-.5 0-.1.1-.4.1-.5-.1-.1.2-.4.2-.5.1-.1.2-.4.2-.5 0-.1.2-.3.2-.5.1 0 .1-.1.1-.1.1-.1 0-.2 0-.2-.1l-.2-.2v-.1l.2.2c.1.1.2.1.2.1.1 0 .1-.1.1-.1v-.1l.1.1c.1.2.4.1.4-.1v-.2l.1.1c0 .2.1.2.2.2s.2-.1.2-.2v-.1.1c.1.3.5.2.5 0v-.1h.2v.1c0 .1.1.2.2.2s.2-.1.2-.1v-.1.1c0 .1.1.2.2.2s.2-.1.2-.2c0 .2-.1.3-.2.3s-.2-.1-.2-.2v-.1c-.1.3-.5.2-.5 0v-.1H12v.1c0 .1-.1.2-.2.2s-.2-.1-.2-.2v-.1c0 .1-.1.2-.2.2s-.2-.1-.2-.2l-.1-.1v.2c0 .2-.3.3-.4.1v-.1.1c0 .1 0 .2-.1.2 0 0-.1 0-.2-.1l-.2-.2v.1l.2.2s.1.1.2.1.1-.1.2-.1c.2.1.4 0 .5-.1.2.1.4.1.5 0 .2.1.4.1.5-.1.1.2.4.2.5.1.1.1.4.2.5 0 .1.2.3.2.5.1h-.1c.1 0 .1-.1.2-.1l.2-.2v-.1l-.2.2c-.1.1-.2.1-.2.1-.1 0-.1-.1-.1-.2v-.1.1c0 .1-.1.1-.2.1s-.2-.1-.2-.2v-.2l-.1.1.1-.1.1.1v.1c0 .2.3.3.4.1v-.1.1c0 .1 0 .1.1.1 0 0 .1 0 .2-.1l.2-.2v.1s-.1.2-.2.2c-.2.2-.2.2-.3.2z" fill="#000101"/><path fill-rule="evenodd" clip-rule="evenodd" d="M13.6 9.8s0-.1 0 0c-.1-.1-.1-.1-.1 0 0 0 0 .1.1 0 0 .1 0 .1 0 0z" fill="#fff"/><path fill-rule="evenodd" clip-rule="evenodd" d="M13.6 9.9c-.1 0-.1-.1 0-.1 0 0 0-.1.1-.1 0 .1 0 .1-.1.2z" fill="#000101"/><path fill-rule="evenodd" clip-rule="evenodd" d="M12.6 9.6s0-.1 0 0c-.1-.1-.1-.1-.1 0 0 0 0 .1.1 0 0 .1 0 .1 0 0z" fill="#fff"/><path fill-rule="evenodd" clip-rule="evenodd" d="M12.5 9.7s0-.1 0 0c-.1-.1 0-.2 0-.2.1 0 .1.1 0 .2.1 0 .1 0 0 0z" fill="#000101"/><path fill-rule="evenodd" clip-rule="evenodd" d="M11.4 9.6s0-.1 0 0c.1-.1.1-.1.1 0 0 0 0 .1-.1 0 0 .1 0 .1 0 0z" fill="#fff"/><path fill-rule="evenodd" clip-rule="evenodd" d="M11.4 9.7c-.1-.1-.1-.2 0-.2s.1.1 0 .2c.1-.1.1 0 0 0z" fill="#000101"/><path fill-rule="evenodd" clip-rule="evenodd" d="M10.3 9.8s0-.1 0 0c.1-.1.1-.1.1 0 .1 0 .1.1-.1 0 .1.1.1.1 0 0z" fill="#fff"/><path fill-rule="evenodd" clip-rule="evenodd" d="M10.8 9.1c.1 0 .1.1.1.1h.1v.3h-.2l-.1-.1s0-.1-.1-.1v-.1h.1s.1 0 .1-.1z" fill="#C4B130"/><path fill-rule="evenodd" clip-rule="evenodd" d="M10.7 9.3c0 .1 0 .1.1.2v.1h.2v-.3c0-.1-.1-.1-.1-.1-.1 0-.1 0-.2.1zm.1.2c-.1-.1-.1-.1-.1-.2v-.1h.1V9c.1 0 .1.1.1.2 0-.1.1-.1.1-.1v.3c-.1.1-.1.1-.2.1z" fill="#000101"/><path fill-rule="evenodd" clip-rule="evenodd" d="M10.8 9.6v-.1h-.3c-.1 0-.1.1-.1.1s.1.1.2 0c.1.1.1.1.2 0z" fill="#C4B130"/><path fill-rule="evenodd" clip-rule="evenodd" d="M10.6 9.8c-.1-.1-.1-.1-.2-.1 0-.1.1-.1.1-.1-.1 0-.1 0-.1.1.1-.1.1 0 .2.1.1 0 .1-.1.2-.1l.1-.1v-.1h-.3.3v.1l-.1.1c-.1 0-.1 0-.2.1z" fill="#000101"/><path fill-rule="evenodd" clip-rule="evenodd" d="M11 9.6v-.1l.1-.1h.4l-.1.1h-.1c-.2.1-.2.1-.3.1z" fill="#C4B130"/><path fill-rule="evenodd" clip-rule="evenodd" d="M11.2 9.6c0-.1.1-.1.1-.2h-.1c.1 0 .1 0 .2.1-.1 0-.2.1-.2.1zm0 0h-.3v-.1l.1-.1h.2v.1h-.1l-.1.1v.1h.1c0-.1 0-.1.1-.1z" fill="#000101"/><path fill-rule="evenodd" clip-rule="evenodd" d="M10.8 9.5c0-.1 0-.1.1-.1s.1 0 .1.1 0 .1-.1.1-.1 0-.1-.1z" fill="#9E1C29"/><path fill-rule="evenodd" clip-rule="evenodd" d="M10.9 9.5c-.1 0-.1 0 0 0-.1.1.1.1 0 0 .1 0 0 0 0 0zm0 .2c-.1 0-.1 0-.1-.1s.2-.1.2 0l-.1.1z" fill="#000101"/><path fill-rule="evenodd" clip-rule="evenodd" d="M12 9s.1.1.1.2h.1v.3H12l-.1-.1v-.2h.1c-.1-.1-.1-.2 0-.2z" fill="#C4B130"/><path fill-rule="evenodd" clip-rule="evenodd" d="M12.1 9.1c0-.1-.1-.1-.1-.2 0 0-.1.1-.1.2h-.1c0-.1 0-.1.1-.2l.2.2zm0 .3c0-.1-.1 0-.2 0l-.1-.1v-.2.3c.1-.1.2-.1.3 0v-.3.1c.1 0 0 .1 0 .2z" fill="#000101"/><path fill-rule="evenodd" clip-rule="evenodd" d="M11.9 9.5v-.1l-.1-.1h-.2c-.1 0-.1 0-.2.1 0 0 .1.1.2.1h.1c0 .1.1.1.2 0z" fill="#C4B130"/><path fill-rule="evenodd" clip-rule="evenodd" d="M11.6 9.6c0-.1-.1-.1-.2-.2 0-.1.1-.1.2-.1-.1 0-.1 0-.2.1 0 0 .1.1.2.1v.1c.1 0 .2-.1.2-.1l.1-.1v-.2h-.3.2l.1.1v.2l-.1.1h-.2z" fill="#000101"/><path fill-rule="evenodd" clip-rule="evenodd" d="M12.1 9.5v-.1l.1-.1h.2c.1 0 .1 0 .2.1 0 0-.1.1-.2.1h-.1c0 .1-.1.1-.2 0z" fill="#C4B130"/><path fill-rule="evenodd" clip-rule="evenodd" d="M12.3 9.6h-.2l-.1-.1v-.2l.1-.1h.2v.1c.1 0 .1 0 .2.1 0 .1-.1.1-.2.2 0-.1.1-.1.2-.2 0 0-.1-.1-.2-.1v-.1h-.1l-.1.1v.2h.1c0 .1.1.1.1.1z" fill="#000101"/><path fill-rule="evenodd" clip-rule="evenodd" d="M13.2 9.1c-.1 0-.1.1-.1.1H13v.3h.2l.1-.1s0-.1.1-.1v-.1h-.1c-.1 0-.1 0-.1-.1z" fill="#C4B130"/><path fill-rule="evenodd" clip-rule="evenodd" d="M13.2 9.5s-.1 0 0 0h-.1v-.3h.1c0-.1 0-.1.1-.2.1.1.1.1.1.2 0-.1 0-.1-.1-.2l-.1.1v.2c-.1.2-.1.1 0 .2-.1 0 0 0 0 0 .1-.1.1-.1.1-.2 0 .1 0 .1-.1.2z" fill="#000101"/><path fill-rule="evenodd" clip-rule="evenodd" d="M13.2 9.6v-.1h.3c.1 0 .1.1.1.1s-.1.1-.2 0h-.1c0 .1 0 .1-.1 0z" fill="#C4B130"/><path fill-rule="evenodd" clip-rule="evenodd" d="M13.2 9.6c.1.1.2.1.2.1h.2l-.1-.1h-.2c-.1-.1-.1-.1-.1 0zm.2.1c-.1 0-.1 0-.2-.1l-.1-.1v-.2h.3v.1c.1 0 .1.1.2.1-.1.2-.1.2-.2.2z" fill="#000101"/><path fill-rule="evenodd" clip-rule="evenodd" d="M13 9.6v-.1l-.1-.1h-.4l.1.1h.1c.1.1.2.1.3.1z" fill="#C4B130"/><path fill-rule="evenodd" clip-rule="evenodd" d="M12.7 9.6c0-.1-.1-.1-.1-.2 0 0 .1-.1.2-.1v.1h-.2c.1.1.1.2.1.2h.3v-.2h-.2.2l.1.1v.2H13c-.1-.1-.1-.1-.3-.1z" fill="#000101"/><path fill-rule="evenodd" clip-rule="evenodd" d="M13 9.5c0-.1 0-.1.1-.1s.1 0 .1.1 0 .1-.1.1-.1 0-.1-.1z" fill="#9E1C29"/><path fill-rule="evenodd" clip-rule="evenodd" d="M13.1 9.5c-.1 0-.1 0 0 0-.1.1.1.1 0 0 .1 0 .1 0 0 0zm0 .2c-.1 0-.1 0-.1-.1s.2-.1.2 0c0 0 0 .1-.1.1z" fill="#000101"/><path fill-rule="evenodd" clip-rule="evenodd" d="M14.2 9.8h-.1v.1h.1v-.1z" fill="#9E1C29"/><path fill-rule="evenodd" clip-rule="evenodd" d="M14.1 9.9c-.1-.1 0-.1 0-.1h.1s0 .1-.1.1z" fill="#000101"/><path fill-rule="evenodd" clip-rule="evenodd" d="M14 9.8c.1-.1.1-.1.2-.1l.1-.1h.2c0-.1-.1-.1-.1-.1s-.1 0-.1.1v-.1s-.1 0-.1.1c-.1 0-.1.2-.2.2.1-.1.1-.1 0-.2l-.1-.1h-.3l.1.1h.1c0 .2.1.2.2.2z" fill="#C4B130"/><path fill-rule="evenodd" clip-rule="evenodd" d="M14.1 9.7c.1 0 .1-.1.2-.1h.1c0-.1-.2-.2-.2-.1v-.1s-.1 0-.1.1v.2zm-.3-.1h-.2l.1.1v.1h.2v-.1c.1 0 .1-.1-.1-.1.1 0 .1 0 0 0 .1 0 0 0 0 0zm.1.3h-.2l.1-.1c-.1 0-.1 0-.1-.1h.2v-.1h.1s.1 0 .1.1v-.1c0-.1.1-.1.1-.1v.1l.1-.1c.1 0 .2.1.2.2h-.2c-.1 0-.1.1-.1.1H14l-.1.1z" fill="#000101"/><path fill-rule="evenodd" clip-rule="evenodd" d="M10 9.8c-.1 0-.1 0 0 0l-.1-.1-.1-.1h-.2c0-.1.1-.1.1-.1s.1 0 .1.1v-.1s.1 0 .1.1c0 0 0 .2.1.2-.1-.1-.1-.1 0-.2l.1-.1h.3l-.1.1h-.1c-.1.2-.1.2-.2.2z" fill="#C4B130"/><path fill-rule="evenodd" clip-rule="evenodd" d="M10.2 9.8c0-.1.1-.1.1-.2h-.1.2c-.1.1-.2.1-.2.2zm-.1.1H10v-.1h-.2l-.1-.1h-.1.1c.1 0 .1.1.1.1h.1v-.2c0-.1-.1-.1-.1-.1-.1-.1-.2-.1-.3 0 0-.1.2-.1.3 0 0 0 .1 0 .1.1v.1l.1-.1s-.1 0-.1.1v.1s.1 0 .2.1c-.1-.1-.1-.1 0 0h.1c-.1-.1-.1 0-.1 0z" fill="#000101"/><path fill-rule="evenodd" clip-rule="evenodd" d="M9.8 9.8h.1v.1h-.1v-.1z" fill="#9E1C29"/><path fill-rule="evenodd" clip-rule="evenodd" d="M9.9 9.9s-.1 0 0 0l-.1-.1c.1-.1.1-.1.1 0 .1 0 .1 0 0 .1z" fill="#000101"/><path fill-rule="evenodd" clip-rule="evenodd" d="M11.9 9.4c0-.1 0-.1.1-.1s.1 0 .1.1 0 .1-.1.1c-.1.1-.1 0-.1-.1z" fill="#9E1C29"/><path fill-rule="evenodd" clip-rule="evenodd" d="M12 9.4c-.1 0-.1 0 0 0-.1.1.1.2 0 0 .1 0 0 0 0 0zm0 .2c-.1 0-.1 0-.1-.1s.2-.1.2 0c0 0 0 .1-.1.1z" fill="#000101"/><path fill-rule="evenodd" clip-rule="evenodd" d="M11.8 7.9c0-.1.1-.2.2-.2s.2.1.2.2-.1.2-.2.2-.2-.1-.2-.2z" fill="#3D5BA9"/><path fill-rule="evenodd" clip-rule="evenodd" d="M12 7.7c-.1 0-.2.1-.2.2s.1.2.2.2.2-.1.2-.2-.1-.2-.2-.2zm0 .4c-.1 0-.2-.1-.2-.2s.1-.2.2-.2.2.1.2.2-.1.2-.2.2z" fill="#000101"/><path fill-rule="evenodd" clip-rule="evenodd" d="M11.9 7.4v.1h-.1v.1h.1V8h-.1v.1h.4V8H12v-.4h.1v-.1H12v-.1h-.1z" fill="#C4B130"/><path fill-rule="evenodd" clip-rule="evenodd" d="M12.2 8h-.4v-.1.1h.4l-.1-.1v-.3h.1v-.1h-.1v-.1H12v.1h-.1v.1h.1v.3-.3h-.1v-.1h.1v-.1h.1v.1h.1v.1h-.1v.3h.1V8z" fill="#000101"/><path fill-rule="evenodd" clip-rule="evenodd" d="M12 16.5c-.6 0-1.3-.2-1.8-.4-.4-.2-.6-.6-.6-1v-1.6h4.9v1.6c0 .4-.3.8-.6 1-.6.3-1.3.4-1.9.4z" fill="#CBCACA"/><path fill-rule="evenodd" clip-rule="evenodd" d="M14.4 13.5H9.5v1.6c0 .4.2.8.6 1 1.1.5 2.5.5 3.6 0 .4-.2.6-.6.6-1v-1.6h.1zM12 16.6c-.6 0-1.3-.1-1.8-.4-.4-.2-.7-.6-.7-1v-1.6h4.9v1.6c0 .4-.2.8-.7 1-.5.2-1.1.4-1.7.4z" fill="#000101"/><path fill-rule="evenodd" clip-rule="evenodd" d="M12 13.5h2.4v-2.7H12v2.7z" fill="#CBCACA"/><path fill-rule="evenodd" clip-rule="evenodd" d="M14.4 10.8H12v2.7h2.4v-2.7zm.1 2.7H12v-2.7h2.5v2.7z" fill="#000101"/><path fill-rule="evenodd" clip-rule="evenodd" d="M12 15.1c0 .6-.5 1.2-1.2 1.2s-1.2-.5-1.2-1.2v-1.6H12v1.6z" fill="#9E1C29"/><path fill-rule="evenodd" clip-rule="evenodd" d="M10.1 16c.1 0 .2.1.3.1v-2.8h-.3V16z" fill="#C4B130"/><path fill-rule="evenodd" clip-rule="evenodd" d="M10.4 13.4h-.3V16c.1 0 .1.1.2.1l.1-2.7zm0 2.8c-.1 0-.2-.1-.3-.1v-2.6h.3v2.7z" fill="#000101"/><path fill-rule="evenodd" clip-rule="evenodd" d="M9.6 15.1c0 .3.1.6.3.8v-2.4h-.3v1.6z" fill="#C4B130"/><path fill-rule="evenodd" clip-rule="evenodd" d="M9.8 13.4h-.3V15c0 .3.1.6.3.7v-2.3zm0 2.4c-.1-.2-.3-.4-.3-.8v-1.6h.3v2.4z" fill="#000101"/><path fill-rule="evenodd" clip-rule="evenodd" d="M10.6 16.2h.3v-2.8h-.3v2.8z" fill="#C0B531"/><path fill-rule="evenodd" clip-rule="evenodd" d="M10.9 13.4h-.3v2.8h.2l.1-2.8zm-.1 2.9h-.1v-2.8h.3v2.8h-.2z" fill="#000101"/><path fill-rule="evenodd" clip-rule="evenodd" d="M11.2 16.2c.1 0 .2-.1.3-.1v-2.6h-.3v2.7z" fill="#C4B130"/><path fill-rule="evenodd" clip-rule="evenodd" d="M11.5 13.4h-.3v2.7c.1 0 .2-.1.3-.1v-2.6zm-.3 2.8v-2.8h.3v2.7c-.1 0-.2.1-.3.1z" fill="#000101"/><path fill-rule="evenodd" clip-rule="evenodd" d="M9.6 13.5H12v-2.7H9.6v2.7z" fill="#9E1C29"/><path fill-rule="evenodd" clip-rule="evenodd" d="M12 10.8H9.6v2.7H12v-2.7zm0 2.7H9.6v-2.7h2.5l-.1 2.7z" fill="#000101"/><path fill-rule="evenodd" clip-rule="evenodd" d="M11.7 15.8c.1-.1.2-.3.3-.6v-1.8h-.3v2.4z" fill="#C4B130"/><path fill-rule="evenodd" clip-rule="evenodd" d="M12 13.4h-.3v2.4c.1-.1.2-.4.2-.6l.1-1.8zm-.3 2.4v-2.4h.3v1.8c0 .3-.1.5-.3.6z" fill="#000101"/><path fill-rule="evenodd" clip-rule="evenodd" d="M12 13.5H9.6v1.6c0 .6.5 1.1 1.2 1.1s1.2-.5 1.2-1.1v-1.6zm-1.2 2.8c-.7 0-1.2-.5-1.2-1.2v-1.6h2.5v1.6c-.1.6-.6 1.2-1.3 1.2z" fill="#000101"/><path fill-rule="evenodd" clip-rule="evenodd" d="M14.4 13.5v1.6c0 .6-.6 1.2-1.2 1.2s-1.2-.6-1.2-1.2v-1.6h2.4z" fill="#9E1C29"/><path fill-rule="evenodd" clip-rule="evenodd" d="M14.4 13.5H12v1.6c0 .6.5 1.1 1.2 1.1s1.2-.5 1.2-1.1v-1.6zm-1.2 2.8c-.7 0-1.2-.5-1.2-1.2v-1.6h2.5v1.6c0 .6-.6 1.2-1.3 1.2z" fill="#000101"/><path fill-rule="evenodd" clip-rule="evenodd" d="M13.2 15.5l-.1-.2h.1v.2zm.1 0l.1-.2h-.1v.2zm-.1.4c0-.1 0-.1 0 0 .1-.1.1 0 .1 0h-.1zm.5-1.1l-.3.1v-.1h.3zm-1 0l.3.1v-.1h-.3zm1 .4l-.1-.2h-.1l.2.2zm-.1.1l-.2-.1v-.1l.2.2zm.1.4c-.1.1-.2.1-.2.1l.1.1s.1 0 .1-.2zm0 0c-.1.1-.2.1-.2.1v-.1s.1-.1.2 0zm.3-.7c-.1 0-.1.2-.1.1v.1h.1V15zm.1.2l.1-.2h-.1v.2zm-.2.3c0-.1 0-.1 0 0-.1 0-.1 0 0 0 0 .1 0 .1 0 0 .1 0 .1 0 0 0zm-.3.2c.1 0 .2 0 .2-.1h.1c.1 0 .1-.1 0-.2 0-.1.1-.2.1-.2 0 .1 0 .1-.1.2h-.1l-.2-.2-.1.1.2.2v.1c.1 0 0 .1-.1.1zm-.9-.5l.1-.2h.1l-.2.2zm.1.1l.2-.2V15l-.2.3zm-.1.4c.1.1.2.1.2.1l-.1.1s-.1 0-.1-.2zm0 0c.1.1.2.1.2.1v-.1s-.1-.1-.2 0zm-.3-.7c.1 0 .1.2.1.1v.1h-.1V15zm0 .2l-.1-.2h.1v.2zm.1.3c0-.1 0-.1 0 0 .1 0 .1 0 0 0 0 .1 0 .1 0 0 0 0-.1 0 0 0zm.3.2c-.1 0-.2 0-.2-.1h-.1c-.1 0-.1-.1 0-.2 0-.1-.1-.2-.1-.2h.1c0 .1 0 .1.1.2h.1l.2-.2.1.1-.2.2v.1c-.1 0-.1.1 0 .1zm.5.1c.1 0 .1 0 .2-.1v.1c0 .1-.1.1-.2 0 0 .1-.1.2-.1.2-.1 0-.1 0-.1-.1-.1 0-.2 0-.2-.1v-.1c.1 0 .1 0 .2.1 0 0 0-.1.1-.1v-.3h.1v.4zm.4-1.1l.2.1s0 .1.1.1v.2h.1v-.2c.1 0 .1-.1.1-.1h-.1s0 .1-.1.1c0 0-.1 0-.1-.1h-.2v-.1zm-.2 0l-.2.1.2.3-.1.1-.2-.3v.4h-.1v-.4l-.2.3-.1-.1.2-.3h-.2v-.1h.7zm-1.1 0c0 .1 0 .1 0 0-.1.1-.1.1-.1 0h-.1c0 .1 0 .1.1.1v.2h.1v-.2c.1 0 .1 0 0-.1l.3.1v-.1h-.3z" fill="#C4B130"/><path fill-rule="evenodd" clip-rule="evenodd" d="M13.3 14l.1.2h-.1V14zm-.1 0l-.1.2h.1V14zm.3-.2l.3-.1v.1h-.3zm0 .1l.3.1v-.1h-.3zm-.3-.1c.1-.1.1 0 .1 0s-.1.1-.1 0c0 .1 0 .1 0 0zm.8 0c.1-.1.1 0 .1 0s0 .1-.1 0c0 .1 0 .1 0 0zm-.3.9l-.3-.1v.1h.3zm-.7-.9l-.3-.1v.1h.3zm0 .1l-.3.1v-.1h.3zm-.7-.1s.1 0 0 0c.1-.1.1 0 .1 0s0 .1-.1 0c.1.1 0 .1 0 0zm.4.9l.3-.1v.1h-.3zm1-.5l-.1.2h-.1l.2-.2zm-.1 0l-.2.1v.1l.2-.2zm-.9 0l.1.2h.1l-.2-.2zm.1 0l.2.1v.1l-.2-.2zm1.3-.1l.1.2h-.1v-.2zm-.1 0l-.1.2h.1v-.2zm-1.6 0l.1.2h-.1v-.2zm0 0l-.1.2h.1v-.2zm.9-.2v.2h-.1l.1-.2c-.1 0-.2 0-.2-.1h-.2v-.1h.2c0-.1.1-.1.1-.1.1 0 .1 0 .1.1h.2v.1l-.2.1zm.8 0v.3H14l.1-.3H14l-.3.3h-.1l.3-.4h-.2v-.1h.2c0-.1.1-.1.1-.1.1 0 .1.1.1.1.1.2 0 .2 0 .2zm-1.7 0l.3.3h.1l-.4-.3c.1 0 .1 0 0 0l.3-.1v-.1h-.2c0-.1-.1-.1-.1-.1-.1 0-.1.1-.1.1 0 .2 0 .2.1.2l-.1.3h.1v-.3zm1.6.8h.2c-.1 0-.1-.1-.2 0l.1-.4H14v.4c-.1-.1-.1-.1 0 0h-.3.3zm-1.1 0h.2l-.3-.3.1-.1.2.3v-.4h.1v.4l.2-.3h.1l-.2.3h.2-.6v.1zm-.6 0s0-.1 0 0l.1-.4h.1v.3s.1 0 .1.1h.2-.5z" fill="#C4B130"/><path fill-rule="evenodd" clip-rule="evenodd" d="M12.4 14.2v-.3c-.1 0-.1-.1-.1-.1 0-.1.2-.2.3 0h.2v.1h-.1v-.1h-.2c-.1-.1-.3-.1-.3 0s0 .1.1.1l.1.3.1-.3-.1.3zm.4.1l-.2-.2.2.2-.3-.4.3.4zm.4.3v-.4h.1v.1-.1h-.1v.4zm.1 0l.2-.3h.1v.1-.1h-.1l-.2.3zm-.2.1l-.2-.3.1-.1.1.1-.1-.1-.1.1.2.3zm.4.1l-.2-.1.2.1zm-.4 0h-.2v-.1h.1-.1v.1h.2zm-.2.3V15v.1l.2-.3-.2.3zm.6 0l-.1-.1.1.1-.2-.3.2.3zm-.2.2l-.1-.2.1.2v-.4.4zm-.9-1l-.1.3c-.1 0-.1.1-.1.1 0 .1 0 .1.1.1v.2h.1v-.2s.1 0 .1-.1h.2v-.1h-.2s0-.1-.1-.1v-.2zm0 .7v.2h.1l-.1-.2zm-.1 0l-.1.2h.1V15zm.2.6s-.1 0 0 0c-.1 0-.1-.1-.1-.1v-.3h-.1V15h.1v-.1c-.1 0-.1-.1-.1-.1 0-.1 0-.1.1-.1v-.3h.1v.3s.1 0 .1.1h.2v.1h-.2s0 .1-.1.1v.1h.1v.2h-.1v.1-.2h-.1c0 .1 0 .1.1.2v.1c-.1 0-.1.1 0 .1zm.3.1s.1 0 .1.1h.1v-.1h-.2c-.1 0 0 0 0 0zm-.1 0c0 .1.1.1.2.2h.1c-.2-.1-.2-.1-.3-.2 0 .1 0 0 0 0zm.2.1h.2c0 .1.2.1.3 0 .1 0 .2 0 .2-.1v-.1c-.1 0-.1 0-.2.1 0 0 0-.1-.1-.1v-.3h-.1v.3s-.1 0-.1.1c-.1.1-.1.1-.2.1zm.3.2c-.1 0-.1 0-.1-.1h-.2l-.1.1c-.1 0-.1-.1-.2-.1v-.1l-.1-.1.1.1h.1v-.1h-.1l-.1-.1v-.1l.2-.2h-.1l-.2.2h-.1.1l.2-.2h.1l-.2.2v.1l.1.1.1-.1c.1 0 .1.1.2.1v.1h.1s0-.1.1-.1v-.3h.1v.3s.1 0 .1.1c.1 0 .1 0 .2-.1v.1c-.1 0-.1.1-.2.1 0 .1 0 .1-.1.1z" fill="#C4B130"/><path fill-rule="evenodd" clip-rule="evenodd" d="M13.1 13.9l.1.2h.1v-.2s.1 0 .1-.1h.2v-.1h-.2c-.1 0-.3 0-.3.2l-.2-.1v.1h.2zm.2.2l-.1-.2s-.1 0-.1-.1h-.2v-.1h.2c0-.1.2-.1.3 0h.2v.1h-.2s0 .1-.1.1v.2zm.7.1l.1-.3c.1 0 .1-.1.1-.1 0-.1-.2-.2-.2 0h-.2v.1h.2-.2v-.1h.2c0-.1.3-.1.3 0s0 .1-.1.1l-.2.3zm-.3.1v-.2.2l.3-.4-.3.4zm-1.3.1l-.1-.2h.1v.2zm0-.3v.2h.1l-.1-.2zm0 .3v-.3h.1l-.1.3zm.4.6l-.1.2v.1l.1-.3zm-.1.2l.1-.2h.1l-.2.2zm.3-.1l-.2.2h.1l.1-.2zm-.1.2l.1-.2-.1.2zm1-.5l.1.3h.1v-.2c.1 0 .1-.1.1-.1 0-.1 0-.1-.1-.1v-.3H14v.3c-.1-.1-.1 0-.1.1l-.2-.1v.1h.2zm.2.2v.2h.1l-.1-.2zm-.5.2l.2.3v.1c0 .1-.1.1-.2.1v.1h.1l.1-.1h.1v-.5h-.1v.1h-.1l-.1-.1zm0 .4c-.1 0-.1.1-.2.1v.1c.1 0 .2-.1.2-.2zm.1.2c-.1.1-.1.1-.2.1h.1s.1 0 .1-.1zm-.1.1c0-.1.1-.1.1-.2v-.1c-.1 0-.1.1-.2.1v-.1c.1 0 .1-.1.2-.1l.1.1.1-.1v-.1l-.2-.2.1-.1.2.2s0-.1.1-.1H14V15h.1v-.1s-.1 0-.1-.1h-.2v-.1h.2s0-.1.1-.1v-.2H14v-.2h.1v.2h.1v.3c.1 0 .1.1.1.1 0 .1 0 .1-.1.1v.1h.1v.2h-.1c0 .1 0 .1-.1.2v.2H14c-.1 0-.1.1-.2.1v.1c-.1.1-.2.1-.2.1z" fill="#C4B130"/><path fill-rule="evenodd" clip-rule="evenodd" d="M12.9 13.7h-.2v.1l.2-.1zm.1.1h-.3v-.1l.3.1zm.7-.1h-.2v.1l.2-.1zm.1.1h-.3v-.1l.3.1zm-.9.1h-.3v.1l.3-.1zm0 .1h-.2v-.1l.2.1zm.8-.1h-.3v.1l.3-.1zm0 .1h-.2v-.1l.2.1zm-.1.1l-.1.2v.1l.1-.3zm-.1.3l.1-.3h.1l-.2.3zm-.5 0l-.2-.2h.1l.1.2zm1.1-.3v.2h.1l-.1-.2zm0 .3v-.3h.1l-.1.3zm-.4-.2l-.2.2h.1l.1-.2zm-.1.3l.1-.2.1.1-.2.1zm-.8 0l-.2-.2v-.1l.2.3zm.1.1h-.2v.1l.2-.1zm.1.1h-.3v-.1l.3.1zm.7-.1h-.2v.1l.2-.1zm.1.1h-.3v-.1l.3.1zm-.9.1h-.3v.1l.3-.1zm0 .1h-.2v-.1l.2.1zm.8-.1h-.3v.1l.3-.1zm0 .1h-.2v-.1l.2.1zm0 .3l-.2-.2h.1l.1.2zm-.2.1l-.2-.2V15l.2.3zm-.3.2l-.1-.3h.1v.3zm.1-.3v.2h.1l-.1-.2zm-.1.3v-.3h.1l-.1.3zm0-1.2l-.1-.2h.1v.2zm0-.3v.2h.1l-.1-.2zm0 .3V14h.1l-.1.3z" fill="#C4B130"/><path fill-rule="evenodd" clip-rule="evenodd" d="M13.1 14.7c0-.1.1-.1.1-.1.1 0 .1.1.1.1 0 .1-.1.1-.1.1-.1.1-.1 0-.1-.1z" fill="#408F6E"/><path fill-rule="evenodd" clip-rule="evenodd" d="M13.2 11.4s-.1 0-.1-.1c0 0-.1 0-.1-.1l-.1-.1h-.1l.1.1.1.1c0 .1.1.1.2.1z" fill="#CB414D"/><path fill-rule="evenodd" clip-rule="evenodd" d="M13.1 11.4c.1 0 .1 0 0 0 .1 0 0 0 0 0-.1 0-.1-.1-.1-.1l-.1-.1h-.1l.1.1.1.1h.1zm.1 0h-.3s-.1 0-.1-.1l-.1-.1h.2c.1 0 .1.1.1.1.1.1.2.1.2.1z" fill="#000101"/><path fill-rule="evenodd" clip-rule="evenodd" d="M13.6 11.3s0 .1 0 0v.2l.1.1v.1h-.1v.1h-.1v.3s0 .1.1.2c0 .1.1.2.3.1.2 0 .1-.2.1-.3v-.9.2-.1l.1-.1v.1l-.1.1h.1l-.1.1c0 .1 0 .1-.1.1 0 0-.1 0-.1.1-.1 0 0 .2 0 .2s.1.2.1.3c0 .1 0 .2-.1.2s-.2 0-.2.1l-.1.1c0 .1 0 .1.1.1h.1s0 .1-.1.1v.3h.2V13v.1-.1.1-.3h-.2v.2h-.3v-.2h.1v.1h.2v-.3s0-.1.1-.1h.2s-.1-.1-.2-.1l-.1-.1v-.1h-.1v.1l-.1.1h-.2v.1h.3l.1-.1-.1-.1h-.4.1s0 .1.1.1v-.1h.1v.2s0 .1.1.1h.1l.1.1h.2s.1 0 .1-.1c0 0-.1 0-.1-.1h.2v-.1H14v-.1h.3s.1 0 .1.1l-.8-1.1z" fill="#DE6BA9"/><path fill-rule="evenodd" clip-rule="evenodd" d="M14 11.4l.1-.1v-.1.1l-.1.1c0-.1.1-.1 0 0 0-.1 0 0 0 0zm-1.4.3s0-.1 0 0l-.1-.1v-.1h.1l-.1-.1.1-.1v.1-.1h.2v.2s0 .1.1.1h.1c.1 0 .1.1.1.1h.2l-.1-.1h.2v-.1c-.1 0-.1 0-.1-.1v-.1h.3s.1 0 .1.1c.1 0 .1.1.1.1l-.1-.1c-.1 0-.1-.1-.1-.1h-.3c0 .1 0 .1.1.1s.1.1.1.1c0 .1-.1.1-.1.1h-.1s.1 0 .1.1c0 0 0 .1-.1.1h-.2c-.1 0-.1 0-.1-.1h-.1c-.1 0-.1-.1-.1-.1v-.1h-.1v.1h-.1l.1.1h-.1v.1h.1l-.1-.1c0-.1 0-.1 0 0zm0 .6l-.1-.1v-.1h.3-.3.1l-.1.1h.2l.1.1-.1.1h-.2v.1h.1v-.2c-.1-.1-.1-.1 0 0 0-.1 0-.1 0 0zm1.1 0c-.1 0-.2-.1-.2-.1-.1-.1-.1-.2-.1-.2v-.3h.1v-.2h.1v-.4.3h-.1v.1l.1.1v.1h-.1v.1h-.1v.2h-.1c0 .1 0 .2.1.2.2 0 .3.1.3.1.1 0 .1-.1.1-.1V11l.1.1c.1 0 .1-.1.1-.1l-.1.1-.1.1v-.1.1c0 .1 0 .1-.1.1v.9c.2.1.1.1 0 .1.1 0 .1 0 0 0zm-.6.3v-.1.1s-.1 0 0 0l-.1-.1v-.2s0-.1.1-.1h.2s-.1-.1-.2-.1L13 12v-.1.1l-.1.1V12h-.1v.1c0-.1 0-.1.1-.1h.1v.1h.1V12v.1h.2v.1l.1.1.2.1h-.2s-.1 0-.1.1v.2c-.3-.2-.3-.1-.2-.1v-.1.1zm.2.3h-.2.1c0-.1 0-.1.1 0 0-.1 0-.1 0 0v-.3h.2v.4s-.1 0-.1-.1v-.3h-.1v.3c0-.1 0-.1 0 0zm-.4 0l-.1-.1v-.2h.1l.1-.1v.1h.2v-.1c0 .1 0 .1-.1.1h-.2v.2h.1l-.1.1zm.7 0c.1-.1 0-.1 0-.1v-.1l.1.1s0 .1-.1.1zm.1.2l-.2-.1v-.1h-.1v-.1.1h.1l-.1.1.3.1.1-.1v-.2l-.1-.1v-.1c0-.1 0-.1.1-.2.1 0 .1 0 .2-.1s.1-.2.1-.2 0-.2-.1-.2v-.3c.1 0 .1 0 .1-.1s0-.1.1-.1l.1-.1-.1.1v.1l-.1.1c-.1.1-.1.2 0 .2v.1c0 .1.1.2.1.2 0 .1 0 .2-.1.2H14s-.1 0-.1.1v.1h.1v.2c-.3.3-.3.3-.3.4.1-.1.1-.1.1 0h-.1zm-.4-1.9c.1 0 .1.1 0 0 .1.1.1 0 0 0 .1 0 0 0 0 0z" fill="#000101"/><path fill-rule="evenodd" clip-rule="evenodd" d="M12.4 11.3h-.1.1c0 .1 0 .1 0 0 0 .1 0 .1 0 0zm0 .2c-.1 0-.1.1 0 0-.1.1-.1 0 0 0 0 0 0 .1 0 0 0 .1 0 0 0 0z" fill="#CB414D"/><path fill-rule="evenodd" clip-rule="evenodd" d="M12.3 11.6s0-.1 0 0c0-.1.1-.1.1-.1l-.1.1c.1-.1.1-.1 0 0 0-.1 0-.1 0 0zm.8-.1l.1-.1v.1h-.1zm0 .5c-.1 0 0 0 0 0l.1-.1v-.1h-.1v-.1l-.1.1v-.1h.1v-.1h-.2v-.1h.3v.3h.1v.6-.1c-.1-.3-.1-.3-.2-.3z" fill="#000101"/><path fill-rule="evenodd" clip-rule="evenodd" d="M12.5 12s0-.1 0 0h-.1.1zm0 .1s-.1 0 0 0c-.1.1-.1.1 0 0-.1.1-.1.1 0 0 0 .1 0 .1 0 0 0 .1 0 .1 0 0zm0 .1s0 .1 0 0c.1.1.1.1 0 0 .1.1.1.1 0 0 .1.1.1.1 0 0 .1.1.1 0 0 0 .1 0 0 0 0 0z" fill="#CB414D"/><path fill-rule="evenodd" clip-rule="evenodd" d="M13.4 12.5v-.1l-.1-.1.1.1c.1.1 0 .1 0 .1z" fill="#000101"/><path fill-rule="evenodd" clip-rule="evenodd" d="M12.8 12.7c-.1.1-.1.1 0 0-.1.1-.1.1 0 0 0 .1 0 .1 0 0 0 .1 0 .1 0 0 0 .1 0 0 0 0zm.1.2c0 .1 0 .1 0 0 0 .1 0 0 0 0s.1 0 0 0zm.6 0c-.1 0-.1.1-.1.1l.1-.1c0 .1 0 .1 0 0 0 .1 0 .1 0 0z" fill="#CB414D"/><path fill-rule="evenodd" clip-rule="evenodd" d="M13.4 13s0-.1.1-.1h.1l-.2.1c0-.1 0 0 0 0l.1-.1-.1.1z" fill="#000101"/><path fill-rule="evenodd" clip-rule="evenodd" d="M13.5 13.1v.1-.1c.1 0 .1 0 0 0 .1 0 .1 0 0 0 .1 0 0 0 0 0zm.2 0s0 .1 0 0c0 .1 0 .1 0 0 0 .1 0 .1 0 0 0 0 .1 0 0 0 .1 0 0 0 0 0z" fill="#CB414D"/><path fill-rule="evenodd" clip-rule="evenodd" d="M12.1 15.8c.1 0 .2.1.2.2s-.1.2-.3.2c-.1 0-.3-.1-.3-.2s0-.2.2-.2h.1s0-.1.1 0z" fill="#F6D491"/><path fill-rule="evenodd" clip-rule="evenodd" d="M12 16.2c-.2 0-.3-.1-.3-.2s.1-.2.2-.2c-.1 0-.1.1-.1.2s.1.2.2.2.2-.1.2-.2-.1-.2-.1-.2H12v-.1h-.2v-.1h.2v.1h.1c.1.1.1.1.1.2.1.2 0 .3-.2.3z" fill="#000101"/><path fill-rule="evenodd" clip-rule="evenodd" d="M12 16.3s-.2-.1-.3-.1h-.3s.1 0 .1.1c0 0 .1.1.2.1.2 0 .3-.1.3-.1z" fill="#408F6E"/><path fill-rule="evenodd" clip-rule="evenodd" d="M11.5 16.2c.1.1.2.1.2.1h.3s-.2-.1-.3-.1h-.2zm.3.2h-.1c-.1 0-.1-.1-.2-.1l-.1-.1h.3c.1 0 .3.1.3.2h-.2z" fill="#000101"/><path fill-rule="evenodd" clip-rule="evenodd" d="M12.1 16.4s.1-.1.3-.1h.2s-.1.1-.2.1h-.3z" fill="#408F6E"/><path fill-rule="evenodd" clip-rule="evenodd" d="M12.1 16.4l.2-.2h.3-.3c-.1 0-.2.1-.2.2zm.2 0H12h.1c.1-.1.2-.1.2 0 .1 0 .2-.1.2-.1h.1l-.1.1c0-.1-.1 0-.2 0z" fill="#000101"/><path fill-rule="evenodd" clip-rule="evenodd" d="M12 16.2s-.1-.1-.1-.2 0-.1.1-.2c0 0 .1.1.1.2s0 .2-.1.2z" fill="#9E1C29"/><path fill-rule="evenodd" clip-rule="evenodd" d="M12 15.8s-.1.1-.1.2 0 .1.1.2c0 0 .1-.1.1-.2 0 0 0-.1-.1-.2zm0 .4c-.1-.1-.1-.1-.1-.2s0-.1.1-.2c.1.1.1.1.1.2s0 .2-.1.2zm0 0v.2-.2zm0 .3v-.2.1c.1 0 .1 0 0 .1z" fill="#000101"/><path fill-rule="evenodd" clip-rule="evenodd" d="M14.4 9.5c0-.1 0-.1 0 0 .1-.1.1 0 .1 0h-.1zm.1-.2h.1c0 .1 0 .1-.1 0 0 .1 0 .1 0 0zm0-.1s.1-.1 0 0c.1 0 0 0 0 0zm0-.2s.1 0 0 0h.1s0 .1-.1 0c.1.1 0 0 0 0zm0-.1c0-.1 0-.1 0 0 .1-.1.1 0 .1 0h-.1zm-.1-.2c.1-.1.1 0 .1 0s0 .1-.1 0c0 .1 0 0 0 0zm-.1-.1s0-.1 0 0zm-.1-.1s0-.1 0 0c.1-.1.1 0 .1 0s0 .1-.1 0c0 .1 0 0 0 0zm-.2-.1s.1 0 0 0c.1-.1.1 0 .1 0s0 .1-.1 0c.1.1 0 0 0 0zm-.1 0c0-.1 0-.1 0 0 .1-.1.1 0 .1 0h-.1zm-.2-.1c.1-.1.1 0 .1 0 0 .1 0 .1-.1 0 0 .1 0 .1 0 0zm-.2 0s.1 0 0 0h.1c0 .1 0 .1-.1 0 .1.1 0 .1 0 0zm-.1 0h.1c0 .1-.1.1-.1 0 0 .1 0 .1 0 0zm-.2 0h.1c0 .1 0 .1-.1 0 0 .1 0 .1 0 0zm.1.2c0-.1 0-.1 0 0zm0 .1c.1-.1.1 0 .1 0 0 .1 0 .1-.1 0 0 .1 0 .1 0 0zm0 .2s0-.1 0 0zm0 .1c.1-.1.1 0 .1 0s0 .1-.1 0c0 .1 0 0 0 0zm-.1.2c0-.1 0-.1 0 0 .1-.1.1 0 .1 0h-.1zm-.1-.9c.1-.1.1 0 .1 0 0 .1 0 .1-.1 0 0 .1 0 .1 0 0zm-.2 0c0-.1.1-.1 0 0 .1-.1.1 0 .1 0h-.1c.1 0 0 0 0 0zm-.1-.1h.1s0 .1-.1 0c0 .1 0 0 0 0zm-.2 0c0-.1 0-.1 0 0zm-.2 0s.1-.1 0 0c.1-.1.1 0 .1 0h-.1c.1 0 0 0 0 0zm-.1 0h.1s0 .1-.1 0c0 .1 0 0 0 0zm-.2.1c0-.1 0-.1 0 0 .1-.1.1 0 .1 0h-.1zM9.4 9.5c0-.1.1-.1 0 0 .1-.1.1 0 .1 0h-.1c.1 0 0 0 0 0zm0-.2h.1c0 .1 0 .1-.1 0 0 .1 0 .1 0 0zm-.1-.1s0-.1 0 0zm0-.2h.1s0 .1-.1 0c0 .1 0 0 0 0zm.1-.1c0-.1 0-.1 0 0 .1-.1.1 0 .1 0h-.1zm0-.2s.1 0 0 0c.1-.1.1 0 .1 0s0 .1-.1 0c.1.1 0 0 0 0zm.1-.1s.1-.1 0 0c.1 0 0 0 0 0zm.2-.1s0-.1 0 0c.1-.1.1 0 .1 0s0 .1-.1 0c0 .1 0 0 0 0zm.1-.1s.1 0 0 0c.1-.1.1 0 .1 0s0 .1-.1 0c.1.1 0 0 0 0zm.2 0c0-.1 0-.1 0 0 .1-.1.1 0 .1 0H10zm.2-.1c.1-.1.1 0 .1 0 0 .1-.1.1-.1 0 0 .1 0 .1 0 0zm.1 0s.1 0 0 0h.1c0 .1 0 .1-.1 0 .1.1 0 .1 0 0zm.2 0h.1c0 .1 0 .1-.1 0 0 .1 0 .1 0 0zm.2 0h.1c0 .1-.1.1-.1 0 0 .1 0 .1 0 0zm-.1.2c0-.1 0-.1 0 0zm-.1.1s.1 0 0 0c.1-.1.1 0 .1 0 0 .1 0 .1-.1 0 .1.1 0 .1 0 0zm0 .2s.1-.1 0 0c.1 0 0 0 0 0zm.1.1c.1-.1.1 0 .1 0s0 .1-.1 0c0 .1 0 0 0 0zm.1.2c0-.1 0-.1 0 0 .1-.1.1 0 .1 0h-.1zm.1-.9c.1-.1.1 0 .1 0 0 .1 0 .1-.1 0 0 .1 0 .1 0 0zm.1 0c0-.1 0-.1 0 0 .1-.1.1 0 .1 0h-.1zm.2-.1h.1s0 .1-.1 0c0 .1 0 0 0 0zm.2 0c0-.1 0-.1 0 0h.1-.1zm.1 0s0-.1 0 0c.1-.1.1 0 .1 0h-.1zm.2 0h.1s0 .1-.1 0c0 .1 0 0 0 0zm.1.1c0-.1.1-.1 0 0 .1-.1.1 0 .1 0h-.1c.1 0 0 0 0 0z" fill="#fff"/><path fill-rule="evenodd" clip-rule="evenodd" d="M11 11.5h.2-.2zm-.3-.2h.2-.2zm-.3.2h.2-.2zm.6 1.2v.1-.1zm.4.1v-.1.1zm-.2 0v-.1.1zm.1-1.3H11h.3zm-.1.1H11h.2zm-.7 1.1v.1-.1zm-.3.1v-.1.1zm.2 0v-.1.1zm-.1-1.3h.3-.3zm.1.1h.2-.2zm.2-.4h.4-.4zm.1.1h.2-.2zm0 .1h.2-.2zm0 .1h.2-.2zm0 .1h.2-.2zm-.3.1h.8-.8zm-.2 0h1.2-1.2zm0 .1h1.2-1.2zm0 .1h1.2-1.2zm0 .1h1.2-1.2zm.1.1h1-1zm0 .1h1-1zm0 .1h1-1zm0 .1h1-1zm0 0h1-1zm0 .1h1-1zm0 .1h1-1zm-.2.1h1.4-1.4zm0 .1h1.4-1.4zm0 .1h1.4-1.4zm0 .1h1.4-1.4zm0 .1h1.4-1.4zm.3-1.7h-.1v.2h.1v.1h-.2v.4h.1v.7h-.2v.4h1.4v-.4h-.2v-.7h.1v-.4h-.2v-.1h.1v-.2H11v.3h-.2v-.4h.2v-.2h-.3v.2h.1v.4h-.2v-.1h.1v-.2h-.3z" fill="#C4B130"/><path fill-rule="evenodd" clip-rule="evenodd" d="M10.7 11.3h.3v-.1l-.3.1h.2-.2zm-.3.3h.3v-.1l-.3.1h.2-.2zm.6-.1h.3v-.1l-.3.1h.2-.2zm-.8.2h1.2v-.1h-1.1l-.1.1zm.1.1h.3v-.1l-.3.1zm1 0l-.5-.1v.1h.2v-.1.1h.3zm-.1.1h.2v-.1l-.2.1-.3-.1h-.3v.1h.2v-.1.1h.2v-.1.1h.2zm.1.1l-.3-.1h-.3v.1h.3v-.1.1h.2v-.1.1h.1zm-.1.1l-.3-.1h-.3v.1h.2V12v.1h.2V12v.1h.2zm-.9.1h.3v-.1l-.3.1zm.7 0h.3v-.1h-.1l-.2.1-.2-.1v.1h.2zm-.7.1h.4v-.1l-.4.1zm.6 0h.4v-.1l-.4.1-.2-.1v.1h.2zm-.6 0h.5v-.1l-.5.1zm.5 0h.5v-.1l-.5.1zm-.5.1h.4v-.1l-.4.1zm.6 0h.4v-.1h-.6v.1h.2zm.2.1h.2v-.1h-.5v.1h.2v-.1.1h.1zm.1.1l-.3-.1h-.3v.1h.2v-.1.1h.2v-.1.1h.2zm-.1.1h.2v-.1l-.2.1-.3-.1h-.3v.1h.5v-.1.1h.1zm.1.1h.1v-.1l-.1.1-.3-.1h-.4v.1h.5v-.1.1h.2zm.1.1h.2v-.1l-.2.1-.9-.1v.1h.7v-.1.1h.2zm.1.1l-.3-.1h-.8v.1h.8v-.1.1h.3zm-.1.1h.2V13l-.2.1-.9-.1v.1h.7V13v.1h.2zm-1.2 0v-.4h.2V12h-.1v-.4h.2v-.1h-.1v-.2h.1v.1h-.1v-.1h-.1v.1h.3v-.1h-.1.1v.2h-.1v.1h.2v-.4h-.1V11h.1v.1h-.1v.1h.5v-.1h-.1.1v.2h-.1v.4h.1v-.1h-.1v-.2h.1v.1-.1h-.1v.1h.3v-.1h-.1.1v.2h-.1v.1h.2v.4h-.1v.7h.2-.2.2v.4l-1.3-.1z" fill="#000101"/><path fill-rule="evenodd" clip-rule="evenodd" d="M11 13.1v-.2s0-.2-.2-.2-.2.1-.2.2v.2h.4z" fill="#C4B130"/><path fill-rule="evenodd" clip-rule="evenodd" d="M10.8 12.7c-.2 0-.2.1-.2.2v.2h.4v-.2c0-.1 0-.2-.2-.2zm.2.4h-.5v-.2s0-.2.2-.2.2.2.2.2v.2h.1z" fill="#000101"/><path fill-rule="evenodd" clip-rule="evenodd" d="M10.6 12.9h-.1v-.1l.1.1c.1-.1 0-.1 0 0z" fill="#C4B130"/><path fill-rule="evenodd" clip-rule="evenodd" d="M10.7 12.9h-.1v-.2l.1.2c0-.1 0-.1 0 0z" fill="#000101"/><path fill-rule="evenodd" clip-rule="evenodd" d="M10.9 12.9h.1v-.1l-.1.1c0-.1 0-.1 0 0z" fill="#C4B130"/><path fill-rule="evenodd" clip-rule="evenodd" d="M10.9 12.9c0-.1 0-.1 0 0l.1-.2.1.1-.2.1z" fill="#000101"/><path fill-rule="evenodd" clip-rule="evenodd" d="M10.8 12.7v-.1h-.1l.1.1z" fill="#C4B130"/><path fill-rule="evenodd" clip-rule="evenodd" d="M10.8 12.8l-.1-.1c.1-.1.2 0 .2 0l-.1.1z" fill="#000101"/><path fill-rule="evenodd" clip-rule="evenodd" d="M10.6 12.5v-.2c0-.1 0-.1-.1-.1s-.1.1-.1.1v.2h.2z" fill="#C4B130"/><path fill-rule="evenodd" clip-rule="evenodd" d="M10.5 12.1c-.1 0-.1.1-.1.1v.2h.2v-.2s0-.1-.1-.1zm.1.4h-.3v-.3c0-.2.3-.2.3 0v.3z" fill="#000101"/><path fill-rule="evenodd" clip-rule="evenodd" d="M11 12.5v-.2c0-.1 0-.1.1-.1s.1.1.1.1v.2H11z" fill="#C4B130"/><path fill-rule="evenodd" clip-rule="evenodd" d="M11.1 12.1c-.1 0-.1.1-.1.1v.2h.2v-.2s0-.1-.1-.1zm.1.4H11v-.3c0-.2.3-.2.3 0v.3h-.1z" fill="#000101"/><path fill-rule="evenodd" clip-rule="evenodd" d="M11.2 11.9v-.2H11v.2h.2z" fill="#C4B130"/><path fill-rule="evenodd" clip-rule="evenodd" d="M11.2 11.7H11v.2h.2v-.2zm0 .2H11v-.2h.2v.2z" fill="#000101"/><path fill-rule="evenodd" clip-rule="evenodd" d="M10.7 11.9v-.2h.2v.2h-.2z" fill="#C4B130"/><path fill-rule="evenodd" clip-rule="evenodd" d="M10.9 11.7h-.2v.2h.2v-.2zm0 .2h-.2v-.2h.2v.2z" fill="#000101"/><path fill-rule="evenodd" clip-rule="evenodd" d="M10.6 11.9v-.2h-.2v.2h.2z" fill="#C4B130"/><path fill-rule="evenodd" clip-rule="evenodd" d="M10.6 11.7h-.2v.2h.2v-.2zm0 .2h-.2v-.2h.2v.2z" fill="#000101"/><path fill-rule="evenodd" clip-rule="evenodd" d="M10.9 13.1v-.2s0-.1-.2-.1c-.1 0-.1.1-.1.1v.2h.3zm-.3-.7v-.2c0-.1 0-.1-.1-.1s-.1.1-.1.1v.2h.2zm.4 0v-.2c0-.1 0-.1.1-.1s.1.1.1.1v.2H11z" fill="#4653A4"/><path fill-rule="evenodd" clip-rule="evenodd" d="M11.2 13.5c0-.5.4-.9.8-.9s.8.4.8.9-.4.9-.8.9-.8-.4-.8-.9z" fill="#9E1C29"/><path fill-rule="evenodd" clip-rule="evenodd" d="M12 12.6c-.4 0-.8.4-.8.9s.3.9.8.9c.4 0 .8-.4.8-.9s-.4-.9-.8-.9zm0 1.8c-.4 0-.8-.4-.8-.9s.4-.9.8-.9.8.4.8.9-.4.9-.8.9z" fill="#000101"/><path fill-rule="evenodd" clip-rule="evenodd" d="M11.4 13.5c0-.4.2-.7.6-.7.3 0 .6.3.6.7 0 .4-.2.7-.6.7-.3-.1-.6-.4-.6-.7z" fill="#3D5BA9"/><path fill-rule="evenodd" clip-rule="evenodd" d="M12 12.8c-.3 0-.5.3-.5.6 0 .4.2.6.5.6s.5-.3.5-.6-.2-.6-.5-.6zm0 1.3c-.3 0-.6-.3-.6-.7 0-.4.3-.7.6-.7s.6.3.6.7c0 .4-.3.7-.6.7z" fill="#000101"/><path fill-rule="evenodd" clip-rule="evenodd" d="M11.7 13l-.1.1v.1h-.1s-.1 0-.1.1h.1-.1.1v.1h.2v-.1h.1-.1.1s0-.1-.1-.1h-.1v-.1c.2 0 .1-.1.1-.1z" fill="#C4B130"/><path fill-rule="evenodd" clip-rule="evenodd" d="M11.7 13.6l-.1-.1v-.1h.1-.1.1v.2-.1h.1-.1c0-.1.1-.1.1 0 0-.1-.1-.1-.1-.1v-.1c0-.1-.1-.1-.1-.1l-.1.1v.1h-.1v.1c0-.1.1-.1.1-.1v-.1c0-.1.1-.1.1-.1l.1.1v.1s.1 0 .1.1v.1h-.1.1v.1h-.1v.1-.2z" fill="#000101"/><path fill-rule="evenodd" clip-rule="evenodd" d="M11.6 13.5h.2v-.1h-.2v.1z" fill="#C4B130"/><path fill-rule="evenodd" clip-rule="evenodd" d="M11.9 13.5h-.3v-.1h.3v.1z" fill="#000101"/><path fill-rule="evenodd" clip-rule="evenodd" d="M12.3 13l-.1.1v.1h-.1s-.1 0-.1.1h.1-.1.1v.1h.1v-.1h.1-.1.1s0-.1-.1-.1h-.1v-.1c.2 0 .2-.1.2-.1z" fill="#C4B130"/><path fill-rule="evenodd" clip-rule="evenodd" d="M12.3 13.6l-.1-.1v-.1h.1-.1.1v.2-.1h.1-.1c0-.1.1-.1.1 0 0-.1-.1-.1-.1-.1v-.1c0-.1-.1-.1-.1-.1l-.1.1v.1H12v.1h-.1c0-.1.1-.1.1-.1v-.1c0-.1.1-.1.1-.1l.1.1v.1s.1 0 .1.1v.1h-.1.1v.1h-.1v.1l.1-.2z" fill="#000101"/><path fill-rule="evenodd" clip-rule="evenodd" d="M12.2 13.5h.2v-.1h-.2v.1z" fill="#C4B130"/><path fill-rule="evenodd" clip-rule="evenodd" d="M12.4 13.5h-.3v-.1h.3v.1z" fill="#000101"/><path fill-rule="evenodd" clip-rule="evenodd" d="M12 13.5l-.1.1v.1h-.1s-.1 0-.1.1h.1-.1v.1h.1v.1h.1v-.1h.1v-.1h.1s0-.1-.1-.1h-.1v-.1c.2-.1.1-.1.1-.1z" fill="#C4B130"/><path fill-rule="evenodd" clip-rule="evenodd" d="M12 14l-.1-.1v-.1h.1-.1l.1.2v-.1h.1c0-.1.1-.1.1 0 0-.1-.1-.1-.1-.1v-.1c0-.1-.1-.1-.1-.1l-.1.1v.1h-.1v.1c0-.1.1-.1.1-.1v-.1c0-.1.1-.1.1-.1l.1.1v.1s.1 0 .1.1v.1h-.1.1v.1h-.1v.1L12 14z" fill="#000101"/><path fill-rule="evenodd" clip-rule="evenodd" d="M13.6 11.1c-.1 0-.1 0 0 0-.1 0-.1 0 0 0h-.1V11v.2s.1 0 .1.1c.1 0 .1.1.1.1h.2-.1l-.2-.3c.1.1 0 .1 0 0 0 .1 0 .1 0 0 0 .1 0 .1 0 0 0 .1 0 .1 0 0 0 .1 0 .1 0 0z" fill="#C4B130"/><path fill-rule="evenodd" clip-rule="evenodd" d="M13.7 11.2l-.1-.1h-.2.1l.2.1zm-.1.1l-.1-.1-.1-.1v-.2.1s.1 0 .1.1c.1.1.1.2.1.2l.1-.1c0 .1 0 .1-.1.1z" fill="#000101"/><path fill-rule="evenodd" clip-rule="evenodd" d="M13.4 11l.1.1V11h-.1zm0 0c-.1 0-.1-.1 0 0-.1-.1 0-.1 0 0z" fill="#C4B130"/></svg>