<svg width="24" height="24" fill="none" xmlns="http://www.w3.org/2000/svg"><path d="M12 24c6.6 0 12-5.4 12-12S18.6 0 12 0h-.2v24h.2z" fill="#E81E26"/><path d="M0 12c0 6.6 5.3 11.9 11.8 12V0C5.3.1 0 5.4 0 12z" fill="#2E6934"/><path fill-rule="evenodd" clip-rule="evenodd" d="M16.8 15.9c-1.9-.1-10.7-5.5-10.7-6.4l.5-.8c.9 1.3 9.8 6.6 10.7 6.4l-.5.8z" fill="#F4EB34"/><path fill-rule="evenodd" clip-rule="evenodd" d="M16.8 16c0 .1-.1.1-.2.1-.7-.1-2.9-1.1-5.4-2.7-3-1.8-5.4-3.4-5.2-3.8l.1-.1c-.2.7 4.9 3.6 5.2 3.8 3 1.8 5.4 2.9 5.7 2.6l-.2.1zM6.4 8.6c-.2.5 2.3 2 5.2 3.8 3 1.8 5.5 2.9 5.7 2.7l.1-.2c0 .1-.1.1-.3 0-.8-.2-2.9-1.2-5.5-2.7-2.6-1.6-4.8-3-5.2-3.6v-.2.2z" fill="#F4EB34"/><path fill-rule="evenodd" clip-rule="evenodd" d="M17.3 15.2c-.4 0-2.9-1.1-5.6-2.8-3.2-1.9-5.4-3.3-5.2-3.8l.1-.2-.1.1c-.2.5 2.7 2.2 5.2 3.8 2.7 1.8 5.1 2.9 5.6 2.9l.1-.1h-.2c-.9-.3-3-1.3-5.5-2.8-2.4-1.4-4.8-3-5.2-3.6v-.2c0 .1.1.1.1.2.4.6 3 2.3 5.2 3.6 2.4 1.5 4.6 2.5 5.5 2.8h.2c-.1-.1-.1-.1-.2.1zm-.6.8s-.1 0 0 0c-.8-.1-3-1.2-5.5-2.7-3.4-2-5.1-3.2-5.2-3.7v-.1l.1-.1v.2c.1.5 1.8 1.7 5.2 3.7 2.4 1.6 4.6 2.6 5.4 2.7 0 0 .1 0 .1-.1l.1-.1h-.1c-.6 0-2.8-1-5.5-2.7 0 0-.1-.1-.2-.1-3.3-1.9-5-3.2-5-3.7.1.3.8 1.2 5 3.6.1.1.2.1.2.1 2.7 1.7 4.9 2.7 5.5 2.7h.1v.1c-.1.2-.2.2-.2.2z" fill="#000101"/><path fill-rule="evenodd" clip-rule="evenodd" d="M11.8 10.1c1.9 0 4.3-.3 5.6-.8l-.3-.5c-.8.4-3.2.7-5.3.8-2.6 0-4.4-.3-5.3-.9l-.3.5c1.7.7 3.4.9 5.6.9z" fill="#F4EB34"/><path fill-rule="evenodd" clip-rule="evenodd" d="M17.3 8.8c-.1.1-.9.4-2.1.6-.8.1-1.9.2-3.3.2-1.3 0-2.4-.1-3.2-.2-1.3-.2-2-.5-2.2-.6l.1-.1c.2.1.9.4 2.2.6.8.1 1.9.2 3.2.2 1.4 0 2.4-.1 3.3-.2 1.3-.2 2-.5 2.1-.6l-.1.1zm.2.5c0 .1-.9.4-2.2.6-.9.1-2 .3-3.5.3-1.4 0-2.5-.1-3.3-.2-1.4-.2-2.1-.5-2.3-.6 0 0 0-.1.1-.1.8.3 1.5.5 2.3.6.8.1 1.9.2 3.3.2s2.6-.1 3.4-.3c1.3-.2 2.1-.5 2.2-.6v.1z" fill="#F4EB34"/><path fill-rule="evenodd" clip-rule="evenodd" d="M6.5 8.7l-.1.1h.1c.3.1 1 .4 2.1.5.9.1 2 .2 3.2.2 1.2 0 2.2-.1 3.3-.2 1.3-.2 2-.5 2.1-.6l-.1-.1c-.1.1-.7.4-2 .6-1.1.2-2.1.2-3.3.2-1.5 0-2.5-.1-3.2-.2-1.4-.1-2-.4-2.1-.5zm5.3.9c-1.2 0-2.3-.1-3.2-.2-1.1-.1-1.8-.4-2.1-.5h-.1v-.1c.1.1.8.3 2.2.6.6.1 1.7.2 3.1.2 1.2 0 2.2-.1 3.3-.2 1.2-.2 1.9-.5 2.1-.6l.1.2c-.1.1-.9.4-2.2.6h-3.2zm-5.6-.4v.1c.3.1 1 .4 2.3.6 1 .1 2.1.2 3.3.2 1.2 0 2.4-.1 3.5-.3 1.3-.2 2.2-.5 2.2-.6l-.1-.1c-.1.1-.7.4-2.2.6-1.2.2-2.3.3-3.5.3-1.2 0-2.3-.1-3.3-.2-.8-.1-1.5-.3-2.2-.6zm5.6 1c-1.2 0-2.3-.1-3.3-.2-1.3-.2-2-.5-2.3-.6v-.2c.7.3 1.4.5 2.3.6 1 .1 2.1.2 3.3.2 1.2 0 2.3-.1 3.5-.3 1.3-.2 2.1-.5 2.2-.6l.1.2c-.1.1-1 .4-2.2.6-1.2.2-2.4.3-3.6.3z" fill="#000101"/><path fill-rule="evenodd" clip-rule="evenodd" d="M5.5 12.4c1.2.6 3.8 1 6.3 1 2.2 0 5.2-.3 6.3-.9v-.6c-.3.5-3.5 1-6.3 1s-5.4-.5-6.2-1l-.1.5z" fill="#F4EB34"/><path fill-rule="evenodd" clip-rule="evenodd" d="M18.1 11.8v.2c-.2.2-1.2.5-2.5.7-1 .2-2.3.3-3.9.3-1.5 0-2.7-.1-3.7-.3-1.5-.2-2.4-.6-2.6-.7v-.2c.6.4 2.1.7 2.7.7.9.1 2.1.3 3.7.3s2.9-.1 3.8-.3c1-.2 2.3-.5 2.5-.7zm0 .5v.1c-.2.2-1.2.5-2.5.7-1 .1-2.3.3-3.9.3-1.5 0-2.7-.1-3.7-.3-1.5-.2-2.4-.6-2.6-.7v-.2c.6.4 2.1.7 2.7.7.9.1 2.1.3 3.7.3s2.9-.1 3.8-.3c.9 0 2.3-.4 2.5-.6z" fill="#F4EB34"/><path fill-rule="evenodd" clip-rule="evenodd" d="M5.5 11.8v.2c.1.1 1.1.5 2.6.7 1.1.2 2.3.3 3.7.3 1.4 0 2.7-.1 3.9-.3 1.3-.2 2.3-.5 2.5-.7v-.1c-.2.2-1.6.6-2.5.7-1.1.2-2.4.3-3.9.3-1.3 0-2.6-.1-3.7-.3-.6-.2-2.1-.5-2.6-.8zm6.3 1.1c-1.3 0-2.6-.1-3.7-.3-1.4-.2-2.4-.6-2.6-.7v-.2c.6.4 2.2.6 2.7.7 1.1.2 2.3.3 3.7.3 1.4 0 2.7-.1 3.8-.3.9-.1 2.2-.5 2.5-.7v.2c-.2.2-1.2.5-2.5.7-1.2.2-2.5.3-3.9.3zm-6.3-.6v.2c.1.1 1.1.5 2.6.7 1.1.2 2.3.3 3.7.3 1.4 0 2.7-.1 3.9-.3 1.3-.2 2.3-.5 2.5-.7v-.1c-.2.2-1.6.6-2.5.7-1.1.2-2.4.3-3.9.3-1.3 0-2.6-.1-3.7-.2-.6-.3-2.1-.5-2.6-.9zm6.3 1.1c-1.3 0-2.6-.1-3.7-.3-1.4-.2-2.4-.6-2.6-.7v-.2c.6.4 2.2.6 2.7.7 1.1.2 2.3.2 3.7.2 1.4 0 2.7-.1 3.8-.3.9-.1 2.2-.5 2.5-.7v.2c-.2.2-1.2.5-2.5.7-1.2.3-2.5.4-3.9.4z" fill="#000101"/><path fill-rule="evenodd" clip-rule="evenodd" d="M11.8 15.8c-2.7 0-5-.7-5.5-.9l.4.6c.9.4 3.1.9 5.2.8 2.1-.1 3.8-.2 5.1-.8l.4-.6c-1 .5-3.9.9-5.6.9z" fill="#F4EB34"/><path fill-rule="evenodd" clip-rule="evenodd" d="M17.4 14.9c0 .1-.1.1-.1.2-.3.1-1.2.4-2.4.5-.8.1-1.3.2-3 .3-3.1-.1-5.1-.7-5.6-.8l-.1-.1c1.8.5 3.6.8 5.7.8 1.5 0 2.2-.1 3-.3 1.5-.2 2.2-.5 2.4-.5l.1-.1zm-.3.5c-.1.1-.1.2-.2.2-.6.2-1.5.4-1.9.5-.8.2-2.1.3-3.2.3-2.4 0-4.4-.5-5.3-.9l-.1-.1h.1c1.6.6 3.5.8 5.2.9 1.1 0 2.2-.1 3.1-.3 1.5-.3 2.1-.5 2.3-.6z" fill="#F4EB34"/><path fill-rule="evenodd" clip-rule="evenodd" d="M11.8 15.9c-2.8-.1-4.7-.6-5.6-.8l-.1-.1c2.1.5 3.9.8 5.7.8 1.3 0 2-.1 2.7-.2h.3c1.4-.2 2.2-.5 2.4-.5l.2-.1-.1.1c-.3.1-1 .3-2.4.6h-.3c-.7.1-1.4.2-2.7.2-1.8 0-3.6-.3-5.7-.8l.1.1c.9.1 2.8.6 5.5.7 1.4-.1 2-.1 2.6-.2h.4c1.1-.2 2-.4 2.4-.5l.1-.2-.1.2c-.4.2-1.3.4-2.5.6h-.4c-.5 0-1.1.1-2.5.1zm-5.3-.5l.1.1c1 .4 3 .9 5.3.9 1.1 0 2.3-.1 3.2-.3.4-.1 1.3-.3 1.9-.5 0-.1.1-.1.1-.2-.1.1-.6.3-2.1.6-.7.1-1.9.3-3.1.3-2.1 0-3.8-.3-5.3-.9h-.1zm5.3 1.1c-2.4 0-4.4-.5-5.3-.9l-.1-.1.1.1c1.5.5 3.2.8 5.2.9 1.3 0 2.4-.2 3.1-.3 1.5-.3 2-.5 2.1-.6-.1.1-.1.2-.2.2-.6.2-1.5.4-1.9.5-.7.1-1.9.2-3 .2z" fill="#000101"/><path fill-rule="evenodd" clip-rule="evenodd" d="M11.8 5.8c3.4 0 6.2 2.8 6.2 6.2 0 3.4-2.8 6.2-6.2 6.2-3.4 0-6.2-2.8-6.2-6.2 0-3.4 2.8-6.2 6.2-6.2zm0 .6c3.1 0 5.6 2.5 5.6 5.6 0 3.1-2.5 5.6-5.6 5.6-3.1 0-5.6-2.5-5.6-5.6 0-3.1 2.5-5.6 5.6-5.6z" fill="#F4EB34"/><path fill-rule="evenodd" clip-rule="evenodd" d="M11.8 5.9c3.4 0 6.1 2.8 6.1 6.1 0 3.4-2.8 6.1-6.1 6.1-3.4 0-6.1-2.8-6.1-6.1s2.8-6.1 6.1-6.1zm0-.1c3.4 0 6.3 2.8 6.3 6.3 0 3.4-2.8 6.3-6.3 6.3-3.4 0-6.3-2.8-6.3-6.3s2.9-6.3 6.3-6.3z" fill="#F4EB34"/><path fill-rule="evenodd" clip-rule="evenodd" d="M11.8 5.9c-3.4 0-6.1 2.7-6.1 6.1 0 3.4 2.7 6.1 6.1 6.1 3.4 0 6.1-2.7 6.1-6.1 0-3.3-2.7-6.1-6.1-6.1zm0 12.3c-3.4 0-6.1-2.8-6.1-6.1C5.7 8.7 8.5 6 11.8 6c3.4 0 6.1 2.8 6.1 6.1s-2.7 6.1-6.1 6.1zm0-12.4c-3.4 0-6.2 2.8-6.2 6.2 0 3.4 2.8 6.2 6.2 6.2 3.4 0 6.2-2.8 6.2-6.2 0-3.4-2.8-6.2-6.2-6.2zm0 12.5c-3.5 0-6.3-2.8-6.3-6.3s2.8-6.3 6.3-6.3 6.3 2.8 6.3 6.3-2.8 6.3-6.3 6.3z" fill="#000101"/><path fill-rule="evenodd" clip-rule="evenodd" d="M11.8 6.4c3.1 0 5.6 2.5 5.6 5.6 0 3.1-2.5 5.6-5.6 5.6-3.1 0-5.6-2.5-5.6-5.6 0-3.1 2.5-5.6 5.6-5.6zm0-.1c3.1 0 5.7 2.6 5.7 5.7 0 3.2-2.6 5.7-5.7 5.7S6.1 15.1 6.1 12s2.6-5.7 5.7-5.7z" fill="#F4EB34"/><path fill-rule="evenodd" clip-rule="evenodd" d="M11.8 6.4c-3.1 0-5.6 2.5-5.6 5.6 0 3.1 2.5 5.6 5.6 5.6 3.1 0 5.6-2.5 5.6-5.6 0-3.1-2.5-5.6-5.6-5.6zm0 11.2c-3.1 0-5.6-2.5-5.6-5.6 0-3.1 2.5-5.6 5.6-5.6 3.1 0 5.6 2.5 5.6 5.6 0 3.1-2.5 5.6-5.6 5.6zm0-11.3c-3.1 0-5.7 2.6-5.7 5.7 0 3.2 2.6 5.7 5.7 5.7s5.7-2.6 5.7-5.7-2.5-5.7-5.7-5.7zm0 11.5c-3.2 0-5.7-2.6-5.7-5.8 0-3.2 2.6-5.8 5.7-5.8 3.2 0 5.7 2.6 5.7 5.8.1 3.2-2.5 5.8-5.7 5.8z" fill="#000101"/><path fill-rule="evenodd" clip-rule="evenodd" d="M11.5 18.3h.6V5.7h-.6v12.6z" fill="#F4EB34"/><path fill-rule="evenodd" clip-rule="evenodd" d="M11.5 5.7h.1v12.7h-.1V5.7zm.5 0h.1v12.7H12V5.7z" fill="#F4EB34"/><path fill-rule="evenodd" clip-rule="evenodd" d="M11.6 5.7h-.1v12.7h.1V5.7zm0 12.7h-.1V5.7h.2v12.7h-.1zm.5-12.7H12v12.7h.1V5.7zm0 12.7H12V5.7h.2v12.7h-.1c.1 0 0 0 0 0z" fill="#000101"/><path fill-rule="evenodd" clip-rule="evenodd" d="M5.5 11.8c.8-.7 3.7-1.2 6.2-1.2 2.6 0 5.6.5 6.3 1.2v.5c-.6-.5-2.9-1.1-6.3-1.2-3.4 0-5.8.6-6.3 1.2v-.5h.1z" fill="#F4EB34"/><path fill-rule="evenodd" clip-rule="evenodd" d="M11.8 10.5c1.5 0 2.9.1 4 .4 1.2.2 2 .5 2.3.9v.2c-.3-.4-1.5-.7-2.3-.9-1.1-.2-2.5-.4-4-.4s-3 .2-4.1.4c-.9.2-2.1.5-2.2.9v-.2c.1-.2 1-.6 2.2-.8 1.1-.3 2.5-.5 4.1-.5zm0 .6c1.5 0 2.9.1 4 .4 1.2.2 2 .5 2.3.9v.2c-.3-.4-1.5-.7-2.3-.9-1.1-.2-2.6-.4-4-.4-1.5 0-3 .1-4.1.4-.9.2-2.1.5-2.2.9v-.2c.1-.2 1-.6 2.2-.8 1.1-.4 2.5-.5 4.1-.5z" fill="#F4EB34"/><path fill-rule="evenodd" clip-rule="evenodd" d="M11.8 10.6c1.4 0 2.8.1 4 .4.7.1 2 .4 2.3.9v-.1c-.3-.3-1-.6-2.3-.8-1.2-.2-2.6-.4-4-.4-1.5 0-3 .1-4.2.4-1.3.3-2.1.6-2.2.8v.1c.3-.3 1.4-.7 2.2-.8 1.3-.3 2.8-.4 4.2-.5zm-6.3 1.3v-.2c.1-.3 1-.6 2.2-.9 1.2-.2 2.7-.4 4.1-.4 1.4 0 2.9.1 4.1.4 1.2.2 2 .5 2.3.9v.2c-.4-.4-1.6-.7-2.3-.9-1.2-.2-2.6-.4-4-.4-1.5 0-2.9.1-4.1.4-1.1.2-2.2.6-2.3.9zm6.3-.7c1.4 0 2.8.1 4 .4.7.1 2 .4 2.3.9v-.1c-.3-.3-1-.6-2.3-.8-1.2-.2-2.6-.4-4-.4-1.5 0-3 .1-4.2.4-1.3.3-2.1.6-2.2.8v.1c.3-.4 1.5-.7 2.2-.8 1.3-.4 2.8-.5 4.2-.5zm-6.3 1.3v-.2c.1-.3 1-.6 2.2-.9 1.2-.2 2.7-.4 4.1-.4 1.4 0 2.9.1 4.1.4 1.2.2 2 .5 2.3.9v.2c-.4-.4-1.6-.7-2.3-.9-1.2-.2-2.6-.4-4-.4-1.5 0-3 .1-4.1.4-1.1.2-2.2.5-2.3.9z" fill="#000101"/><path fill-rule="evenodd" clip-rule="evenodd" d="M11.8 7.8c2.3 0 4.4.3 5.3.8l.3.6c-.8-.4-3-.9-5.6-.8-2.1 0-4.4.2-5.6.8l.4-.7c1-.5 3.2-.7 5.2-.7z" fill="#F4EB34"/><path fill-rule="evenodd" clip-rule="evenodd" d="M11.8 7.7c1.3 0 2.5.1 3.5.2.8.1 1.5.4 1.8.6l.1.2c-.3-.3-1.2-.5-2-.7-1-.2-2.2-.2-3.4-.2-1.3 0-2.6.1-3.5.3-.9.2-1.5.4-1.7.5l.1-.2c.3-.2.9-.3 1.6-.5.9-.1 2.2-.2 3.5-.2zm0 .6c1.3 0 2.6.1 3.6.3 1 .2 1.9.4 2 .6l.1.2c-.3-.2-1.1-.4-2.1-.6-1-.2-2.3-.3-3.6-.3-1.5 0-2.7.1-3.7.2-1.1.2-1.8.5-2 .6l.1-.2c.3-.2.9-.4 1.8-.6 1.2-.2 2.3-.2 3.8-.2z" fill="#F4EB34"/><path fill-rule="evenodd" clip-rule="evenodd" d="M11.8 7.9c1.4 0 2.6.1 3.4.2.7.1 1.6.4 1.9.6l-.1-.1c-.3-.2-1-.4-1.8-.6-.9-.2-2.1-.2-3.4-.2h-.1c-1.4 0-2.6.1-3.5.3-.7.1-1.3.3-1.6.5l-.1.2c.3-.2.9-.4 1.7-.6 1-.3 2.2-.3 3.6-.3zm5.5.9c-.3-.3-1.3-.6-2-.7-.9-.2-2-.2-3.4-.2s-2.6.1-3.5.3c-.8.2-1.5.4-1.7.5l.1-.2c.3-.2.9-.4 1.6-.5.9-.2 2.1-.3 3.6-.3h.1c1.3 0 2.5.1 3.4.2.8.2 1.6.4 1.8.6v.3zm-5.4-.5c-1.8 0-2.8.1-3.8.3-.8.1-1.4.3-1.8.6l-.1.2c.2-.2.9-.4 2-.6 1-.2 2.1-.2 3.5-.2h.2c1.4 0 2.6.1 3.5.2 1 .2 1.7.4 2.1.6l-.1-.1c-.1-.1-1-.4-2-.6-.9-.3-2.1-.4-3.5-.4zm5.6 1c-.3-.2-1.1-.4-2.1-.6-.9-.2-2.1-.3-3.5-.3h-.2c-1.4 0-2.6.1-3.5.2-1.1.2-1.8.5-2 .6l.1-.2c.5-.2 1.1-.4 1.9-.6.9-.2 2-.2 3.7-.3h.1c1.4 0 2.6.1 3.6.3 1 .2 1.9.4 2 .6l-.1.3z" fill="#000101"/><path fill-rule="evenodd" clip-rule="evenodd" d="M14.9 14.6c-1.1-.2-2.3-.2-3.1-.2-3.9 0-5.1.8-5.3 1l-.3-.5c1-.7 3.1-1.1 5.6-1.1 1.3 0 2.4.1 3.4.3l-.3.5z" fill="#F4EB34"/><path fill-rule="evenodd" clip-rule="evenodd" d="M11.8 13.8c1.1 0 2.3.1 3.4.3l-.1.1c-1-.2-2-.3-3.3-.3-1.4 0-3 .1-4.3.5-.4.1-1.2.4-1.2.6l-.1-.1c0-.2.7-.5 1.3-.6 1.4-.4 2.9-.5 4.3-.5zm0 .5c1.1 0 2.1.1 3.2.3l-.1.1c-.9-.2-2-.2-3.1-.2-1.4 0-2.9.1-4.1.5-.4.1-1.1.4-1.1.6l-.1-.1c0-.1.4-.4 1.2-.6 1.4-.5 2.7-.6 4.1-.6z" fill="#F4EB34"/><path fill-rule="evenodd" clip-rule="evenodd" d="M11.8 13.8c-1.8 0-3.2.2-4.4.5-.8.2-1.3.5-1.3.6l.1.1c.1-.3 1.1-.6 1.2-.6 1.2-.3 2.6-.5 4.4-.5 1.2 0 2.2.1 3.3.3l.1-.1c-1.1-.2-2.3-.3-3.4-.3zm-5.6 1.3l-.1-.1c0-.3 1-.6 1.3-.7 1.2-.3 2.6-.5 4.4-.5 1.1 0 2.3.1 3.4.3l-.1.2c-1.1-.2-2.1-.3-3.3-.3-1.8 0-3.2.2-4.3.5-.6.1-1.2.4-1.3.6.1 0 .1 0 0 0zm5.6-.8c-1.5 0-2.8.1-4.2.5-.8.2-1.1.5-1.1.6l.1.1c.1-.2.8-.5 1.1-.6 1.1-.3 2.5-.5 4-.5h.3c1.1 0 2.1.1 2.9.2l.1-.1c-1.1-.1-2.2-.1-3.2-.2zm-5.3 1.3l-.1-.1c0-.1.4-.4 1.2-.6 1.4-.4 2.7-.5 4.2-.5 1 0 2.1.1 3.2.3l-.1.2c-.9-.1-1.8-.2-3-.2h-.3c-1.5 0-2.9.2-4 .5-.4-.1-1 .1-1.1.4 0-.1 0 0 0 0z" fill="#000101"/><path fill-rule="evenodd" clip-rule="evenodd" d="M13.3 14.2c.1 0 0 0 0 0zm0 0c.1 0 0 0 0 0 0-.1 0-.1 0 0 0-.1.1-.1 0 0 .1 0 .1 0 0 0 .1 0 .1 0 0 0zm-.1.1c0-.1 0-.1 0 0 0-.1 0-.1 0 0 0-.1 0-.1 0 0v-.1.1c.1-.1.1-.1 0 0zm0-.1c0-.1 0-.1 0 0 0-.1 0-.1 0 0zm0 0s0-.1 0 0c0-.1 0-.1 0 0 0-.1 0-.1 0 0zm-.1 0c0-.1 0-.1 0 0 .1-.1.1-.1 0 0 .1-.1.1-.1 0 0 .1-.1.1-.1 0 0 .1-.1.1-.1 0 0 0-.1 0-.1 0 0zm-.1 0c.1 0 .1 0 0 0 .1 0 .1 0 0 0 .1 0 .1 0 0 0 .1 0 .1-.1 0 0 .1-.1.1-.1 0 0 .1-.1.1-.1 0 0 .1-.1 0 0 0 0zm0 0v-.1c.1 0 .1 0 0 .1.1 0 .1 0 0 0 .1 0 .1 0 0 0 .1 0 .1 0 0 0 .1 0 .1 0 0 0 .1 0 .1 0 0 0zm-.1 0c.1 0 .1 0 0 0 .1 0 .1-.1 0 0 .1-.1 0-.1 0 0 0-.1 0-.1 0 0 0-.1 0-.1 0 0zm0 0c0-.1 0-.1 0 0 0-.1 0-.1 0 0 .1-.1.1-.1 0 0 .1-.1.1-.1 0 0 .1 0 .1 0 0 0 .1 0 .1 0 0 0zm-.1 0s0-.1 0 0c0-.1 0-.1 0 0 0-.1 0-.1 0 0 0-.1 0-.1 0 0 0-.1 0-.1 0 0 0-.1 0-.1 0 0 0-.1 0-.1 0 0 0-.1 0-.1 0 0 0-.1 0-.1 0 0 0-.1 0-.1 0 0 0-.1 0-.1 0 0 0-.1 0-.1 0 0 0-.1 0-.1 0 0 0-.1 0-.1 0 0 0-.1 0-.1 0 0zm0 0s-.1 0 0 0c-.1 0-.1 0 0 0-.1 0-.1 0 0 0-.1 0-.1 0 0 0v-.1.1c-.1 0-.1 0 0 0-.1 0-.1 0 0 0zm-.2-.1c.1 0 .1 0 0 0 .1 0 .1 0 0 0zm.1.1s-.1 0 0 0c-.1 0-.1 0 0 0-.1 0-.1 0 0 0-.1-.1-.1-.1 0 0-.1-.1-.1-.1 0 0 0-.1 0-.1 0 0 0-.1 0-.1 0 0-.1 0-.1 0 0 0-.1 0-.1 0 0 0-.1 0-.1 0 0 0zm-.2-.1c0 .1 0 .1 0 0 0 .1 0 .1 0 0 .1.1.1.1 0 0 .1.1.1.1 0 0 .1 0 .1 0 0 0 .1 0 .1 0 0 0 .1 0 .1 0 0 0zm0 .1v-.1c.1 0 .1 0 0 .1.1-.1.1-.1 0 0 .1 0 .1 0 0 0 .1 0 .1 0 0 0 .1 0 .1 0 0 0zm-.1 0c.1 0 .1 0 0 0 .1 0 .1 0 0 0 .1 0 .1 0 0 0 .1 0 .1 0 0 0 .1 0 .1-.1 0 0 .1-.1.1-.1 0 0 0-.1 0-.1 0 0 0-.1 0-.1 0 0 0-.1 0-.1 0 0 .1-.1.1-.1 0 0 .1-.1.1-.1 0 0 .1-.1.1-.1 0 0 .1-.1.1-.1 0 0 .1-.1.1-.1 0 0 .1-.1.1-.1 0 0 .1-.1.1-.1 0 0 .1-.1.1-.1 0 0 .1-.1.1-.1 0 0 .1-.1.1-.1 0 0 .1-.1.1-.1 0 0 .1-.1.1-.1 0 0 .1-.1.1-.1 0 0 .1-.1.1-.1 0 0 .1-.1.1-.1 0 0 .1 0 .1 0 0 0 .1 0 .1 0 0 0 .1 0 .1 0 0 0 .1 0 .1 0 0 0 .1 0 0 0 0 0zm0 0c0-.1 0-.1 0 0 0-.1 0-.1 0 0 0-.1 0-.1 0 0 0-.1 0-.1 0 0 0-.1 0-.1 0 0zm-.1 0c0-.1 0-.1 0 0 0-.1 0-.1 0 0 0-.1.1-.1 0 0 0-.1 0-.1 0 0 0-.1 0-.1 0 0 0-.1 0-.1 0 0 0-.1 0-.1 0 0zm-.1-.1s0 .1 0 0c0 .1 0 .1 0 0 0 .1 0 .1 0 0 0 .1 0 0 0 0zm0 0s0 .1 0 0c0 .1 0 .1 0 0 0 .1 0 .1 0 0 0 .1 0 .1 0 0 0 .1 0 0 0 0zm-.1 0s0 .1 0 0c0 .1 0 .1 0 0 0 .1 0 .1 0 0 0 .1 0 0 0 0zm0 .1c0-.1 0-.1 0 0 0-.1 0-.1 0 0 0-.1 0-.1 0 0 0-.1 0-.1 0 0 0-.1 0-.1 0 0 0-.1 0-.1 0 0v-.1.1zm0-.1c-.1 0-.1 0 0 0-.1 0-.1 0 0 0-.1 0-.1 0 0 0-.1 0-.1 0 0 0-.1.1-.1.1 0 0-.1.1-.1.1 0 0-.1.1-.1.1 0 0-.1.1-.1.1 0 0-.1 0-.1 0 0 0zm-.1.1c0-.1 0-.1 0 0 0-.1 0-.1 0 0 0-.1 0-.1 0 0 0-.1 0-.1 0 0 0-.1 0-.1 0 0 .1-.1.1-.1 0 0 .1-.1.1-.1 0 0 0-.1 0-.1 0 0 0-.1 0-.1 0 0 0-.1 0-.1 0 0 0-.1 0-.1 0 0 0-.1 0-.1 0 0 0-.1 0-.1 0 0 0-.1.1-.1 0 0 .1-.1.1-.1 0 0 .1-.1.1-.1 0 0 .1-.1.1-.1 0 0 .1 0 .1 0 0 0 .1 0 .1 0 0 0zm-.1 0c0-.1 0-.1 0 0 .1-.1.1-.1 0 0 .1-.1.1-.1 0 0 .1-.1.1-.1 0 0 .1-.1.1-.1 0 0 .1-.1.1-.1 0 0 .1-.1.1-.1 0 0 .1-.1.1-.1 0 0 0-.1 0-.1 0 0 0-.1 0-.1 0 0zm-.2 0c.1-.1.1-.1 0 0 .1-.1.1-.1 0 0 .1-.1.1-.1 0 0 .1-.1.1-.1 0 0 .1-.1.1-.1 0 0l.1-.1v.1h-.1l.1-.1-.1.1c.1-.1.1-.1 0 0 .1-.1.1-.1 0 0 .1-.1.1-.1 0 0 .1-.1.1-.1 0 0 .1-.1.1-.1 0 0 .1-.1.1-.1 0 0 .1-.1.1-.1 0 0zm0 0v-.1.1zm-.1-.1c.1.1 0 .1 0 0 0 .1 0 .1 0 0 0 .1 0 .1 0 0 0 .1 0 0 0 0 .1 0 .1 0 0 0 0 0 0 .1 0 0 0 .1 0 .1 0 0 0 .1 0 .1 0 0 0 .1 0 .1 0 0zm-.1 0s0 .1 0 0c0 .1 0 .1 0 0 0 .1 0 .1 0 0 0 .1 0 0 0 0zm0 0s0 .1 0 0c0 .1 0 .1 0 0 0 .1 0 .1 0 0 0 .1 0 .1 0 0 0 .1-.1.1 0 0zm-.1.1v-.1.1zm-.1 0c0-.1.1-.1 0 0 .1-.1.1-.1 0 0 .1-.1.1-.1 0 0 .1-.1.1-.1 0 0 .1-.1.1-.1 0 0 .1-.1.1-.1 0 0 .1-.1.1-.1 0 0 .1-.1.1-.1 0 0 .1-.1 0-.1 0 0 0-.1 0-.1 0 0zm-.1-.1c.1 0 .1 0 0 0 .1 0 .1 0 0 0 .1 0 .1 0 0 0zm.1.1c-.1 0-.1 0 0 0-.1 0-.1 0 0 0-.1-.1-.1-.1 0 0 0-.1 0-.1 0 0 0-.1 0-.1 0 0 0-.1 0-.1 0 0-.1 0-.1 0 0 0zm-.2 0c0-.1 0-.1 0 0 0-.1 0-.1 0 0 0-.1.1-.1 0 0 .1-.1.1-.1 0 0 .1-.1.1-.1 0 0l.1-.1v.1h-.1l.1-.1-.1.1c.1-.1.1-.1 0 0 .1-.1.1-.1 0 0 .1-.1.1-.1 0 0 0-.1 0-.1 0 0 0-.1 0-.1 0 0 0-.1 0-.1 0 0 0-.1 0-.1 0 0zm-.1 0s.1 0 0 0c.1 0 .1 0 0 0 .1-.1.1-.1 0 0 .1-.1.1-.1 0 0 0-.1 0-.1 0 0 0-.1 0-.1 0 0zm0 0c.1 0 .1 0 0 0 .1 0 .1 0 0 0 .1 0 0 0 0 0 0-.1 0-.1 0 0 0-.1 0-.1 0 0 0-.1 0-.1 0 0 .1-.1.1-.1 0 0 .1 0 .1 0 0 0 .1 0 .1 0 0 0zm-.1 0c.1-.1.1-.1 0 0 .1-.1.1-.1 0 0 .1-.1 0-.1 0 0 0-.1 0-.1 0 0zm.1 0c-.1 0-.1 0 0 0-.1 0-.1 0 0 0-.1-.1-.1-.1 0 0-.1-.1 0-.1 0 0 0-.1 0-.1 0 0 0-.1 0-.1 0 0-.1 0-.1 0 0 0-.1 0-.1 0 0 0zm-.2 0c.1 0 .1 0 0 0 .1 0 .1 0 0 0 .1 0 .1 0 0 0 .1 0 .1 0 0 0 .1 0 .1 0 0 0 .1 0 .1 0 0 0 .1 0 .1 0 0 0 0 0 0-.1 0 0 0-.1 0-.1 0 0 0-.1.1-.1 0 0 .1-.1.1-.1 0 0 .1-.1.1-.1 0 0 .1-.1.1-.1 0 0 .1-.1.1-.1 0 0 .1-.1.1-.1 0 0 .1-.1.1-.1 0 0 .1-.1.1-.1 0 0 .1-.1.1-.1 0 0 .1-.1.1-.1 0 0 .1-.1.1-.1 0 0 .1 0 .1 0 0 0 .1 0 .1 0 0 0 .1 0 .1 0 0 0 .1 0 .1 0 0 0 .1 0 .1 0 0 0 .1 0 .1 0 0 0 .1 0 .1 0 0 0 .1 0 .1 0 0 0zm-.1 0c.1 0 .1 0 0 0 .1-.1.1-.1 0 0 .1-.1.1-.1 0 0 0-.1 0-.1 0 0 0-.1 0-.1 0 0 0-.1 0-.1 0 0zm0 0c0-.1 0-.1 0 0 0-.1 0-.1 0 0 0-.1.1-.1 0 0 .1-.1.1 0 .1 0h-.1c.1 0 .1 0 0 0zm3.9.1c0 .1 0 .1 0 0 0 .1 0 .1 0 0zm-.1 0s.1 0 0 0c.1 0 .1 0 0 0 .1 0 .1 0 0 0 .1 0 .1 0 0 0 .1 0 .1.1 0 0 .1.1.1.1 0 0 .1.1.1.1 0 0 .1.1 0 .1 0 0zm0 .1c0-.1 0-.1 0 0 0-.1 0-.1 0 0 0-.1 0-.1 0 0 0-.1 0-.1 0 0 0-.1 0-.1 0 0 0-.1 0-.1 0 0 0-.1 0-.1 0 0 0-.1 0-.1 0 0 0-.1 0-.1 0 0 0-.1 0-.1 0 0zm-.2-.1c.1 0 .1 0 0 0zm0 0v-.1.1c0-.1 0-.1 0 0 0-.1 0-.1 0 0 .1 0 .1 0 0 0 .1 0 .1 0 0 0 .1 0 .1 0 0 0 .1 0 .1 0 0 0zm-.1 0c0-.1 0-.1 0 0 0-.1 0-.1 0 0 0-.1 0-.1 0 0 0-.1 0-.1 0 0l.1-.1v.1h-.1.1c-.1-.1-.1-.1-.1 0 0 0 0-.1 0 0 0-.1 0-.1 0 0 0-.1 0-.1 0 0 0-.1 0-.1 0 0zm-.2 0v-.1.1zm0-.1c0 .1 0 .1 0 0 0 .1 0 .1 0 0 0 .1 0 .1 0 0 0 .1 0 .1 0 0zm0 0c0 .1 0 .1 0 0 0 .1 0 .1 0 0 0 .1 0 .1 0 0 0 .1 0 .1 0 0 0 .1 0 .1 0 0zm-.1 0c0 .1 0 .1 0 0 0 .1 0 .1 0 0 0 .1 0 .1 0 0 0 .1-.1.1 0 0-.1 0-.1 0 0 0-.1 0 0 0 0 0s.1 0 0 0c0 0 0 .1 0 0 0 .1 0 .1 0 0 0 .1 0 .1 0 0 0 .1 0 0 0 0zm-.2 0c.1 0 .1 0 0 0 .1 0 .1 0 0 0 .1 0 0 0 0 0zm.1 0s0 .1 0 0c0 .1 0 .1 0 0-.1.1-.1.1 0 0-.1 0-.1 0 0 0-.1 0-.1 0 0 0-.1 0 0 0 0 0-.1 0-.1 0 0 0-.1 0-.1.1 0 0-.1.1 0 .1 0 0zm-.2 0c.1 0 .1 0 0 0 .1 0 .1 0 0 0 .1 0 .1 0 0 0 .1 0 .1 0 0 0 .1 0 .1 0 0 0zm.1.1c-.1 0-.1 0 0 0-.1-.1-.1-.1 0 0-.1-.1-.1-.1 0 0-.1-.1-.1-.1 0 0-.1-.1-.1-.1 0 0 0-.1 0-.1 0 0 0-.1 0-.1 0 0 0-.1 0-.1 0 0v-.1.1zm-.2-.1c.1 0 .1 0 0 0 .1 0 .1 0 0 0 .1 0 0 0 0 0zm0 0c.1 0 .1 0 0 0 .1 0 .1 0 0 0 .1 0 .1 0 0 0 .1 0 .1 0 0 0zm0 0v-.1.1zm-.1 0c0-.1 0-.1 0 0 0-.1 0-.1 0 0z" fill="#000101"/><path fill-rule="evenodd" clip-rule="evenodd" d="M14.9 14.7c-.1 0-.1 0 0 0l.3-.7-.3.7z" fill="#E81E26"/><path fill-rule="evenodd" clip-rule="evenodd" d="M6.6 8.5c1.9 0 10.8 5.4 10.8 6.4l-.6.8c-.2-1.2-9.3-6.5-10.7-6.4l.5-.8z" fill="#F4EB34"/><path fill-rule="evenodd" clip-rule="evenodd" d="M16.9 15.8l.4-.7-.4.7zM6.1 9.4l.4-.8-.4.8z" fill="#000101"/><path fill-rule="evenodd" clip-rule="evenodd" d="M17.4 15c.2-.4-2.2-2.3-5.2-4.1-3.1-1.7-5.3-2.8-5.7-2.5l-.1.2c.1-.1.2-.1.3-.1.7 0 2.7.9 5.5 2.5 1.2.8 5.2 3.3 5.2 4-.1.1-.1.1-.1.2l.1-.2zM6 9.4c.4-.2 3 .9 5.7 2.6 2.7 1.7 5.4 3.5 5.1 3.9l-.1.1v-.2c-.1-.4-2-1.9-5-3.7-3-1.8-5.5-2.9-5.7-2.6v-.1z" fill="#F4EB34"/><path fill-rule="evenodd" clip-rule="evenodd" d="M17.3 15.2c0-.1 0-.1 0 0 0-.8-4-3.4-5.2-4.1-2.8-1.6-4.8-2.5-5.5-2.5-.1 0-.2 0-.2.1.1-.1.2-.1.2-.1.7 0 2.7.9 5.5 2.5.8.5 5.2 3.2 5.2 4 .1 0 .1 0 0 .1l.1-.2c.2-.4-2.1-2.2-5.2-4-3.3-1.9-5.3-2.7-5.7-2.5l-.1.1.1-.2c.1 0 .1-.1.2-.1.9 0 3.5 1.4 5.5 2.5 2.7 1.6 5.5 3.6 5.2 4.1l-.1.3c.1 0 .1 0 0 0zM6.1 9.5c.7 0 3 1.1 5.6 2.6 3 1.8 4.9 3.3 5.1 3.7v.1l.1-.1v-.1c-.1-.5-2.7-2.3-5.1-3.8-2.5-1.4-4.9-2.5-5.7-2.4 0-.1 0-.1 0 0H6h.1zM16.8 16c-.1 0-.1 0 0 0v-.2c-.1-.4-2.1-1.9-5-3.7-2.5-1.5-4.9-2.6-5.6-2.6H6v-.1h.2c.7 0 3.2 1.1 5.6 2.6 2.5 1.5 5 3.3 5.1 3.8v.1l-.1.1z" fill="#000101"/><path fill-rule="evenodd" clip-rule="evenodd" d="M8.1 12.7c0 1 .4 2 1.1 2.6.7.7 1.6 1.1 2.6 1.1s2-.4 2.7-1.1c.7-.7 1.1-1.6 1.1-2.6v-5H8.1v5z" fill="#fff"/><path fill-rule="evenodd" clip-rule="evenodd" d="M15.5 7.7H8v5c0 1 .4 1.9 1.1 2.6.7.7 1.6 1.1 2.6 1.1s1.9-.4 2.6-1.1c.7-.7 1.1-1.6 1.1-2.6v-5h.1zm-3.7 8.8c-1 0-1.9-.4-2.7-1.1-.7-.7-1.1-1.7-1.1-2.7v-5h7.5v5c0 1-.4 1.9-1.1 2.7-.6.7-1.6 1.1-2.6 1.1z" fill="#000101"/><path fill-rule="evenodd" clip-rule="evenodd" d="M13.9 9.3V13c-.1.5-.3.9-.6 1.2-.4.4-.9.6-1.5.6s-1.1-.2-1.5-.6c-.4-.4-.6-.9-.6-1.5V9.3h4.2zm-5.7 3.4c0 1 .4 1.9 1.1 2.5.7.7 1.6 1.1 2.5 1.1 1 0 1.9-.4 2.5-1.1.6-.6 1.1-1.5 1.1-2.5V7.8H8.2v4.9z" fill="#E81E26"/><path fill-rule="evenodd" clip-rule="evenodd" d="M9.7 9.3v3.4c0 .6.2 1.1.6 1.5.4.4.9.6 1.5.6s1.1-.2 1.5-.6c.3-.3.6-.8.6-1.2V9.3H9.7zm2.1 5.6c-.6 0-1.1-.2-1.5-.6-.4-.4-.6-1-.6-1.5V9.4H14v3.7c-.1.5-.3.9-.6 1.3-.5.3-1 .5-1.6.5zm3.6-7H8.2v4.8c0 .9.4 1.8 1.1 2.5.7.7 1.6 1 2.5 1 1 0 1.9-.4 2.5-1 .7-.7 1.1-1.6 1.1-2.5V7.9zm-3.6 8.4c-1 0-1.9-.4-2.6-1.1-.7-.7-1.1-1.6-1.1-2.5V7.8h7.2v4.9c0 1-.4 1.9-1.1 2.5-.5.8-1.4 1.1-2.4 1.1z" fill="#000101"/><path fill-rule="evenodd" clip-rule="evenodd" d="M11.3 12.2c0 .1.1.3.1.4.1.1.2.1.3.1.1 0 .2-.1.3-.1.1-.1.1-.2.1-.4v-.7h-.9l.1.7z" fill="#2D2D87"/><path fill-rule="evenodd" clip-rule="evenodd" d="M12.1 11.7c-.1 0-.1 0 0 0-.1.1-.1.2 0 .2 0-.1.1-.1 0-.2.1 0 0 0 0 0zm-.3.2s-.1.1 0 0c-.1.1-.1.2 0 .2s.1 0 0-.2c.1.1.1 0 0 0zm.3.3c-.1 0-.1 0 0 0-.1.1-.1.2 0 .2 0 0 .1-.1 0-.2.1 0 0 0 0 0zm-.5 0c-.1 0-.1 0 0 0-.1.1-.1.2 0 .2 0 0 .1-.1 0-.2.1 0 0 0 0 0zm0-.5c-.1 0-.1 0 0 0-.1.1-.1.2 0 .2 0-.1.1-.1 0-.2.1 0 0 0 0 0z" fill="#fff"/><path fill-rule="evenodd" clip-rule="evenodd" d="M11.3 13.8c0 .1.1.3.1.4.1.1.2.1.3.1.1 0 .2-.1.3-.1.1-.1.1-.2.1-.4v-.7h-.9l.1.7z" fill="#2D2D87"/><path fill-rule="evenodd" clip-rule="evenodd" d="M12.1 13.3c-.1 0-.1 0 0 0-.1.1-.1.2 0 .2 0 0 .1-.1 0-.2.1 0 0 0 0 0zm-.3.2s-.1.1 0 0c-.1.1-.1.2 0 .2s.1 0 0-.2c.1.1.1 0 0 0zm.3.3c-.1 0-.1 0 0 0-.1.1-.1.2 0 .2 0 0 .1 0 0-.2.1 0 0 0 0 0zm-.5 0c-.1 0-.1 0 0 0-.1.1-.1.2 0 .2 0 0 .1 0 0-.2.1 0 0 0 0 0zm0-.5c-.1 0-.1 0 0 0-.1.1-.1.2 0 .2 0 0 .1-.1 0-.2.1 0 0 0 0 0z" fill="#fff"/><path fill-rule="evenodd" clip-rule="evenodd" d="M10 12.2c0 .1.1.3.1.4.1.1.2.1.3.1.1 0 .2-.1.3-.1.1-.1.1-.2.1-.4v-.7H10v.7z" fill="#2D2D87"/><path fill-rule="evenodd" clip-rule="evenodd" d="M10.8 11.7c-.1 0-.1 0 0 0-.1.1-.1.2 0 .2 0 0 .1-.1 0-.2.1 0 0 0 0 0zm-.3.2s-.1.1 0 0c-.1.1-.1.2 0 .2s.1 0 0-.2c.1.1.1 0 0 0zm.3.3c-.1 0-.1 0 0 0-.1.1-.1.2 0 .2 0 0 .1-.1 0-.2.1 0 0 0 0 0zm-.5 0c-.1 0-.1 0 0 0-.1.1-.1.2 0 .2 0 0 .1-.1 0-.2.1 0 0 0 0 0zm0-.5c-.1 0-.1 0 0 0-.1.1-.1.2 0 .2 0 0 .1-.1 0-.2.1 0 0 0 0 0z" fill="#fff"/><path fill-rule="evenodd" clip-rule="evenodd" d="M12.7 12.2c0 .1.1.3.1.4.1.1.2.1.3.1.1 0 .2-.1.3-.1.1-.1.1-.2.1-.4v-.7h-.9v.7h.1z" fill="#2D2D87"/><path fill-rule="evenodd" clip-rule="evenodd" d="M13.4 11.7c-.1 0-.1 0 0 0-.1.1-.1.2 0 .2 0 0 .1-.1 0-.2.1 0 0 0 0 0zm-.3.2s-.1.1 0 0c-.1.1-.1.2 0 .2s.1 0 0-.2c.1.1.1 0 0 0zm.3.3c-.1 0-.1 0 0 0-.1.1-.1.2 0 .2 0 0 .1-.1 0-.2.1 0 0 0 0 0zm-.5 0c-.1 0-.1 0 0 0-.1.1-.1.2 0 .2 0 0 .1-.1 0-.2.1 0 0 0 0 0zm0-.5c-.1 0-.1 0 0 0-.1.1-.1.2 0 .2 0 0 .1-.1 0-.2.1 0 0 0 0 0z" fill="#fff"/><path fill-rule="evenodd" clip-rule="evenodd" d="M11.3 10.5c0 .1.1.3.1.4.1.1.2.1.3.1.1 0 .2-.1.3-.1.1-.1.1-.2.1-.4v-.7h-.9l.1.7z" fill="#2D2D87"/><path fill-rule="evenodd" clip-rule="evenodd" d="M12.1 10c-.1 0-.1.1 0 0-.1.1-.1.2 0 .2 0 0 .1 0 0-.2.1.1 0 0 0 0zm-.3.3s-.1 0 0 0c-.1.1-.1.2 0 .2s.1-.1 0-.2c.1 0 .1 0 0 0zm.3.2c-.1 0-.1.1 0 0-.1.1-.1.2 0 .2 0 0 .1 0 0-.2.1.1 0 0 0 0zm-.5 0c-.1 0-.1.1 0 0-.1.1-.1.2 0 .2 0 0 .1 0 0-.2.1.1 0 0 0 0zm0-.5c-.1 0-.1.1 0 0-.1.1-.1.2 0 .2 0 0 .1 0 0-.2.1.1 0 0 0 0z" fill="#fff"/><path fill-rule="evenodd" clip-rule="evenodd" d="M8.7 9.1c0-.3.3-.4.3-.4s.3.1.3.4h-.6z" fill="#F4EB34"/><path fill-rule="evenodd" clip-rule="evenodd" d="M8.5 8.7v.4h.3c0-.3.3-.4.3-.4s.3.1.3.4h.3v-.4H8.5z" fill="#F4EB34"/><path fill-rule="evenodd" clip-rule="evenodd" d="M8.9 8.7c.1 0 .2.1.3.4h.2v-.4h-.5zm0 0h-.4v.4h.2c0-.3.1-.4.2-.4zm.6.4h-.3c0-.3-.3-.4-.3-.4s-.2 0-.2.4h-.3v-.4h1l.1.4z" fill="#000101"/><path fill-rule="evenodd" clip-rule="evenodd" d="M8.4 9.1h1.1v.1H8.4s-.1 0 0-.1c-.1 0 0 0 0 0z" fill="#F4EB34"/><path fill-rule="evenodd" clip-rule="evenodd" d="M8.4 9.1l1.1.1-1.1-.1zm1.1.1H8.4s-.1 0-.1-.1c0 0 0-.1.1-.1h1.1v.2z" fill="#000101"/><path fill-rule="evenodd" clip-rule="evenodd" d="M8.8 9.1c0-.2.1-.3.1-.3s.1.1.1.3h-.2z" fill="#F4EB34"/><path fill-rule="evenodd" clip-rule="evenodd" d="M8.9 8.9s-.1.1-.1.3h.3c-.1-.3-.2-.3-.2-.3zm.2.2h-.3c0-.2.1-.3.1-.3s.2.1.2.3zm-.7-.5l1 .1-1-.1zm1 .1h-1s-.1 0-.1-.1c0 0 0-.1.1-.1h1c.1 0 .1.1 0 .2.1-.1.1 0 0 0z" fill="#000101"/><path fill-rule="evenodd" clip-rule="evenodd" d="M8.4 8.6h1-1c0 .1 0 .1 0 0 0 .1 0 0 0 0z" fill="#F4EB34"/><path fill-rule="evenodd" clip-rule="evenodd" d="M8.4 8.7l1 .1-1-.1zm1 0h-1s-.1 0-.1-.1c0 0 0-.1.1-.1h1c0 .1.1.2 0 .2.1 0 0 0 0 0z" fill="#000101"/><path fill-rule="evenodd" clip-rule="evenodd" d="M8.7 8l.1.1V8H9v.1V8h.1v.1h-.3V8h-.1z" fill="#F4EB34"/><path fill-rule="evenodd" clip-rule="evenodd" d="M8.8 8v.1h.3V8H9v-.1h-.2V8zm.3.1h-.3V8h.1v.1H9v.1h.1v-.1z" fill="#000101"/><path fill-rule="evenodd" clip-rule="evenodd" d="M9 8.1l.1.4h-.3v-.4H9z" fill="#F4EB34"/><path fill-rule="evenodd" clip-rule="evenodd" d="M9 8.1h-.2v.4H9v-.4zm.1.5h-.3v-.4h.3v.4z" fill="#000101"/><path fill-rule="evenodd" clip-rule="evenodd" d="M9.1 8.2l.1.1v-.1h.1v.1h.1v-.1h.1v.1h-.4v-.1z" fill="#F4EB34"/><path fill-rule="evenodd" clip-rule="evenodd" d="M9.1 8.2v.1h.3v-.1h-.2v-.1h-.1v.1zm.3.1h-.3v-.1h.1v.1h.1v.1h.1v-.1z" fill="#000101"/><path fill-rule="evenodd" clip-rule="evenodd" d="M9.4 8.3v.2h-.3v-.2h.3z" fill="#F4EB34"/><path fill-rule="evenodd" clip-rule="evenodd" d="M9.4 8.3h-.2v.2h.2v-.2zm0 .3h-.3v-.2h.3v.2z" fill="#000101"/><path fill-rule="evenodd" clip-rule="evenodd" d="M8.4 8.2l.1.1v-.1h.1v.1h.1v-.1h.1v.1h-.3v-.1h-.1z" fill="#F4EB34"/><path fill-rule="evenodd" clip-rule="evenodd" d="M8.5 8.2v.1h.3v-.1h-.2v-.1h-.1v.1zm.2.1h-.3v-.2h.1v.1h.1v.1h.1z" fill="#000101"/><path fill-rule="evenodd" clip-rule="evenodd" d="M8.7 8.3v.2h-.2v-.2h.2z" fill="#F4EB34"/><path fill-rule="evenodd" clip-rule="evenodd" d="M8.7 8.3h-.2v.2h.2v-.2zm0 .3h-.2v-.2h.3l-.1.2zm.2-.3c0-.1.1-.1 0 0z" fill="#000101"/><path fill-rule="evenodd" clip-rule="evenodd" d="M11.6 8l.1.1V8h.1v.1h.1V8h.1v.1h-.3V8h-.1z" fill="#F4EB34"/><path fill-rule="evenodd" clip-rule="evenodd" d="M11.7 8v.1h.3V8h-.2v-.1h-.1V8zm.3.1h-.3V8h.1v.1h.1v.1h.1v-.1z" fill="#000101"/><path fill-rule="evenodd" clip-rule="evenodd" d="M11.9 8.1v.4h-.2v-.4h.2z" fill="#F4EB34"/><path fill-rule="evenodd" clip-rule="evenodd" d="M11.9 8.1h-.2v.4h.2v-.4zm.1.5h-.3v-.4h.3v.4z" fill="#000101"/><path fill-rule="evenodd" clip-rule="evenodd" d="M12 8.2l.1.1v-.1h.1v.1h.1v-.1h.1v.1H12v-.1z" fill="#F4EB34"/><path fill-rule="evenodd" clip-rule="evenodd" d="M12 8.2v.1h.3v-.1h-.2v-.1H12v.1zm.3.1H12v-.1h.1v.1h.1v.1h.1v-.1z" fill="#000101"/><path fill-rule="evenodd" clip-rule="evenodd" d="M12.3 8.3v.2H12v-.2h.3z" fill="#F4EB34"/><path fill-rule="evenodd" clip-rule="evenodd" d="M12.3 8.3h-.2v.2h.2v-.2zm-.3.3v-.2h.3v.2H12z" fill="#000101"/><path fill-rule="evenodd" clip-rule="evenodd" d="M11.3 8.2l.1.1v-.1h.1v.1h.1v-.1h.1v.1h-.3v-.1h-.1z" fill="#F4EB34"/><path fill-rule="evenodd" clip-rule="evenodd" d="M11.4 8.2v.1h.3v-.1h-.2v-.1h-.1v.1zm.2.1h-.3v-.2h.1v.1h.1v.1h.1z" fill="#000101"/><path fill-rule="evenodd" clip-rule="evenodd" d="M11.6 8.3v.2h-.3l.1-.2h.2z" fill="#F4EB34"/><path fill-rule="evenodd" clip-rule="evenodd" d="M11.6 8.3h-.2v.2h.2v-.2zm0 .3h-.3v-.2h.3v.2z" fill="#000101"/><path fill-rule="evenodd" clip-rule="evenodd" d="M11.5 9.1c0-.3.3-.4.3-.4s.3.1.3.4h-.6z" fill="#F4EB34"/><path fill-rule="evenodd" clip-rule="evenodd" d="M11.3 8.7v.4h.3c0-.3.3-.4.3-.4s.3.1.3.4h.3v-.4h-1.2z" fill="#F4EB34"/><path fill-rule="evenodd" clip-rule="evenodd" d="M11.8 8.7c.1 0 .2.1.3.4h.2v-.4h-.5zm0 0h-.4v.4h.2c-.1-.3.1-.4.2-.4zm.6.4h-.3c0-.3-.3-.4-.3-.4s-.2 0-.2.4h-.3v-.4h1l.1.4z" fill="#000101"/><path fill-rule="evenodd" clip-rule="evenodd" d="M11.3 9.1h1.1v.1h-1.1s-.1 0 0-.1c-.1 0 0 0 0 0z" fill="#F4EB34"/><path fill-rule="evenodd" clip-rule="evenodd" d="M11.3 9.1l1.1.1-1.1-.1zm1 .1h-1.1s-.1 0-.1-.1c0 0 0-.1.1-.1h1.1c.1.1.1.1 0 .2.1 0 .1 0 0 0z" fill="#000101"/><path fill-rule="evenodd" clip-rule="evenodd" d="M11.7 9.1c0-.2.1-.3.1-.3s.1.1.2.3h-.3z" fill="#F4EB34"/><path fill-rule="evenodd" clip-rule="evenodd" d="M11.8 8.9s-.1.1-.1.3h.3c-.1-.3-.2-.3-.2-.3zm.2.2h-.3c0-.2.1-.3.1-.3s.2.1.2.3zm-.7-.5l1 .1-1-.1zm1 .1h-1s-.1 0-.1-.1c0 0 0-.1.1-.1h1c.1 0 .1.1 0 .2.1-.1.1 0 0 0z" fill="#000101"/><path fill-rule="evenodd" clip-rule="evenodd" d="M11.3 8.6h1-1c0 .1 0 .1 0 0 0 .1 0 0 0 0z" fill="#F4EB34"/><path fill-rule="evenodd" clip-rule="evenodd" d="M11.3 8.7l1 .1-1-.1zm1 0h-1s-.1 0-.1-.1c0 0 0-.1.1-.1h1c0 .1.1.2 0 .2.1 0 0 0 0 0z" fill="#000101"/><path fill-rule="evenodd" clip-rule="evenodd" d="M14.5 8l.1.1V8h.1v.1h.1V8h.1v.1h-.3V8h-.1z" fill="#F4EB34"/><path fill-rule="evenodd" clip-rule="evenodd" d="M14.6 8v.1h.3V8h-.2v-.1h-.1V8zm.2.1h-.3V8h.1v.1h.1v.1h.1v-.1z" fill="#000101"/><path fill-rule="evenodd" clip-rule="evenodd" d="M14.8 8.1v.5l-.3-.1v-.4h.3z" fill="#F4EB34"/><path fill-rule="evenodd" clip-rule="evenodd" d="M14.8 8.1h-.2v.4h.2v-.4zm0 .5h-.3v-.4h.3v.4z" fill="#000101"/><path fill-rule="evenodd" clip-rule="evenodd" d="M14.8 8.2l.1.1v-.1h.1v.1h.1v-.1h.1v.1h-.3v-.1h-.1z" fill="#F4EB34"/><path fill-rule="evenodd" clip-rule="evenodd" d="M14.9 8.2v.1h.3v-.1H15v-.1l-.1.1zm.2.1h-.3v-.1h.1v.1h.1v.1h.1v-.1z" fill="#000101"/><path fill-rule="evenodd" clip-rule="evenodd" d="M15.1 8.3v.3h-.2v-.3h.2z" fill="#F4EB34"/><path fill-rule="evenodd" clip-rule="evenodd" d="M15.1 8.3h-.2v.2h.2v-.2zm0 .3h-.3v-.2h.3v.2z" fill="#000101"/><path fill-rule="evenodd" clip-rule="evenodd" d="M14.2 8.2l.1.1v-.1h.1v.1h.1v-.1h.1v.1h-.3v-.1h-.1z" fill="#F4EB34"/><path fill-rule="evenodd" clip-rule="evenodd" d="M14.2 8.2v.1h.3v-.1h-.2v-.1h-.1v.1zm.3.1h-.3v-.1h.1v.1h.1v.1h.1v-.1z" fill="#000101"/><path fill-rule="evenodd" clip-rule="evenodd" d="M14.5 8.3v.3h-.3v-.3h.3z" fill="#F4EB34"/><path fill-rule="evenodd" clip-rule="evenodd" d="M14.4 8.3h-.2v.2h.2v-.2zm.1.3h-.3v-.2h.3v.2z" fill="#000101"/><path fill-rule="evenodd" clip-rule="evenodd" d="M14.4 9.1c0-.3.3-.4.3-.4s.3.1.3.4h-.6z" fill="#F4EB34"/><path fill-rule="evenodd" clip-rule="evenodd" d="M14.2 8.7v.4h.3c0-.3.3-.4.3-.4s.3.1.3.4h.3v-.4h-1.2z" fill="#F4EB34"/><path fill-rule="evenodd" clip-rule="evenodd" d="M14.7 8.7c.1 0 .2.1.3.4h.2v-.4h-.5zm-.1 0h-.4v.4h.2c0-.3.2-.4.2-.4zm.6.4h-.3c0-.3-.3-.4-.3-.4s-.2 0-.2.4h-.3v-.4h1l.1.4z" fill="#000101"/><path fill-rule="evenodd" clip-rule="evenodd" d="M14.1 9.1h1.1v.2h-1.1v-.2z" fill="#F4EB34"/><path fill-rule="evenodd" clip-rule="evenodd" d="M14.1 9.1l1.1.1-1.1-.1zm1.1.1h-1.1s-.1 0-.1-.1c0 0 0-.1.1-.1h1.1c0 .1.1.1 0 .2.1 0 0 0 0 0z" fill="#000101"/><path fill-rule="evenodd" clip-rule="evenodd" d="M14.5 9.1c0-.2.1-.3.1-.3s.1.1.2.3h-.3z" fill="#F4EB34"/><path fill-rule="evenodd" clip-rule="evenodd" d="M14.7 8.9s-.1.1-.1.3h.3c-.1-.3-.2-.3-.2-.3zm.1.2h-.3c0-.2.1-.3.1-.3.1 0 .2.1.2.3zm-.6-.5l1 .1-1-.1zm1 .1h-1s-.1 0-.1-.1c0 0 0-.1.1-.1h1v.2c0-.1 0 0 0 0z" fill="#000101"/><path fill-rule="evenodd" clip-rule="evenodd" d="M14.2 8.6h1-1c0 .1-.1.1 0 0-.1.1 0 0 0 0z" fill="#F4EB34"/><path fill-rule="evenodd" clip-rule="evenodd" d="M14.2 8.7l1 .1-1-.1zm1 0h-1s-.1 0-.1-.1c0 0 0-.1.1-.1h1v.2zm-.6-.4c0-.1.1-.1 0 0z" fill="#000101"/><path fill-rule="evenodd" clip-rule="evenodd" d="M8.8 10.9l.1.1v-.1H9v.1-.1h.1v.1h-.3v-.1z" fill="#F4EB34"/><path fill-rule="evenodd" clip-rule="evenodd" d="M8.8 10.9v.1h.3v-.1H9v.1-.1h-.2zm.3.2h-.3V11h.1v.1H9v.1h.1v-.1z" fill="#000101"/><path fill-rule="evenodd" clip-rule="evenodd" d="M9 11.1l.1.4h-.3v-.4H9z" fill="#F4EB34"/><path fill-rule="evenodd" clip-rule="evenodd" d="M9 11.1h-.2v.4H9v-.4zm.1.4h-.3v-.4h.3v.4z" fill="#000101"/><path fill-rule="evenodd" clip-rule="evenodd" d="M9.1 11.1l.1.1v-.1h.1v.1h.1v-.1h.1v.1h-.4v-.1z" fill="#F4EB34"/><path fill-rule="evenodd" clip-rule="evenodd" d="M9.2 11.1v.1h.3v-.1h-.2V11h-.1v.1zm.2.2h-.3v-.1h.1v.1h.1v.1h.1v-.1z" fill="#000101"/><path fill-rule="evenodd" clip-rule="evenodd" d="M9.4 11.3v.2h-.3v-.2h.3z" fill="#F4EB34"/><path fill-rule="evenodd" clip-rule="evenodd" d="M9.4 11.3h-.2v.2h.2v-.2zm0 .2h-.3v-.2h.3v.2z" fill="#000101"/><path fill-rule="evenodd" clip-rule="evenodd" d="M8.4 11.1l.1.1v-.1h.1v.1h.1v-.1h.1v.1h-.3v-.1h-.1z" fill="#F4EB34"/><path fill-rule="evenodd" clip-rule="evenodd" d="M8.5 11.1v.1h.3v-.1h-.2V11h-.1v.1zm.2.2h-.3v-.1h.1v.1h.1v.1h.1v-.1z" fill="#000101"/><path fill-rule="evenodd" clip-rule="evenodd" d="M8.7 11.3v.2h-.2v-.2h.2z" fill="#F4EB34"/><path fill-rule="evenodd" clip-rule="evenodd" d="M8.7 11.3h-.2v.2h.2v-.2zm0 .2h-.2v-.2h.3l-.1.2z" fill="#000101"/><path fill-rule="evenodd" clip-rule="evenodd" d="M8.7 12.1c0-.3.3-.4.3-.4s.3.1.3.4h-.6z" fill="#F4EB34"/><path fill-rule="evenodd" clip-rule="evenodd" d="M8.5 11.6v.4h.3c0-.3.3-.4.3-.4s.3.1.3.4h.3v-.4H8.5z" fill="#F4EB34"/><path fill-rule="evenodd" clip-rule="evenodd" d="M8.9 11.7c.1 0 .2.1.3.4h.2v-.4h-.5zm0 0h-.4v.4h.2c0-.3.1-.4.2-.4zm.6.4h-.3c0-.3-.3-.4-.3-.4s-.2 0-.2.4h-.3v-.4h1l.1.4z" fill="#000101"/><path fill-rule="evenodd" clip-rule="evenodd" d="M8.4 12h1.1v.2H8.4c0-.1-.1-.1 0-.2-.1.1 0 0 0 0z" fill="#F4EB34"/><path fill-rule="evenodd" clip-rule="evenodd" d="M8.4 12.1l1.1.1-1.1-.1zm1.1.1H8.4s-.1 0-.1-.1c0 0 0-.1.1-.1h1.1v.2c0-.1 0 0 0 0z" fill="#000101"/><path fill-rule="evenodd" clip-rule="evenodd" d="M8.8 12c0-.2.1-.3.1-.3s.1.1.1.3h-.2z" fill="#F4EB34"/><path fill-rule="evenodd" clip-rule="evenodd" d="M8.9 11.8s-.1.1-.1.3h.3c-.1-.2-.2-.3-.2-.3zm.2.3h-.3c0-.2.1-.3.1-.3s.2 0 .2.3z" fill="#000101"/><path fill-rule="evenodd" clip-rule="evenodd" d="M8.4 11.5h1-1c0 .1 0 0 0 0z" fill="#F4EB34"/><path fill-rule="evenodd" clip-rule="evenodd" d="M8.4 11.5l1 .1-1-.1zm1 .1h-1s-.1 0-.1-.1c0 0 0-.1.1-.1h1c.1.1.1.1 0 .2.1 0 .1 0 0 0z" fill="#000101"/><path fill-rule="evenodd" clip-rule="evenodd" d="M8.4 11.6h1-1c0 .1 0 0 0 0z" fill="#F4EB34"/><path fill-rule="evenodd" clip-rule="evenodd" d="M8.4 11.6l1 .1-1-.1zm1 .1h-1s-.1 0-.1-.1c0 0 0-.1.1-.1h1s.1.1 0 .2c.1-.1 0 0 0 0z" fill="#000101"/><path fill-rule="evenodd" clip-rule="evenodd" d="M14.3 14l.1.1-.1-.1.1.1.1.1-.1.1-.2-.2.1-.1z" fill="#F4EB34"/><path fill-rule="evenodd" clip-rule="evenodd" d="M14.3 14l.1.3.1-.1h-.2V14l.1.1-.1-.1zm.2.3l-.2-.2V14l.1-.1.1.1v.1l.1.1v.1l.1.1-.2-.1z" fill="#000101"/><path fill-rule="evenodd" clip-rule="evenodd" d="M14.4 14.3l-.3.3-.2-.2.3-.3.2.2z" fill="#F4EB34"/><path fill-rule="evenodd" clip-rule="evenodd" d="M14.2 14.2l-.3.3.2.2.3-.3-.2-.2zm-.1.4l-.2-.2.3-.3.2.2-.3.3z" fill="#000101"/><path fill-rule="evenodd" clip-rule="evenodd" d="M14.4 14.4l.1.1-.1-.1.1.1.1.1-.1.1-.2-.2.1-.1z" fill="#F4EB34"/><path fill-rule="evenodd" clip-rule="evenodd" d="M14.4 14.4l.1.3.1-.1h-.2v-.2l.1.1-.1-.1zm.2.3l-.2-.2v-.1l.1-.1.1.1v.1l.1.1v.1l.1.1-.2-.1z" fill="#000101"/><path fill-rule="evenodd" clip-rule="evenodd" d="M14.5 14.7l-.1.1-.2-.1.1-.2.2.2z" fill="#F4EB34"/><path fill-rule="evenodd" clip-rule="evenodd" d="M14.3 14.5l-.1.1.2.1.1-.1-.2-.1zm.1.4l-.2-.2.2-.2.2.2-.2.2z" fill="#000101"/><path fill-rule="evenodd" clip-rule="evenodd" d="M13.9 13.9l.1.1-.1-.1.1.1.1.1-.1.1-.2-.2.1-.1z" fill="#F4EB34"/><path fill-rule="evenodd" clip-rule="evenodd" d="M13.9 13.9l.1.3.1-.1h-.2v-.2l.1.1-.1-.1zm.2.3l-.2-.2.1-.1.1.1v.1l.1.1v.1l.1.1-.2-.2z" fill="#000101"/><path fill-rule="evenodd" clip-rule="evenodd" d="M14 14.2l-.1.2-.2-.2.2-.2.1.2z" fill="#F4EB34"/><path fill-rule="evenodd" clip-rule="evenodd" d="M13.9 14l-.1.2.2.1.1-.1-.2-.2zm0 .4l-.2-.2.2-.2.2.2-.2.2z" fill="#000101"/><path fill-rule="evenodd" clip-rule="evenodd" d="M13.4 14.8c.3-.2.5-.1.5-.1s.1.3-.1.5l-.4-.4z" fill="#F4EB34"/><path fill-rule="evenodd" clip-rule="evenodd" d="M13.6 14.3l-.3.3.2.2c.2-.2.5-.1.5-.1s.1.2-.1.5l.2.2.3-.3-.8-.8z" fill="#F4EB34"/><path fill-rule="evenodd" clip-rule="evenodd" d="M13.6 14.3l-.3.3.2.2c.1-.1.3-.1.4-.1l-.3-.4zm.3.4v.1c0 .1 0 .2-.1.3l.2.1.2-.3-.3-.2zm.1.6l-.2-.2c.2-.2.1-.5.1-.5h-.1c-.1 0-.2 0-.3.1l-.2-.2.3-.3.7.7-.3.4z" fill="#000101"/><path fill-rule="evenodd" clip-rule="evenodd" d="M13.3 14.5l.8.8v.1H14l-.7-.9c-.1.1-.1.1 0 0-.1 0-.1 0 0 0z" fill="#F4EB34"/><path fill-rule="evenodd" clip-rule="evenodd" d="M13.2 14.6l.8.8-.8-.8zm.8.8l-.8-.8v-.1l.8.8v.1z" fill="#000101"/><path fill-rule="evenodd" clip-rule="evenodd" d="M13.5 14.8c.1-.1.3-.1.3-.1s.1.1-.1.3l-.2-.2z" fill="#F4EB34"/><path fill-rule="evenodd" clip-rule="evenodd" d="M13.8 14.7c-.1 0-.1 0-.2.1l.2.2c.1-.1 0-.2 0-.3zm-.1.3l-.2-.2c.2-.2.3-.1.3-.1s.1.2-.1.3z" fill="#000101"/><path fill-rule="evenodd" clip-rule="evenodd" d="M13.7 14.2l.7.7v.1h-.1l-.6-.8c-.1 0-.1 0 0 0-.1-.1 0-.1 0 0z" fill="#F4EB34"/><path fill-rule="evenodd" clip-rule="evenodd" d="M13.7 14.2l.7.8-.7-.8zm.7.8l-.8-.7v-.1h.1l.7.7v.1z" fill="#000101"/><path fill-rule="evenodd" clip-rule="evenodd" d="M13.6 14.2l.7.7v.1h-.1l-.6-.8c-.1.1 0 .1 0 0z" fill="#F4EB34"/><path fill-rule="evenodd" clip-rule="evenodd" d="M13.6 14.2l.7.8-.7-.8zm.7.8l-.7-.7v-.1h.1l.6.8c.1-.1.1 0 0 0zm-.1-.7s.1 0 0 0v.1-.1z" fill="#000101"/><path fill-rule="evenodd" clip-rule="evenodd" d="M14.5 10.9l.1.1v-.1h.1v.1h.1v-.1h.1v.1h-.3v-.1h-.1z" fill="#F4EB34"/><path fill-rule="evenodd" clip-rule="evenodd" d="M14.5 10.9v.1h.3v-.1h-.2v-.1h-.1v.1zm.3.2h-.3v-.2h.1v.1h.1v.1h.1z" fill="#000101"/><path fill-rule="evenodd" clip-rule="evenodd" d="M14.8 11.1v.4h-.3v-.4h.3z" fill="#F4EB34"/><path fill-rule="evenodd" clip-rule="evenodd" d="M14.8 11.1h-.2v.4h.2v-.4zm0 .4h-.3v-.4h.3v.4z" fill="#000101"/><path fill-rule="evenodd" clip-rule="evenodd" d="M14.8 11.1l.1.1v-.1h.1v.1h.1v-.1h.1v.1h-.3v-.1h-.1z" fill="#F4EB34"/><path fill-rule="evenodd" clip-rule="evenodd" d="M14.9 11.1v.1h.3v-.1H15V11h-.1v.1zm.2.2h-.3v-.1h.1v.1h.1v.1h.1v-.1z" fill="#000101"/><path fill-rule="evenodd" clip-rule="evenodd" d="M15.1 11.3v.2h-.2v-.2h.2z" fill="#F4EB34"/><path fill-rule="evenodd" clip-rule="evenodd" d="M15.1 11.3h-.2v.2h.2v-.2zm0 .2h-.3v-.2h.3v.2z" fill="#000101"/><path fill-rule="evenodd" clip-rule="evenodd" d="M14.2 11.1l.1.1v-.1h.1v.1h.1v-.1h.1v.1h-.3v-.1h-.1z" fill="#F4EB34"/><path fill-rule="evenodd" clip-rule="evenodd" d="M14.2 11.1v.1h.3v-.1h-.2V11h-.1v.1zm.3.2h-.3v-.1h.1v.1h.1v.1h.1v-.1z" fill="#000101"/><path fill-rule="evenodd" clip-rule="evenodd" d="M14.5 11.3v.2h-.3v-.2h.3z" fill="#F4EB34"/><path fill-rule="evenodd" clip-rule="evenodd" d="M14.4 11.3h-.2v.2h.2v-.2zm-.2.2v-.2h.3v.2h-.3z" fill="#000101"/><path fill-rule="evenodd" clip-rule="evenodd" d="M14.4 12.1c0-.3.3-.4.3-.4s.3.1.3.4h-.6z" fill="#F4EB34"/><path fill-rule="evenodd" clip-rule="evenodd" d="M14.2 11.6v.4h.3c0-.3.3-.4.3-.4s.3.1.3.4h.3v-.4h-1.2z" fill="#F4EB34"/><path fill-rule="evenodd" clip-rule="evenodd" d="M14.7 11.7c.1 0 .2.1.2.4h.2v-.4h-.4zm-.1 0h-.4v.4h.2c0-.3.2-.4.2-.4zm.6.4h-.3c0-.3-.3-.4-.3-.4s-.2 0-.2.4h-.3v-.4h1l.1.4z" fill="#000101"/><path fill-rule="evenodd" clip-rule="evenodd" d="M14.1 12h1.1v.1l-1.1-.1c0 .1 0 .1 0 0 0 .1 0 0 0 0z" fill="#F4EB34"/><path fill-rule="evenodd" clip-rule="evenodd" d="M14.1 12.1l1.1.1-1.1-.1zm1.1.1h-1.1s-.1 0-.1-.1c0 0 0-.1.1-.1h1.1s.1.1 0 .2c.1-.1 0 0 0 0z" fill="#000101"/><path fill-rule="evenodd" clip-rule="evenodd" d="M14.5 12c0-.2.1-.3.1-.3s.1.1.1.3h-.2z" fill="#F4EB34"/><path fill-rule="evenodd" clip-rule="evenodd" d="M14.7 11.8s-.1.1-.1.3h.3c-.1-.3-.2-.3-.2-.3zm.1.3h-.3c0-.2.1-.3.1-.3.1 0 .2 0 .2.3z" fill="#000101"/><path fill-rule="evenodd" clip-rule="evenodd" d="M14.2 11.5h1-1c-.1.1-.1 0 0 0-.1 0-.1 0 0 0z" fill="#F4EB34"/><path fill-rule="evenodd" clip-rule="evenodd" d="M14.2 11.5l1 .1-1-.1zm1 .1h-1s-.1 0-.1-.1c0 0 0-.1.1-.1h1v.2z" fill="#000101"/><path fill-rule="evenodd" clip-rule="evenodd" d="M14.2 11.6h1-1c0 .1-.1 0 0 0-.1 0 0 0 0 0z" fill="#F4EB34"/><path fill-rule="evenodd" clip-rule="evenodd" d="M14.2 11.6l1 .1-1-.1zm1 .1h-1s-.1 0-.1-.1c0 0 0-.1.1-.1h1v.2c0-.1 0 0 0 0z" fill="#000101"/><path fill-rule="evenodd" clip-rule="evenodd" d="M9 14.2l.1-.1-.1.1.1-.2.1-.1.1.1-.2.2c.1.1 0 .1-.1 0z" fill="#F4EB34"/><path fill-rule="evenodd" clip-rule="evenodd" d="M9.1 14.2l.1.1.2-.2-.1-.1v.2h-.2zm0 .1l-.1-.1.1-.1h.1l.1-.1h.1l.1-.1.1.1v.1l-.5.2z" fill="#000101"/><path fill-rule="evenodd" clip-rule="evenodd" d="M9.4 14.1l.3.3-.2.2-.3-.3.2-.2z" fill="#F4EB34"/><path fill-rule="evenodd" clip-rule="evenodd" d="M9.4 14.2l-.1.2.3.3.2-.2-.4-.3zm.1.4l-.3-.3.2-.2.3.3-.2.2z" fill="#000101"/><path fill-rule="evenodd" clip-rule="evenodd" d="M9.4 14.1l.1-.1-.1.1.1-.1.1-.1.1.1-.2.2-.1-.1z" fill="#F4EB34"/><path fill-rule="evenodd" clip-rule="evenodd" d="M9.5 14.1l.1.1.2-.2-.1-.1v.2h-.2.1-.1zm0 .1l-.1-.1.1-.1h.1l.1-.1h.1l.1-.1.1.1v.1l-.5.2z" fill="#000101"/><path fill-rule="evenodd" clip-rule="evenodd" d="M9.7 14l.2.2-.2.2-.1-.2.1-.2z" fill="#F4EB34"/><path fill-rule="evenodd" clip-rule="evenodd" d="M9.7 14l-.2.2.1.1.2-.2-.1-.1zm0 .4l-.2-.2.2-.2.2.1-.2.3z" fill="#000101"/><path fill-rule="evenodd" clip-rule="evenodd" d="M8.9 14.6l.1-.1-.1.1.1-.1.1-.1.1.1-.2.2c.1 0 0 0-.1-.1z" fill="#F4EB34"/><path fill-rule="evenodd" clip-rule="evenodd" d="M9 14.6l.1.1.2-.2-.1-.1v.2H9zm.1.1l-.1-.1.1-.1h.1l.1-.1h.1l.1-.1.1.1v.1l-.5.2z" fill="#000101"/><path fill-rule="evenodd" clip-rule="evenodd" d="M9.3 14.5l.1.2-.2.1-.1-.1.2-.2z" fill="#F4EB34"/><path fill-rule="evenodd" clip-rule="evenodd" d="M9.2 14.5l-.2.2.1.1.2-.2-.1-.1zm0 .4l-.2-.2.2-.2.2.1-.2.3z" fill="#000101"/><path fill-rule="evenodd" clip-rule="evenodd" d="M9.8 15.1c-.2-.3-.1-.5-.1-.5s.3-.1.5.1l-.4.4z" fill="#F4EB34"/><path fill-rule="evenodd" clip-rule="evenodd" d="M9.3 15l.3.3.2-.2c-.2-.2-.1-.4-.1-.5 0 0 .2-.1.5.1l.2-.2-.3-.3-.8.8z" fill="#F4EB34"/><path fill-rule="evenodd" clip-rule="evenodd" d="M9.9 14.6c.1 0 .2 0 .3.1l.2-.2-.3-.2-.3.3h.1zm-.2.1l-.3.3.2.3.2-.2c-.2-.1-.2-.3-.1-.4-.1 0 0 0 0 0zm-.1.6l-.3-.3.7-.7.3.3-.2.2c-.1-.1-.2-.1-.3-.1h-.2s-.1.2.1.4l-.1.2z" fill="#000101"/><path fill-rule="evenodd" clip-rule="evenodd" d="M9.6 15.3l.8-.8h.1v.1l-.9.7c0 .1 0 .1 0 0z" fill="#F4EB34"/><path fill-rule="evenodd" clip-rule="evenodd" d="M10.4 14.5l-.8.8v.1l.8-.9zm-.8.9c-.1 0-.1-.1-.1-.1l.8-.8h.1v.1l-.8.8z" fill="#000101"/><path fill-rule="evenodd" clip-rule="evenodd" d="M9.9 15c-.1-.1-.1-.3-.1-.3s.1-.1.3.1l-.2.2z" fill="#F4EB34"/><path fill-rule="evenodd" clip-rule="evenodd" d="M9.8 14.7s0 .1.1.3l.2-.2c-.2-.1-.3-.1-.3-.1zm.1.3c-.2-.2-.1-.3-.1-.3s.2-.1.3.1l-.2.2z" fill="#000101"/><path fill-rule="evenodd" clip-rule="evenodd" d="M9.2 14.9l.7-.7h.1v.1l-.8.6c.1.1 0 .1 0 0z" fill="#F4EB34"/><path fill-rule="evenodd" clip-rule="evenodd" d="M9.2 14.9l.7-.7-.7.7zm0 .1v-.1l.7-.7h.1v.1l-.8.7z" fill="#000101"/><path fill-rule="evenodd" clip-rule="evenodd" d="M9.3 14.9l.7-.7h.1v.1l-.8.6c0 .1 0 .1 0 0 0 .1 0 0 0 0z" fill="#F4EB34"/><path fill-rule="evenodd" clip-rule="evenodd" d="M9.3 15l.7-.7-.7.7zm0 0c-.1 0-.1-.1-.1-.1l.7-.7h.1v.1l-.7.7z" fill="#000101"/></svg>