<svg width="24" height="24" fill="none" xmlns="http://www.w3.org/2000/svg"><path d="M12 24c6.627 0 12-5.373 12-12S18.627 0 12 0 0 5.373 0 12s5.373 12 12 12z" fill="#D1202A"/><path fill-rule="evenodd" clip-rule="evenodd" d="M9.6 5.1c3.5 0 6.3 2.8 6.3 6.3s-2.8 6.3-6.3 6.3-6.3-2.8-6.3-6.3 2.8-6.3 6.3-6.3z" fill="#fff"/><path fill-rule="evenodd" clip-rule="evenodd" d="M11.2 6.4c2.8 0 5 2.3 5 5 0 2.8-2.3 5-5 5-2.8 0-5-2.3-5-5-.1-2.8 2.2-5 5-5z" fill="#D1202A"/><path fill-rule="evenodd" clip-rule="evenodd" d="M14.9 11.4l3 1 .5-1.5-3.5.5z" fill="#fff"/><path fill-rule="evenodd" clip-rule="evenodd" d="M14.9 11.4l3-1 .5 1.5-3.5-.5z" fill="#fff"/><path fill-rule="evenodd" clip-rule="evenodd" d="M17.1 8.4v3.2h1.6l-1.6-3.2z" fill="#fff"/><path fill-rule="evenodd" clip-rule="evenodd" d="M17.1 8.4L19 11l-1.3.9-.6-3.5z" fill="#fff"/><path fill-rule="evenodd" clip-rule="evenodd" d="M17.1 14.4l1.9-2.6-1.3-.9-.6 3.5z" fill="#fff"/><path fill-rule="evenodd" clip-rule="evenodd" d="M17.1 14.4v-3.2h1.6l-1.6 3.2z" fill="#fff"/><path fill-rule="evenodd" clip-rule="evenodd" d="M20.6 9.5l-3 1 .5 1.5 2.5-2.5z" fill="#fff"/><path fill-rule="evenodd" clip-rule="evenodd" d="M20.6 9.5l-1.8 2.6-1.3-.9 3.1-1.7z" fill="#fff"/><path fill-rule="evenodd" clip-rule="evenodd" d="M20.6 13.2l-1.8-2.5-1.3.9 3.1 1.6z" fill="#fff"/><path fill-rule="evenodd" clip-rule="evenodd" d="M20.6 13.2l-3-.9.5-1.5 2.5 2.4z" fill="#fff"/></svg>