<svg width="32" height="32" fill="none" xmlns="http://www.w3.org/2000/svg"><path d="M24.752 10.288c0-4.674-4.094-8.477-9.127-8.477s-9.127 3.803-9.127 8.477l.003.06c0 .01-.003.02-.003.033v12.826a2.718 2.718 0 002.714 2.714h12.826a2.718 2.718 0 002.714-2.714V10.38c0-.011-.003-.021-.003-.033l.003-.06z" fill="#fff"/><path d="M10.083.41a.603.603 0 00-.235.82l3.289 5.935a.603.603 0 101.056-.586L10.905.646a.606.606 0 00-.822-.236zm16.602 9.878a2.231 2.231 0 00-2.231 2.23v7.9a2.231 2.231 0 004.462 0v-7.9a2.231 2.231 0 00-2.231-2.23zm-7.9 9.016a2.231 2.231 0 00-2.231 2.23v7.9a2.231 2.231 0 004.462 0v-7.9a2.231 2.231 0 00-2.231-2.23zM21.167.41a.603.603 0 01.235.82l-3.289 5.935a.603.603 0 11-1.056-.586L20.346.645a.605.605 0 01.821-.235zM4.565 10.288c1.232 0 2.231.999 2.231 2.23v7.9a2.231 2.231 0 01-4.462 0v-7.9c0-1.231.999-2.23 2.231-2.23zm7.9 9.016c1.232 0 2.231.999 2.231 2.23v7.9a2.231 2.231 0 01-4.462 0v-7.9c0-1.231.999-2.23 2.231-2.23z" fill="#A4C638"/><path d="M13.667 7.812a.93.93 0 01-.822-.484l-3.29-5.934a.94.94 0 011.642-.91l3.289 5.934c.122.219.15.473.081.714a.93.93 0 01-.447.562.93.93 0 01-.453.118zM10.246.702a.27.27 0 00-.105.367l3.289 5.934a.264.264 0 00.161.128.27.27 0 00.31-.389L10.612.808a.27.27 0 00-.366-.105zm16.439 22.282a2.568 2.568 0 01-2.565-2.565v-7.9a2.568 2.568 0 012.565-2.565 2.568 2.568 0 012.565 2.565v7.9a2.566 2.566 0 01-2.565 2.565zm0-12.361a1.898 1.898 0 00-1.896 1.896v7.9c0 1.046.851 1.896 1.896 1.896a1.899 1.899 0 001.896-1.896v-7.9c0-1.046-.85-1.896-1.896-1.896zM18.785 32a2.568 2.568 0 01-2.565-2.565v-7.9a2.568 2.568 0 012.565-2.565 2.568 2.568 0 012.565 2.565v7.9A2.568 2.568 0 0118.785 32zm0-12.362a1.898 1.898 0 00-1.896 1.896v7.9c0 1.046.851 1.896 1.896 1.896a1.899 1.899 0 001.896-1.896v-7.9c0-1.045-.85-1.896-1.896-1.896zM17.583 7.812a.937.937 0 01-.82-1.394L20.052.484a.94.94 0 011.642.91l-3.289 5.934a.934.934 0 01-.822.484zM20.874.669a.269.269 0 00-.236.139l-3.289 5.934a.27.27 0 00.471.26l3.289-5.933a.27.27 0 00-.235-.4zM4.565 22.984A2.568 2.568 0 012 20.419v-7.9a2.568 2.568 0 012.565-2.565 2.568 2.568 0 012.565 2.565v7.9a2.568 2.568 0 01-2.565 2.565zm0-12.361a1.899 1.899 0 00-1.896 1.896v7.9c0 1.046.851 1.896 1.896 1.896a1.899 1.899 0 001.896-1.896v-7.9a1.898 1.898 0 00-1.896-1.896zM12.465 32A2.568 2.568 0 019.9 29.435v-7.9a2.568 2.568 0 012.565-2.565 2.568 2.568 0 012.565 2.565v7.9A2.568 2.568 0 0112.465 32zm0-12.362a1.899 1.899 0 00-1.896 1.896v7.9c0 1.046.851 1.896 1.896 1.896a1.899 1.899 0 001.896-1.896v-7.9a1.899 1.899 0 00-1.896-1.896z" fill="#fff"/><path d="M24.082 10.279c-.005-4.308-3.789-7.798-8.457-7.798-4.668 0-8.452 3.49-8.457 7.798h16.914zM19.529 5.77a.707.707 0 010 1.412.707.707 0 010-1.412zm-7.808 0a.707.707 0 010 1.412.706.706 0 010-1.412zM7.167 10.948v12.259c0 1.129.915 2.045 2.045 2.045h12.826a2.045 2.045 0 002.045-2.045v-12.26H7.167z" fill="#A4C638"/></svg>