<svg width="32" height="32" fill="none" xmlns="http://www.w3.org/2000/svg"><path fill-rule="evenodd" clip-rule="evenodd" d="M7.683.485h16.635a7.198 7.198 0 017.198 7.198v16.635a7.198 7.198 0 01-7.198 7.198H7.683a7.198 7.198 0 01-7.198-7.198V7.683A7.197 7.197 0 017.683.485z" fill="url(#paint0_linear)"/><path d="M24.317 32H7.683C3.446 32 0 28.554 0 24.317V7.683C0 3.446 3.446 0 7.683 0h16.634C28.554 0 32 3.446 32 7.683v16.634C32 28.554 28.554 32 24.317 32zM7.683.97A6.72 6.72 0 00.97 7.683v16.634a6.72 6.72 0 006.713 6.713h16.634a6.72 6.72 0 006.713-6.713V7.683A6.72 6.72 0 0024.317.97H7.683z" fill="#D4D4D4"/><path fill-rule="evenodd" clip-rule="evenodd" d="M5.584 22.324h-.73V12.57h.73v9.754zM5.209 10.18a.557.557 0 110-1.114.557.557 0 110 1.114zM12.674 22.515c-3.569 0-5.824-2.599-5.824-6.73 0-4.111 2.265-6.72 5.824-6.72 3.56 0 5.822 2.609 5.822 6.72 0 4.131-2.254 6.73-5.822 6.73zm0-12.779c-3.107 0-5.09 2.346-5.09 6.048 0 3.705 1.992 6.06 5.09 6.06 3.107 0 5.09-2.355 5.09-6.06 0-3.703-1.984-6.048-5.09-6.048zM23.694 22.515c-2.68 0-4.6-1.513-4.71-3.677h.716c.109 1.774 1.775 3.016 4.048 3.016 2.218 0 3.766-1.26 3.766-2.961 0-1.369-.923-2.156-3.114-2.708l-1.548-.381c-2.417-.617-3.514-1.595-3.514-3.233 0-2.038 1.903-3.505 4.285-3.505 2.462 0 4.3 1.449 4.383 3.369h-.716c-.1-1.566-1.63-2.708-3.686-2.708-1.966 0-3.533 1.178-3.533 2.826 0 1.305.96 2.056 3.06 2.581l1.458.371c2.526.625 3.659 1.595 3.659 3.333 0 2.163-1.82 3.677-4.554 3.677z" fill="#2B2B2B"/><defs><linearGradient id="paint0_linear" x1="16.007" y1="16.007" x2="16.007" y2="31.507" gradientUnits="userSpaceOnUse"><stop stop-color="#fff"/><stop offset="1" stop-color="#E8E5E5"/></linearGradient></defs></svg>