<svg width="32" height="32" fill="none" xmlns="http://www.w3.org/2000/svg"><path d="M17.612 10.616v-.264l-.82.056c-.232.015-.406.064-.524.147a.406.406 0 00-.176.349c0 .145.058.261.174.346.116.086.271.129.466.129.124 0 .241-.019.348-.057a.873.873 0 00.28-.159.702.702 0 00.184-.241.671.671 0 00.068-.306zM16 0C7.072 0 0 7.072 0 16c0 8.929 7.072 16 16 16s16-7.071 16-16c0-8.928-7.071-16-16-16zm3.106 9.484c.076-.212.182-.394.32-.545.138-.151.304-.268.498-.349.194-.082.411-.123.649-.123.215 0 .409.032.582.096s.322.15.446.259c.124.109.223.235.295.38.072.145.116.298.13.46h-.642a.804.804 0 00-.087-.248.682.682 0 00-.164-.199.79.79 0 00-.241-.132.917.917 0 00-.312-.048.822.822 0 00-.656.316c-.079.1-.14.223-.183.366a1.638 1.638 0 00-.066.48c0 .182.022.345.066.489.043.144.105.265.185.365a.795.795 0 00.288.228.866.866 0 00.369.079c.22 0 .399-.052.537-.155a.723.723 0 00.27-.453h.643a1.248 1.248 0 01-.894 1.089c-.17.055-.356.084-.559.084-.241 0-.457-.04-.652-.12a1.387 1.387 0 01-.5-.343 1.54 1.54 0 01-.322-.544 2.14 2.14 0 01-.113-.721 2.1 2.1 0 01.113-.711zm-9.14-.974h.643v.571h.012a.942.942 0 01.373-.445c.083-.053.174-.093.273-.121a1.15 1.15 0 01.314-.042c.236 0 .436.056.598.169a.908.908 0 01.346.486h.016c.043-.102.1-.193.17-.273a1.092 1.092 0 01.542-.337c.109-.03.223-.045.343-.045.166 0 .316.026.452.079a.993.993 0 01.348.224c.096.096.17.214.222.351.052.137.078.29.078.458v2.299h-.671V9.747c0-.221-.057-.393-.171-.514-.113-.121-.276-.182-.487-.182a.739.739 0 00-.285.055.64.64 0 00-.222.153.698.698 0 00-.146.234.822.822 0 00-.053.298v2.093H12V9.691a.739.739 0 00-.045-.264.551.551 0 00-.333-.331.763.763 0 00-.269-.045.692.692 0 00-.662.46c-.034.093-.089.194-.089.304v2.069h-.636V8.51zm1.46 16.146c-2.949 0-4.799-2.05-4.799-5.32 0-3.27 1.85-5.327 4.799-5.327 2.949 0 4.792 2.056 4.792 5.327 0 3.27-1.843 5.32-4.792 5.32zm5.461-12.781a1.406 1.406 0 01-.795-.03 1.07 1.07 0 01-.36-.202.902.902 0 01-.234-.315.985.985 0 01-.084-.412.82.82 0 01.331-.694c.221-.167.54-.264.958-.291l.91-.052v-.26c0-.194-.062-.343-.185-.444-.123-.101-.298-.152-.524-.152a.941.941 0 00-.255.034.705.705 0 00-.209.097.556.556 0 00-.23.35h-.63a.899.899 0 01.11-.413c.069-.126.163-.236.283-.329.12-.093.259-.166.421-.217a1.75 1.75 0 01.528-.078c.205 0 .391.025.557.078.166.053.309.126.427.222a.983.983 0 01.273.348c.064.136.096.288.096.455v2.314h-.642v-.562h-.016a1.04 1.04 0 01-.181.247 1.2 1.2 0 01-.248.188 1.241 1.241 0 01-.301.118zm4.243 12.781c-2.249 0-3.778-1.178-3.885-3.028h1.464c.114 1.057 1.136 1.757 2.535 1.757 1.342 0 2.307-.7 2.307-1.657 0-.828-.586-1.329-1.942-1.671l-1.322-.328c-1.9-.471-2.764-1.336-2.764-2.757 0-1.75 1.528-2.964 3.707-2.964 2.128 0 3.613 1.221 3.67 2.978h-1.45c-.1-1.057-.964-1.707-2.25-1.707-1.278 0-2.164.657-2.164 1.607 0 .749.557 1.193 1.914 1.535l1.114.278c2.121.514 2.993 1.35 2.993 2.85.001 1.914-1.513 3.107-3.927 3.107zm-9.704-9.335c-2.021 0-3.285 1.55-3.285 4.013 0 2.457 1.264 4.007 3.285 4.007 2.014 0 3.285-1.55 3.285-4.007.001-2.463-1.271-4.013-3.285-4.013z" fill="#fff"/></svg>