<svg width="24" height="24" fill="none" xmlns="http://www.w3.org/2000/svg"><g opacity=".54" fill="#fff"><path d="M10.564 6a.946.946 0 000 1.89c1.155 0 2.187.646 2.693 1.685a.945.945 0 001.7-.829A4.853 4.853 0 0010.564 6z"/><path d="M20.734 18.983l-3.15-3.15a7.98 7.98 0 001.487-4.64c0-4.43-3.605-8.035-8.036-8.035C6.605 3.158 3 6.763 3 11.194c0 4.43 3.604 8.035 8.035 8.035a7.984 7.984 0 004.912-1.69l3.116 3.115a1.18 1.18 0 001.671 0 1.181 1.181 0 000-1.67zm-15.843-7.79a6.152 6.152 0 016.145-6.144 6.152 6.152 0 016.144 6.145c0 1.41-.481 2.706-1.283 3.744a6.114 6.114 0 01-4.861 2.4 6.152 6.152 0 01-6.145-6.144z"/></g></svg>