<svg width="492" height="634" fill="none" xmlns="http://www.w3.org/2000/svg"><path d="M63.69 622.709c-.48-3.036-2.561-4.635-4.961-3.995L41.606 512.115l56.488-132.649-24.003-78.151-53.288-10.229-8.481-43.63 29.444-47.146.16-.16-14.082-46.347-19.043.639-7.52-31.324 20.482-26.37.16-.16L4.641 47.524c.64-.48.96-.96.96-1.12-.16-.319-.8 0-1.76.48-.8.48-1.44 1.119-1.28 1.439 0 .16.64.16 1.28-.16l16.962 49.064L0 123.437l7.521 31.804 19.043-.639 13.762 46.027-29.444 47.147-.16.319 8.48 44.59 53.289 10.388 23.363 77.192-56.648 132.649 16.802 107.877c-2.08 2.238-3.52 5.754-3.04 8.95.64 3.836 3.52 5.274 6.56 3.516 2.881-2.237 4.801-6.872 4.161-10.548z" fill="url(#paint0_linear)"/><path d="M61.45 513.554l54.567-135.047-31.204-91.096-53.448-9.11-7.361-33.082 29.124-47.626-17.602-51.941-19.043.799-7.041-26.05 20.323-26.69-7.361-19.178c.64-.48 1.12-1.119 1.12-1.438-.16-.32-.96-.16-2.08.48-.96.638-1.6 1.438-1.44 1.757.16.32.8.16 1.6-.16l7.36 19.019L8.643 120.88l7.04 26.37 19.043-.799 17.283 51.462-29.124 47.625 7.52 34.042 53.449 9.109 30.404 90.138-54.888 134.886 7.841 42.512c-2.08 1.918-3.2 5.114-2.72 7.831.64 3.196 3.36 4.475 6.24 2.717 2.881-1.758 4.641-5.753 4.001-8.95-.48-2.557-2.56-3.835-4.8-3.196l-8.482-41.073z" fill="url(#paint1_linear)"/><path d="M13.762 41.131c.16.16.64.16 1.28-.32l20.963 50.023-20.163 26.53 7.201 23.653 19.203-.959 19.843 53.699-28.324 47.466-.16.32 7.2 28.607 54.089 8.311 35.685 95.731-48.167 123.699c-2.08.32-4.32 2.078-5.28 4.635-1.281 3.196-.32 6.073 2.08 6.712 2.4.48 5.44-1.598 6.56-4.794.96-2.557.48-5.114-1.12-6.073l48.327-124.818-36.645-96.53-54.088-8.151-2.88-11.347 80.971 10.867 19.363 43.471c-1.44 1.278-2.08 3.036-1.6 4.315.64 1.598 2.881 1.758 4.961.479 2.08-1.278 3.2-3.516 2.56-5.114-.64-1.278-2.24-1.598-4-.959l-19.523-44.109-83.053-10.868-3.84-14.863 28.484-47.626-7.841-20.617H69.13l13.922 33.243-12.642 22.694c-1.28.319-2.72 1.438-3.36 2.557-.8 1.438-.16 2.397 1.28 2.397 1.44-.16 3.36-1.438 4.16-2.717.64-1.118.32-2.077-.64-2.237l12.962-23.174-14.242-33.721H55.688l-12.162-32.284-19.203 1.119-5.76-19.018 32.484-2.877 11.042 25.411 7.841-.32c-.48.799-.16 1.279.8 1.279 1.12 0 2.56-.959 3.52-1.918.8-.959.64-1.758-.48-1.758-.96 0-2.08.639-2.88 1.438l-7.521.32-11.042-25.251-33.925 3.036-1.12-3.516 20.003-26.53L24.163 59.67l6.241-1.119 14.242 31.165-14.562 19.497.64 1.758c-.8.64-1.28 1.279-1.12 1.758.16.48 1.28.32 2.4-.479 1.12-.639 1.92-1.598 1.76-2.078-.16-.319-.96-.319-1.76.16l-.64-1.598 14.402-19.498-14.562-31.324-7.2 1.438-8.002-19.018c.64-.48.96-.959.96-1.119-.16-.32-.8 0-1.76.48-.96.479-1.44 1.118-1.44 1.438z" fill="url(#paint2_linear)"/><path d="M66.25 8.847c.16.16.8 0 1.44-.32l27.204 32.124 12.161-2.398 11.682 12.786-7.521 11.347c-.96.32-1.92 1.118-2.24 1.598-.481.799 0 1.119 1.12.799 1.12-.32 2.4-1.119 2.88-1.918.32-.64.16-.959-.64-.959l7.521-11.666-11.522-12.466 17.283-3.356 19.203 18.538-9.442 15.822 14.723 15.982-20.003 2.398-6.561-7.991c.8-.64 1.28-1.439.96-1.758-.32-.48-1.6-.16-2.881.48-1.28.798-1.92 1.757-1.6 2.077.32.32 1.28.32 2.241-.16l6.721 8.15 21.603-2.556 15.842 17.1 25.284-2.397 32.005 31.005-11.042 28.287c-1.44.48-2.881 1.599-3.201 2.557-.48 1.279.48 2.238 2.241 1.918 1.76-.319 3.68-1.598 4.16-2.876.48-1.119-.16-1.918-1.44-1.918l11.202-28.768-31.685-30.525 23.043-2.237 25.604 22.374-17.442 47.786 50.887 55.457 123.538 7.192 17.123 14.064c-1.44 1.438-1.6 3.356 0 4.634 1.92 1.599 5.441 1.599 8.001.16 2.4-1.438 2.881-3.995.96-5.593-1.6-1.279-4.32-1.439-6.561-.64l-17.922-14.543-123.699-6.872-50.567-54.658 17.443-47.786-26.244-22.694-50.568 4.795L136.5 67.82l9.441-15.822-19.363-18.06-30.884 6.073L68.49 8.048c.64-.48.96-.8.8-1.12-.16-.159-.96 0-1.76.48-.8.64-1.44 1.279-1.28 1.439z" fill="url(#paint3_linear)"/><path d="M409.34 212.776l-122.738-4.795-43.527-44.11 16.323-48.105-34.085-27.808-50.408 5.274-28.004-28.288 9.282-15.822-23.684-21.256-30.884 6.233-6.721-7.352c.64-.48 1.12-.959.8-1.278-.32-.32-1.28 0-2.24.639-.96.64-1.601 1.279-1.28 1.598.16.16.96.16 1.76-.32l6.72 7.512 30.885-6.233 23.203 21.256-9.281 15.822 28.324 28.767 50.408-5.274 33.445 27.489-16.483 48.105 44.007 44.909 122.738 5.114 72.33 55.457c-1.6 1.598-1.44 3.836.48 5.274 2.401 1.758 6.401 1.918 9.122.32 2.72-1.598 2.88-4.475.48-6.233-1.921-1.439-5.121-1.758-7.681-.959l-73.291-55.936z" fill="url(#paint4_linear)"/><path d="M77.772 1.816c.16.16.8 0 1.44-.32l27.684 28.767 31.044-6.393 25.924 21.896-8.961 15.822 27.204 25.89 50.727-5.753 38.086 29.406-15.522 47.946 40.966 39.315 123.218 3.516c-1.28 1.279-1.28 3.037.16 3.995 1.76 1.279 5.121 1.279 7.521-.159 2.24-1.439 2.721-3.676.8-4.955-1.44-1.118-4-1.118-6.241-.319l-.48-.32-123.378-3.196-40.486-38.517 15.362-47.785v-.16l-38.885-29.726-50.728 5.753-27.044-25.57 8.961-15.823-26.243-22.054-31.045 6.392L80.172 1.017c.64-.48.96-.8.8-.96-.16-.16-.96 0-1.92.64-.96.32-1.44.959-1.28 1.119z" fill="url(#paint5_linear)"/><path d="M46.886 20.834c.16.16.64 0 1.44-.32l6.082 9.27-7.842 9.749 28.165 47.626-3.04 4.315c-.961.32-1.921 1.119-2.401 1.758-.48.799-.16 1.278.96.959.96-.32 2.4-1.119 2.88-1.918.48-.64.32-1.119-.48-.959l3.2-4.635-28.483-47.466 7.2-8.79 28.005 41.713 12.001-1.758 12.642 17.26-8 12.786 17.442 26.37 25.604-1.758 3.68 4.954-20.483 39.156 23.844 39.954c-1.121.959-1.761 2.238-1.281 3.196.641.959 2.561.959 4.161-.159 1.76-1.119 2.72-2.717 2.08-3.676-.48-.799-1.92-.959-3.36-.32l-24.004-39.475 19.523-37.557 20.003 26.37-12.322 26.37 67.85 102.763 45.927 6.393c-.16 1.758.96 3.196 2.88 3.356 2.401.319 5.121-1.119 6.081-3.197.961-2.077-.32-4.155-2.72-4.474-2.08-.32-4.161.639-5.441 2.237l-45.126-6.073-61.289-91.736 26.243.64 32.165 43.31 71.371 5.594 34.565 37.717 10.721 1.279c0 1.758 1.28 3.196 3.681 3.516 2.72.319 5.761-1.279 6.561-3.357.8-2.237-.8-4.155-3.521-4.475-2.24-.319-4.64.8-5.761 2.398l-9.761-1.119-34.565-38.516-71.371-5.434-32.324-42.991-28.645-.639-5.6-8.471 7.041-15.023 23.843-.159 28.004 35.16c-1.28 1.118-1.76 2.397-.96 3.356.8 1.118 3.041.959 4.961-.16 1.92-1.119 2.72-2.877 1.76-3.996-.64-.799-2.4-.958-4-.319l-28.485-35.32-24.483.32 4.64-10.069-24.963-32.603-25.604 1.758-10.242-15.342 40.966-3.836 22.564 27.009 19.683-1.118c-.32.958.32 1.438 1.6 1.438 1.44 0 3.36-1.119 4.161-2.238.8-1.118.16-2.077-1.281-1.917-1.28 0-2.72.799-3.68 1.758l-19.043 1.118-22.723-26.849-42.727 3.995-6.561-9.908 8.002-12.786-12.962-17.58-12.002 1.918-23.844-35.64L71.05 33.14l13.122 17.58c-.8.48-1.12 1.119-.96 1.439.32.32 1.28.16 2.24-.48.96-.64 1.6-1.438 1.44-1.758-.16-.32-.96-.16-1.76.32L71.85 32.66l-12.482 2.717-10.241-15.183c.64-.48.96-.959.8-1.119-.16-.16-.96 0-1.76.48-.8.32-1.44.959-1.28 1.278z" fill="url(#paint6_linear)"/><path d="M30.565 30.903c.16.16.64 0 1.28-.32L61.129 84.92l-7.04 9.909 9.6 19.657 14.883-1.438 15.042 27.329-13.282 22.215 17.443 37.397 28.804 1.119 58.568 107.238-18.082 51.461-.16.48 11.201 24.452c-1.6 1.598-2.4 3.836-1.6 5.594.96 2.077 3.681 2.557 6.081 1.118 2.4-1.438 3.681-4.475 2.72-6.552-.8-1.758-2.88-2.238-4.96-1.598l-10.882-23.813 18.083-51.462.16-.319-59.529-107.878-28.804-1.118-5.921-12.466 22.883-40.914.16-.159-16.322-26.85c.96-.799 1.44-1.598 1.12-2.078-.32-.479-1.6-.319-2.88.48-1.28.799-2.08 1.918-1.76 2.397.32.48 1.28.48 2.24-.16l16.162 26.69-22.083 39.315-10.882-23.014 13.282-22.214-15.362-27.649-14.882 1.439-9.442-19.179 7.041-9.908-29.604-54.338c.64-.48.96-.96.96-1.12-.16-.16-.96 0-1.76.48-1.44.48-1.92 1.119-1.76 1.439z" fill="url(#paint7_linear)"/><defs><linearGradient id="paint0_linear" x1="51.192" y1="-70.55" x2="508.772" y2="54.626" gradientUnits="userSpaceOnUse"><stop offset=".016" stop-color="#fff" stop-opacity="0"/><stop offset=".771" stop-color="#fff"/><stop offset="1" stop-color="#FFCC69"/></linearGradient><linearGradient id="paint1_linear" x1="64.677" y1="-25.387" x2="449.905" y2="459.295" gradientUnits="userSpaceOnUse"><stop offset=".016" stop-color="#fff" stop-opacity="0"/><stop offset=".771" stop-color="#fff"/><stop offset="1" stop-color="#FFCC69"/></linearGradient><linearGradient id="paint2_linear" x1="82.668" y1="-54.386" x2="724.219" y2="577.64" gradientUnits="userSpaceOnUse"><stop offset=".016" stop-color="#fff" stop-opacity="0"/><stop offset=".771" stop-color="#fff"/><stop offset="1" stop-color="#FFCC69"/></linearGradient><linearGradient id="paint3_linear" x1="254.42" y1="-41.514" x2="299.136" y2="342.455" gradientUnits="userSpaceOnUse"><stop offset=".016" stop-color="#fff" stop-opacity="0"/><stop offset=".771" stop-color="#fff"/><stop offset="1" stop-color="#FFCC69"/></linearGradient><linearGradient id="paint4_linear" x1="300.788" y1="-24.682" x2="477.694" y2="327.083" gradientUnits="userSpaceOnUse"><stop offset=".016" stop-color="#fff" stop-opacity="0"/><stop offset="1" stop-color="#D3D4D8" stop-opacity=".51"/></linearGradient><linearGradient id="paint5_linear" x1="184.262" y1="-25.767" x2="14.064" y2="182.753" gradientUnits="userSpaceOnUse"><stop offset=".016" stop-color="#4E4E4E" stop-opacity=".28"/><stop offset="1" stop-color="#FFCC69"/></linearGradient><linearGradient id="paint6_linear" x1="47.066" y1="-8.265" x2="-11.555" y2="335.298" gradientUnits="userSpaceOnUse"><stop offset=".022" stop-color="#181818" stop-opacity="0"/><stop offset=".455" stop-color="#fff"/><stop offset="1" stop-color="#889498" stop-opacity=".36"/></linearGradient><linearGradient id="paint7_linear" x1="112.558" y1="-43.302" x2="312.483" y2="457.917" gradientUnits="userSpaceOnUse"><stop offset=".016" stop-color="#fff" stop-opacity="0"/><stop offset=".771" stop-color="#fff"/><stop offset="1" stop-color="#FFCC69"/></linearGradient></defs></svg>