<svg width="22" height="22" fill="none" xmlns="http://www.w3.org/2000/svg"><path d="M1 5h5.712a7.676 7.676 0 00-3.215 6.248c0 1.226.291 2.437.853 3.527a7.593 7.593 0 002.362 2.728H1V5zm9.997 0a6.116 6.116 0 00-4.352 1.828 6.312 6.312 0 00-1.8 4.42c0 1.659.65 3.25 1.8 4.42a6.104 6.104 0 004.352 1.829 6.116 6.116 0 004.352-1.828 6.312 6.312 0 001.8-4.42c0-1.66-.65-3.25-1.8-4.421A6.104 6.104 0 0010.997 5zM21 5h-5.712a7.59 7.59 0 012.362 2.728 7.682 7.682 0 01.853 3.527 7.703 7.703 0 01-.853 3.527 7.59 7.59 0 01-2.362 2.728H21V5z" fill="url(#paint0_linear)"/><path d="M13.064 9.171c-.278-.792-1.036-.887-1.922-.745l-.278-1.123-.677.169.271 1.097c-.176.047-.359.094-.535.142l-.27-1.104-.677.17.277 1.123c-.142.041-.29.082-.426.115V9.01l-.934.237.183.73s.494-.135.487-.121c.27-.068.4.068.46.203l.318 1.286c.027-.007.048-.013.075-.013l-.075.02.44 1.8c.007.089-.006.244-.196.292.014.007-.494.122-.494.122l.068.853.88-.224a16.1 16.1 0 01.48-.115l.277 1.137.677-.169-.277-1.13c.19-.041.365-.088.541-.129l.278 1.124.677-.17-.278-1.137c1.117-.352 1.841-.846 1.672-1.956-.136-.894-.636-1.178-1.32-1.171.345-.305.5-.725.298-1.307zm-.345 2.674c.21.853-1.252 1.117-1.706 1.232l-.372-1.51c.46-.108 1.861-.602 2.078.278zm-.833-2.044c.19.771-1.029.988-1.408 1.083l-.338-1.368c.379-.101 1.543-.528 1.746.285z" fill="#fff"/><defs><linearGradient id="paint0_linear" x1="11" y1="5" x2="11" y2="17.51" gradientUnits="userSpaceOnUse"><stop offset=".232" stop-color="#FFCE44"/><stop offset="1" stop-color="#AB8006"/></linearGradient></defs></svg>