<svg width="22" height="22" fill="none" xmlns="http://www.w3.org/2000/svg"><path d="M15.057 10.28c1.035-.527 1.682-1.455 1.531-3-.204-2.113-2.03-2.821-4.334-3.023v-2.93h-1.785l-.001 2.853c-.47 0-.949.01-1.425.019V1.328H7.257v2.929c-.387.008-.766.015-1.137.015v-.009H3.658v1.904s1.32-.025 1.297 0c.723 0 .96.42 1.027.781V14.975c-.031.227-.165.59-.67.59.023.021-1.3 0-1.3 0l-.353 2.13h2.323c.433 0 .858.008 1.275.01l.002 2.964h1.783v-2.931c.49.01.964.014 1.427.013v2.919h1.785V17.71c3.002-.172 5.103-.927 5.364-3.743.21-2.267-.857-3.28-2.561-3.688zM9.085 6.296c1.007 0 4.174-.32 4.175 1.78 0 2.016-3.167 1.78-4.175 1.78v-3.56zm0 9.284v-3.926c1.21 0 5.005-.348 5.005 1.962.001 2.216-3.795 1.963-5.006 1.964z" fill="url(#paint0_linear)"/><defs><linearGradient id="paint0_linear" x1="10.651" y1="1.327" x2="10.651" y2="20.67" gradientUnits="userSpaceOnUse"><stop offset=".508" stop-color="#FFCE44"/><stop offset=".857" stop-color="#C9970A"/><stop offset="1" stop-color="#886502"/></linearGradient></defs></svg>