<svg width="22" height="22" fill="none" xmlns="http://www.w3.org/2000/svg"><path d="M13.79 4H7.238l-.544 3.036 5.914.007c2.913 0 3.772 1.059 3.748 2.812-.014.897-.403 2.418-.572 2.913-.448 1.314-1.37 2.811-4.827 2.808l-5.75-.004-.543 3.04h6.539c2.306 0 3.284-.27 4.325-.747 2.304-1.07 3.675-3.34 4.225-6.307C20.57 7.141 19.553 4 13.79 4z" fill="url(#paint0_linear)"/><path d="M4.408 9.781c-1.717 0-1.963 1.118-2.124 1.795A32.448 32.448 0 002 12.82h6.71c1.718 0 1.963-1.118 2.124-1.795.214-.883.284-1.244.284-1.244h-6.71z" fill="url(#paint1_linear)"/><defs><linearGradient id="paint0_linear" x1="12.332" y1="4" x2="12.332" y2="18.612" gradientUnits="userSpaceOnUse"><stop stop-color="#FFCE44"/><stop offset="1" stop-color="#D5A316"/></linearGradient><linearGradient id="paint1_linear" x1="6.559" y1="9.781" x2="6.559" y2="12.82" gradientUnits="userSpaceOnUse"><stop stop-color="#FFCE44"/><stop offset="1" stop-color="#D5A316"/></linearGradient></defs></svg>