<svg width="64" height="64" fill="none" xmlns="http://www.w3.org/2000/svg"><g clip-path="url(#a)"><path d="M31.917.006S50.78-.84 60.779 18.05H30.313s-5.754-.189-10.659 6.767c-1.415 2.914-2.923 5.921-1.226 11.84-2.452-4.133-13.016-22.46-13.016-22.46S12.864.757 31.917.006z" fill="#C6352E"/><path d="M59.797 47.967s-8.7 16.7-30.117 15.879l15.236-26.288s3.04-4.87-.55-12.58c-1.825-2.678-3.684-5.484-9.678-6.98 4.82-.048 26.03.003 26.03.003s7.953 13.15-.922 29.966z" fill="#F4D911"/><path d="M4.17 48.094S-5.992 32.236 5.43 14.166l15.228 26.293s2.712 5.059 11.21 5.816c3.238-.235 6.607-.436 10.905-4.86-2.37 4.183-13.02 22.46-13.02 22.46s-15.406.286-25.582-15.781z" fill="#81B354"/><path d="m29.68 64 4.285-17.818s4.712-.367 8.66-4.684C40.175 45.794 29.68 64 29.68 64z" fill="#7BAA50"/><path d="M17.564 32.2c0-7.855 6.39-14.223 14.274-14.223 7.883 0 14.274 6.368 14.274 14.223s-6.39 14.223-14.274 14.223c-7.884 0-14.274-6.368-14.274-14.224z" fill="#fff"/><path d="M19.953 32.2c0-6.54 5.321-11.842 11.885-11.842 6.563 0 11.884 5.301 11.884 11.841 0 6.54-5.32 11.842-11.884 11.842S19.953 38.74 19.953 32.2z" fill="url(#b)"/><path d="m60.718 18-17.646 5.155s-2.66-3.89-8.384-5.158c4.959-.017 26.03.003 26.03.003z" fill="#E7CE12"/><path d="M18.085 36.018A45991.61 45991.61 0 0 0 5.412 14.196l13.072 12.885s-1.343 2.753-.834 6.686l.435 2.251z" fill="#BC332C"/></g><defs><linearGradient id="b" x1="31.838" y1="20.525" x2="31.838" y2="43.333" gradientUnits="userSpaceOnUse"><stop stop-color="#A2C0E6"/><stop offset="1" stop-color="#406CB1"/></linearGradient><clipPath id="a"><path fill="#fff" d="M0 0h64v64H0z"/></clipPath></defs></svg>