<svg xmlns="http://www.w3.org/2000/svg" viewBox="0 0 64 64" style="enable-background:new 0 0 64 64" xml:space="preserve"><linearGradient id="a" gradientUnits="userSpaceOnUse" x1="1084.621" y1="-1347.637" x2="1089.825" y2="-1347.637" gradientTransform="translate(-9272.896 11584.024) scale(8.563)"><stop offset="0" style="stop-color:#0c59a4"/><stop offset="1" style="stop-color:#114a8b"/></linearGradient><path d="M57.8 47.6c-.9.4-1.7.8-2.6 1.2-2.9 1.1-5.9 1.6-9 1.6-11.9 0-22.2-8.1-22.2-18.6 0-2.9 1.6-5.5 4.1-6.8-10.7.4-13.4 11.6-13.4 18.1 0 18.5 17 20.3 20.7 20.3 2 0 5-.6 6.7-1.1l.3-.1c6.9-2.4 12.8-7 16.6-13.2.3-.5.2-1.1-.3-1.4-.2-.1-.6-.2-.9 0z" style="fill:url(#a)"/><radialGradient id="b" cx="1087.496" cy="-1335.511" r="2.784" gradientTransform="matrix(8.563 0 0 8.1348 -9272.896 10908.748)" gradientUnits="userSpaceOnUse"><stop offset=".72" style="stop-color:#000;stop-opacity:0"/><stop offset=".95" style="stop-color:#000;stop-opacity:.53"/><stop offset="1" style="stop-color:#000"/></radialGradient><path d="M57.8 47.6c-.9.4-1.7.8-2.6 1.2-2.9 1.1-5.9 1.6-9 1.6-11.9 0-22.2-8.1-22.2-18.6 0-2.9 1.6-5.5 4.1-6.8-10.7.4-13.4 11.6-13.4 18.1 0 18.5 17 20.3 20.7 20.3 2 0 5-.6 6.7-1.1l.3-.1c6.9-2.4 12.8-7 16.6-13.2.3-.5.2-1.1-.3-1.4-.2-.1-.6-.2-.9 0z" style="opacity:.35;fill:url(#b);enable-background:new"/><linearGradient id="c" gradientUnits="userSpaceOnUse" x1="1087.367" y1="-1349.893" x2="1084.116" y2="-1346.351" gradientTransform="translate(-9272.896 11584.024) scale(8.563)"><stop offset="0" style="stop-color:#1b9de2"/><stop offset=".16" style="stop-color:#1595df"/><stop offset=".67" style="stop-color:#0680d7"/><stop offset="1" style="stop-color:#0078d4"/></linearGradient><path d="M26.4 60.3c-2.2-1.4-4.2-3.2-5.7-5.3-6.6-9-4.6-21.6 4.4-28.2.9-.7 1.9-1.3 3-1.8.8-.4 2.1-1 3.9-1 2.5 0 4.9 1.2 6.4 3.2 1 1.3 1.6 3 1.6 4.7 0 0 6.1-19.9-20-19.9C9.1 12 0 22.4 0 31.6c0 4.8 1 9.6 3 14 6.9 14.7 23.7 21.9 39.1 16.8-5.2 1.6-11 .9-15.7-2.1z" style="fill:url(#c)"/><radialGradient id="d" cx="910.785" cy="-1580.488" r="4.181" gradientTransform="matrix(1.2844 -8.4773 6.8504 1.0276 9674.733 9394.815)" gradientUnits="userSpaceOnUse"><stop offset=".76" style="stop-color:#000;stop-opacity:0"/><stop offset=".95" style="stop-color:#000;stop-opacity:.5"/><stop offset="1" style="stop-color:#000"/></radialGradient><path d="M26.4 60.3c-2.2-1.4-4.2-3.2-5.7-5.3-6.6-9-4.6-21.6 4.4-28.2.9-.7 1.9-1.3 3-1.8.8-.4 2.1-1 3.9-1 2.5 0 4.9 1.2 6.4 3.2 1 1.3 1.6 3 1.6 4.7 0 0 6.1-19.9-20-19.9C9.1 12 0 22.4 0 31.6c0 4.8 1 9.6 3 14 6.9 14.7 23.7 21.9 39.1 16.8-5.2 1.6-11 .9-15.7-2.1z" style="opacity:.41;fill:url(#d);enable-background:new"/><radialGradient id="e" cx="1450.288" cy="-1721.255" r="5.909" gradientTransform="matrix(-.3425 8.563 -18.2391 -.685 -30890.973 -13586.059)" gradientUnits="userSpaceOnUse"><stop offset="0" style="stop-color:#35c1f1"/><stop offset=".11" style="stop-color:#34c1ed"/><stop offset=".23" style="stop-color:#2fc2df"/><stop offset=".31" style="stop-color:#2bc3d2"/><stop offset=".67" style="stop-color:#36c752"/></radialGradient><path d="M38.1 37.2c-.2.3-.8.6-.8 1.4 0 .7.4 1.3 1.2 1.8 3.6 2.5 10.4 2.2 10.4 2.2 2.7 0 5.3-.7 7.6-2.1 4.7-2.7 7.6-7.8 7.6-13.2.1-5.6-2-9.3-2.8-11C55.9 6 44.4 0 32 0 14.5 0 .3 14.1 0 31.5.1 22.4 9.2 15 20 15c.9 0 5.9.1 10.5 2.5 4.1 2.1 6.2 4.7 7.7 7.3 1.5 2.7 1.8 6 1.8 7.4 0 1.4-.7 3.4-1.9 5z" style="fill:url(#e)"/><radialGradient id="f" cx="1564.952" cy="-1319.908" r="2.841" gradientTransform="matrix(2.3976 8.2205 -6.6791 1.9695 -12507.985 -10245.728)" gradientUnits="userSpaceOnUse"><stop offset="0" style="stop-color:#66eb6e"/><stop offset="1" style="stop-color:#66eb6e;stop-opacity:0"/></radialGradient><path d="M38.1 37.2c-.2.3-.8.6-.8 1.4 0 .7.4 1.3 1.2 1.8 3.6 2.5 10.4 2.2 10.4 2.2 2.7 0 5.3-.7 7.6-2.1 4.7-2.7 7.6-7.8 7.6-13.2.1-5.6-2-9.3-2.8-11C55.9 6 44.4 0 32 0 14.5 0 .3 14.1 0 31.5.1 22.4 9.2 15 20 15c.9 0 5.9.1 10.5 2.5 4.1 2.1 6.2 4.7 7.7 7.3 1.5 2.7 1.8 6 1.8 7.4 0 1.4-.7 3.4-1.9 5z" style="fill:url(#f)"/></svg>