<svg width="82" height="59" fill="none" xmlns="http://www.w3.org/2000/svg"><path d="M55.013 52.405c-.29.491-.597.972-.925 1.44a21.54 21.54 0 0 1-2.884 3.32h-9.043l.048-.155c.01-.032.023-.061.036-.093a2.843 2.843 0 0 1 3.727-1.59c.513.214.947.57 1.259 1.021a10.962 10.962 0 0 0 3.104-3.81c.23-.472.425-.96.587-1.466a12.066 12.066 0 0 1-2.254-1.58c-.237-.21-.467-.426-.688-.652-.133-.139-1.242-1.295-1.525-2.173-.003-.013-.02-.023-.026-.032.575-1.079 1.642-2.287 2.693-3.188a12.53 12.53 0 0 1-.516-1.379c-1.606 1.234-3.406 3.294-4.032 4.8v.002l-.003.004c.013.022.029.041.045.06.205.295.934 1.703 1.83 2.565.094.106.191.213.288.316.052.055.104.104.156.155.636.65 1.333 1.24 2.086 1.754a9.247 9.247 0 0 1-1.726 2.503 4.39 4.39 0 0 0-2.361-.682 4.425 4.425 0 0 0-2.44.73 4.435 4.435 0 0 0-1.631 1.963 4.237 4.237 0 0 0-.257.837l-.016.09a4.29 4.29 0 0 0-.068.769c0 .052.003.103.003.158.007.187.026.372.055.552l.02.09h11.262a22.908 22.908 0 0 0 1.603-1.569l.02-.02a23.049 23.049 0 0 0 3.315-4.63c.363-.668.69-1.36.986-2.067.006-.016.013-.035.022-.054a11.91 11.91 0 0 1-1.524-.417 21.562 21.562 0 0 1-1.226 2.428z" fill="#000" stroke="#000" stroke-width=".2"/><path d="m77.445 34.498-3.036-3.326c-.03-.032-.056-.064-.085-.094l-.039-.042s-.006-.003-.01-.003a4.438 4.438 0 0 0-3.51-1.327c-2.143.155-3.902 1.88-4.087 4.01a4.416 4.416 0 0 0 1.21 3.44l4.328 4.695c.133.146.272.294.392.456.068.087.13.18.192.29a2.88 2.88 0 0 1 .412 1.983c0 .01-.004.016-.004.026l-.003.013-.01.048-.01.055-.003.023c-.006.038-.016.074-.026.113l-.003.016c-.003.016-.01.032-.013.048-.003.017-.01.033-.013.049l-.003.01c-.003.006-.003.012-.006.019l-.03.084a2.835 2.835 0 0 1-1.537 1.66 2.03 2.03 0 0 1-.47.164 2.288 2.288 0 0 1-.773.104c-.22.01-.44-.016-.661-.075a2.399 2.399 0 0 1-.107-.029l-.11-.032a.117.117 0 0 1-.036-.013c-.026-.006-.049-.016-.075-.026l-.016-.006a.228.228 0 0 1-.026-.01l-.091-.032c-.023-.01-.045-.016-.068-.026l-.026-.01a3.16 3.16 0 0 1-.24-.106 2.928 2.928 0 0 1-1.019-1.001l-.042-.071.013.084a30.069 30.069 0 0 1-.195 11.005c-.025.12-.051.252-.084.4-.003.017-.006.033-.013.049l-.006.029h-6.589a3.341 3.341 0 0 1 4.73-1.837l.042.022-.02-.042a30.304 30.304 0 0 0-.817-1.737 31.633 31.633 0 0 0-4.262-6.333l-.003-.006h-.007c-.21-.007-.431-.02-.652-.039v-.013h-.016a9.714 9.714 0 0 1-4.717-1.766 9.816 9.816 0 0 1-2.186-2.145 9.794 9.794 0 0 1-1.862-7.172l.01-.055.049-.287.003-.02h-.182a19.434 19.434 0 0 0-12.933 6.1 19.413 19.413 0 0 0-5.28 13.347c0 .21-.004.44-.01.685-.01.436-.02.888-.004 1.298H26.44a3.341 3.341 0 0 1 3.153-2.231c.143 0 .315.016.51.048.515.084 1.115.271 1.459.455l.026.013v-.029c-.127-2.473-.925-5.096-2.31-7.582-1.333-2.4-3.185-4.634-5.352-6.462a9.828 9.828 0 0 1-2.277-3.19 9.655 9.655 0 0 1-.84-3.96c0-1.74.343-3.3 1.018-4.634.681-1.346 1.703-2.46 3.033-3.313l.007.013 43.37-23.506c.613.998.944 2.144.944 3.346a6.359 6.359 0 0 1-1.888 4.533 6.344 6.344 0 0 1-1.038.84L34.448 28.76l-.013.006.006.013a1.59 1.59 0 0 0 2.158.633s29.567-16.04 29.68-16.095a6.348 6.348 0 0 1 .996 3.43c0 1.385-.574 2.741-1.466 3.791-.6.704-1.326 1.175-2.124 1.615-1.47.804-2.94 1.605-4.409 2.409l-4.703 2.564c-.448.245-.892.507-1.35.736l-.013.007.01.012a1.601 1.601 0 0 0 2.147.61s9.433-5.043 9.803-5.282c1.687-1.098 3.004-2.545 3.497-4.55a7.887 7.887 0 0 0 .23-1.912 7.98 7.98 0 0 0-1.206-4.227c-.013-.02-.023-.04-.036-.059A8 8 0 0 0 68.829.855L39.061 16.831c-2.096-6.362-6.757-11.564-12.774-14.387-.01-.003-.296-.129-.562-.229a12.583 12.583 0 0 0-4.762-.93c-1.242 0-2.446.18-3.578.517-2.196.649-4.586 2.134-5.87 3.797l-.01.013a1.596 1.596 0 0 0-.136 1.78c-.257.142-.562.3-.912.48-2.034 1.053-5.11 2.649-5.664 4.748a2.729 2.729 0 0 0-.007 1.453.242.242 0 0 1-.042.216l-3.552 3.104a.824.824 0 0 0-.113.881l.026.081c.074.239.266.878.752 1.524.613.817 1.447 1.327 2.479 1.521 1.248.233 1.735.804 1.913 1.124a.92.92 0 0 0 .915.481c.068-.006.11-.029.136-.064.05-.078.004-.2-.048-.346-.059-.161-.124-.345-.078-.504l.444-1.485a.24.24 0 0 1 .127-.149.265.265 0 0 1 .204-.016c.52.175 1.048.39 1.07.44.01.022.01.177-.181.49-1.246 2.035-1.878 2.419-1.992 2.477a.963.963 0 0 0-.522.798.978.978 0 0 0 .405.868c1.214.856 3.578 1.208 4.795 1.23a22.528 22.528 0 0 0 3.532 8.487l.013.02c1.658 2.696 1.645 4.827 1.635 6.707v.423c0 1.757-.217 3.504-.642 5.193a20.95 20.95 0 0 1-1.872 4.811 9.299 9.299 0 0 1-1.34 1.776 4.44 4.44 0 0 0-2.97-.636 4.352 4.352 0 0 0-1.834.691 4.39 4.39 0 0 0-1.89 2.81l-.01.058c-.004.013-.004.022-.007.035-.045.259-.068.52-.068.772l.003.14v.019c.007.187.026.374.055.552l.01.055c.003.013.007.025.007.038l.003.013H17.43l.003-.003a23.804 23.804 0 0 0 1.606-1.57l.02-.019a22.711 22.711 0 0 0 3.314-4.634c.36-.668.695-1.363.987-2.067.026-.061.048-.122.07-.18.017-.04.03-.078.046-.114.175-.432.318-.82.438-1.181l.013-.04.098-.293c.068-.21.133-.42.19-.63l.004-.01-.006-.006a23.717 23.717 0 0 0-1.294-1.263l-.02-.019-.006.026c-.05.203-.091.365-.133.517-.091.329-.176.62-.257.884l-.02.059a4.408 4.408 0 0 1-.07.22l-.014.038c-.003.01-.006.023-.013.032a20.632 20.632 0 0 1-1.78 3.898c-.29.494-.6.978-.925 1.44a21.708 21.708 0 0 1-2.43 2.884c-.139.139-.282.275-.45.433H7.784l.042-.133c.01-.032.023-.061.036-.093a2.82 2.82 0 0 1 4.953-.562l.01.013.013-.01c.415-.323.814-.681 1.177-1.062a10.882 10.882 0 0 0 2.196-3.35 22.534 22.534 0 0 0 2.093-9.522c0-1.173-.091-2.355-.273-3.523.159.135.321.251.47.358a22.85 22.85 0 0 0 3.027 2.344c1.048.824 1.885 1.554 2.63 2.296a22.336 22.336 0 0 1 3.497 4.463 18.863 18.863 0 0 1 2.109 5.157c-.072-.006-.133-.012-.178-.012-.35 0-.701.038-1.042.113a4.811 4.811 0 0 0-2.67 1.646 4.757 4.757 0 0 0-1.04 3.498l.003.013h9.543v-.016l-.013-1.596c.006-.339.02-.704.029-1.023.013-.394.023-.737.023-.94 0-4.828 1.846-9.323 5.196-12.659a17.812 17.812 0 0 1 9.836-5.008 11.365 11.365 0 0 0 3 7.556 11.468 11.468 0 0 0 7.237 3.65c.636.761 1.236 1.559 1.787 2.37a29.118 29.118 0 0 1 1.532 2.518 4.797 4.797 0 0 0-2.65 1.644 4.756 4.756 0 0 0-1.042 3.497l.003.013h9.495l.003-.013c.059-.213.11-.426.162-.633a31.607 31.607 0 0 0 .824-9.558 4.442 4.442 0 0 0 3.536-1.06 4.38 4.38 0 0 0 1.48-2.77 4.401 4.401 0 0 0-.922-3.281l-.013-.016c-.107-.136-2.112-2.345-2.196-2.438l-2.491-2.745c-.623-.653-.938-1.36-.938-2.1a2.86 2.86 0 0 1 2.861-2.848 2.86 2.86 0 0 1 1.934.75.304.304 0 0 1 .058.051l.03.032c.067.068.132.14.194.217l2.063 2.264a3.325 3.325 0 0 0-.496 2.741 3.259 3.259 0 0 0 2.325 2.367 3.375 3.375 0 0 0 2.68-.38 4.34 4.34 0 0 0 .551-.41c.192-.178.37-.382.535-.605l.007-.01-3.555-3.807zm-65.51-17.783-.002.012c-.377 1.454-.824 3.62-.824 5.716 0 .933.061 1.89.178 2.842-.272-.042-.616-.08-.976-.12-.76-.08-1.544-.164-1.758-.31a.242.242 0 0 1-.108-.177.24.24 0 0 1 .062-.19c.493-.53 1.041-1.29 1.632-2.251.071-.117.684-1.163.276-2.035-.445-.943-1.077-1.04-1.74-1.188l-1.368-.284-.798 1.718c-.033.074-.065.125-.146.145a.251.251 0 0 1-.227-.055c-.35-.3-.707-.559-1.531-.714-.934-.174-1.12-.507-1.402-1.007a6.393 6.393 0 0 0-.282-.468.503.503 0 0 1 .033-.601l2.604-1.99.004-.003a.267.267 0 0 1 .353-.045c.266.197.552.317.847.355a1.557 1.557 0 0 0 1.203-.348s.315-.197.47-.417l.004-.003c.15-.21.204-.397.162-.559l-.006-.02-.017.01a1.68 1.68 0 0 1-.736.178c-.418 0-.82-.165-1.161-.481-.289-.265-.46-.675-.48-1.156-.01-.197.035-.417.133-.636.438-1.23 3.253-2.616 5.115-3.533l.678-.336c.604 1.47.604 2.848.604 3.675v.12c0 .726-.095 1.556-.28 2.396a30.97 30.97 0 0 0-.515 1.76zm8.078 21.71a20.727 20.727 0 0 1-1.051-.975c-4.026-4.008-6.244-9.34-6.244-15.007 0-1.886.256-3.771.759-5.606l.113-.384c.367-1.227.746-2.493.746-3.898 0-2.134-.545-4.179-1.576-5.913a10.804 10.804 0 0 1 1.95-1.792 10.872 10.872 0 0 1 6.26-1.963c1.476 0 2.893.32 4.253.855 1.242.491 2.624 1.344 3.399 1.867a22.797 22.797 0 0 1 3.932 3.349A22.57 22.57 0 0 1 37.61 17.6l-13.482 7.233v-.003l-.02.013-.012.006c-1.34.85-2.556 2.167-3.426 3.71a11.512 11.512 0 0 0-1.479 5.632c.007 1.463.28 2.887.82 4.234zm57.441-.352a1.668 1.668 0 0 1-.934-.962 1.74 1.74 0 0 1 .013-1.28l1.252 1.373.873.93c-.39.123-.805.1-1.204-.06z" fill="#000" stroke="#000" stroke-width=".2"/></svg>