<svg version="1.1" id="Слой_1" xmlns="http://www.w3.org/2000/svg" x="0" y="0" viewBox="0 0 64 64" style="enable-background:new 0 0 64 64" xml:space="preserve"><style>.st2{fill:#f3f3f3}.st3{fill:#fff}</style><linearGradient id="SVGID_1_" gradientUnits="userSpaceOnUse" x1="32" y1="-206" x2="32" y2="-142" gradientTransform="matrix(1 0 0 -1 0 -142)"><stop offset=".25" style="stop-color:#dbdbda"/><stop offset="1" style="stop-color:#fff"/></linearGradient><path d="M32 64c17.7 0 32-14.3 32-32S49.7 0 32 0 0 14.3 0 32s14.3 32 32 32z" style="fill:url(#SVGID_1_)"/><radialGradient id="SVGID_2_" cx="53.343" cy="-56.854" r="1" gradientTransform="matrix(36.1309 0 0 -36.1309 -1891.172 -2028.701)" gradientUnits="userSpaceOnUse"><stop offset="0" style="stop-color:#2abce1"/><stop offset=".114" style="stop-color:#2abbe1"/><stop offset="1" style="stop-color:#3375f8"/></radialGradient><path d="M32 61.6c16.3 0 29.6-13.3 29.6-29.6S48.3 2.4 32 2.4 2.4 15.7 2.4 32 15.7 61.6 32 61.6z" style="fill:url(#SVGID_2_)"/><path class="st2" d="M32.1 9.6c-.2 0-.4-.1-.4-.4V4c0-.2.2-.4.4-.4s.4.2.4.4v5.2c-.1.3-.3.4-.4.4z"/><path class="st3" d="M32.1 9.6c-.2 0-.4-.2-.4-.4V4c0-.2.2-.4.4-.4s.4.2.4.4v5.2c-.1.3-.3.4-.4.4zm0-5.9c-.2 0-.3.2-.3.3v5.2c0 .2.1.3.3.3.2 0 .3-.2.3-.3V4c0-.1-.2-.3-.3-.3z"/><path class="st2" d="M34.6 6.8c-.2 0-.3-.2-.3-.4l.2-2.3c0-.2.2-.3.4-.3s.3.2.3.4L35 6.5c-.1.2-.2.3-.4.3z"/><path class="st3" d="M34.6 6.8c-.2 0-.4-.2-.4-.4l.2-2.3c0-.2.2-.4.4-.3.2 0 .4.2.4.4L35 6.5c0 .2-.2.4-.4.3zm.2-3c-.2 0-.4.1-.4.3l-.2 2.3c0 .2.1.3.3.3.2 0 .3-.1.3-.3l.2-2.3c.1-.1 0-.3-.2-.3z"/><path class="st2" d="M36.4 10.1c-.2-.1-.3-.2-.3-.4l1-5.1c.1-.2.2-.3.4-.3s.3.2.3.4l-1 5.1c0 .2-.2.3-.4.3z"/><path class="st3" d="M36.4 10.1c-.2-.1-.4-.3-.3-.5l1-5.1c.1-.2.2-.4.5-.3.2.1.4.3.3.5l-1 5.1c-.1.2-.2.3-.5.3zm1.2-5.9c-.2 0-.3.1-.4.2l-1 5.1c0 .2.1.3.3.4.2 0 .3-.1.4-.3l1-5.1s-.1-.2-.3-.3z"/><path class="st2" d="M39.4 7.8s-.1 0-.1-.1l-.1-.1s0-.1-.1-.1v-.1l.6-2.2c0-.2.2-.3.4-.2.2 0 .3.2.3.4l-.6 2.3c0 .1-.2.2-.4.1z"/><path class="st3" d="M39.4 7.8c-.2-.1-.3-.3-.3-.5l.6-2.3c0-.2.3-.3.5-.3.2.1.3.3.3.5l-.6 2.3c0 .2-.2.4-.5.3zm.9-2.9c-.2-.1-.4.1-.4.2l-.6 2.2c-.1.2 0 .4.2.4.2.1.4 0 .4-.2l.6-2.3c0-.1-.1-.2-.2-.3z"/><path class="st2" d="M40.7 11.3c-.2-.1-.3-.3-.2-.5l2-4.8c.1-.2.3-.3.5-.2.2.1.3.3.2.5l-2 4.8c-.1.2-.4.3-.5.2z"/><path class="st3" d="M40.7 11.4c-.1 0-.2-.1-.2-.2v-.3l2-4.8c.1-.2.3-.3.5-.2.1 0 .2.1.2.2v.3l-2 4.8c-.1.2-.3.3-.5.2zm2.2-5.5c-.2-.1-.4 0-.5.2l-2 4.8c-.1.2 0 .4.2.4.2.1.4 0 .5-.2l2-4.8c.1-.2 0-.4-.2-.4z"/><path class="st2" d="M44 9.7c-.2-.1-.3-.3-.2-.5l1.1-2.1c.1-.1.3-.2.5-.1s.2.3.2.5l-1.1 2.1c-.1.2-.3.2-.5.1z"/><path class="st3" d="M44 9.8c-.2-.1-.3-.3-.2-.5l1.1-2.1c.1-.3.3-.3.5-.2.2.1.3.3.2.5l-1 2.1c-.2.2-.4.3-.6.2zM45.4 7c-.2 0-.4 0-.4.2l-1.1 2.1c-.1.1 0 .4.1.5.2.1.4 0 .5-.1l1.1-2.1c0-.3 0-.5-.2-.6z"/><path class="st2" d="M44.5 13.4c-.2-.1-.2-.3-.1-.5l2.9-4.3c.1-.2.3-.2.5-.1s.3.4.1.5L45 13.3c-.1.2-.3.3-.5.1z"/><path class="st3" d="M44.5 13.5c-.2-.1-.2-.4-.1-.5l2.9-4.3c.1-.2.3-.2.5-.1.2 0 .3.3.2.4l-2.9 4.3c-.1.2-.4.3-.6.2zm3.3-5c-.1-.1-.4-.1-.5.1l-2.9 4.3c-.1.1-.1.4.1.4.2.1.4.1.5-.1L47.9 9c.1-.1.1-.4-.1-.5z"/><path class="st2" d="M48.2 12.5c-.2-.1-.2-.3-.1-.5l1.5-1.8c.1-.1.3-.2.5 0 .2.1.2.4.1.5l-1.4 1.8c-.2.1-.5.1-.6 0z"/><path class="st3" d="M48.2 12.5c-.2-.1-.2-.4-.1-.5l1.4-1.8c.1-.2.4-.2.5-.1.2.1.2.4.1.5l-1.4 1.8c-.1.3-.4.3-.5.1zm1.8-2.4c-.1-.1-.3-.1-.5.1L48.1 12c-.1.1-.1.3.1.5.2.1.4.1.5 0l1.4-1.8c.1-.2.1-.5-.1-.6z"/><path class="st2" d="M47.9 16.2c-.1-.1-.1-.4 0-.5l3.7-3.7c.2-.1.4-.1.5 0 .1.1.1.4 0 .5l-3.7 3.7c-.1.2-.3.2-.5 0z"/><path class="st3" d="M47.9 16.3c-.1-.1-.1-.2-.1-.3 0-.1 0-.2.1-.3l3.7-3.7c.1-.1.2-.1.3-.1.1 0 .2 0 .3.1.1.1.1.2.1.3s0 .2-.1.3l-3.7 3.7c-.1.1-.2.1-.3.1-.1 0-.2-.1-.3-.1zm4.2-4.2c-.1-.1-.3-.1-.5 0l-3.7 3.7c-.1.1-.1.4 0 .5.1.1.4.1.5 0l3.7-3.7c.1-.2.1-.4 0-.5z"/><path class="st2" d="M51.7 16c-.1-.1-.1-.4 0-.5l1.8-1.5c.1-.1.4-.1.5.1.1.1.1.4 0 .5l-1.8 1.5c-.2.1-.4.1-.5-.1z"/><path class="st3" d="M51.6 16.1c-.1-.2-.1-.4 0-.5l1.8-1.5c.1-.1.4-.1.5.1.2.2.1.4 0 .5l-1.8 1.5c0 .1-.3 0-.5-.1zm2.3-2c-.1-.1-.3-.1-.5 0l-1.8 1.5c-.1.1-.1.3 0 .5s.3.2.5.1l1.8-1.5c.2-.2.2-.5 0-.6z"/><path class="st2" d="M50.7 19.7c-.1-.2-.1-.4.1-.5l4.3-2.9c.2-.1.4-.1.5.1.1.2.1.4-.1.5l-4.3 2.9c-.2.1-.4 0-.5-.1z"/><path class="st3" d="M50.7 19.7c-.1-.2-.1-.4.1-.6l4.3-2.9c.2-.1.4-.1.5.1.1.2.1.4-.1.5l-4.3 2.9c-.2.2-.4.2-.5 0zm4.9-3.3c-.1-.2-.3-.2-.4-.1l-4.4 2.9c-.1.1-.2.3-.1.5.1.1.3.2.5.1l4.3-2.9c.2-.2.2-.4.1-.5z"/><path class="st2" d="M54.4 20.2c-.1-.2-.1-.4.1-.5l2-1.1c.2-.1.4 0 .5.1.1.2.1.4-.1.5l-2 1.2c-.2 0-.4 0-.5-.2z"/><path class="st3" d="M54.4 20.2c-.1-.2-.1-.4.1-.5l2-1.1c.2-.1.4 0 .5.1.1.2.1.4-.1.5l-2 1.2c-.2.1-.4 0-.5-.2zm2.6-1.5c-.1-.2-.3-.2-.4-.1l-2 1.2c-.1.1-.2.3-.1.4.1.2.3.2.4.1l2-1.2c.2 0 .2-.2.1-.4z"/><path class="st2" d="M52.7 23.5c-.1-.2 0-.4.2-.5l4.8-2c.2-.1.4 0 .5.2.1.2 0 .4-.2.5l-4.8 2c-.2.1-.4 0-.5-.2z"/><path class="st3" d="M52.7 23.5c-.1-.2 0-.4.2-.5l4.8-2h.3c.1 0 .2.1.2.2.1.2 0 .4-.2.5l-4.8 2h-.3c-.1 0-.2-.1-.2-.2zm5.5-2.2c-.1-.2-.3-.2-.4-.2l-4.8 2c-.2.1-.2.3-.2.5.1.2.3.2.4.2l4.8-2c.2-.2.3-.4.2-.5z"/><path class="st2" d="M56.3 24.8c-.1-.2 0-.4.2-.5l2.2-.7c.2-.1.4 0 .5.2.1.2 0 .4-.2.5l-2.3.7c-.2.1-.4 0-.4-.2z"/><path class="st3" d="M56.2 24.8c-.1-.2 0-.4.3-.5l2.2-.7c.2-.1.4.1.5.3.1.2 0 .4-.3.5l-2.2.6c-.2.1-.4 0-.5-.2zm2.9-1c-.1-.2-.3-.3-.4-.2l-2.2.7c-.2 0-.2.2-.2.4.1.2.3.3.4.2l2.2-.7c.2 0 .3-.2.2-.4z"/><path class="st2" d="M54 27.7c-.1-.2.1-.4.3-.4l5.1-1c.2-.1.4.1.4.3.1.2-.1.4-.3.4l-5.1 1c-.2.1-.4-.1-.4-.3z"/><path class="st3" d="M54 27.7c-.1-.2.1-.4.3-.5l5.1-1c.2 0 .4.1.4.3.1.2-.1.4-.3.5l-5.1 1c-.2.1-.4 0-.4-.3zm5.8-1.1c0-.2-.2-.3-.4-.3l-5.1 1c-.2 0-.3.2-.3.4s.2.3.4.3l5.1-1c.2 0 .3-.2.3-.4z"/><path class="st2" d="M57.2 29.6c0-.2.1-.4.3-.4l2.3-.3c.2 0 .4.1.4.3 0 .2-.1.4-.3.4l-2.3.4c-.2 0-.4-.2-.4-.4z"/><path class="st3" d="M57.2 29.7c0-.2.1-.4.3-.5l2.3-.3c.2 0 .4.1.4.3 0 .2-.1.4-.3.5l-2.3.3c-.2 0-.4-.1-.4-.3zm3-.4c0-.2-.2-.3-.4-.3l-2.3.3c-.2 0-.3.2-.3.4s.2.3.4.3l2.3-.3c.2 0 .3-.2.3-.4z"/><path class="st2" d="M54.4 32.1c0-.2.1-.4.3-.4H60c.2 0 .3.2.3.4s-.1.4-.3.4h-5.2c-.2 0-.4-.2-.4-.4z"/><path class="st3" d="M54.4 32.1c0-.2.2-.4.4-.4H60c.2 0 .4.2.4.4s-.2.4-.4.4h-5.2c-.2 0-.4-.2-.4-.4zm5.9 0c0-.2-.2-.4-.3-.4h-5.2c-.2 0-.3.1-.3.4 0 .2.2.3.3.3H60c.2 0 .3-.1.3-.3z"/><path class="st2" d="M57.2 34.6c0-.2.2-.3.4-.3l2.3.2c.2 0 .3.2.3.4s-.2.3-.4.3l-2.3-.2c-.2 0-.3-.2-.3-.4z"/><path class="st3" d="M57.2 34.6c0-.2.2-.4.4-.4l2.3.2c.2 0 .4.2.3.4s-.2.4-.4.4l-2.3-.2c-.2 0-.3-.2-.3-.4zm3 .2c0-.2-.1-.3-.3-.3l-2.3-.2c-.2 0-.3.1-.3.3 0 .2.1.3.3.3l2.3.2c.1.1.3-.1.3-.3z"/><path class="st2" d="M54 36.4c.1-.2.2-.3.4-.3l5.1 1c.2 0 .3.2.3.4-.1.2-.2.3-.4.3l-5.1-1c-.2 0-.4-.2-.3-.4z"/><path class="st3" d="M53.9 36.4c0-.2.2-.3.4-.3l5.1 1c.2 0 .3.2.3.5 0 .2-.2.4-.4.3l-5.1-1c-.2-.1-.3-.2-.3-.5zm5.9 1.2c0-.2-.1-.3-.3-.4l-5.1-1c-.2 0-.3.1-.4.3 0 .2.1.3.3.4l5.1 1c.2 0 .3-.1.4-.3z"/><path class="st2" d="M56.2 39.4s0-.1.1-.1.1-.1.1-.1.1 0 .1-.1h.1l2.3.6c.2.1.3.3.2.5 0 0 0 .1-.1.1l-.1.1s-.1 0-.1.1-.1 0-.1 0l-2.3-.6c-.2-.1-.2-.3-.2-.5z"/><path class="st3" d="M56.2 39.4c.1-.2.3-.3.5-.3l2.3.6c.2 0 .3.3.3.5-.1.2-.3.3-.5.3l-2.3-.6c-.3 0-.4-.2-.3-.5zm2.9.9c.1-.2-.1-.4-.2-.4l-2.3-.6c-.2 0-.3.1-.4.3 0 .2.1.4.2.4l2.3.6c.2-.1.4-.2.4-.3z"/><path class="st2" d="M52.7 40.6c.1-.2.3-.3.5-.2l4.8 2c.2.1.3.3.2.5-.1.2-.3.3-.5.2l-4.8-2c-.2-.1-.3-.3-.2-.5z"/><path class="st3" d="M52.7 40.6c0-.1.1-.2.2-.2h.3l4.8 2c.2.1.3.3.2.5 0 .1-.1.2-.2.2h-.3l-4.8-2c-.2-.1-.3-.3-.2-.5zm5.4 2.3c.1-.2 0-.4-.2-.5l-4.8-2c-.2-.1-.3 0-.4.2-.1.2 0 .4.2.5l4.8 2c.2 0 .4-.1.4-.2z"/><path class="st2" d="M54.3 44c.1-.2.3-.3.5-.2l2.1 1.1c.2.1.2.3.2.5-.1.2-.3.3-.5.2l-2.1-1c-.2-.2-.3-.4-.2-.6z"/><path class="st3" d="M54.3 44c.1-.2.3-.3.5-.2l2.1 1.1c.2.1.3.3.2.5-.1.2-.3.3-.5.2l-2.1-1c-.3-.2-.3-.4-.2-.6zm2.7 1.3c.1-.2 0-.4-.2-.4l-2.1-1.1c-.2-.1-.3 0-.5.1-.1.2 0 .4.1.5l2.1 1.1c.3.1.5 0 .6-.2z"/><path class="st2" d="M50.6 44.5c.1-.2.3-.2.5-.1l4.3 2.9c.2.1.2.3.1.5s-.3.2-.5.1L50.7 45c-.1-.1-.2-.4-.1-.5z"/><path class="st3" d="M50.6 44.5c.1-.2.4-.2.6-.1l4.3 2.9c.2.1.2.3.1.5s-.4.2-.5.1L50.7 45c-.2-.1-.2-.4-.1-.5zm4.9 3.3c.1-.1.1-.4-.1-.5L51 44.4c-.1-.1-.3 0-.4.1-.1.2-.1.4.1.5l4.4 2.9c.1.1.3 0 .4-.1z"/><path class="st2" d="M51.6 48.1c.1-.2.3-.2.5-.1l1.8 1.4c.1.1.2.3.1.5-.1.1-.3.2-.5.1l-1.8-1.4c-.2-.1-.3-.3-.1-.5z"/><path class="st3" d="M51.5 48.1c.1-.2.4-.2.5-.1l1.8 1.4c.2.1.2.4.1.5-.1.2-.4.2-.5.1l-1.8-1.4c-.2-.1-.2-.3-.1-.5zm2.4 1.9c.1-.2.1-.4-.1-.5L52 48.1c-.1-.1-.3-.1-.5.1-.1.2-.1.4 0 .5l1.8 1.4c.3 0 .5 0 .6-.1z"/><path class="st2" d="M47.8 47.8c.2-.1.4-.1.5 0l3.7 3.7c.2.2.1.4 0 .5-.1.1-.4.1-.5 0l-3.7-3.7c-.1-.1-.1-.3 0-.5z"/><path class="st3" d="M47.8 47.8c.1-.1.2-.1.3-.1.1 0 .2 0 .3.1l3.7 3.7c.1.1.1.2.1.3 0 .1 0 .2-.1.3-.1.1-.2.1-.3.1-.1 0-.2 0-.3-.1l-3.7-3.7c-.1-.2-.1-.4 0-.6zM52 52c.1-.1.1-.3 0-.5l-3.7-3.7c-.1-.1-.4-.1-.5 0-.1.1-.1.3 0 .5l3.7 3.7c.2.2.4.2.5 0z"/><path class="st2" d="M48.1 51.6c.2-.1.4-.1.5 0l1.5 1.8c.1.2.1.4-.1.5-.1.1-.4.1-.5 0L48 52.1c-.1-.1-.1-.4.1-.5z"/><path class="st3" d="M48 51.6c.2-.1.4-.1.5 0l1.5 1.7c.1.2.1.4-.1.6-.2.2-.4.1-.5 0L48 52.1c-.2-.1-.2-.4 0-.5zm2 2.3c.1-.1.1-.3 0-.5l-1.5-1.8c-.1-.1-.3-.1-.5 0s-.2.3-.1.5l1.5 1.8c.3.1.5.1.6 0z"/><path class="st2" d="M44.5 50.6c.2-.1.4-.1.5.1l2.9 4.3c.1.2.1.4-.1.5-.2.1-.4.1-.5-.1l-2.9-4.3c-.2-.1-.1-.4.1-.5z"/><path class="st3" d="M44.4 50.6c.2-.1.4-.1.5.1l2.9 4.3c.1.2.1.4-.1.5-.2.1-.4.1-.6-.1l-2.9-4.3c0-.1.1-.4.2-.5zm3.4 4.9c.1-.1.2-.3.1-.5L45 50.8c-.1-.1-.3-.2-.5-.1s-.2.3-.1.5l2.9 4.3c.1.1.3.1.5 0z"/><path class="st2" d="M43.9 54.3c.2-.1.4 0 .5.1l1.2 2c.1.2 0 .4-.2.5-.2.1-.4.1-.5-.1l-1.1-2c-.1-.1 0-.4.1-.5z"/><path class="st3" d="M43.9 54.3c.2-.1.4-.1.5.1l1.1 2c.1.2.1.4-.1.5-.2.1-.4.1-.5-.1l-1.1-2c-.1-.1-.1-.4.1-.5zm1.5 2.7c.2-.1.2-.3.1-.5l-1.1-2c-.1-.1-.3-.2-.5-.1s-.2.3-.1.4l1.2 2c.1.2.3.3.4.2z"/><path class="st2" d="M40.6 52.7c.2-.1.4 0 .5.2l2 4.8c.1.2 0 .4-.2.5-.2.1-.4 0-.5-.2l-2-4.8c-.1-.2 0-.4.2-.5z"/><path class="st3" d="M40.6 52.7c.2-.1.4 0 .5.2l2 4.8v.3c0 .1-.1.2-.2.2-.2.1-.4 0-.5-.2l-2-4.8c-.1-.2 0-.4.2-.5zm2.3 5.4c.2-.1.2-.3.2-.4l-2-4.8c-.1-.2-.3-.3-.4-.2-.2.1-.3.3-.2.4l2 4.8c0 .2.2.3.4.2z"/><path class="st2" d="M39.4 56.2c.2-.1.4 0 .5.2l.7 2.2c.1.2-.1.4-.2.4-.2.1-.4 0-.5-.2l-.7-2.2c-.1-.1 0-.3.2-.4z"/><path class="st3" d="M39.4 56.2h.3c.1 0 .2.1.2.2l.7 2.2c.1.2-.1.4-.3.5H40c-.1 0-.2-.1-.2-.2l-.7-2.2c0-.2.1-.4.3-.5zm.9 2.9c.2 0 .3-.2.2-.4l-.7-2.2c0-.2-.2-.3-.4-.2-.2.1-.3.2-.2.4l.7 2.2s0 .1.1.1.1.1.1.1h.2z"/><path class="st2" d="M36.4 54c.2-.1.4.1.4.3l1.1 5.1c.1.2-.1.4-.3.4-.2.1-.4-.1-.4-.3l-1.1-5.1c0-.2.1-.4.3-.4z"/><path class="st3" d="M36.4 53.9c.2 0 .4.1.5.3l1.1 5.1c.1.2-.1.4-.3.4-.2.1-.4-.1-.5-.3l-1.1-5.1c0-.1.1-.3.3-.4zm1.2 5.8c.2 0 .3-.2.3-.4l-1-5.1c0-.2-.2-.3-.4-.2-.2 0-.3.2-.3.4l1.1 5.1c0 .2.1.3.3.2z"/><path class="st2" d="M34.5 57.2c.2 0 .4.1.4.3l.3 2.3c0 .2-.1.4-.3.4-.2 0-.4-.1-.4-.3l-.3-2.3c0-.2.1-.4.3-.4z"/><path class="st3" d="M34.5 57.2c.2 0 .4.1.4.3l.3 2.3c0 .2-.1.4-.3.4-.2 0-.4-.1-.5-.3l-.3-2.3c.1-.2.2-.4.4-.4zm.4 3c.2 0 .3-.2.3-.4l-.3-2.3c0-.2-.2-.3-.4-.3s-.3.2-.3.4l.3 2.3c.1.2.2.3.4.3z"/><path class="st2" d="M32 54.4c.2 0 .4.2.4.4V60c0 .2-.2.4-.4.4s-.4-.2-.4-.4v-5.2c0-.2.2-.4.4-.4z"/><path class="st3" d="M32 54.4c.2 0 .4.2.4.4V60c0 .2-.2.4-.4.4s-.4-.2-.4-.4v-5.2c0-.2.2-.4.4-.4zm0 5.9c.2 0 .3-.2.3-.3v-5.2c0-.2-.2-.3-.3-.3-.2 0-.3.1-.3.3V60c-.1.2.1.3.3.3z"/><path class="st2" d="M29.4 57.2c.2 0 .3.2.3.4l-.2 2.3c0 .2-.2.3-.4.3s-.3-.2-.3-.4l.2-2.3c.1-.2.2-.3.4-.3z"/><path class="st3" d="M29.4 57.2c.2 0 .4.2.4.4l-.2 2.3c0 .2-.2.4-.4.3-.2 0-.4-.2-.4-.4l.2-2.3c.1-.2.2-.3.4-.3zm-.2 3c.2 0 .4-.1.4-.3l.2-2.3c0-.2-.1-.3-.3-.3-.2 0-.3.1-.3.3l-.2 2.3c-.1.1.1.3.2.3z"/><path class="st2" d="M27.6 54c.2 0 .3.2.3.4l-1 5.1c-.1.2-.2.3-.4.3s-.3-.2-.3-.4l1-5.1c0-.2.2-.4.4-.3z"/><path class="st3" d="M27.6 53.9c.2.1.3.3.3.5l-1 5.1c-.1.2-.3.3-.5.3-.2-.1-.4-.3-.3-.5l1-5.1c.1-.2.3-.3.5-.3zm-1.2 5.8c.2 0 .3-.1.4-.2l1-5.1c0-.2-.1-.3-.3-.4-.2 0-.3.1-.4.3l-1 5.1c0 .1.1.3.3.3z"/><path class="st2" d="M24.6 56.2c.2.1.3.3.3.5l-.6 2.2c0 .2-.2.3-.4.3 0 0-.1 0-.1-.1l-.1-.1s0-.1-.1-.1v-.1l.6-2.2c0-.4.2-.4.4-.4z"/><path class="st3" d="M24.6 56.2c.2 0 .4.3.3.5l-.6 2.3c0 .2-.3.3-.5.3s-.3-.3-.3-.5l.6-2.3c.1-.2.3-.4.5-.3zm-.8 2.9c.2 0 .4-.1.4-.2l.6-2.2c.1-.2 0-.3-.2-.4-.2-.1-.4.1-.4.2l-.6 2.3c-.1.1 0 .3.2.3z"/><path class="st2" d="M23.4 52.7c.2.1.3.3.2.5l-2 4.8c-.1.2-.3.3-.5.2-.2-.1-.3-.3-.2-.5l2-4.8c.1-.2.3-.3.5-.2z"/><path class="st3" d="M23.4 52.7c.1 0 .2.1.2.2v.3l-2 4.8c-.1.2-.3.3-.5.2-.1 0-.2-.1-.2-.2v-.3l2-4.8c0-.2.3-.3.5-.2zm-2.3 5.4c.2.1.4 0 .5-.2l2-4.8c.1-.2 0-.4-.2-.4-.2-.1-.4 0-.5.2l-2 4.8c-.1.1 0 .4.2.4z"/><path class="st2" d="M20 54.3c.2.1.2.3.2.5l-1.1 2.1c-.1.1-.3.2-.5.1s-.2-.3-.2-.5l1.1-2.1c.1-.2.3-.2.5-.1z"/><path class="st3" d="M20 54.3c.2.1.3.3.2.5l-1 2.1c-.1.2-.3.3-.5.2-.2-.1-.3-.3-.2-.5l1-2.1c.1-.3.3-.3.5-.2zM18.6 57c.2.1.4 0 .4-.2l1.1-2.1c.1-.2 0-.4-.2-.4-.2-.1-.4 0-.5.1l-1.1 2.1c.1.2.2.4.3.5z"/><path class="st2" d="M19.5 50.6c.2.1.2.3.1.5l-2.9 4.3c-.1.2-.3.2-.5.1s-.2-.3-.1-.5l2.9-4.3c.1-.2.3-.2.5-.1z"/><path class="st3" d="M19.5 50.5c.2.1.2.4.1.6l-2.9 4.3c-.1.2-.3.2-.5.1s-.3-.3-.2-.5l2.9-4.3c.2-.2.4-.3.6-.2zm-3.3 5c.1.1.4.1.5-.1l2.9-4.3c.1-.1 0-.3-.1-.5-.1-.1-.4-.1-.5.1L16.1 55c-.1.2-.1.4.1.5z"/><path class="st2" d="M15.8 51.5c.2.1.2.3.1.5l-1.5 1.8c-.1.2-.3.2-.4.1-.1-.1-.2-.3-.1-.5l1.4-1.8c.2-.2.4-.2.5-.1z"/><path class="st3" d="M15.9 51.5c.2.1.2.4.1.5l-1.4 1.8c-.1.2-.4.2-.5.1-.2-.1-.2-.4-.1-.6l1.4-1.8c0-.2.3-.2.5 0zM14 53.8c.1.1.3.1.5-.1l1.5-1.8c.1-.1.1-.3-.1-.5-.2-.1-.4-.1-.5.1l-1.5 1.8c-.1.2-.1.4.1.5z"/><path class="st2" d="M16.1 47.8c.2.1.2.4 0 .5L12.4 52c-.2.2-.4.1-.5 0-.1-.1-.1-.4 0-.5l3.7-3.7c.1-.2.3-.2.5 0z"/><path class="st3" d="M16.1 47.7c.1.1.1.2.1.3s0 .2-.1.3L12.4 52c-.1.1-.2.1-.3.1-.1 0-.2 0-.3-.1-.1-.1-.1-.2-.1-.3 0-.1 0-.2.1-.3l3.7-3.7c.1-.1.2-.1.3-.1.1 0 .2.1.3.1zm-4.2 4.2c.1.1.4.1.5 0l3.7-3.7c.1-.1.1-.3 0-.5-.1-.1-.3-.1-.5 0l-3.7 3.7c-.1.2-.1.4 0 .5z"/><path class="st2" d="M12.3 48c.1.1.1.4 0 .5L10.5 50c-.1.1-.4.1-.5-.1-.1-.2-.1-.4 0-.5l1.8-1.5c.2-.1.4-.1.5.1z"/><path class="st3" d="M12.4 47.9c.1.2.1.4 0 .6L10.6 50c-.1.2-.4.1-.5 0-.2-.2-.1-.4 0-.6l1.8-1.5c0-.2.3-.1.5 0zm-2.4 2c.1.1.3.1.5.1l1.8-1.5c.1-.1.2-.3 0-.5-.1-.2-.3-.2-.5-.1L10 49.4c-.1.1-.1.4 0 .5z"/><path class="st2" d="M13.3 44.3c.1.2.1.4-.1.5l-4.4 2.9c-.2.1-.4 0-.5-.1-.1-.2-.1-.4.1-.5l4.4-2.9c.2 0 .4 0 .5.1z"/><path class="st3" d="M13.4 44.3c.1.2.1.4-.1.6L9 47.8c-.2.1-.4.1-.5-.1-.1-.2-.1-.4.1-.5l4.4-2.9c0-.2.2-.1.4 0zm-5 3.3c.1.2.3.2.4.1l4.4-2.9c.2-.1.2-.3.1-.5s-.3-.2-.5-.1l-4.3 2.9c-.2.2-.2.4-.1.5z"/><path class="st2" d="M9.6 43.8c.1.2 0 .4-.1.5l-2 1.2c-.2.1-.4 0-.5-.2-.1-.2-.1-.4.1-.5l2-1.1c.2-.1.4-.1.5.1z"/><path class="st3" d="M9.6 43.8c.1.2 0 .4-.1.5l-2 1.1c-.2.1-.4 0-.5-.1-.1-.2-.1-.4.1-.5l2-1.1c.2-.2.4-.1.5.1zM7 45.3c.1.2.3.2.5.1l2-1.1c.2-.1.2-.3.1-.5s-.3-.2-.5-.1l-2 1.1c-.1.1-.2.3-.1.5z"/><path class="st2" d="M11.3 40.5c.1.2 0 .4-.2.5l-4.8 2c-.2.1-.4 0-.5-.2-.1-.2 0-.4.2-.5l4.8-2c.2-.1.4 0 .5.2z"/><path class="st3" d="M11.3 40.5c.1.2 0 .4-.2.5l-4.8 2H6c-.1 0-.2-.1-.2-.2-.1-.2 0-.4.2-.5l4.8-2h.3c.1 0 .2.1.2.2zm-5.5 2.2c.1.2.3.3.4.2l4.8-2c.2-.1.2-.3.2-.4-.1-.2-.3-.2-.4-.2l-4.8 2c-.2.1-.2.3-.2.4z"/><path class="st2" d="M7.8 39.3c.1.2 0 .4-.2.5l-2.2.7c-.2.1-.4-.1-.5-.2-.1-.2 0-.4.2-.5l2.2-.8c.2 0 .4.1.5.3z"/><path class="st3" d="M7.8 39.2c.1.2 0 .4-.2.5l-2.2.7c-.2.1-.4-.1-.5-.3-.1-.2 0-.4.3-.5l2.1-.6c.2-.1.4 0 .5.2zm-2.9 1c.1.2.3.3.4.2l2.2-.7c.2 0 .3-.2.2-.4 0-.2-.2-.3-.4-.3l-2.2.7c-.2.1-.3.3-.2.5z"/><path class="st2" d="M10 36.3c0 .2-.1.4-.3.4l-5.1 1c-.2.1-.4-.1-.4-.3 0-.2.1-.4.3-.4l5.1-1c.2 0 .4.1.4.3z"/><path class="st3" d="M10 36.3c.1.2-.1.4-.3.5l-5.1 1c-.2.1-.4-.1-.4-.3-.1-.3.1-.5.3-.5l5.1-1c.2-.1.4 0 .4.3zm-5.8 1.1c0 .2.2.3.4.3l5.1-1c.2 0 .3-.2.3-.4s-.2-.3-.4-.3l-5.1 1c-.2 0-.3.2-.3.4z"/><path class="st2" d="M6.8 34.4c0 .2-.1.4-.3.4l-2.3.2c-.2 0-.4-.1-.4-.3 0-.2.1-.4.3-.4l2.3-.3c.2 0 .4.1.4.4z"/><path class="st3" d="M6.8 34.4c0 .2-.1.4-.3.4l-2.3.3c-.2 0-.4-.1-.4-.3 0-.2.1-.4.3-.5l2.3-.3c.2 0 .4.1.4.4zm-3 .3c0 .2.2.3.4.3l2.3-.3c.2 0 .3-.2.3-.4s-.2-.3-.4-.3l-2.3.3c-.2.1-.3.2-.3.4z"/><path class="st2" d="M9.6 31.9c0 .2-.1.4-.3.4H4c-.2 0-.3-.2-.3-.4s.1-.4.3-.4h5.2c.3 0 .4.2.4.4z"/><path class="st3" d="M9.6 31.9c0 .2-.2.4-.4.4H4c-.2 0-.4-.2-.4-.4s.2-.4.4-.4h5.2c.3 0 .4.2.4.4zm-5.9 0c0 .2.1.3.3.3h5.2c.2 0 .3-.1.3-.3 0-.2-.2-.4-.3-.4H4c-.1.1-.3.2-.3.4z"/><path d="M6.8 29.4c0 .2-.2.4-.4.4l-2.3-.2c-.2 0-.3-.2-.3-.4s.2-.3.4-.3l2.3.1c.2 0 .3.2.3.4z" style="fill:#e2e2e2"/><path class="st3" d="M6.9 29.4c0 .2-.2.4-.4.4l-2.3-.2c-.2 0-.4-.2-.3-.4 0-.2.2-.4.4-.4l2.2.2c.2 0 .4.2.4.4zm-3.1-.2c0 .2.1.4.3.4l2.3.2c.2 0 .3-.1.3-.3 0-.2-.1-.3-.3-.3L4.1 29c-.1-.1-.3 0-.3.2z"/><path class="st2" d="M10.1 27.6c0 .2-.2.3-.4.3l-5.1-1c-.2-.1-.3-.2-.3-.4.1-.2.2-.3.4-.3l5.1 1c.2 0 .3.2.3.4z"/><path class="st3" d="M10.1 27.6c-.1.2-.3.4-.5.3l-5.1-1c-.2-.1-.3-.3-.3-.5s.2-.4.4-.3l5.1 1c.3.1.4.3.4.5zm-5.8-1.2c0 .2.1.3.3.4l5.1 1c.2 0 .3-.1.4-.3 0-.2-.1-.3-.3-.4l-5.1-1c-.2 0-.4.1-.4.3z"/><path class="st2" d="M7.8 24.6s0 .1-.1.1l-.1.1s-.1 0-.1.1h-.1l-2.2-.6c-.2-.1-.3-.2-.3-.5 0 0 0-.1.1-.1l.1-.1s.1 0 .1-.1h.1l2.2.6c.3.1.4.3.3.5z"/><path class="st3" d="M7.8 24.6c0 .2-.3.3-.5.3L5 24.3c-.2-.1-.3-.3-.3-.5.1-.2.3-.4.5-.3l2.3.6c.3.1.4.3.3.5zm-2.9-.9c0 .2.1.4.2.4l2.2.6c.2 0 .3-.1.4-.3 0-.2 0-.4-.2-.4l-2.3-.6-.3.3z"/><path class="st2" d="M11.3 23.4c-.1.2-.3.3-.5.2l-4.8-2c-.2-.1-.3-.3-.2-.5.1-.2.3-.3.5-.2l4.8 2c.2.1.3.3.2.5z"/><path class="st3" d="M11.4 23.4c0 .1-.1.2-.2.2h-.3l-4.8-2c-.2-.1-.3-.3-.2-.5 0-.1.1-.2.2-.2h.3l4.8 2c.2.1.2.3.2.5zm-5.5-2.3c-.1.2 0 .4.2.4l4.8 2c.2.1.3 0 .4-.2.1-.2 0-.4-.2-.4l-4.8-2c-.2 0-.4.1-.4.2z"/><path class="st2" d="M9.7 20c-.1.2-.3.2-.5.2l-2.1-1c-.1-.1-.2-.4-.1-.6.1-.2.3-.3.5-.2l2.1 1.1c.1.1.2.3.1.5z"/><path class="st3" d="M9.7 20c-.1.2-.3.3-.5.2l-2.1-1.1c-.2-.1-.3-.3-.2-.5.1-.2.3-.3.5-.2l2.1 1c.3.2.3.4.2.6zM7 18.7c0 .1 0 .3.2.4l2.1 1.1c.2.1.4 0 .5-.2.1-.2 0-.4-.1-.5l-2.1-1c-.3-.1-.5 0-.6.2z"/><path class="st2" d="M13.4 19.5c-.1.2-.3.2-.5.1l-4.3-2.9c-.2-.1-.2-.3-.1-.5.1-.1.3-.2.5-.1l4.3 2.9c.2.2.2.4.1.5z"/><path class="st3" d="M13.4 19.5c-.1.2-.4.2-.5.1l-4.3-2.9c-.2-.1-.2-.3-.1-.5s.3-.2.5-.1l4.3 2.9c.2.1.2.4.1.5zm-4.9-3.3c-.1.2-.1.4.1.5l4.4 2.9c.1.1.3 0 .5-.1.1-.2.1-.4-.1-.5L9 16.1c-.2-.1-.4 0-.5.1z"/><path class="st2" d="M12.5 15.9c-.1.1-.4.2-.5.1l-1.8-1.4c-.1-.1-.2-.4-.1-.5.1-.1.3-.2.5-.1l1.8 1.4c.2.1.2.4.1.5z"/><path class="st3" d="M12.5 15.9c-.1.2-.4.2-.5.1l-1.8-1.4c-.3-.1-.3-.4-.2-.6.1-.2.4-.2.5-.1l1.8 1.4c.3.2.3.5.2.6zm-2.4-1.8c-.1.1-.1.3.1.5L12 16c.1.1.3.1.5-.1.1-.1.1-.3 0-.5L10.6 14c-.2-.1-.4-.1-.5.1z"/><path class="st2" d="M16.2 16.2c-.1.2-.4.2-.5 0L12 12.5c-.2-.2-.1-.4 0-.5.1-.1.4-.1.5 0l3.7 3.7c.1.1.1.3 0 .5z"/><path class="st3" d="M16.2 16.2c-.1.1-.2.1-.3.1-.1 0-.2 0-.3-.1l-3.7-3.7c-.1-.1-.1-.2-.1-.3 0-.1 0-.2.1-.3.1-.1.2-.1.3-.1.1 0 .2 0 .3.1l3.7 3.7c.1.2.1.4 0 .6zM12 12c-.1.1-.1.4 0 .5l3.7 3.7c.1.1.3.1.5 0 .1-.1.1-.3 0-.5L12.5 12c-.2-.1-.4-.1-.5 0z"/><path class="st2" d="M16 12.4c-.1.1-.4.1-.5 0L14 10.7c-.1-.1-.1-.4.1-.5.1-.1.4-.1.5 0l1.5 1.8s0 .3-.1.4z"/><path class="st3" d="M16 12.4c-.2.1-.4.1-.6 0l-1.5-1.7c-.1-.1-.1-.4.1-.5.2-.2.4-.1.5 0l1.5 1.7c.2.2.2.4 0 .5zm-2-2.2c-.2.1-.2.3 0 .5l1.5 1.7c.1.1.3.2.5 0 .1-.1.1-.3 0-.5l-1.5-1.8c-.2-.1-.4-.1-.5.1z"/><path class="st2" d="M19.6 13.4c-.2.1-.4.1-.5-.1L16.2 9c-.1-.2-.1-.4.1-.5.2-.1.4-.1.5.1l2.9 4.3c.1.1 0 .4-.1.5z"/><path class="st3" d="M19.6 13.4c-.2.1-.4.1-.6-.1L16.1 9c-.1-.2-.1-.4.1-.6.2-.1.4-.1.6.1l2.9 4.3c.1.2 0 .5-.1.6zm-3.4-4.9c-.1.1-.2.3-.1.5l2.9 4.3c.1.2.3.2.5.1s.2-.3.1-.4l-2.9-4.3c-.1-.3-.3-.3-.5-.2z"/><path class="st2" d="M20.1 9.7c-.2.1-.4.1-.5-.1l-1.2-2c-.1-.2 0-.4.2-.5.2-.1.4 0 .5.1l1.1 2c.1.1 0 .4-.1.5z"/><path class="st3" d="M20.1 9.7c-.2.1-.4.1-.5-.1l-1.2-2c-.1-.2 0-.4.2-.5.2-.1.4 0 .5.1l1.1 2c.1.1.1.4-.1.5zm-1.5-2.6c-.2.1-.2.3-.1.4l1.2 2c.1.1.3.2.4.1.2-.1.2-.3.1-.5l-1.2-2c0-.1-.3-.2-.4 0z"/><path class="st2" d="M23.4 11.3c-.2.1-.4 0-.5-.2l-2-4.8c-.1-.2 0-.4.2-.5.2-.1.4 0 .5.2l2 4.8c.1.2 0 .4-.2.5z"/><path class="st3" d="M23.4 11.4c-.2.1-.4 0-.5-.2l-2-4.8v-.3c0-.1.1-.2.2-.2.2-.1.4 0 .5.2l2 4.8c.1.1 0 .4-.2.5zm-2.3-5.5c-.1.1-.2.3-.1.4l2 4.8c.1.2.3.2.4.2.2-.1.3-.3.2-.4l-2-4.8c-.1-.2-.3-.3-.5-.2z"/><path class="st2" d="M24.6 7.8c-.2.1-.4 0-.5-.2l-.7-2.2c-.1-.2.1-.4.2-.4.2 0 .4 0 .5.2l.7 2.2c.1.1 0 .3-.2.4z"/><path class="st3" d="M24.7 7.8h-.3c-.1 0-.2-.1-.2-.2l-.7-2.2c-.1-.2.1-.4.3-.5h.3c.1 0 .2.1.2.2l.7 2.2c0 .2-.1.4-.3.5zm-1-2.9c-.2 0-.3.2-.2.4l.7 2.2c0 .2.2.2.4.2s.3-.2.2-.4l-.7-2.2s0-.1-.1-.1l-.1-.1h-.2z"/><path class="st2" d="M27.6 10.1c-.2.1-.4-.1-.4-.3l-1.1-5.1c-.1-.2.1-.4.3-.4.2-.1.4.1.4.3l1.1 5.1c0 .1-.1.3-.3.4z"/><path class="st3" d="M27.6 10.1c-.2.1-.4-.1-.5-.3L26 4.7c-.1-.2.1-.4.3-.5.2-.1.4.1.5.3l1.1 5.1c0 .2-.1.4-.3.5zm-1.2-5.9c-.2 0-.3.2-.3.4l1.1 5.1c0 .2.2.3.4.2.2 0 .3-.2.3-.4l-1-5.1c-.1-.1-.3-.2-.5-.2z"/><path class="st2" d="M29.5 6.8c-.2 0-.4-.1-.4-.3l-.3-2.3c0-.2.1-.4.3-.4.2 0 .4.1.4.3l.3 2.3c0 .2-.1.4-.3.4z"/><path class="st3" d="M29.5 6.8c-.2 0-.4-.1-.5-.3l-.3-2.3c0-.2.1-.4.4-.4.2 0 .4.1.4.3l.3 2.3c0 .2-.1.4-.3.4zm-.4-3c-.2 0-.3.2-.3.4l.3 2.3c0 .2.2.3.4.3s.3-.2.3-.4l-.3-2.3c-.1-.2-.2-.3-.4-.3z"/><linearGradient id="SVGID_3_" gradientUnits="userSpaceOnUse" x1="35.641" y1="-167.756" x2="21.826" y2="-192.543" gradientTransform="matrix(1 0 0 -1 0 -142)"><stop offset="0" style="stop-color:#000;stop-opacity:0"/><stop offset="1" style="stop-color:#000"/></linearGradient><path d="M32.2 61.6c16.3 0 29.6-13.3 29.6-29.6S48.5 2.4 32.2 2.4C15.8 2.4 2.6 15.6 2.6 32s13.2 29.6 29.6 29.6z" style="fill:url(#SVGID_3_);fill-opacity:.2"/><path d="M52.7 13.2 28.8 28.5 13.9 53.1l21.9-17.6 16.9-22.3z" style="fill-opacity:5.000000e-02"/><path d="M52.2 11.8 28.6 28.5l7 6.9 16.6-23.6z" style="fill:#cd151e"/><path d="m28.7 28.5 3.5 3.5 20-20.2-23.5 16.7z" style="fill:#fa5153"/><path d="m28.7 28.5 7 6.9L12 52.2l16.7-23.7z" style="fill:#acacac"/><path d="M12 52.2 32.2 32l-3.5-3.5L12 52.2z" style="fill:#eee"/></svg>