<svg width="99" height="40" fill="none" xmlns="http://www.w3.org/2000/svg"><g clip-path="url(#clip0)" fill="#00A275"><path d="M26.827 17.626l-1.586 1.595h-4.536v-3.73h6.122v2.135zm0 8.882h-6.122v-3.73h4.537l1.585 1.595v2.135zm-9.656-14.571v18.125h11.153l2.037-2.047v-4.317L27.679 21l2.682-2.698v-4.317l-2.037-2.047-11.153-.002zm16.899 0v5.984h3.533v-2.43h6.122v3.35l-2.794 2.81h-2.417l-4.449 4.475v3.936H47.26v-3.554h-8.157l3.708-3.73h2.414l2.035-2.048v-6.746l-2.035-2.047H34.07zm43.224 2.047l-3.06 3.08-3.062-3.08v-2.046h-3.529v3.935L72.74 21l-5.097 5.127v3.936h3.529v-2.047l3.06-3.08 3.062 3.08v2.047h3.534v-3.936L75.732 21l5.096-5.127v-3.936h-3.534v2.047zM60.67 17.626l-1.589 1.595h-4.537v-3.73h6.126v2.135zm0 8.882h-6.126v-3.73h4.537l1.589 1.595v2.135zm-9.66-14.571v18.125h11.153l2.037-2.047v-4.317L61.517 21l2.682-2.698v-4.317l-2.037-2.047-11.152-.002z"/><path d="M76.431 11.069v2.556l-2.199 2.211-2.198-2.211v-2.556h-5.258v5.16l4.738 4.766-4.738 4.768v5.164h5.26v-2.552l2.197-2.211 2.198 2.211v2.556h5.264v-5.164L76.957 21l4.738-4.772v-5.16h-5.264zm.432 2.735v-2.3h4.396v4.549L76.342 21l4.917 4.953v4.55h-4.396v-2.305l-2.63-2.647-2.63 2.647v2.301h-4.396v-4.552L72.125 21l-4.918-4.947v-4.55h4.397v2.301l2.63 2.646 2.63-2.646zM33.206 11.07v7.72h5.26V16.36h4.396v2.122l-2.288 2.3H38.16l-4.954 4.985v5.16h14.915V25.64h-6.94l1.982-1.995h2.418l2.54-2.555v-7.465l-2.54-2.556H33.207zm.432.434h11.764l2.288 2.301v7.106l-2.288 2.302h-2.414l-2.845 2.861h7.547v4.424H33.638v-4.55l4.702-4.73h2.413l2.54-2.556v-2.735h-5.26v2.428h-4.395v-6.85zm-17.33-.434V30.93h12.374l2.542-2.556V23.34l-2.325-2.34 2.325-2.338v-5.036l-2.542-2.556H16.309zm.432.434h11.762l2.29 2.301v4.678L28.29 21l2.503 2.518v4.68l-2.29 2.302H16.74V11.503zm4.397 4.423v2.862h3.925l1.333-1.341v-1.521h-5.258zm.431.434h4.397v.907l-1.081 1.087h-3.316V16.36zm-.431 6.852v2.861h5.258v-1.52l-1.333-1.341h-3.925zm.431.433h3.316l1.08 1.088v.907H21.57v-1.995zm28.58-12.576V30.93H62.52l2.542-2.556V23.34l-2.325-2.34 2.325-2.338v-5.036l-2.542-2.556H50.147zm.431.434h11.762l2.29 2.301v4.678L62.127 21l2.504 2.518v4.68l-2.29 2.299H50.579V11.503zm4.396 4.423v2.862h3.926l1.334-1.341v-1.521h-5.26zm.432.434h4.396v.907l-1.083 1.087h-3.313V16.36zm-.432 6.852v2.861h5.259v-1.52L58.9 23.212h-3.925zm.432.433h3.313l1.081 1.088v.907h-4.394v-1.995z"/></g><defs><clipPath id="clip0"><path fill="#fff" d="M0 0h99v40H0z"/></clipPath></defs></svg>