<svg width="139" height="40" fill="none" xmlns="http://www.w3.org/2000/svg"><path d="M12.612 19.005l4.66-4.622 4.662 4.622 2.711-2.691L17.273 9 9.9 16.314l2.71 2.691zm-4.116-.741l2.497 2.497-2.497 2.496L6 20.76l2.496-2.496zm4.116 4.271l4.66 4.622 4.662-4.622 2.711 2.692-7.353 7.313-7.352-7.313 2.672-2.692zm15.7-1.774l-2.497 2.496-2.496-2.497 2.496-2.496 2.497 2.497z" fill="#FCB900"/><path d="M19.925 20.468l-2.652-2.652-1.95 1.95-.235.234-.468.468 2.653 2.652 2.652-2.652zm12.95-5.598h5.793c1.443 0 2.516.371 3.257 1.093.566.565.858 1.267.858 2.106v.039c0 .312-.039.624-.136.936a4.328 4.328 0 01-.352.741c-.156.215-.312.41-.507.566a4.43 4.43 0 01-.624.429c.722.273 1.288.644 1.697 1.112.41.468.624 1.111.624 1.93v.04c0 .565-.117 1.053-.331 1.482-.215.429-.546.8-.937 1.053-.41.292-.897.488-1.482.644a8.308 8.308 0 01-1.911.214h-5.929V14.871h-.02zm5.227 5.013c.605 0 1.093-.098 1.444-.312.35-.215.526-.546.526-.995v-.039c0-.41-.156-.721-.468-.936-.312-.215-.76-.332-1.346-.332h-2.71v2.614h2.554zm.722 4.973c.605 0 1.092-.117 1.424-.331.35-.215.526-.566.526-1.015v-.039c0-.41-.156-.74-.487-.975-.312-.234-.839-.37-1.56-.37h-3.18v2.73h3.277zm8.191-9.986h2.945v12.365h-2.945V14.871zm7.08 0h2.555l5.91 7.626v-7.625h2.73v12.364h-2.36l-6.105-7.86v7.86h-2.73V14.871zm19.367 0h2.477l5.246 12.365h-2.809l-1.111-2.75h-5.168l-1.112 2.75h-2.75l5.227-12.364zm2.828 7.236l-1.62-3.979-1.618 3.98h3.238zm7.84-7.236h2.555l5.91 7.626v-7.625h2.73v12.364h-2.36l-6.105-7.86v7.86h-2.73V14.871zm21.278 12.385a6.78 6.78 0 01-2.613-.507 6.431 6.431 0 01-2.087-1.365 6.285 6.285 0 01-1.365-2.048 6.221 6.221 0 01-.488-2.516v-.04c0-.896.156-1.735.487-2.515.313-.76.781-1.463 1.366-2.067a6.638 6.638 0 012.106-1.404 7.11 7.11 0 012.692-.508c.604 0 1.131.04 1.638.137a8.43 8.43 0 011.346.39c.409.176.78.37 1.111.605.332.234.663.507.956.78l-1.794 2.028a7.011 7.011 0 00-1.522-1.034c-.507-.253-1.092-.37-1.735-.37a3.43 3.43 0 00-1.483.312 3.59 3.59 0 00-1.17.838c-.331.371-.585.78-.761 1.249a4.313 4.313 0 00-.273 1.52v.04c0 .546.098 1.053.273 1.521.176.468.43.897.761 1.248.332.352.702.644 1.17.859a3.64 3.64 0 001.502.312c.722 0 1.346-.137 1.853-.39.507-.254 1.014-.625 1.502-1.073l1.794 1.775a9.052 9.052 0 01-1.014.936 6.239 6.239 0 01-1.151.702 6.756 6.756 0 01-1.385.448c-.546.079-1.092.137-1.716.137zm8.172-12.384h9.342v2.418h-6.651v2.516h5.851v2.418h-5.851v2.594H123v2.418h-9.42V14.871z" fill="#FCB900"/></svg>