<svg width="139" height="40" fill="none" xmlns="http://www.w3.org/2000/svg"><path d="M15.857 29.674c4.747 0 8.595-4.203 8.595-9.388s-3.848-9.388-8.595-9.388c-4.747 0-8.595 4.203-8.595 9.388s3.848 9.388 8.595 9.388z" fill="#2C7"/><path d="M32.62 16.88c.618 0 1.166.13 1.618.364.453.233.833.572 1.143.988.31.416.524.91.667 1.456.142.546.214 1.17.214 1.794 0 .988-.167 1.925-.5 2.809a7.336 7.336 0 01-1.357 2.288 6.174 6.174 0 01-2.048 1.534c-.786.39-1.643.573-2.547.573h-.62c-.285 0-.642-.052-1.023-.105a7.754 7.754 0 01-1.215-.26 4.967 4.967 0 01-1.214-.468l3.405-15.602 3.047-.52L31 17.27c.262-.13.524-.235.786-.313.262-.052.523-.078.833-.078zm-2.549 9.18c.453 0 .881-.13 1.286-.365a3.268 3.268 0 001.048-.988 5.2 5.2 0 00.69-1.378c.167-.52.262-1.04.262-1.613 0-.676-.095-1.222-.31-1.612-.214-.39-.595-.572-1.166-.572-.19 0-.429.026-.714.104a1.854 1.854 0 00-.786.442l-1.286 5.877c.072.026.143.026.215.052.047.026.119.026.19.026h.238c.072.026.19.026.333.026zm9.405 2.34h-2.905l2.453-11.287h2.928L39.476 28.4zm1.405-12.665c-.405 0-.762-.13-1.095-.39-.334-.26-.5-.676-.5-1.222 0-.312.047-.572.166-.858.12-.26.262-.494.453-.676.19-.182.404-.338.643-.469.238-.103.5-.181.785-.181.405 0 .762.13 1.096.39.333.26.5.676.5 1.222 0 .312-.048.572-.167.858-.12.26-.262.494-.453.676-.19.182-.404.338-.642.468s-.5.182-.786.182zm3.571-1.43l3.048-.52-.738 3.328h3.262l-.595 2.627H46.19l-.857 3.953a7.251 7.251 0 00-.142.91c-.024.286.023.546.095.728.095.208.238.364.452.494.214.104.5.182.857.182.31 0 .62-.026.905-.104.286-.078.595-.156.905-.26l.214 2.444c-.38.157-.81.287-1.286.416a7.24 7.24 0 01-1.619.183c-.904 0-1.595-.157-2.095-.442a2.51 2.51 0 01-1.071-1.197c-.215-.52-.31-1.092-.286-1.742.024-.65.119-1.352.286-2.08l1.904-8.92zm5.143 9.57c0-.962.143-1.899.429-2.757.285-.858.69-1.612 1.238-2.262a6.165 6.165 0 011.952-1.535c.762-.364 1.62-.546 2.572-.546.595 0 1.119.052 1.571.182.476.13.881.287 1.262.494l-1 2.497c-.262-.104-.524-.208-.81-.312-.285-.104-.618-.13-1.023-.13-.977 0-1.762.364-2.31 1.092-.571.728-.833 1.716-.833 2.939 0 .728.143 1.326.428 1.768.286.442.81.676 1.596.676.38 0 .738-.052 1.095-.13a4.68 4.68 0 00.952-.312l.215 2.548a9.892 9.892 0 01-1.215.416c-.428.13-.976.183-1.595.183-.81 0-1.5-.13-2.071-.39a3.97 3.97 0 01-1.405-1.04c-.357-.443-.643-.937-.786-1.535a6.62 6.62 0 01-.262-1.846zm12.548 4.81c-.69 0-1.286-.104-1.81-.337a3.273 3.273 0 01-1.262-.963 4.369 4.369 0 01-.761-1.456 6.669 6.669 0 01-.262-1.872c0-.858.119-1.717.38-2.575a8.143 8.143 0 011.12-2.314 5.995 5.995 0 011.833-1.69c.714-.443 1.548-.65 2.476-.65.69 0 1.286.103 1.786.338.524.233.952.546 1.286.962.333.416.595.91.761 1.456.167.572.262 1.196.262 1.872 0 .858-.119 1.717-.38 2.575a7.508 7.508 0 01-1.096 2.314 6.188 6.188 0 01-1.81 1.69c-.737.442-1.57.65-2.523.65zm1.452-9.18c-.428 0-.81.13-1.143.417-.333.26-.595.624-.833 1.04-.214.416-.38.858-.5 1.352a5.963 5.963 0 00-.167 1.405c0 .728.096 1.3.31 1.69.214.39.595.598 1.143.598.428 0 .81-.13 1.143-.416.333-.26.595-.624.833-1.04.214-.416.38-.858.5-1.352.119-.495.167-.963.167-1.405 0-.728-.096-1.3-.31-1.69-.214-.39-.595-.598-1.143-.598zm7.548 8.895h-2.905l2.453-11.287h2.928L71.143 28.4zm1.428-12.665c-.404 0-.761-.13-1.095-.39-.333-.26-.5-.676-.5-1.222 0-.312.048-.572.167-.858.119-.26.262-.494.452-.676.19-.182.405-.338.643-.469.238-.103.5-.181.786-.181.405 0 .762.13 1.095.39.333.26.5.676.5 1.222 0 .312-.048.572-.167.858-.119.26-.261.494-.452.676-.19.182-.405.338-.643.468-.262.13-.524.182-.786.182zm3.12 1.899c.214-.079.476-.157.738-.235.261-.104.571-.181.904-.26.334-.078.715-.13 1.12-.182.404-.052.88-.078 1.404-.078 1.548 0 2.595.494 3.19 1.457.572.962.667 2.314.286 3.978L82 28.4h-2.929l1.286-5.955c.072-.364.143-.728.19-1.092.048-.338.048-.65 0-.91a1.157 1.157 0 00-.356-.65c-.191-.156-.477-.234-.882-.234-.38 0-.761.052-1.166.13l-1.905 8.738H73.31l2.38-10.792z" fill="#F0F0F0"/><path d="M84.881 23.875c0-.962.143-1.899.428-2.757.286-.858.691-1.612 1.239-2.262.523-.65 1.19-1.144 1.952-1.535.762-.364 1.62-.546 2.571-.546.596 0 1.12.052 1.572.182.452.13.88.287 1.262.494l-1 2.497c-.262-.104-.524-.208-.81-.312-.285-.104-.619-.13-1.024-.13-.976 0-1.761.364-2.31 1.092-.57.728-.832 1.716-.832 2.939 0 .728.142 1.326.428 1.768.286.442.81.676 1.595.676.381 0 .739-.052 1.096-.13.357-.078.666-.182.952-.312l.214 2.548a9.886 9.886 0 01-1.214.416c-.429.13-.976.183-1.595.183-.81 0-1.5-.13-2.072-.39a3.97 3.97 0 01-1.404-1.04c-.358-.443-.643-.937-.786-1.535a6.616 6.616 0 01-.262-1.846zm17.643-.364a7.705 7.705 0 00-.167 2.444c.072.806.238 1.56.453 2.21l-2.62.417a8.697 8.697 0 00-.214-.495c-.071-.156-.119-.338-.19-.546a4.428 4.428 0 01-1.215.806 3.547 3.547 0 01-1.5.313c-.666 0-1.214-.13-1.69-.364a3.466 3.466 0 01-1.143-1.015c-.286-.416-.5-.91-.643-1.482a8.84 8.84 0 01-.19-1.82c0-.988.166-1.925.476-2.783a7.124 7.124 0 011.333-2.288 6.083 6.083 0 012.024-1.535c.762-.364 1.62-.546 2.524-.546.119 0 .333 0 .619.026s.643.052 1 .104c.381.052.786.13 1.19.235.429.104.81.26 1.191.468l-1.238 5.85zm-2.048-3.927a3.354 3.354 0 00-.452-.052c-.143-.026-.31-.026-.5-.026-.453 0-.857.13-1.238.364-.381.234-.715.572-1.024.962-.286.39-.524.858-.667 1.352a5.164 5.164 0 00-.238 1.613c0 .676.095 1.222.31 1.638.214.39.595.598 1.166.598.31 0 .572-.052.81-.182.238-.13.5-.338.786-.65.023-.364.071-.728.119-1.118.047-.39.119-.754.19-1.092l.738-3.407zm6.786 6.527c.667 0 1.119-.104 1.381-.312.238-.208.381-.442.381-.676 0-.156-.024-.286-.072-.416a.889.889 0 00-.214-.312 1.664 1.664 0 00-.428-.312c-.191-.104-.429-.234-.715-.364-.333-.156-.643-.338-.928-.494a3.175 3.175 0 01-.762-.65 3.034 3.034 0 01-.5-.859 3.242 3.242 0 01-.191-1.144c0-1.17.381-2.08 1.167-2.756.786-.676 1.905-1.015 3.405-1.015.714 0 1.333.078 1.881.26.547.183 1 .364 1.333.547L112 20a5.094 5.094 0 00-1.071-.442 4.437 4.437 0 00-1.286-.208c-.191 0-.357 0-.548.026a3.576 3.576 0 00-.5.13 1.072 1.072 0 00-.357.312.88.88 0 00-.143.52c0 .286.095.494.31.65.214.156.476.312.857.52.5.26.928.52 1.286.754.333.234.619.468.809.729.214.26.357.546.453.884.095.338.142.728.142 1.17 0 .468-.095.91-.262 1.352a2.964 2.964 0 01-.833 1.17 4.288 4.288 0 01-1.452.832c-.595.209-1.286.313-2.119.313-.5 0-.976-.026-1.381-.104-.405-.079-.786-.157-1.095-.26a3.935 3.935 0 01-.786-.339 4.431 4.431 0 01-.5-.286l1-2.444c.214.13.571.312 1.047.546.453.182 1 .286 1.691.286zm12.595-9.206c.572 0 1.048.078 1.453.26.404.183.738.416 1 .755.261.312.452.702.595 1.144.119.442.19.91.19 1.43 0 .598-.071 1.196-.19 1.768l-1.334 6.085h-2.928l1.286-5.955c.047-.234.095-.494.142-.78.048-.26.072-.52.072-.78a1.79 1.79 0 00-.262-.962c-.167-.26-.524-.39-1.024-.39a4.25 4.25 0 00-.595.052 3.458 3.458 0 00-.548.104l-1.904 8.712h-2.929l3.524-16.123 3.047-.52-1.19 5.382.786-.156c.285 0 .547-.026.809-.026z" fill="#2C7"/><path d="M19.857 21.534c-.19-.416-.524-.754-1-1.014.714-.208 1.143-.754 1.214-1.638.024-.312 0-.624-.071-.884a1.77 1.77 0 00-.429-.677 3.287 3.287 0 00-.666-.494 5.899 5.899 0 00-.881-.364l.357-1.82-1-.234-.333 1.768c-.167-.052-.453-.104-.81-.182l.357-1.768-1.071-.234-.357 1.82c-.143-.026-.357-.078-.643-.13l-1.381-.364-.238 1.17.738.182c.333.078.5.287.5.625l-.405 2.054c.048 0 .072.026.095.026l-.095-.026-.571 2.886c-.072.235-.238.338-.453.287l-.738-.183-.452 1.275 1.31.312c.095.026.214.052.357.078.166.052.285.078.357.078l-.357 1.82 1 .234.357-1.82c.19.052.452.104.81.182L15 26.293l1 .234.357-1.82c.357.052.69.104.976.104.286 0 .572 0 .858-.052.285-.052.523-.156.714-.26.214-.13.38-.312.547-.546.167-.234.286-.52.381-.858.19-.598.215-1.119.024-1.56zm-3.905-4.238c.024 0 .12.026.262.052.143.026.262.052.357.078.096.026.215.052.381.104.167.052.286.104.405.156.095.052.214.13.334.208.119.078.214.182.285.286a.843.843 0 01.143.338c.024.13.024.286 0 .442-.024.13-.071.26-.119.364a.699.699 0 01-.238.234c-.095.052-.19.104-.286.13a1.295 1.295 0 01-.333.052h-.357c-.096 0-.215-.026-.357-.052-.143-.026-.262-.052-.334-.052-.071-.026-.166-.026-.31-.078-.118-.026-.214-.052-.214-.052l.381-2.21zm1.81 5.512a2.278 2.278 0 01-.214.26.601.601 0 01-.31.157c-.119.026-.238.052-.333.078-.12.026-.238.026-.381.026-.143 0-.286-.026-.381-.026-.12-.026-.238-.026-.381-.052a4.346 4.346 0 01-.357-.078c-.095-.026-.19-.052-.31-.078-.119-.026-.214-.052-.238-.052l.476-2.419c.024 0 .143.026.31.078.166.026.31.078.428.104.12.026.262.078.453.13.19.052.357.13.476.182.12.052.262.13.405.234.143.104.262.208.333.312a.944.944 0 01.167.39.871.871 0 010 .495c-.048.052-.072.181-.143.26z" fill="#F0F0F0"/></svg>