<svg width="95" height="20" fill="none" xmlns="http://www.w3.org/2000/svg"><path d="M19.537 12.42c-1.324 5.356-6.706 8.617-12.02 7.28-5.312-1.334-8.545-6.76-7.22-12.117C1.621 2.224 7.003-1.036 12.315.299c5.314 1.336 8.547 6.763 7.222 12.12z" fill="#F7931A"/><path d="M14.292 8.575c.197-1.33-.807-2.046-2.181-2.523l.445-1.802-1.088-.274-.434 1.755c-.286-.072-.58-.14-.872-.207l.437-1.766-1.087-.274-.446 1.802c-.237-.054-.47-.108-.695-.164l.001-.006-1.5-.378-.29 1.172s.807.187.79.198c.44.111.52.405.507.638L7.372 8.8c.03.007.07.019.113.036l-.115-.029-.712 2.877c-.054.135-.19.338-.499.26.011.016-.79-.199-.79-.199l-.54 1.257 1.415.355c.264.067.522.137.776.202l-.45 1.823 1.087.274.446-1.804c.297.081.585.156.867.227l-.445 1.795 1.089.274.45-1.82c1.856.354 3.251.211 3.838-1.48.474-1.363-.023-2.15-1-2.662.712-.165 1.247-.637 1.39-1.61zm-2.486 3.516c-.337 1.362-2.612.626-3.35.44l.598-2.415c.738.186 3.103.554 2.752 1.975zm.336-3.535c-.307 1.239-2.2.61-2.815.455l.542-2.19c.614.154 2.593.442 2.273 1.735z" fill="#fff"/><path d="M51.127 14.328a9.42 9.42 0 01.552-3.24 7.985 7.985 0 011.583-2.659 7.413 7.413 0 012.498-1.796c.977-.437 2.07-.658 3.275-.658.754 0 1.427.072 2.02.216a8.135 8.135 0 011.62.569l-1.281 2.937a11.938 11.938 0 00-1.041-.367c-.36-.111-.799-.165-1.318-.165-1.24 0-2.22.431-2.95 1.29-.727.86-1.093 2.017-1.093 3.468 0 .86.184 1.556.554 2.089.367.532 1.046.796 2.032.796.487 0 .956-.05 1.406-.15a6.883 6.883 0 001.206-.38l.277 3.011c-.47.184-.988.35-1.556.495-.57.14-1.248.213-2.035.213-1.037 0-1.916-.153-2.635-.455-.72-.306-1.313-.712-1.781-1.227a4.637 4.637 0 01-1.017-1.811 7.485 7.485 0 01-.316-2.176zm16.505 5.67c-.887 0-1.657-.137-2.31-.407a4.265 4.265 0 01-1.619-1.139 4.929 4.929 0 01-.966-1.733c-.22-.666-.325-1.404-.325-2.212 0-1.014.162-2.028.488-3.039a8.628 8.628 0 011.445-2.732 7.731 7.731 0 012.333-1.99c.918-.513 1.974-.77 3.16-.77.872 0 1.638.136 2.3.405.66.27 1.202.65 1.632 1.139.424.49.747 1.067.964 1.734.218.665.326 1.405.326 2.214 0 1.01-.16 2.024-.475 3.039a8.797 8.797 0 01-1.406 2.732 7.383 7.383 0 01-2.322 1.986c-.928.514-2.004.772-3.225.772zM29.065 6.05c.805 0 1.5.146 2.083.431a4.2 4.2 0 011.46 1.164c.383.491.668 1.064.852 1.722.183.659.275 1.367.275 2.125a8.583 8.583 0 01-.64 3.304 8.578 8.578 0 01-1.744 2.709 8.207 8.207 0 01-2.611 1.82c-1.002.447-2.092.671-3.262.671-.151 0-.417-.004-.793-.012a11.502 11.502 0 01-1.29-.113 15.058 15.058 0 01-1.545-.305 7.698 7.698 0 01-1.544-.557L24.649.611l3.89-.608-1.556 6.529a6.013 6.013 0 011.003-.354 4.417 4.417 0 011.08-.128zm18.058.282h4.168l-.753 3.087h-4.142l-1.104 4.656c-.101.388-.159.75-.175 1.088-.018.338.024.628.125.873.1.245.279.435.54.568.258.136.63.205 1.116.205.4 0 .791-.039 1.169-.115.375-.075.755-.18 1.14-.316l.277 2.886c-.502.186-1.045.346-1.631.48-.587.136-1.282.202-2.084.202-1.154 0-2.05-.173-2.687-.517-.636-.347-1.087-.82-1.356-1.42-.265-.597-.384-1.285-.351-2.06.034-.778.15-1.595.351-2.456l2.461-10.477 3.892-.608-.956 3.924zM37.77 19.644h-3.716l3.138-13.311h3.74L37.77 19.644zm41.34 0h-3.72l3.138-13.311h3.742l-3.16 13.311zm5.839-12.706c.282-.083.597-.183.94-.292a13.746 13.746 0 012.587-.53 15.99 15.99 0 011.792-.09c1.96 0 3.31.575 4.056 1.722.745 1.147.874 2.717.39 4.707l-1.708 7.188h-3.74l1.656-7.036c.101-.44.18-.864.24-1.28.058-.41.055-.773-.014-1.087a1.304 1.304 0 00-.463-.76c-.245-.194-.616-.29-1.118-.29a7.5 7.5 0 00-1.48.153l-2.436 10.3H81.91l3.039-12.705zm-59.145 9.947c.585 0 1.137-.145 1.656-.43a4.37 4.37 0 001.345-1.152 5.825 5.825 0 00.89-1.633c.217-.607.327-1.24.327-1.9 0-.81-.134-1.441-.402-1.898-.267-.454-.762-.683-1.481-.683-.236 0-.54.045-.915.126a2.279 2.279 0 00-1.018.533l-1.656 6.934c.1.017.188.034.263.05a2.7 2.7 0 00.54.052h.45zm43.685-7.72c-.55 0-1.037.162-1.454.48-.419.322-.77.727-1.053 1.216a6.03 6.03 0 00-.643 1.607 6.98 6.98 0 00-.212 1.657c0 .845.135 1.502.401 1.976.27.47.753.708 1.457.708.552 0 1.037-.16 1.456-.482.416-.32.768-.725 1.053-1.215a6.048 6.048 0 00.642-1.607 7.09 7.09 0 00.212-1.657c0-.843-.134-1.502-.402-1.975-.268-.47-.754-.708-1.457-.708zM39.576 4.711c-.518 0-.988-.156-1.406-.468-.42-.31-.628-.787-.628-1.43 0-.354.07-.686.212-.999a2.67 2.67 0 01.566-.81c.235-.227.507-.408.815-.545.31-.134.641-.201.993-.201.519 0 .986.155 1.405.467.417.314.627.79.627 1.43 0 .355-.07.689-.213 1.001a2.635 2.635 0 01-1.38 1.353 2.43 2.43 0 01-.99.202zm41.338 0c-.519 0-.989-.156-1.405-.468-.418-.31-.629-.787-.629-1.43 0-.354.073-.686.214-.999A2.638 2.638 0 0180.476.46c.308-.134.639-.201.99-.201.519 0 .988.155 1.406.467.418.314.63.79.63 1.43 0 .355-.076.689-.216 1.001a2.627 2.627 0 01-1.379 1.353 2.438 2.438 0 01-.993.202z" fill="#D0D0D0"/></svg>