<svg width="121" height="40" fill="none" xmlns="http://www.w3.org/2000/svg"><path fill-rule="evenodd" clip-rule="evenodd" d="M43.69 15.057c0 .031-.141.056-.317.056-.176 0-.316.026-.316.057 0 .031-.095.057-.211.057-.116 0-.21.025-.21.056 0 .032-.048.057-.106.057-.058 0-.106.026-.106.057 0 .031-.047.057-.105.057-.058 0-.105.025-.105.056s-.048.057-.106.057c-.058 0-.105.025-.105.057 0 .03-.042.056-.094.056s-.128.051-.17.114c-.041.062-.106.113-.144.113-.089 0-.857.827-.857.922 0 .04-.048.11-.105.155-.059.045-.106.128-.106.183 0 .056-.024.101-.053.101-.029 0-.052.051-.052.113 0 .063-.024.114-.053.114-.03 0-.053.05-.053.113s-.024.114-.053.114c-.029 0-.052.076-.052.17 0 .093-.024.17-.053.17-.029 0-.053.102-.053.227 0 .124-.023.226-.052.226-.034 0-.053.7-.053 1.985 0 1.285.019 1.985.053 1.985.029 0 .052.102.052.226 0 .125.024.227.053.227.03 0 .053.077.053.17 0 .094.023.17.053.17.028 0 .052.051.052.114 0 .062.024.113.053.113.029 0 .053.051.053.114 0 .062.023.113.052.113.03 0 .053.051.053.113 0 .063.024.114.053.114.029 0 .053.038.053.086 0 .111.975 1.161 1.08 1.161.043 0 .079.026.079.057 0 .031.042.057.094.057.051 0 .128.05.17.113a.28.28 0 00.222.113c.08 0 .146.026.146.057 0 .031.048.057.106.057.058 0 .105.025.105.056 0 .032.095.057.211.057.116 0 .21.026.21.057 0 .031.141.057.317.057.176 0 .316.025.316.056 0 .035.246.057.633.057.386 0 .632-.022.632-.057 0-.031.14-.056.316-.056s.317-.026.317-.057c0-.031.07-.057.158-.057.087 0 .158-.025.158-.056 0-.032.071-.057.158-.057.087 0 .158-.026.158-.057 0-.031.048-.057.105-.057.059 0 .106-.025.106-.056s.042-.057.094-.057c.051 0 .128-.051.17-.113.041-.063.106-.114.144-.114.096 0 .857-.83.857-.934 0-.048.024-.086.053-.086.029 0 .052-.052.052-.114 0-.062.024-.113.053-.113.029 0 .053-.051.053-.114 0-.062.023-.113.052-.113.03 0 .053-.051.053-.113 0-.063.024-.114.053-.114.029 0 .053-.076.053-.17 0-.094.023-.17.052-.17.03 0 .053-.102.053-.227s.024-.227.053-.227c.03 0 .052-.208.052-.51v-.51H46.43v.283c0 .156-.024.284-.053.284-.029 0-.053.127-.053.283 0 .156-.023.284-.052.284-.03 0-.053.05-.053.113s-.024.114-.053.114c-.029 0-.052.038-.052.086 0 .112-.554.707-.658.707-.044 0-.08.026-.08.057 0 .031-.071.057-.158.057-.087 0-.158.025-.158.056 0 .035-.264.057-.686.057-.421 0-.685-.022-.685-.056 0-.032-.066-.057-.146-.057a.28.28 0 01-.223-.114c-.041-.062-.106-.113-.144-.113-.096 0-.646-.602-.646-.708 0-.047-.024-.086-.053-.086-.029 0-.053-.05-.053-.113s-.023-.114-.052-.114c-.03 0-.053-.102-.053-.226 0-.125-.024-.227-.053-.227-.034 0-.052-.624-.052-1.758s.018-1.758.052-1.758c.03 0 .053-.102.053-.227 0-.124.024-.226.053-.226.029 0 .052-.051.052-.114 0-.062.024-.113.053-.113.03 0 .053-.039.053-.086 0-.112.659-.821.763-.821.044 0 .08-.026.08-.057 0-.031.071-.057.158-.057.087 0 .158-.025.158-.056 0-.035.246-.057.633-.057.386 0 .632.022.632.056 0 .032.071.057.158.057.087 0 .158.026.158.057 0 .031.037.057.08.057.045 0 .21.14.37.31.158.171.288.35.288.397 0 .048.024.087.053.087.029 0 .053.05.053.113 0 .062.023.113.052.113.03 0 .053.102.053.227s.024.227.053.227c.03 0 .053.17.053.397v.397h2.002v-.567c0-.34-.02-.567-.052-.567-.03 0-.053-.102-.053-.227s-.024-.227-.053-.227c-.029 0-.052-.076-.052-.17 0-.094-.024-.17-.053-.17-.03 0-.053-.077-.053-.17 0-.094-.024-.17-.053-.17-.029 0-.052-.046-.052-.101 0-.056-.048-.138-.106-.183-.058-.045-.105-.115-.105-.155 0-.096-.768-.922-.857-.922-.038 0-.103-.051-.145-.114-.041-.062-.118-.113-.17-.113-.05 0-.093-.026-.093-.057 0-.03-.047-.056-.105-.056-.058 0-.106-.026-.106-.057 0-.031-.071-.057-.158-.057-.087 0-.158-.025-.158-.056 0-.032-.071-.057-.158-.057-.087 0-.158-.026-.158-.057 0-.031-.14-.057-.317-.057-.175 0-.316-.025-.316-.056 0-.035-.246-.057-.632-.057-.387 0-.633.022-.633.057zm67.356 0c0 .031-.141.056-.316.056-.176 0-.317.026-.317.057 0 .031-.071.057-.158.057-.087 0-.158.025-.158.056 0 .032-.071.057-.158.057-.087 0-.158.026-.158.057 0 .031-.048.057-.106.057-.058 0-.105.025-.105.056s-.047.057-.105.057c-.058 0-.106.025-.106.057 0 .03-.042.056-.094.056-.051 0-.128.051-.169.114-.042.062-.107.113-.144.113-.089 0-.963.94-.963 1.036 0 .04-.048.11-.106.155-.057.045-.105.127-.105.183 0 .055-.024.1-.053.1-.029 0-.052.052-.052.114 0 .062-.024.113-.053.113-.029 0-.053.077-.053.17 0 .094-.023.17-.052.17-.029 0-.053.077-.053.17 0 .094-.024.17-.053.17-.029 0-.053.103-.053.227 0 .125-.023.227-.052.227-.034 0-.053.624-.053 1.758s.019 1.758.053 1.758c.029 0 .052.102.052.227 0 .124.024.226.053.226.029 0 .053.077.053.17 0 .094.024.17.053.17.029 0 .052.077.052.17 0 .094.024.17.053.17.029 0 .053.052.053.114 0 .063.023.114.052.114.029 0 .053.045.053.1 0 .056.048.138.105.183.058.045.106.115.106.155 0 .096.874 1.036.963 1.036.037 0 .102.05.144.113.041.063.118.114.169.114.052 0 .094.025.094.056s.048.057.106.057c.058 0 .105.026.105.057 0 .03.047.056.105.056.058 0 .106.026.106.057 0 .031.071.057.158.057.087 0 .158.025.158.056 0 .032.071.057.158.057.087 0 .158.026.158.057 0 .031.141.057.317.057.175 0 .316.025.316.056 0 .035.228.057.58.057.351 0 .579-.022.579-.057 0-.031.141-.056.316-.056.176 0 .317-.026.317-.057 0-.031.071-.057.158-.057.087 0 .158-.025.158-.056 0-.032.071-.057.158-.057.087 0 .158-.026.158-.057 0-.031.048-.057.106-.057.058 0 .105-.025.105-.056s.047-.057.105-.057c.058 0 .106-.026.106-.057 0-.03.042-.056.094-.056.051 0 .128-.051.169-.114.042-.062.107-.113.144-.113.089 0 .963-.94.963-1.036 0-.04.048-.11.106-.155.058-.045.105-.127.105-.183 0-.055.024-.1.053-.1.029 0 .052-.052.052-.114 0-.062.024-.113.053-.113.029 0 .053-.077.053-.17 0-.094.023-.17.052-.17.029 0 .053-.077.053-.17 0-.094.024-.17.053-.17.029 0 .053-.103.053-.227 0-.125.023-.227.052-.227.034 0 .053-.624.053-1.758s-.019-1.758-.053-1.758c-.029 0-.052-.102-.052-.227 0-.124-.024-.226-.053-.226-.029 0-.053-.077-.053-.17 0-.094-.024-.17-.053-.17-.029 0-.052-.077-.052-.17 0-.094-.024-.17-.053-.17-.029 0-.053-.052-.053-.114 0-.063-.023-.114-.052-.114-.029 0-.053-.045-.053-.1 0-.056-.047-.138-.105-.183-.058-.045-.106-.115-.106-.155 0-.096-.874-1.036-.963-1.036-.037 0-.102-.05-.144-.113-.041-.063-.118-.114-.169-.114-.052 0-.094-.025-.094-.056 0-.032-.048-.057-.106-.057-.058 0-.105-.026-.105-.057 0-.03-.047-.056-.105-.056-.058 0-.106-.026-.106-.057 0-.031-.071-.057-.158-.057-.087 0-.158-.025-.158-.056 0-.032-.071-.057-.158-.057-.087 0-.158-.026-.158-.057 0-.031-.141-.057-.317-.057-.175 0-.316-.025-.316-.056 0-.035-.228-.057-.579-.057-.352 0-.58.022-.58.057zm-56.96.141a.416.416 0 00-.067.225c0 .08-.023.144-.052.144-.03 0-.053.077-.053.17 0 .094-.024.17-.053.17-.029 0-.052.077-.052.17 0 .094-.024.17-.053.17-.03 0-.053.052-.053.114 0 .062-.024.113-.053.113-.029 0-.052.077-.052.17 0 .094-.024.17-.053.17-.029 0-.053.077-.053.17 0 .094-.023.17-.052.17-.03 0-.053.077-.053.17 0 .094-.024.17-.053.17-.029 0-.052.052-.052.114 0 .063-.024.114-.053.114-.03 0-.053.076-.053.17 0 .093-.024.17-.053.17-.029 0-.052.076-.052.17 0 .094-.024.17-.053.17-.029 0-.053.077-.053.17 0 .094-.023.17-.052.17-.03 0-.053.051-.053.114 0 .062-.024.113-.053.113-.029 0-.053.077-.053.17 0 .094-.023.17-.052.17-.03 0-.053.077-.053.17 0 .094-.024.17-.053.17-.029 0-.052.077-.052.17 0 .094-.024.17-.053.17-.029 0-.053.077-.053.17 0 .094-.023.17-.052.17-.03 0-.053.052-.053.114 0 .063-.024.114-.053.114-.029 0-.053.076-.053.17 0 .093-.023.17-.052.17-.03 0-.053.077-.053.17 0 .094-.024.17-.053.17-.029 0-.052.077-.052.17 0 .094-.024.17-.053.17-.029 0-.053.051-.053.114 0 .062-.023.113-.053.113-.028 0-.052.077-.052.17 0 .094-.024.17-.053.17-.029 0-.053.077-.053.17 0 .094-.023.17-.052.17-.03 0-.053.077-.053.17 0 .094-.024.17-.053.17-.029 0-.052.077-.052.17 0 .094-.024.17-.053.17-.03 0-.053.052-.053.114 0 .063-.023.114-.053.114-.029 0-.052.076-.052.17 0 .093-.024.17-.053.17-.029 0-.053.076-.053.17 0 .094-.023.17-.052.17-.03 0-.053.077-.053.17 0 .094-.024.17-.053.17-.029 0-.052.051-.052.114 0 .062-.024.113-.053.113-.03 0-.053.077-.053.17 0 .094-.024.17-.053.17-.029 0-.052.077-.052.17 0 .094-.024.17-.053.17-.029 0-.053.077-.053.17 0 .094-.023.17-.052.17-.03 0-.053.052-.053.114 0 .11.035.114 1.054.114h1.054v-.17c0-.094.024-.17.053-.17.029 0 .053-.077.053-.17 0-.094.023-.17.052-.17.03 0 .053-.077.053-.17 0-.095.024-.171.053-.171.029 0 .052-.077.052-.17 0-.094.024-.17.053-.17.029 0 .053-.077.053-.17 0-.094.023-.17.052-.17.03 0 .053-.066.053-.146 0-.31-.02-.308 2.184-.308h2.032v.17c0 .094.024.17.053.17.03 0 .053.077.053.17 0 .094.024.17.053.17.029 0 .052.077.052.17 0 .094.024.17.053.17.029 0 .053.077.053.17 0 .094.023.17.052.17.03 0 .053.052.053.114 0 .063.024.114.053.114.029 0 .053.076.053.17 0 .093.023.17.052.17.03 0 .053.05.053.113 0 .11.035.114 1.107.114h1.107v-.17c0-.094-.024-.17-.053-.17-.03 0-.053-.077-.053-.17 0-.094-.024-.17-.053-.17-.029 0-.052-.077-.052-.17 0-.095-.024-.171-.053-.171-.029 0-.053-.051-.053-.113 0-.063-.023-.114-.052-.114-.03 0-.053-.076-.053-.17 0-.094-.024-.17-.053-.17-.029 0-.053-.077-.053-.17 0-.094-.023-.17-.052-.17-.03 0-.053-.077-.053-.17 0-.094-.024-.17-.053-.17-.029 0-.052-.077-.052-.17 0-.094-.024-.17-.053-.17-.029 0-.053-.052-.053-.114 0-.062-.023-.113-.052-.113-.03 0-.053-.077-.053-.17 0-.094-.024-.17-.053-.17-.029 0-.053-.077-.053-.17 0-.094-.023-.17-.052-.17-.03 0-.053-.077-.053-.171 0-.093-.024-.17-.053-.17-.029 0-.052-.051-.052-.113 0-.063-.024-.114-.053-.114-.029 0-.053-.076-.053-.17 0-.093-.024-.17-.053-.17-.029 0-.052-.077-.052-.17 0-.094-.024-.17-.053-.17-.029 0-.053-.077-.053-.17 0-.094-.023-.17-.052-.17-.03 0-.053-.077-.053-.17 0-.094-.024-.17-.053-.17-.029 0-.052-.052-.052-.114 0-.063-.024-.113-.053-.113-.03 0-.053-.077-.053-.17 0-.094-.023-.17-.053-.17-.028 0-.052-.077-.052-.17 0-.094-.024-.17-.053-.17-.029 0-.053-.078-.053-.171 0-.094-.023-.17-.052-.17-.03 0-.053-.051-.053-.114 0-.062-.024-.113-.053-.113-.029 0-.052-.077-.052-.17 0-.094-.024-.17-.053-.17-.03 0-.053-.077-.053-.17 0-.094-.024-.17-.053-.17-.029 0-.052-.077-.052-.17 0-.094-.024-.17-.053-.17-.029 0-.053-.077-.053-.17 0-.094-.023-.17-.052-.17-.03 0-.053-.052-.053-.114 0-.063-.024-.114-.053-.114-.029 0-.053-.076-.053-.17 0-.093-.023-.17-.052-.17-.03 0-.053-.076-.053-.17 0-.093-.024-.17-.053-.17-.029 0-.052-.076-.052-.17 0-.094-.024-.17-.053-.17-.029 0-.053-.051-.053-.114 0-.062-.023-.113-.052-.113-.03 0-.053-.076-.053-.17 0-.094-.024-.17-.053-.17-.029 0-.053-.077-.053-.17 0-.094-.023-.17-.052-.17-.03 0-.053-.077-.053-.17v-.17l-1.304.002c-1.06.001-1.317.017-1.37.082zm8.682 5.302v5.387h2.109v-4.423h1.16c.737 0 1.159.02 1.159.057 0 .03.047.056.105.056.058 0 .105.026.105.057 0 .031.038.057.083.057.102 0 .234.135.234.238 0 .042.047.114.105.159a.32.32 0 01.105.239c0 .087.024.157.053.157.03 0 .053.077.053.17 0 .094.024.17.052.17.03 0 .053.17.053.398 0 .226.023.397.053.397.032 0 .053.264.053.68 0 .416.02.68.052.68.03 0 .053.051.053.114 0 .062.024.113.053.113.029 0 .052.04.052.088 0 .113.235.366.34.366.046 0 .082.025.082.056 0 .032.047.057.105.057.059 0 .106.026.106.057 0 .031.095.057.21.057.117 0 .212.025.212.056 0 .033.175.057.421.057s.422-.024.422-.057c0-.03.118-.056.263-.056.145 0 .264-.026.264-.057 0-.031.047-.057.105-.057.086 0 .106-.038.106-.202 0-.201-.095-.365-.211-.365-.083 0-.21-.145-.21-.238 0-.043-.048-.114-.106-.159a.32.32 0 01-.106-.24c0-.086-.023-.157-.052-.157-.032 0-.053-.245-.053-.623s-.02-.624-.053-.624c-.03 0-.053-.189-.053-.454 0-.264-.022-.453-.052-.453s-.053-.077-.053-.17c0-.094-.024-.17-.053-.17-.029 0-.052-.052-.052-.114 0-.062-.024-.113-.053-.113-.03 0-.053-.046-.053-.101 0-.056-.047-.138-.105-.183-.058-.045-.106-.115-.106-.156 0-.097-.344-.468-.434-.468-.038 0-.104-.05-.145-.113-.042-.062-.118-.113-.17-.113-.052 0-.094-.026-.094-.057 0-.031-.047-.057-.105-.057-.058 0-.106-.025-.106-.056 0-.032.071-.057.158-.057.087 0 .159-.026.159-.057 0-.031.047-.056.105-.056.058 0 .105-.026.105-.057 0-.031.036-.057.08-.057.044 0 .258-.19.475-.424.216-.234.394-.463.394-.51 0-.048.024-.087.053-.087.029 0 .052-.05.052-.113 0-.062.024-.113.053-.113.03 0 .053-.077.053-.17 0-.094.024-.17.052-.17.033 0 .053-.284.053-.738 0-.453-.02-.737-.052-.737-.03 0-.053-.076-.053-.17 0-.093-.024-.17-.053-.17-.029 0-.053-.051-.053-.113 0-.063-.023-.114-.052-.114-.03 0-.053-.039-.053-.087 0-.106-.339-.48-.435-.48-.038 0-.103-.05-.145-.113-.041-.063-.118-.114-.17-.114-.051 0-.093-.025-.093-.056 0-.032-.048-.057-.106-.057-.058 0-.105-.026-.105-.057 0-.03-.071-.056-.158-.056-.087 0-.158-.026-.158-.057 0-.031-.072-.057-.158-.057-.087 0-.159-.025-.159-.056 0-.032-.14-.057-.316-.057-.175 0-.316-.025-.316-.057 0-.037-.878-.057-2.53-.057h-2.53V20.5zm10.963 0v5.387h2.16c1.406 0 2.162-.02 2.162-.057 0-.032.14-.057.316-.057s.316-.025.316-.056c0-.032.071-.057.158-.057.087 0 .158-.026.158-.057 0-.031.072-.057.158-.057.087 0 .159-.025.159-.056s.047-.057.105-.057c.058 0 .105-.026.105-.057 0-.03.048-.056.106-.056.058 0 .105-.026.105-.057 0-.031.042-.057.094-.057s.128-.05.17-.113c.042-.063.106-.114.144-.114.096 0 .963-.943.963-1.048 0-.047.023-.086.052-.086.03 0 .053-.045.053-.1 0-.056.047-.138.105-.183.058-.045.106-.127.106-.183 0-.055.023-.1.052-.1.03 0 .053-.077.053-.17 0-.094.024-.17.053-.17.029 0 .053-.077.053-.171 0-.094.023-.17.052-.17.03 0 .053-.128.053-.284 0-.155.024-.283.053-.283.034 0 .052-.548.052-1.531 0-.983-.018-1.53-.052-1.53-.03 0-.053-.128-.053-.284 0-.156-.024-.284-.053-.284-.029 0-.052-.076-.052-.17 0-.094-.024-.17-.053-.17-.03 0-.053-.077-.053-.17 0-.094-.024-.17-.053-.17-.028 0-.052-.046-.052-.101 0-.056-.048-.138-.106-.183-.058-.045-.105-.127-.105-.182 0-.056-.024-.101-.053-.101-.029 0-.052-.039-.052-.086 0-.105-.867-1.048-.963-1.048-.038 0-.102-.051-.144-.114-.042-.062-.118-.113-.17-.113-.052 0-.094-.026-.094-.057 0-.031-.047-.057-.105-.057-.058 0-.106-.025-.106-.056 0-.032-.047-.057-.105-.057-.058 0-.105-.026-.105-.057 0-.03-.072-.056-.159-.056-.087 0-.158-.026-.158-.057 0-.031-.07-.057-.158-.057-.087 0-.158-.025-.158-.056 0-.032-.14-.057-.316-.057s-.316-.025-.316-.057c0-.037-.756-.057-2.161-.057H73.73V20.5zm13.809-5.216c0 .093-.024.17-.053.17-.03 0-.053.05-.053.113 0 .062-.024.113-.053.113-.029 0-.052.077-.052.17 0 .094-.024.17-.053.17-.029 0-.053.077-.053.17 0 .094-.023.17-.052.17-.03 0-.053.077-.053.17 0 .095-.024.171-.053.171-.029 0-.052.051-.052.113 0 .063-.024.114-.053.114-.03 0-.053.076-.053.17 0 .094-.024.17-.053.17-.029 0-.052.077-.052.17 0 .094-.024.17-.053.17-.029 0-.053.077-.053.17 0 .094-.023.17-.052.17-.03 0-.053.077-.053.17 0 .094-.024.17-.053.17-.029 0-.053.052-.053.114 0 .062-.023.113-.052.113-.03 0-.053.077-.053.17 0 .094-.024.17-.053.17-.029 0-.052.077-.052.17 0 .094-.024.17-.053.17-.03 0-.053.077-.053.171 0 .093-.023.17-.052.17-.03 0-.053.051-.053.113 0 .063-.024.114-.053.114-.029 0-.053.076-.053.17 0 .093-.023.17-.052.17-.03 0-.053.077-.053.17 0 .094-.024.17-.053.17-.029 0-.052.077-.052.17 0 .094-.024.17-.053.17-.03 0-.053.077-.053.17 0 .094-.024.17-.052.17-.03 0-.053.052-.053.114 0 .063-.024.114-.053.114-.029 0-.053.076-.053.17 0 .093-.023.17-.052.17-.03 0-.053.076-.053.17 0 .093-.024.17-.053.17-.029 0-.052.077-.052.17 0 .094-.024.17-.053.17-.03 0-.053.051-.053.114 0 .062-.024.113-.053.113-.029 0-.052.076-.052.17 0 .094-.024.17-.053.17-.029 0-.053.077-.053.17 0 .094-.023.17-.052.17-.03 0-.053.077-.053.17 0 .094-.024.17-.053.17-.029 0-.052.077-.052.17 0 .094-.024.17-.053.17-.03 0-.053.052-.053.114 0 .063-.024.114-.053.114-.029 0-.052.076-.052.17 0 .093-.024.17-.053.17-.029 0-.053.076-.053.17 0 .093-.023.17-.052.17-.03 0-.053.076-.053.17 0 .094-.024.17-.053.17-.029 0-.053.051-.053.114 0 .062-.023.113-.052.113-.03 0-.053.076-.053.17 0 .094-.024.17-.053.17-.029 0-.052.026-.052.057 0 .036.386.057 1.054.057 1.019 0 1.054-.004 1.054-.114 0-.062.024-.113.053-.113.028 0 .052-.077.052-.17 0-.094.024-.17.053-.17.029 0 .053-.077.053-.17 0-.094.023-.17.052-.17.03 0 .053-.077.053-.17 0-.094.024-.17.053-.17.029 0 .052-.052.052-.114 0-.063.024-.114.053-.114.03 0 .053-.076.053-.17 0-.093.024-.17.053-.17.028 0 .052-.076.052-.17v-.17h2.056c2.02 0 2.055.002 2.055.113 0 .063.024.114.053.114.029 0 .053.076.053.17 0 .093.023.17.052.17.03 0 .053.051.053.113 0 .063.024.114.053.114.029 0 .052.076.052.17 0 .093.024.17.053.17.03 0 .053.076.053.17 0 .094.024.17.053.17.029 0 .052.077.052.17 0 .094.024.17.053.17.029 0 .053.04.053.09 0 .23.105.25 1.234.25 1.05 0 1.085-.003 1.085-.113 0-.062-.024-.113-.053-.113-.029 0-.053-.077-.053-.17 0-.094-.024-.17-.052-.17-.03 0-.053-.051-.053-.114 0-.062-.024-.113-.053-.113-.029 0-.053-.077-.053-.17 0-.094-.023-.17-.052-.17-.03 0-.053-.077-.053-.17 0-.094-.024-.17-.053-.17-.029 0-.052-.077-.052-.17 0-.094-.024-.17-.053-.17-.03 0-.053-.052-.053-.114 0-.063-.023-.114-.053-.114-.028 0-.052-.076-.052-.17 0-.093-.024-.17-.053-.17-.029 0-.053-.076-.053-.17 0-.094-.023-.17-.052-.17-.03 0-.053-.077-.053-.17 0-.094-.024-.17-.053-.17-.029 0-.052-.051-.052-.114 0-.062-.024-.113-.053-.113-.03 0-.053-.077-.053-.17 0-.094-.023-.17-.053-.17-.029 0-.052-.077-.052-.17 0-.094-.024-.17-.053-.17-.029 0-.053-.077-.053-.17 0-.094-.023-.17-.052-.17-.03 0-.053-.077-.053-.17 0-.094-.024-.17-.053-.17-.029 0-.053-.052-.053-.114 0-.063-.023-.114-.052-.114-.03 0-.053-.076-.053-.17 0-.093-.024-.17-.053-.17-.029 0-.052-.076-.052-.17 0-.094-.024-.17-.053-.17-.029 0-.053-.077-.053-.17 0-.094-.023-.17-.052-.17-.03 0-.053-.051-.053-.114 0-.062-.024-.113-.053-.113-.029 0-.053-.077-.053-.17 0-.094-.023-.17-.052-.17-.03 0-.053-.077-.053-.17 0-.094-.024-.17-.053-.17-.029 0-.052-.077-.052-.17 0-.094-.024-.17-.053-.17-.029 0-.053-.077-.053-.17 0-.094-.023-.17-.052-.17-.03 0-.053-.052-.053-.114 0-.063-.024-.114-.053-.114-.029 0-.053-.076-.053-.17 0-.093-.023-.17-.052-.17-.03 0-.053-.076-.053-.17 0-.094-.024-.17-.053-.17-.029 0-.052-.077-.052-.17 0-.094-.024-.17-.053-.17-.03 0-.053-.051-.053-.114 0-.062-.023-.113-.053-.113-.029 0-.052-.077-.052-.17 0-.094-.024-.17-.053-.17-.029 0-.053-.077-.053-.17 0-.094-.023-.17-.052-.17-.03 0-.053-.077-.053-.17 0-.094-.024-.17-.053-.17-.029 0-.052-.077-.052-.17 0-.094-.024-.171-.053-.171-.03 0-.053-.051-.053-.113 0-.063-.024-.114-.052-.114-.03 0-.053-.05-.053-.113 0-.11-.035-.114-1.318-.114H87.54v.17zm8.748 5.216v5.387h1.898V22.71c0-3.137.001-3.175.105-3.175.066 0 .106.038.106.101 0 .055.047.138.105.183.058.045.106.127.106.182 0 .056.023.101.052.101.03 0 .053.045.053.101 0 .055.047.138.105.183.058.045.106.121.106.17 0 .048.047.125.105.17.058.045.106.121.106.17 0 .049.047.125.105.17.058.045.105.122.105.17 0 .049.048.125.106.17.058.045.105.122.105.17 0 .049.048.125.106.17.058.045.105.122.105.17 0 .05.047.126.105.17.058.046.106.122.106.17 0 .05.047.126.105.17.058.046.106.122.106.17 0 .05.047.126.105.171.058.045.105.122.105.17 0 .049.048.125.106.17.058.045.105.117.105.16s.071.15.158.237c.087.088.158.194.158.237 0 .043.048.115.106.16.058.045.105.122.105.17 0 .049.048.125.106.17.058.045.105.122.105.17 0 .049.048.126.106.17.058.045.105.122.105.17 0 .05.047.126.105.17.058.046.106.122.106.17 0 .05.047.126.105.17.058.046.106.122.106.171 0 .049.047.125.105.17.058.045.105.127.105.183 0 .093.075.1.949.1h.949V15.114h-2.003v3.176c0 1.746-.013 3.175-.029 3.175-.064 0-.287-.284-.287-.366 0-.048-.024-.088-.053-.088-.029 0-.053-.045-.053-.1 0-.056-.047-.138-.105-.183-.058-.045-.105-.122-.105-.17 0-.049-.048-.125-.106-.17-.058-.045-.105-.122-.105-.17 0-.05-.048-.126-.106-.17-.058-.046-.105-.122-.105-.17 0-.05-.048-.126-.106-.17-.057-.046-.105-.122-.105-.17 0-.05-.047-.126-.105-.171-.058-.045-.106-.122-.106-.17 0-.049-.047-.125-.105-.17-.058-.045-.106-.122-.106-.17 0-.049-.047-.126-.105-.17-.058-.045-.105-.122-.105-.17 0-.05-.048-.126-.106-.17-.058-.046-.105-.122-.105-.17 0-.05-.048-.126-.106-.17-.058-.046-.105-.122-.105-.17 0-.05-.047-.126-.105-.171-.058-.045-.106-.122-.106-.17 0-.049-.047-.125-.105-.17-.058-.045-.106-.122-.106-.17 0-.049-.047-.126-.105-.17-.058-.045-.105-.122-.105-.17 0-.05-.048-.126-.106-.17-.058-.046-.105-.122-.105-.17 0-.05-.048-.126-.106-.17-.058-.046-.105-.122-.105-.171 0-.049-.047-.125-.105-.17-.059-.045-.106-.122-.106-.17 0-.049-.047-.125-.105-.17-.058-.045-.106-.116-.106-.157 0-.042-.058-.138-.13-.214-.126-.137-.145-.14-1-.14h-.873V20.5zm16.023-3.515c0 .03.047.056.105.056.058 0 .105.026.105.057 0 .031.048.057.106.057.058 0 .105.025.105.056 0 .032.037.057.081.057.098 0 .552.478.552.581 0 .041.047.111.105.156a.32.32 0 01.106.24c0 .086.023.157.052.157.029 0 .053.128.053.284 0 .155.024.283.053.283.034 0 .052.548.052 1.531 0 .983-.018 1.53-.052 1.53-.029 0-.053.128-.053.284 0 .156-.024.284-.053.284-.029 0-.052.07-.052.158a.32.32 0 01-.106.239c-.058.045-.105.115-.105.156 0 .103-.454.581-.552.581-.044 0-.081.026-.081.057 0 .03-.047.056-.105.056-.058 0-.106.026-.106.057 0 .031-.047.057-.105.057-.058 0-.105.025-.105.056 0 .035-.264.057-.685.057-.422 0-.686-.022-.686-.056 0-.032-.047-.057-.105-.057-.058 0-.105-.026-.105-.057 0-.031-.048-.057-.106-.057-.058 0-.105-.025-.105-.056 0-.032-.036-.057-.081-.057-.098 0-.552-.478-.552-.581 0-.041-.047-.111-.105-.156a.32.32 0 01-.106-.24c0-.086-.023-.157-.052-.157-.029 0-.053-.128-.053-.284 0-.155-.024-.283-.053-.283-.034 0-.052-.548-.052-1.531 0-.983.018-1.53.052-1.53.029 0 .053-.128.053-.284 0-.156.024-.284.053-.284.029 0 .052-.07.052-.158a.32.32 0 01.106-.239c.058-.045.105-.115.105-.156 0-.103.454-.581.552-.581.045 0 .081-.026.081-.057 0-.03.047-.056.105-.056.058 0 .106-.026.106-.057 0-.031.047-.057.105-.057.058 0 .105-.025.105-.056 0-.035.264-.057.686-.057.421 0 .685.022.685.056zm-44.694.113c0 .031.037.057.081.057.105 0 .446.367.446.48 0 .047.024.087.053.087.029 0 .053.05.053.113 0 .062.023.113.052.113.03 0 .053.152.053.34 0 .19-.023.34-.053.34-.029 0-.052.052-.052.114 0 .063-.024.114-.053.114-.029 0-.053.039-.053.087 0 .112-.341.48-.446.48-.044 0-.08.025-.08.056 0 .037-.493.057-1.371.057h-1.37v-2.495h1.37c.878 0 1.37.02 1.37.057zm10.436 0c0 .031.07.057.158.057.087 0 .158.025.158.056 0 .032.047.057.105.057.058 0 .106.026.106.057 0 .03.036.056.08.056.105 0 .552.482.552.594 0 .048.024.087.053.087.029 0 .053.05.053.113s.023.114.052.114c.03 0 .053.05.053.113 0 .062.024.113.053.113.029 0 .052.128.052.284 0 .156.024.284.053.284.034 0 .053.51.053 1.417s-.02 1.418-.053 1.418c-.029 0-.053.127-.053.283 0 .156-.023.284-.052.284-.03 0-.053.05-.053.113 0 .062-.024.113-.053.113-.029 0-.052.051-.052.114 0 .062-.024.113-.053.113-.03 0-.053.04-.053.087 0 .112-.447.594-.552.594-.044 0-.08.025-.08.056s-.048.057-.106.057c-.058 0-.105.026-.105.057 0 .03-.071.056-.158.056-.087 0-.158.026-.158.057 0 .036-.387.057-1.054.057h-1.054V17.04h1.054c.667 0 1.054.021 1.054.057zm-22.633.705a.384.384 0 01.075.226c0 .08.024.146.053.146.029 0 .053.077.053.17 0 .094.023.17.052.17.03 0 .053.077.053.17 0 .094.024.17.053.17.029 0 .052.077.052.17 0 .094.024.17.053.17.03 0 .053.077.053.171 0 .093.023.17.052.17.03 0 .053.077.053.17 0 .094.024.17.053.17.029 0 .053.077.053.17 0 .094.023.17.052.17.03 0 .053.077.053.17 0 .094.024.17.053.17.029 0 .052.077.052.17 0 .094.024.17.053.17.03 0 .053.078.053.171 0 .094.023.17.052.17.03 0 .053.051.053.114 0 .062.024.113.053.113.029 0 .053.077.053.17 0 .094.023.17.052.17.03 0 .053.026.053.057 0 .036-.51.056-1.423.056-1.388 0-1.423-.002-1.423-.113 0-.062.024-.113.053-.113.029 0 .052-.077.052-.17 0-.094.024-.17.053-.17.03 0 .053-.077.053-.17 0-.094.023-.17.053-.17.029 0 .052-.077.052-.17 0-.094.024-.17.053-.17.029 0 .053-.077.053-.171 0-.094.023-.17.052-.17.03 0 .053-.077.053-.17 0-.094.024-.17.053-.17.029 0 .053-.077.053-.17 0-.094.023-.17.052-.17.03 0 .053-.077.053-.17 0-.094.024-.17.053-.17.029 0 .052-.077.052-.17 0-.094.024-.17.053-.17.029 0 .053-.052.053-.114 0-.063.023-.114.052-.114.03 0 .053-.076.053-.17 0-.093.024-.17.053-.17.029 0 .053-.076.053-.17 0-.094.023-.17.052-.17.03 0 .053-.077.053-.17 0-.188.11-.23.24-.09zm33.49.089c0 .093.024.17.053.17.029 0 .052.076.052.17 0 .094.024.17.053.17.029 0 .053.077.053.17 0 .094.023.17.052.17.03 0 .053.051.053.114 0 .062.024.113.053.113.029 0 .053.077.053.17 0 .094.023.17.052.17.03 0 .053.077.053.17 0 .094.024.17.053.17.029 0 .052.077.052.17 0 .094.024.17.053.17.029 0 .053.077.053.17 0 .094.023.17.052.17.03 0 .053.077.053.171 0 .094.024.17.053.17.029 0 .053.077.053.17 0 .094.023.17.052.17.03 0 .053.077.053.17 0 .094.024.17.053.17.029 0 .052.077.052.17 0 .094.024.17.053.17.029 0 .053.052.053.114 0 .11-.035.114-1.423.114-.914 0-1.423-.02-1.423-.057 0-.031.023-.057.052-.057.03 0 .053-.076.053-.17 0-.093.024-.17.053-.17.029 0 .053-.077.053-.17 0-.094.023-.17.052-.17.03 0 .053-.077.053-.17 0-.094.024-.17.053-.17.029 0 .052-.051.052-.114 0-.062.024-.113.053-.113.029 0 .053-.077.053-.17 0-.094.023-.17.053-.17.028 0 .052-.077.052-.17 0-.094.024-.17.053-.17.029 0 .053-.077.053-.17 0-.094.023-.17.052-.17.03 0 .053-.078.053-.171 0-.094.024-.17.053-.17.029 0 .052-.077.052-.17 0-.094.024-.17.053-.17.03 0 .053-.077.053-.17 0-.094.023-.17.053-.17.028 0 .052-.077.052-.17 0-.094.024-.17.053-.17.029 0 .053-.066.053-.145 0-.172.096-.304.224-.307.067-.002.092.043.092.168z" fill="#E6E6E6"/><path d="M23.047 10.702c.45-.233.997.31.759.757-.139.366-.664.463-.932.184-.285-.267-.192-.795.173-.94zm-4.829.52c.273-.112.618.138.59.435.03.322-.365.56-.643.406-.369-.142-.326-.74.053-.84zm9.89.85c-.425-.051-.493-.72-.082-.855.318-.155.61.135.656.437-.066.257-.282.493-.573.418zm-8.791 1.204c.456-.288 1.107.14 1.036.67-.023.534-.734.844-1.134.482-.388-.283-.33-.934.098-1.152zm6.96.306c.204-.524 1.028-.54 1.26-.03.229.396-.053.888-.46 1.023-.54.1-1.054-.483-.8-.993zm-3.811.963c-.005-.45.406-.786.834-.816.284.057.594.178.716.464.227.395.025.939-.385 1.12-.188.105-.41.066-.614.054-.313-.154-.576-.454-.551-.822zm-7.182.656c.417-.256.979.211.82.663-.086.391-.612.55-.913.3-.32-.233-.27-.796.093-.963zm15.422 0c.353-.275.936.04.894.485.024.407-.48.713-.831.504-.386-.174-.426-.767-.063-.99zm-6.22.808c.583-.209 1.275.042 1.608.561.438.635.205 1.602-.476 1.966-.705.431-1.734.066-1.994-.72-.296-.705.135-1.586.861-1.806zm-3.422.07c.646-.305 1.516-.05 1.828.611.367.643.083 1.538-.573 1.87-.658.373-1.586.09-1.904-.6-.357-.667-.04-1.574.649-1.881zm-3.426 1.17c.049-.416.442-.687.838-.715a.923.923 0 01.815.815c-.029.427-.36.845-.813.842-.498.043-.936-.453-.84-.942zm10.12-.624c.511-.298 1.222.135 1.2.723.035.623-.752 1.062-1.262.696-.53-.304-.489-1.16.061-1.42zm-8.087 2.194c.6-.164 1.284.118 1.578.668.322.553.19 1.322-.31 1.729-.64.595-1.823.356-2.164-.457-.392-.745.084-1.744.896-1.94zm6.49-.003c.582-.166 1.266.058 1.58.588.413.606.216 1.51-.4 1.9-.646.454-1.646.216-2-.493-.431-.734.002-1.77.82-1.995zm-10.342.692c.517-.196 1.09.375.881.887-.128.467-.786.64-1.127.295-.398-.323-.25-1.042.246-1.182zm14.023.743a.791.791 0 01.739-.83c.354.055.699.34.67.726.033.51-.58.855-1.015.616-.203-.103-.308-.312-.394-.512zm-16.567-.492c.311-.136.696.134.625.48-.016.39-.594.54-.807.214-.187-.227-.075-.577.182-.694zm19.626-.008c.22-.156.57-.044.658.212.147.28-.123.662-.438.615-.442.04-.585-.632-.22-.827zm-11.54 1.877c.82-.212 1.7.47 1.706 1.312.053.852-.814 1.607-1.653 1.41-.648-.104-1.156-.728-1.135-1.382a1.404 1.404 0 011.083-1.34zm3.245-.002c.83-.232 1.738.463 1.724 1.325.044.836-.796 1.565-1.617 1.4-.772-.1-1.342-.948-1.127-1.697.11-.5.527-.905 1.02-1.027zm-6.255.52c.576-.099 1.115.542.882 1.088-.17.581-1.018.74-1.392.264-.44-.456-.111-1.29.51-1.353zm9.513.025c.513-.215 1.143.228 1.103.785.02.612-.756 1.034-1.258.677-.568-.321-.465-1.265.155-1.462zm2.659 2.664c-.2-.374.164-.87.58-.8.207-.004.351.159.484.296.027.221.073.486-.112.656-.25.317-.816.226-.952-.152zm-15.24-.696c.388-.259.947.127.86.58-.047.402-.553.631-.886.403-.358-.206-.345-.795.025-.983zm7.675.84c.509-.225 1.157.218 1.108.777.038.619-.764 1.047-1.26.676-.553-.32-.461-1.257.152-1.453zm-3.555.828c.433-.228 1.014.166.975.65.013.398-.375.737-.768.678-.326-.007-.538-.299-.642-.576.005-.302.13-.638.435-.752zm7.201.007c.445-.275 1.079.12 1.037.638.01.541-.705.888-1.12.533-.401-.28-.352-.95.083-1.17zm1.252 3.093c-.198-.3.035-.66.357-.729.259.053.532.247.478.547-.038.405-.631.53-.835.182zm-9.94-.26c.078-.238.27-.473.55-.412.407.03.528.643.171.832-.32.216-.693-.08-.721-.42zm4.795.272c.079-.351.534-.522.834-.335.198.085.255.306.306.495a9.55 9.55 0 00-.075.294c-.123.145-.28.29-.485.285-.38.045-.722-.384-.58-.739z" fill="#3CC8C8"/></svg>