<svg width="67" height="18" fill="none" xmlns="http://www.w3.org/2000/svg"><path d="M51.373 7.904h-6.484c-.532 0-.906.322-.982.855-.106.533.158.855.69.855h3.24c2.554 0 3.776 1.493 3.325 4.052-.45 2.56-2.18 4.053-4.735 4.053H38.78l.56-3.198h6.772c.532 0 .906-.322.982-.855.106-.533-.158-.854-.69-.854h-3.24c-2.553 0-3.775-1.494-3.325-4.053.45-2.56 2.21-4.053 4.763-4.053h7.357l-.585 3.198zm7.763-3.198h3.23c3.777 0 5.138 1.652 4.472 5.44l-1.333 7.573-4.313-.005 1.333-7.572c.24-1.494-.365-2.132-1.855-2.132h-2.118l-1.706 9.705h-4.313L55.653 0h4.313l-.83 4.706zM35.918 17.715h-7.452c-4.203 0-6.096-2.296-5.348-6.507.719-4.212 3.431-6.507 7.639-6.507h7.452l-2.291 13.014zM14.262 0c6.968 0 8.2 3.808 7.212 9.162-.666 3.597-2.324 6.353-5.108 7.64-1.256.581-2.444.908-5.234.908H3.22l.657-3.683 6.954.004c4.183.005 5.3-1.81 5.841-3.404.201-.596.676-2.44.69-3.53.034-2.127-1.01-3.41-4.533-3.41l-7.155-.009L6.331 0h7.93zm19.044 7.904H31.39c-2.29 0-3.642 1.013-4.04 3.304-.426 2.295.427 3.308 2.713 3.308h2.099l1.145-6.612zM2.91 7.006C.834 7.006.537 8.36.34 9.181A36.179 36.179 0 000 10.69h8.118c2.075 0 2.372-1.354 2.569-2.175.258-1.076.34-1.508.34-1.508H2.909z" fill="#008DE4"/></svg>