<svg width="128" height="40" fill="none" xmlns="http://www.w3.org/2000/svg"><g clip-path="url(#clip0)" fill="#C2A633"><path d="M29.309 17.565h-1.857v3.66h2.921v1.534h-2.921v3.66H29.4c.5 0 4.109.057 4.103-4.259-.005-4.316-3.5-4.595-4.194-4.595z"/><path d="M28.997 9C21.819 9 16 14.819 16 21.997s5.819 12.997 12.997 12.997 12.997-5.82 12.997-12.997C41.994 14.819 36.174 9 28.997 9zm.51 20.016h-4.706V22.76h-1.66v-1.533h1.66v-6.258h4.04c.955 0 7.285-.198 7.285 7.142 0 7.461-6.618 6.906-6.618 6.906z"/></g><path fill-rule="evenodd" clip-rule="evenodd" d="M60.845 15.063c0 .011-.096.018-.253.018s-.253.007-.253.018c0 .01-.06.018-.145.018-.084 0-.145.008-.145.018 0 .01-.032.019-.072.019-.04 0-.072.008-.072.018 0 .01-.04.018-.09.018-.05 0-.091.008-.091.018 0 .01-.033.018-.072.018-.04 0-.073.008-.073.018 0 .01-.016.018-.036.018-.02 0-.036.008-.036.018 0 .01-.024.018-.054.018s-.055.008-.055.018c0 .01-.024.018-.054.018s-.054.009-.054.018c0 .01-.016.019-.036.019-.02 0-.036.008-.036.018 0 .01-.017.018-.037.018-.02 0-.036.008-.036.018 0 .01-.016.018-.036.018-.02 0-.036.008-.036.018 0 .01-.016.018-.036.018-.02 0-.036.008-.036.018 0 .01-.017.018-.037.018-.02 0-.036.008-.036.018 0 .01-.013.019-.029.019s-.051.024-.08.054c-.027.03-.061.054-.075.054-.014 0-.036.016-.05.036-.015.02-.037.036-.05.036-.028 0-.403.371-.403.4 0 .01-.04.058-.09.107-.05.048-.09.1-.09.116s-.009.029-.019.029-.018.016-.018.036c0 .02-.008.036-.018.036-.01 0-.018.014-.018.032 0 .018-.016.044-.036.058-.02.015-.036.04-.036.059 0 .017-.009.032-.019.032s-.018.016-.018.036c0 .02-.008.036-.018.036-.01 0-.018.016-.018.036 0 .02-.008.036-.018.036-.01 0-.018.025-.018.055s-.008.054-.018.054c-.01 0-.018.016-.018.036 0 .02-.008.036-.018.036-.01 0-.018.017-.018.036 0 .02-.008.037-.018.037-.01 0-.018.032-.018.072 0 .04-.009.072-.019.072s-.018.025-.018.055-.008.054-.018.054c-.01 0-.018.024-.018.054s-.008.054-.018.054c-.01 0-.018.025-.018.055s-.008.054-.018.054c-.01 0-.018.04-.018.09 0 .05-.008.09-.018.09-.01 0-.018.041-.018.091 0 .05-.008.09-.019.09-.01 0-.018.049-.018.11 0 .06-.008.108-.018.108-.01 0-.018.06-.018.144 0 .085-.007.145-.018.145-.01 0-.018.072-.018.18 0 .11-.007.182-.018.182-.012 0-.018 1.03-.018 3.056s.006 3.057.018 3.057c.011 0 .018.085.018.217 0 .133.007.217.018.217.01 0 .018.06.018.145 0 .084.008.145.018.145.01 0 .018.04.018.09 0 .05.009.09.018.09.01 0 .019.041.019.09 0 .05.008.091.018.091.01 0 .018.041.018.09 0 .05.008.091.018.091.01 0 .018.033.018.072 0 .04.008.073.018.073.01 0 .018.024.018.054s.008.054.018.054c.01 0 .018.025.018.055s.008.054.018.054c.01 0 .019.033.019.072 0 .04.008.073.018.073.01 0 .018.016.018.036 0 .02.008.036.018.036.01 0 .018.024.018.054s.008.055.018.055c.01 0 .018.016.018.036 0 .02.008.036.018.036.01 0 .018.016.018.036 0 .02.008.036.018.036.01 0 .018.016.018.036 0 .02.009.037.018.037.01 0 .019.016.019.036 0 .02.008.036.018.036.01 0 .018.014.018.032 0 .018.016.044.036.058.02.015.036.04.036.059 0 .017.008.032.018.032.01 0 .018.013.018.029s.025.051.054.08c.03.027.055.06.055.072 0 .012.024.044.054.072.03.028.054.06.054.07 0 .027.301.328.327.328.011 0 .043.024.071.054.028.03.06.054.072.054.012 0 .045.025.073.055.028.03.063.054.08.054.015 0 .028.008.028.018 0 .01.017.018.036.018.02 0 .037.008.037.018 0 .01.016.018.036.018.02 0 .036.008.036.018 0 .01.016.018.036.018.02 0 .036.009.036.018 0 .01.016.019.036.019.02 0 .037.008.037.018 0 .01.016.018.036.018.02 0 .036.008.036.018 0 .01.024.018.054.018s.054.008.054.018c0 .01.017.018.037.018.02 0 .036.008.036.018 0 .01.024.018.054.018s.054.008.054.018c0 .01.033.018.073.018.04 0 .072.009.072.019s.033.018.072.018c.04 0 .073.008.073.018 0 .01.032.018.072.018.04 0 .072.008.072.018 0 .01.055.018.127.018.072 0 .127.008.127.018 0 .01.066.018.162.018.097 0 .163.008.163.018 0 .012.157.018.434.018s.434-.006.434-.018c0-.01.066-.018.163-.018.096 0 .163-.007.163-.018 0-.01.054-.018.126-.018.073 0 .127-.008.127-.018 0-.01.032-.018.072-.018.04 0 .073-.008.073-.018 0-.01.032-.018.072-.018.04 0 .072-.008.072-.018 0-.01.033-.019.072-.019.04 0 .073-.008.073-.018 0-.01.016-.018.036-.018.02 0 .036-.008.036-.018 0-.01.025-.018.054-.018.03 0 .055-.008.055-.018 0-.01.024-.018.054-.018s.054-.008.054-.018c0-.01.017-.018.036-.018.02 0 .037-.008.037-.018 0-.01.014-.018.032-.018.018 0 .044-.017.058-.037.014-.02.04-.036.058-.036.018 0 .032-.008.032-.018 0-.01.017-.018.037-.018.02 0 .036-.008.036-.018 0-.01.013-.018.029-.018s.051-.024.08-.054c.027-.03.06-.055.072-.055.012 0 .044-.024.072-.054.028-.03.06-.054.07-.054.027 0 .328-.301.328-.327 0-.011.024-.043.054-.071.03-.028.054-.06.054-.072 0-.012.025-.045.055-.073.03-.028.054-.063.054-.08 0-.015.008-.028.018-.028.01 0 .018-.015.018-.032 0-.018.016-.044.036-.059.02-.014.036-.04.036-.058 0-.018.009-.032.018-.032.01 0 .019-.016.019-.036 0-.02.008-.037.018-.037.01 0 .018-.016.018-.036 0-.02.008-.036.018-.036.01 0 .018-.016.018-.036 0-.02.008-.036.018-.036.01 0 .018-.016.018-.036 0-.02.008-.037.018-.037.01 0 .018-.024.018-.054s.008-.054.018-.054c.01 0 .018-.016.018-.036 0-.02.008-.036.018-.036.01 0 .018-.025.018-.055s.009-.054.019-.054.018-.024.018-.054.008-.054.018-.054c.01 0 .018-.033.018-.073 0-.04.008-.072.018-.072.01 0 .018-.024.018-.054s.008-.055.018-.055c.01 0 .018-.032.018-.072 0-.04.008-.072.018-.072.01 0 .018-.041.018-.09 0-.05.008-.091.018-.091.01 0 .019-.04.019-.09 0-.05.008-.091.018-.091.01 0 .018-.054.018-.127 0-.072.008-.126.018-.126.01 0 .018-.06.018-.145 0-.084.007-.145.018-.145.012 0 .018-1.109.018-3.291 0-2.183-.006-3.292-.018-3.292-.01 0-.018-.06-.018-.145 0-.084-.008-.145-.018-.145-.01 0-.018-.054-.018-.126 0-.073-.008-.127-.018-.127-.01 0-.018-.04-.018-.09 0-.05-.009-.09-.019-.09s-.018-.041-.018-.091c0-.05-.008-.09-.018-.09-.01 0-.018-.033-.018-.073 0-.04-.008-.072-.018-.072-.01 0-.018-.033-.018-.073 0-.04-.008-.072-.018-.072-.01 0-.018-.024-.018-.054s-.008-.055-.018-.055c-.01 0-.018-.024-.018-.054s-.008-.054-.018-.054c-.01 0-.019-.024-.019-.054s-.008-.055-.017-.055c-.01 0-.019-.016-.019-.036 0-.02-.008-.036-.018-.036-.01 0-.018-.016-.018-.036 0-.02-.008-.036-.018-.036-.01 0-.018-.017-.018-.036 0-.02-.008-.037-.018-.037-.01 0-.018-.024-.018-.054s-.008-.054-.018-.054c-.01 0-.018-.015-.018-.032 0-.018-.017-.044-.037-.059-.02-.014-.036-.04-.036-.058 0-.018-.008-.032-.018-.032-.01 0-.018-.015-.018-.032 0-.018-.016-.044-.036-.058-.02-.015-.036-.038-.036-.051 0-.014-.025-.048-.054-.076-.03-.028-.055-.06-.055-.072 0-.012-.024-.045-.054-.073-.03-.028-.054-.06-.054-.07a.865.865 0 00-.218-.22.294.294 0 01-.09-.072c-.038-.04-.079-.072-.09-.072-.012 0-.044-.024-.072-.054-.028-.03-.062-.054-.076-.054-.014 0-.037-.017-.051-.036-.014-.02-.04-.037-.058-.037-.018 0-.032-.008-.032-.018 0-.01-.017-.018-.037-.018-.02 0-.036-.008-.036-.018 0-.01-.016-.018-.036-.018-.02 0-.036-.008-.036-.018 0-.01-.016-.018-.036-.018-.02 0-.036-.008-.036-.018 0-.01-.017-.018-.037-.018-.02 0-.036-.008-.036-.019 0-.01-.024-.018-.054-.018s-.054-.008-.054-.018c0-.01-.025-.018-.055-.018s-.054-.008-.054-.018c0-.01-.016-.018-.036-.018-.02 0-.036-.008-.036-.018 0-.01-.04-.018-.09-.018-.05 0-.091-.008-.091-.018 0-.01-.032-.018-.072-.018-.04 0-.073-.008-.073-.018 0-.01-.032-.018-.072-.018-.04 0-.072-.009-.072-.018 0-.011-.06-.019-.145-.019-.084 0-.145-.007-.145-.018 0-.01-.096-.018-.253-.018s-.253-.007-.253-.018c0-.01-.072-.018-.18-.018-.11 0-.182.007-.182.018zm8.79 0c0 .011-.097.018-.254.018-.156 0-.253.007-.253.018 0 .01-.054.018-.127.018-.072 0-.126.008-.126.018 0 .01-.04.019-.09.019-.05 0-.09.008-.09.018 0 .01-.033.018-.073.018-.04 0-.073.008-.073.018 0 .01-.032.018-.072.018-.04 0-.072.008-.072.018 0 .01-.025.018-.055.018s-.054.008-.054.018c0 .01-.024.018-.054.018s-.054.008-.054.018c0 .01-.017.018-.037.018-.02 0-.036.009-.036.018 0 .01-.024.019-.054.019s-.054.008-.054.018c0 .01-.016.018-.036.018-.02 0-.037.008-.037.018 0 .01-.014.018-.032.018-.017 0-.044.016-.058.036-.014.02-.04.036-.058.036-.018 0-.032.008-.032.018 0 .01-.015.019-.032.019-.018 0-.044.016-.059.036-.014.02-.037.036-.05.036-.014 0-.049.024-.076.054-.028.03-.06.054-.071.054-.026 0-.327.301-.327.328 0 .01-.025.042-.054.07-.03.028-.055.062-.055.076 0 .014-.016.037-.036.05-.02.015-.036.038-.036.052 0 .014-.025.048-.054.076-.03.027-.055.063-.055.08 0 .015-.008.028-.018.028-.01 0-.018.016-.018.036 0 .02-.008.036-.018.036-.01 0-.018.017-.018.037 0 .02-.008.036-.018.036-.01 0-.018.016-.018.036 0 .02-.008.036-.018.036-.01 0-.018.016-.018.036 0 .02-.008.036-.018.036-.01 0-.018.025-.018.055s-.009.054-.019.054-.018.024-.018.054-.008.054-.018.054c-.01 0-.018.025-.018.055s-.008.054-.018.054c-.01 0-.018.024-.018.054s-.008.054-.018.054c-.01 0-.018.033-.018.073 0 .04-.008.072-.018.072-.01 0-.018.033-.018.073 0 .04-.008.072-.018.072-.01 0-.018.032-.018.072 0 .04-.009.073-.019.073s-.018.04-.018.09c0 .05-.008.09-.018.09-.01 0-.018.049-.018.109s-.008.108-.018.108c-.01 0-.018.049-.018.109s-.008.109-.018.109c-.011 0-.018.078-.018.198 0 .121-.007.2-.018.2-.012 0-.018.138-.018.38 0 .24-.007.38-.018.38-.012 0-.019.831-.019 2.459 0 1.628.007 2.46.019 2.46.011 0 .018.132.018.361 0 .23.006.362.018.362.01 0 .018.072.018.181s.007.18.018.18c.01 0 .018.05.018.11s.008.108.018.108c.01 0 .018.04.018.09 0 .05.008.09.018.09.01 0 .018.049.018.11 0 .06.008.108.018.108.01 0 .019.024.019.054s.008.054.018.054c.01 0 .018.033.018.073 0 .04.008.072.018.072.01 0 .018.033.018.072 0 .04.008.073.018.073.01 0 .018.024.018.054s.008.054.018.054c.01 0 .018.025.018.055s.008.054.018.054c.01 0 .018.024.018.054s.009.054.018.054c.01 0 .019.017.019.037 0 .02.008.036.018.036.01 0 .018.024.018.054s.008.054.018.054c.01 0 .018.016.018.036 0 .02.008.037.018.037.01 0 .018.016.018.036 0 .02.008.036.018.036.01 0 .018.016.018.036 0 .02.008.036.018.036.01 0 .018.017.018.036 0 .02.009.037.019.037s.018.014.018.032c0 .017.016.044.036.058.02.014.036.037.036.051 0 .014.024.048.054.076.03.027.055.06.055.072 0 .012.024.044.054.072.03.028.054.06.054.071 0 .026.264.291.29.291.01 0 .06.04.108.09.048.05.1.09.116.09s.029.009.029.019.014.018.032.018c.017 0 .044.016.058.036.014.02.04.036.058.036.018 0 .032.009.032.018 0 .01.017.019.037.019.02 0 .036.008.036.018 0 .01.016.018.036.018.02 0 .036.008.036.018 0 .01.016.018.036.018.02 0 .036.008.036.018 0 .01.017.018.037.018.02 0 .036.008.036.018 0 .01.024.018.054.018s.054.008.054.018c0 .01.025.018.054.018.03 0 .055.009.055.019s.024.018.054.018.054.008.054.018c0 .01.033.018.073.018.04 0 .072.008.072.018 0 .01.04.018.09.018.05 0 .09.008.09.018 0 .01.055.018.127.018.073 0 .127.008.127.018 0 .012.187.018.524.018.338 0 .525-.006.525-.018 0-.01.048-.018.108-.018s.109-.008.109-.018c0-.01.032-.018.072-.018.04 0 .073-.008.073-.018 0-.01.024-.018.054-.018s.054-.008.054-.018c0-.01.024-.018.054-.018s.055-.008.055-.018c0-.01.016-.019.036-.019.02 0 .036-.008.036-.018 0-.01.016-.018.036-.018.02 0 .036-.008.036-.018 0-.01.017-.018.036-.018.02 0 .037-.008.037-.018 0-.01.013-.018.029-.018.015 0 .051-.024.08-.054.027-.03.059-.055.07-.055.026 0 .472-.445.472-.471 0-.012.024-.043.054-.071.03-.028.054-.062.054-.076 0-.014.017-.036.036-.05.02-.015.037-.041.037-.059 0-.018.008-.032.018-.032.01 0 .018-.015.018-.032 0-.018.016-.044.036-.059.02-.014.036-.04.036-.058 0-.018.008-.032.018-.032.01 0 .018-.024.018-.054s.008-.055.018-.055c.01 0 .018-.016.018-.036 0-.02.008-.036.019-.036.01 0 .017-.024.017-.054 0-.042.009-.055.037-.055.033 0 .036.013.036.145 0 .085.007.145.018.145.01 0 .018.06.018.145 0 .084.008.144.018.144.01 0 .018.06.018.145 0 .084.008.145.018.145.01 0 .018.06.018.144 0 .085.008.145.019.145.01 0 .018.058.018.137 0 .095.008.145.025.163.022.021.127.026.597.026h.571v-6.584h-3.364v1.302h1.664v.869c0 .566-.006.868-.018.868-.01 0-.018.072-.018.18 0 .109-.007.181-.018.181-.01 0-.018.055-.018.127 0 .072-.008.127-.018.127-.01 0-.018.048-.018.108s-.008.109-.018.109c-.01 0-.018.032-.018.072 0 .04-.009.072-.019.072s-.018.025-.018.055-.008.054-.018.054c-.01 0-.018.024-.018.054s-.008.054-.018.054c-.01 0-.018.025-.018.055s-.008.054-.018.054c-.01 0-.018.016-.018.036 0 .02-.008.036-.018.036-.01 0-.018.017-.018.036 0 .02-.008.037-.018.037-.01 0-.018.014-.018.032 0 .017-.017.044-.037.058-.02.014-.036.04-.036.058 0 .018-.008.032-.018.032-.01 0-.018.013-.018.028 0 .033-.225.262-.258.262-.013 0-.035.016-.05.036-.014.02-.038.036-.054.036-.015 0-.04.016-.054.036a.099.099 0 01-.076.037c-.028 0-.05.008-.05.018 0 .01-.017.018-.037.018-.02 0-.036.008-.036.018 0 .01-.024.018-.054.018s-.054.008-.054.018c0 .01-.041.018-.09.018-.05 0-.091.008-.091.018 0 .011-.073.018-.181.018-.109 0-.181.008-.181.018 0 .01-.024.018-.054.018s-.055-.008-.055-.018c0-.01-.078-.018-.198-.018-.121 0-.2-.007-.2-.018 0-.01-.048-.018-.108-.018s-.108-.008-.108-.018c0-.01-.017-.018-.036-.018-.02 0-.037-.008-.037-.018 0-.01-.024-.018-.054-.018s-.054-.008-.054-.018c0-.01-.016-.018-.036-.018-.02 0-.036-.009-.036-.019s-.017-.018-.037-.018c-.02 0-.036-.008-.036-.018 0-.01-.012-.018-.027-.018-.034 0-.37-.334-.37-.366 0-.013-.017-.035-.037-.05-.02-.014-.036-.04-.036-.058 0-.018-.008-.032-.018-.032-.01 0-.018-.017-.018-.036 0-.02-.008-.037-.018-.037-.01 0-.018-.016-.018-.036 0-.02-.009-.036-.019-.036s-.018-.024-.018-.054-.008-.055-.018-.055c-.01 0-.018-.024-.018-.054s-.008-.054-.018-.054c-.01 0-.018-.032-.018-.072 0-.04-.008-.073-.018-.073-.01 0-.018-.04-.018-.09 0-.05-.008-.09-.018-.09-.01 0-.018-.049-.018-.11 0-.06-.008-.108-.018-.108-.011 0-.019-.066-.019-.162 0-.097-.007-.163-.017-.163-.013 0-.019-1.134-.019-3.364 0-2.231.007-3.364.019-3.364.01 0 .017-.073.017-.181 0-.109.008-.181.019-.181.01 0 .018-.06.018-.145 0-.084.007-.145.018-.145.01 0 .018-.04.018-.09 0-.05.008-.09.018-.09.01 0 .018-.033.018-.073 0-.04.008-.072.018-.072.01 0 .018-.016.018-.036 0-.02.008-.037.018-.037.01 0 .018-.024.018-.054s.009-.054.019-.054.018-.016.018-.036c0-.02.008-.036.018-.036.01 0 .018-.015.018-.032 0-.018.016-.044.036-.059.02-.014.036-.039.036-.054 0-.016.016-.04.036-.054.02-.015.036-.037.036-.05 0-.029.154-.185.183-.185.01 0 .043-.025.07-.055.028-.03.064-.054.08-.054s.03-.008.03-.018c0-.01.015-.018.035-.018.02 0 .037-.008.037-.018 0-.01.016-.018.036-.018.02 0 .036-.008.036-.018 0-.01.032-.018.072-.018.04 0 .073-.009.073-.019s.032-.018.072-.018c.04 0 .072-.008.072-.018 0-.01.06-.018.145-.018.084 0 .145-.007.145-.018s.084-.018.216-.018c.133 0 .218.007.218.018 0 .01.06.018.144.018.085 0 .145.008.145.018 0 .01.04.018.09.018.05 0 .09.009.09.018 0 .01.025.018.055.018s.054.009.054.019.025.018.054.018c.03 0 .055.008.055.018 0 .01.016.018.036.018.02 0 .036.008.036.018 0 .01.013.018.029.018.015 0 .06.033.098.072.038.04.079.073.09.073.027 0 .073.045.073.073 0 .011.024.044.054.071.03.028.054.064.054.08s.008.029.018.029c.01 0 .018.016.018.036 0 .02.008.036.018.036.01 0 .018.017.018.037 0 .02.008.036.018.036.01 0 .019.016.019.036 0 .02.008.036.018.036.01 0 .018.032.018.072 0 .04.008.073.018.073.01 0 .018.024.018.054s.008.054.018.054c.01 0 .018.048.018.109 0 .06.008.108.018.108.01 0 .018.055.018.127 0 .072.008.127.018.127.011 0 .018.096.018.253 0 .156.007.253.018.253.012 0 .019.157.019.434v.434h1.736v-.416c0-.265-.007-.416-.018-.416-.012 0-.019-.096-.019-.253s-.006-.253-.018-.253c-.01 0-.018-.067-.018-.163 0-.097-.007-.163-.018-.163-.01 0-.018-.04-.018-.09 0-.05-.008-.09-.018-.09-.01 0-.018-.041-.018-.091 0-.05-.008-.09-.018-.09-.01 0-.018-.041-.018-.091 0-.05-.008-.09-.018-.09-.01 0-.018-.025-.018-.055s-.008-.054-.018-.054c-.01 0-.019-.024-.019-.054s-.008-.055-.018-.055c-.01 0-.018-.024-.018-.054s-.008-.054-.018-.054c-.01 0-.018-.024-.018-.054s-.008-.055-.018-.055c-.01 0-.018-.024-.018-.054s-.008-.054-.018-.054c-.01 0-.018-.016-.018-.036 0-.02-.008-.037-.018-.037-.01 0-.018-.016-.018-.036 0-.02-.008-.036-.019-.036-.01 0-.017-.014-.017-.032 0-.018-.017-.044-.037-.058-.02-.015-.036-.04-.036-.058 0-.018-.008-.033-.018-.033-.01 0-.018-.014-.018-.032 0-.018-.016-.044-.036-.058-.02-.015-.036-.037-.036-.05 0-.014-.033-.057-.073-.095a.297.297 0 01-.072-.09c0-.025-.265-.29-.29-.29-.012 0-.044-.024-.072-.054-.028-.03-.062-.054-.075-.054-.014 0-.037-.016-.051-.036-.015-.02-.04-.036-.055-.036s-.04-.017-.054-.037c-.014-.02-.04-.036-.058-.036-.018 0-.032-.008-.032-.018 0-.01-.017-.018-.037-.018-.02 0-.036-.008-.036-.018 0-.01-.024-.018-.054-.018s-.054-.008-.054-.018c0-.01-.016-.018-.036-.018-.02 0-.036-.008-.036-.019 0-.01-.017-.018-.037-.018-.02 0-.036-.008-.036-.018 0-.01-.032-.018-.072-.018-.04 0-.072-.008-.072-.018 0-.01-.025-.018-.055-.018s-.054-.008-.054-.018c0-.01-.024-.018-.054-.018s-.054-.008-.054-.018c0-.01-.033-.018-.073-.018-.04 0-.072-.008-.072-.018 0-.01-.04-.018-.09-.018-.05 0-.091-.009-.091-.018 0-.01-.054-.019-.127-.019-.072 0-.126-.007-.126-.018s-.109-.018-.29-.018c-.18 0-.289-.007-.289-.018 0-.01-.066-.018-.163-.018-.096 0-.162.007-.162.018zm15.516 0c0 .011-.096.018-.253.018s-.253.007-.253.018c0 .01-.054.018-.127.018-.072 0-.126.008-.126.018 0 .01-.04.019-.09.019-.05 0-.091.008-.091.018 0 .01-.033.018-.072.018-.04 0-.073.008-.073.018 0 .01-.032.018-.072.018-.04 0-.072.008-.072.018 0 .01-.025.018-.055.018s-.054.008-.054.018c0 .01-.024.018-.054.018s-.054.008-.054.018c0 .01-.017.018-.037.018-.02 0-.036.009-.036.018 0 .01-.024.019-.054.019s-.054.008-.054.018c0 .01-.017.018-.036.018-.02 0-.037.008-.037.018 0 .01-.016.018-.036.018-.02 0-.036.008-.036.018 0 .01-.014.018-.032.018-.018 0-.044.016-.058.036-.015.02-.04.037-.059.037-.017 0-.032.008-.032.018 0 .01-.013.018-.028.018-.016 0-.06.032-.098.072a.296.296 0 01-.09.072c-.026 0-.399.374-.399.4 0 .01-.024.043-.054.07-.03.028-.054.063-.054.076 0 .014-.016.037-.036.051-.02.015-.036.039-.036.055 0 .015-.017.04-.037.054a.1.1 0 00-.036.076c0 .028-.008.05-.018.05-.01 0-.018.017-.018.037 0 .02-.008.036-.018.036-.01 0-.018.016-.018.036 0 .02-.008.036-.018.036-.01 0-.018.016-.018.036 0 .02-.008.036-.018.036-.01 0-.019.017-.019.037 0 .02-.008.036-.018.036-.01 0-.018.024-.018.054s-.008.054-.018.054c-.01 0-.018.017-.018.036 0 .02-.008.037-.018.037-.01 0-.018.024-.018.054s-.008.054-.018.054c-.01 0-.018.033-.018.072 0 .04-.008.073-.018.073-.01 0-.018.032-.018.072 0 .04-.009.073-.018.073-.01 0-.019.024-.019.054s-.008.054-.018.054c-.01 0-.018.04-.018.09 0 .05-.008.09-.018.09-.01 0-.018.05-.018.11s-.008.108-.018.108c-.01 0-.018.048-.018.108s-.008.109-.018.109c-.01 0-.018.06-.018.145 0 .084-.008.144-.018.144-.011 0-.018.073-.018.181 0 .109-.008.181-.019.181-.012 0-.018 1.025-.018 3.039 0 2.013.006 3.038.018 3.038.011 0 .019.067.019.163s.007.163.018.163c.01 0 .018.06.018.145 0 .084.007.144.018.144.01 0 .018.049.018.109s.008.108.018.108c.01 0 .018.049.018.109s.008.108.018.108c.01 0 .018.033.018.073 0 .04.008.072.018.072.01 0 .018.024.018.054s.009.054.019.054.018.033.018.073c0 .04.008.072.018.072.01 0 .018.033.018.073 0 .04.008.072.018.072.01 0 .018.024.018.054s.008.054.018.054c.01 0 .018.017.018.037 0 .02.008.036.018.036.01 0 .018.024.018.054s.008.054.018.054c.01 0 .018.025.018.055s.009.054.019.054.018.016.018.036c0 .02.008.036.018.036.01 0 .018.016.018.036 0 .02.008.037.018.037.01 0 .018.016.018.036 0 .02.008.036.018.036.01 0 .018.016.018.036 0 .02.008.036.018.036.01 0 .018.013.018.03 0 .015.025.05.055.079.03.028.054.062.054.075 0 .014.016.037.036.051.02.015.036.038.036.051 0 .013.033.056.073.094.04.038.072.079.072.09 0 .025.228.254.254.254.01 0 .06.04.108.09a.38.38 0 00.112.09c.013 0 .036.017.05.037.015.02.039.036.055.036.015 0 .04.016.054.036.014.02.04.036.058.036.018 0 .032.008.032.018 0 .01.016.018.036.018.02 0 .037.009.037.018 0 .01.016.019.036.019.02 0 .036.008.036.018 0 .01.016.018.036.018.02 0 .036.008.036.018 0 .01.025.018.054.018.03 0 .055.008.055.018 0 .01.016.018.036.018.02 0 .036.008.036.018 0 .01.025.018.054.018.03 0 .055.008.055.018 0 .01.024.018.054.018s.054.009.054.019.033.018.072.018c.04 0 .073.008.073.018 0 .01.032.018.072.018.04 0 .073.008.073.018 0 .01.054.018.126.018.072 0 .127.008.127.018 0 .01.066.018.162.018.097 0 .163.008.163.018 0 .012.157.018.434.018.278 0 .434-.006.434-.018 0-.01.067-.018.163-.018s.163-.007.163-.018c0-.01.048-.018.108-.018s.109-.008.109-.018c0-.01.032-.018.072-.018.04 0 .073-.008.073-.018 0-.01.032-.018.072-.018.04 0 .072-.008.072-.018 0-.01.033-.019.073-.019.04 0 .072-.008.072-.018 0-.01.016-.018.036-.018.02 0 .036-.008.036-.018 0-.01.025-.018.054-.018.03 0 .055-.008.055-.018 0-.01.016-.018.036-.018.02 0 .036-.008.036-.018 0-.01.016-.018.036-.018.02 0 .036-.008.036-.018 0-.01.017-.018.037-.018.02 0 .036-.009.036-.018 0-.01.014-.019.032-.019.018 0 .044-.016.058-.036.015-.02.04-.036.058-.036.018 0 .033-.008.033-.018 0-.01.012-.018.028-.018.015 0 .068-.04.116-.09a.429.429 0 01.108-.091c.026 0 .254-.229.254-.254 0-.011.032-.051.072-.09.04-.038.073-.08.073-.094 0-.013.016-.036.036-.05.02-.015.036-.04.036-.055s.016-.04.036-.054c.02-.014.036-.04.036-.058 0-.018.008-.032.018-.032.01 0 .018-.016.018-.036 0-.02.009-.037.018-.037.01 0 .019-.016.019-.036 0-.02.008-.036.018-.036.01 0 .018-.016.018-.036 0-.02.008-.036.018-.036.01 0 .018-.017.018-.037 0-.02.008-.036.018-.036.01 0 .018-.024.018-.054s.008-.054.018-.054c.01 0 .018-.016.018-.036 0-.02.008-.037.018-.037.01 0 .019-.024.019-.054s.008-.054.018-.054c.01 0 .018-.033.018-.072 0-.04.008-.073.018-.073.01 0 .018-.024.018-.054s.008-.054.018-.054c.01 0 .018-.033.018-.073 0-.04.008-.072.018-.072.01 0 .018-.04.018-.09 0-.05.008-.09.018-.09.01 0 .018-.041.018-.091 0-.05.008-.09.018-.09.01 0 .019-.049.019-.11 0-.06.008-.108.018-.108.01 0 .018-.072.018-.18 0-.11.007-.181.018-.181s.018-.115.018-.308.007-.307.018-.307c.012 0 .018-.211.018-.597v-.597h-1.772v.922c0 .603-.007.923-.018.923s-.019.066-.019.163c0 .096-.007.162-.018.162-.01 0-.018.054-.018.127 0 .072-.007.127-.018.127-.01 0-.018.04-.018.09 0 .05-.008.09-.018.09-.01 0-.018.033-.018.073 0 .04-.008.072-.018.072-.01 0-.018.024-.018.054s-.008.055-.018.055c-.01 0-.018.016-.018.036 0 .02-.008.036-.018.036-.01 0-.018.016-.018.036 0 .02-.009.036-.019.036s-.018.015-.018.032c0 .018-.016.044-.036.059-.02.014-.036.036-.036.05 0 .03-.227.257-.258.257-.013 0-.035.016-.05.036-.014.02-.04.037-.058.037-.017 0-.032.008-.032.018 0 .01-.024.018-.054.018s-.054.008-.054.018c0 .01-.017.018-.037.018-.02 0-.036.008-.036.018 0 .01-.04.018-.09.018-.05 0-.09.008-.09.018 0 .011-.079.018-.2.018-.12 0-.198.007-.198.018 0 .01-.033.018-.073.018-.04 0-.072-.008-.072-.018 0-.01-.079-.018-.2-.018-.12 0-.198-.007-.198-.018 0-.01-.032-.018-.072-.018-.04 0-.073-.008-.073-.018 0-.01-.024-.018-.054-.018s-.054-.008-.054-.018c0-.01-.025-.018-.054-.018-.03 0-.055-.008-.055-.018 0-.01-.016-.018-.036-.018-.02 0-.036-.009-.036-.019s-.013-.018-.029-.018-.052-.024-.08-.054c-.027-.03-.06-.054-.07-.054-.027 0-.147-.12-.147-.146 0-.011-.024-.043-.054-.071-.03-.028-.054-.064-.054-.08s-.008-.029-.018-.029c-.01 0-.018-.016-.018-.036 0-.02-.008-.036-.018-.036-.01 0-.018-.016-.018-.036 0-.02-.008-.036-.019-.036-.01 0-.018-.017-.018-.037 0-.02-.008-.036-.018-.036-.01 0-.018-.024-.018-.054s-.008-.054-.018-.054c-.01 0-.018-.017-.018-.037 0-.02-.008-.036-.018-.036-.01 0-.018-.032-.018-.072 0-.04-.008-.072-.018-.072-.01 0-.018-.033-.018-.073 0-.04-.008-.072-.018-.072-.01 0-.018-.054-.018-.127 0-.072-.008-.126-.019-.126-.01 0-.018-.06-.018-.145 0-.084-.007-.145-.018-.145-.012 0-.018-1.163-.018-3.454 0-2.291.006-3.455.018-3.455.011 0 .018-.066.018-.163 0-.096.008-.162.018-.162.01 0 .019-.055.019-.127 0-.072.007-.127.018-.127.01 0 .018-.04.018-.09 0-.05.008-.09.018-.09.01 0 .018-.033.018-.073 0-.04.008-.072.018-.072.01 0 .018-.025.018-.054 0-.03.008-.055.018-.055.01 0 .018-.016.018-.036 0-.02.008-.036.018-.036.01 0 .018-.023.018-.05 0-.03.015-.061.037-.077.02-.014.036-.04.036-.058 0-.018.008-.032.018-.032.01 0 .018-.012.018-.027 0-.032.26-.299.29-.299.012 0 .044-.024.072-.054.03-.033.068-.054.097-.054.026 0 .047-.008.047-.018 0-.01.017-.018.037-.018.02 0 .036-.008.036-.018 0-.01.024-.018.054-.018s.054-.009.054-.019.04-.018.09-.018c.05 0 .091-.008.091-.018 0-.01.066-.018.163-.018.096 0 .162-.007.162-.018 0-.01.079-.018.2-.018.12 0 .198.007.198.018 0 .01.06.018.145.018.084 0 .145.008.145.018 0 .01.032.018.072.018.04 0 .072.009.072.018 0 .01.025.018.055.018s.054.009.054.019.016.018.036.018c.02 0 .036.008.036.018 0 .01.017.018.037.018.02 0 .036.008.036.018 0 .01.013.018.029.018.015 0 .051.024.08.054.027.03.063.055.079.055s.029.012.029.028.032.06.072.098c.04.038.072.082.072.098s.008.029.018.029c.01 0 .019.016.019.036 0 .02.008.036.018.036.01 0 .018.016.018.036 0 .02.008.037.018.037.01 0 .018.016.018.036 0 .02.008.036.018.036.01 0 .018.024.018.054s.008.054.018.054c.01 0 .018.041.018.09 0 .05.008.091.018.091.01 0 .018.054.018.127 0 .072.008.126.018.126.011 0 .019.073.019.181 0 .109.007.181.018.181s.018.302.018.868v.869h1.772v-.615c0-.398-.006-.615-.018-.615-.011 0-.018-.109-.018-.29 0-.18-.007-.29-.018-.29s-.018-.066-.018-.162-.008-.163-.018-.163c-.01 0-.018-.04-.018-.09 0-.05-.009-.09-.019-.09s-.018-.041-.018-.091c0-.05-.008-.09-.018-.09-.01 0-.018-.041-.018-.09 0-.05-.008-.091-.018-.091-.01 0-.018-.025-.018-.055s-.008-.054-.018-.054c-.01 0-.018-.024-.018-.054s-.008-.054-.018-.054c-.01 0-.018-.033-.018-.073 0-.04-.008-.072-.018-.072-.01 0-.018-.016-.018-.036 0-.02-.009-.036-.019-.036s-.018-.017-.018-.037c0-.02-.008-.036-.018-.036-.01 0-.018-.024-.018-.054s-.008-.054-.018-.054c-.01 0-.018-.017-.018-.037 0-.02-.008-.036-.018-.036-.01 0-.018-.016-.018-.036 0-.02-.008-.036-.018-.036-.01 0-.018-.015-.018-.032 0-.018-.017-.044-.037-.058-.02-.015-.036-.04-.036-.055s-.016-.04-.036-.054c-.02-.014-.036-.039-.036-.054 0-.016-.016-.04-.036-.055-.02-.014-.036-.036-.036-.05a.664.664 0 00-.127-.148.75.75 0 01-.127-.146c0-.026-.045-.072-.072-.072-.012 0-.044-.024-.072-.054-.028-.03-.06-.054-.073-.054-.011 0-.044-.024-.072-.054-.028-.03-.062-.054-.076-.054-.013 0-.036-.017-.05-.037-.015-.02-.041-.036-.059-.036-.017 0-.032-.008-.032-.018 0-.01-.016-.018-.036-.018-.02 0-.036-.008-.036-.018 0-.01-.017-.018-.037-.018-.02 0-.036-.008-.036-.018 0-.01-.016-.018-.036-.018-.02 0-.036-.008-.036-.019 0-.01-.024-.018-.054-.018s-.054-.008-.054-.018c0-.01-.017-.018-.037-.018-.02 0-.036-.008-.036-.018 0-.01-.024-.018-.054-.018s-.054-.008-.054-.018c0-.01-.025-.018-.055-.018s-.054-.008-.054-.018c0-.01-.04-.018-.09-.018-.05 0-.09-.008-.09-.018 0-.01-.033-.018-.073-.018-.04 0-.072-.009-.072-.018 0-.01-.055-.019-.127-.019-.072 0-.127-.007-.127-.018 0-.01-.102-.018-.27-.018-.17 0-.272-.007-.272-.018 0-.01-.066-.018-.163-.018-.096 0-.163.007-.163.018zm8.573 0c0 .011-.103.018-.272.018-.168 0-.27.007-.27.018 0 .01-.061.018-.146.018-.084 0-.144.008-.144.018 0 .01-.033.019-.073.019-.04 0-.072.008-.072.018 0 .01-.032.018-.072.018-.04 0-.073.008-.073.018 0 .01-.04.018-.09.018-.05 0-.09.008-.09.018 0 .01-.017.018-.037.018-.02 0-.036.008-.036.018 0 .01-.024.018-.054.018s-.054.008-.054.018c0 .01-.025.018-.055.018s-.054.009-.054.018c0 .01-.016.019-.036.019-.02 0-.036.008-.036.018 0 .01-.017.018-.036.018-.02 0-.037.008-.037.018 0 .01-.016.018-.036.018-.02 0-.036.008-.036.018 0 .01-.016.018-.036.018-.02 0-.036.008-.036.018 0 .01-.015.018-.032.018-.018 0-.044.017-.059.037-.014.02-.038.036-.054.036-.015 0-.04.016-.054.036-.015.02-.037.036-.051.036-.014 0-.048.024-.076.054-.028.03-.06.054-.07.054-.026 0-.364.337-.364.363 0 .011-.032.052-.072.09-.04.038-.072.08-.072.094 0 .013-.017.036-.037.05-.02.015-.036.04-.036.059 0 .017-.008.032-.018.032-.01 0-.018.014-.018.032 0 .018-.016.044-.036.058-.02.015-.036.04-.036.059 0 .017-.008.032-.018.032-.01 0-.018.016-.018.036 0 .02-.009.036-.019.036s-.018.024-.018.054-.008.055-.018.055c-.01 0-.018.016-.018.036 0 .02-.008.036-.018.036-.01 0-.018.016-.018.036 0 .02-.008.036-.018.036-.01 0-.018.025-.018.055s-.008.054-.018.054c-.01 0-.018.024-.018.054s-.008.054-.018.054c-.01 0-.019.033-.019.073 0 .04-.008.072-.018.072-.01 0-.018.024-.018.054s-.008.055-.018.055c-.01 0-.018.032-.018.072 0 .04-.008.072-.018.072-.01 0-.018.033-.018.073 0 .04-.008.072-.018.072-.01 0-.018.04-.018.09 0 .05-.008.09-.018.09-.01 0-.018.041-.018.091 0 .05-.008.09-.018.09-.011 0-.019.067-.019.163 0 .097-.007.163-.018.163s-.018.12-.018.326c0 .205-.006.325-.018.325-.012 0-.018.923-.018 2.731 0 1.81.006 2.732.018 2.732.012 0 .018.12.018.325 0 .205.007.326.018.326s.018.072.018.18c0 .11.008.181.019.181.01 0 .018.041.018.09 0 .05.008.091.018.091.01 0 .018.041.018.09 0 .05.008.091.018.091.01 0 .018.04.018.09 0 .05.008.091.018.091.01 0 .018.033.018.072 0 .04.008.073.018.073.01 0 .018.024.018.054s.008.054.018.054c.01 0 .018.025.018.055s.009.054.019.054.018.032.018.072c0 .04.008.072.018.072.01 0 .018.025.018.055s.008.054.018.054c.01 0 .018.016.018.036 0 .02.008.036.018.036.01 0 .018.017.018.037 0 .02.008.036.018.036.01 0 .018.024.018.054s.008.054.018.054c.01 0 .019.016.019.036 0 .02.008.037.018.037.01 0 .018.014.018.032 0 .017.016.044.036.058.02.014.036.04.036.058 0 .018.008.032.018.032.01 0 .018.015.018.033 0 .017.016.044.036.058.02.014.037.037.037.05 0 .015.024.049.054.076.03.028.054.06.054.073 0 .012.025.044.054.072.03.028.055.06.055.072 0 .026.082.109.108.109.011 0 .076.057.145.127.068.07.134.126.145.126.012 0 .044.025.072.054.028.03.063.055.08.055.015 0 .028.008.028.018 0 .01.015.018.032.018.018 0 .044.016.059.036.014.02.04.036.058.036.018 0 .032.008.032.018 0 .01.016.018.036.018.02 0 .037.009.037.018 0 .01.016.019.036.019.02 0 .036.008.036.018 0 .01.016.018.036.018.02 0 .036.008.036.018 0 .01.025.018.054.018.03 0 .055.008.055.018 0 .01.024.018.054.018s.054.008.054.018c0 .01.016.018.036.018.02 0 .036.008.036.018 0 .01.033.018.073.018.04 0 .072.009.072.019s.033.018.072.018c.04 0 .073.008.073.018 0 .01.032.018.072.018.04 0 .073.008.073.018 0 .01.054.018.126.018.073 0 .127.008.127.018 0 .01.066.018.163.018.096 0 .162.008.162.018 0 .012.157.018.434.018.278 0 .434-.006.434-.018 0-.01.067-.018.163-.018s.163-.007.163-.018c0-.01.054-.018.126-.018.073 0 .127-.008.127-.018 0-.01.033-.018.072-.018.04 0 .073-.008.073-.018 0-.01.032-.018.072-.018.04 0 .072-.008.072-.018 0-.01.033-.019.073-.019.04 0 .072-.008.072-.018 0-.01.016-.018.036-.018.02 0 .036-.008.036-.018 0-.01.025-.018.055-.018s.054-.008.054-.018c0-.01.024-.018.054-.018s.054-.008.054-.018c0-.01.017-.018.037-.018.02 0 .036-.008.036-.018 0-.01.016-.018.036-.018.02 0 .036-.009.036-.018 0-.01.015-.019.032-.019.018 0 .044-.016.058-.036.015-.02.041-.036.059-.036.017 0 .032-.008.032-.018 0-.01.013-.018.029-.018s.052-.024.08-.054c.027-.03.06-.055.072-.055.012 0 .044-.024.072-.054.028-.03.06-.054.071-.054.026 0 .327-.3.327-.327 0-.01.033-.05.072-.09.04-.037.073-.078.073-.09 0-.012.024-.044.054-.072.03-.028.054-.064.054-.08 0-.015.008-.028.018-.028.01 0 .018-.017.018-.037 0-.02.008-.036.018-.036.01 0 .019-.014.019-.032 0-.018.016-.044.036-.058.02-.015.036-.04.036-.058 0-.018.008-.033.018-.033.01 0 .018-.024.018-.054s.008-.054.018-.054c.01 0 .018-.016.018-.036 0-.02.008-.037.018-.037.01 0 .018-.016.018-.036 0-.02.008-.036.019-.036.01 0 .018-.016.018-.036 0-.02.008-.036.018-.036.01 0 .018-.025.018-.055s.008-.054.018-.054c.01 0 .018-.032.018-.072 0-.04.008-.072.018-.072.01 0 .018-.025.018-.055s.008-.054.018-.054c.01 0 .018-.024.018-.054s.008-.055.018-.055c.01 0 .018-.032.018-.072 0-.04.009-.072.019-.072s.018-.04.018-.09c0-.05.008-.091.018-.091.01 0 .018-.04.018-.09 0-.05.008-.09.018-.09.01 0 .018-.055.018-.128 0-.072.008-.126.018-.126.01 0 .018-.066.018-.163 0-.096.008-.163.018-.163.011 0 .018-.114.018-.307s.007-.308.018-.308c.012 0 .018-.904.018-2.677 0-1.772-.006-2.676-.018-2.676-.011 0-.018-.12-.018-.326 0-.205-.006-.325-.018-.325-.01 0-.018-.067-.018-.163 0-.097-.007-.163-.018-.163-.01 0-.018-.048-.018-.108s-.008-.11-.018-.11c-.01 0-.018-.04-.018-.09 0-.05-.008-.09-.018-.09-.01 0-.018-.04-.018-.09 0-.05-.008-.09-.018-.09-.01 0-.019-.033-.019-.073 0-.04-.008-.072-.018-.072-.01 0-.018-.025-.018-.055s-.008-.054-.018-.054c-.01 0-.018-.033-.018-.072 0-.04-.008-.073-.018-.073-.01 0-.018-.024-.018-.054s-.008-.054-.018-.054c-.01 0-.018-.017-.018-.036 0-.02-.008-.037-.018-.037-.01 0-.018-.024-.018-.054s-.009-.054-.018-.054c-.01 0-.019-.016-.019-.036 0-.02-.008-.036-.018-.036-.01 0-.018-.017-.018-.037 0-.02-.008-.036-.018-.036-.01 0-.018-.016-.018-.036 0-.02-.008-.036-.018-.036-.01 0-.018-.016-.018-.036 0-.02-.008-.037-.018-.037-.01 0-.018-.014-.018-.032 0-.017-.017-.044-.036-.058-.02-.014-.037-.04-.037-.058 0-.018-.008-.032-.018-.032-.01 0-.018-.013-.018-.03 0-.015-.024-.051-.054-.079-.03-.028-.054-.06-.054-.072 0-.012-.033-.052-.073-.09a.294.294 0 01-.072-.09.872.872 0 00-.218-.218.294.294 0 01-.09-.072c-.038-.04-.078-.073-.09-.073-.012 0-.044-.024-.072-.054-.028-.03-.062-.054-.076-.054-.013 0-.036-.017-.05-.036-.015-.02-.041-.037-.059-.037-.018 0-.032-.008-.032-.018 0-.01-.017-.018-.036-.018-.02 0-.037-.008-.037-.018 0-.01-.016-.018-.036-.018-.02 0-.036-.008-.036-.018 0-.01-.016-.018-.036-.018-.02 0-.036-.008-.036-.018 0-.01-.017-.018-.036-.018-.02 0-.037-.008-.037-.019 0-.01-.024-.018-.054-.018s-.054-.008-.054-.018c0-.01-.024-.018-.054-.018s-.055-.008-.055-.018c0-.01-.016-.018-.036-.018-.02 0-.036-.008-.036-.018 0-.01-.032-.018-.072-.018-.04 0-.073-.008-.073-.018 0-.01-.04-.018-.09-.018-.05 0-.09-.008-.09-.018 0-.01-.033-.018-.073-.018-.04 0-.072-.009-.072-.018 0-.011-.06-.019-.145-.019-.084 0-.145-.007-.145-.018 0-.01-.096-.018-.253-.018-.156 0-.253-.007-.253-.018 0-.01-.066-.018-.163-.018-.096 0-.162.007-.162.018zm-44.779 6.783v6.656h1.736c1.146 0 1.737-.006 1.737-.018 0-.011.072-.019.18-.019.109 0 .181-.007.181-.018 0-.01.055-.018.127-.018.072 0 .127-.007.127-.018 0-.01.04-.018.09-.018.05 0 .09-.008.09-.018 0-.01.033-.018.073-.018.04 0 .072-.008.072-.018 0-.01.033-.018.072-.018.04 0 .073-.008.073-.018 0-.01.024-.018.054-.018s.054-.009.054-.018c0-.01.025-.019.055-.019s.054-.008.054-.018c0-.01.016-.018.036-.018.02 0 .036-.008.036-.018 0-.01.024-.018.054-.018s.055-.008.055-.018c0-.01.016-.018.036-.018.02 0 .036-.008.036-.018 0-.01.016-.018.036-.018.02 0 .036-.008.036-.018 0-.01.017-.018.036-.018.02 0 .037-.009.037-.019s.014-.018.032-.018c.017 0 .044-.016.058-.036.014-.02.039-.036.054-.036.016 0 .04-.016.055-.036.014-.02.038-.036.054-.036.015 0 .04-.017.054-.037.014-.02.037-.036.05-.036.013 0 .08-.057.149-.126a.75.75 0 01.145-.127c.026 0 .072-.046.072-.072 0-.012.033-.052.072-.09.04-.039.073-.081.073-.095 0-.013.016-.036.036-.05.02-.015.036-.04.036-.055s.016-.04.036-.054c.02-.014.036-.039.036-.054 0-.016.017-.04.037-.054.02-.015.036-.04.036-.059 0-.017.008-.032.018-.032.01 0 .018-.016.018-.036 0-.02.008-.036.018-.036.01 0 .018-.016.018-.036 0-.02.008-.037.018-.037.01 0 .018-.016.018-.036 0-.02.008-.036.018-.036.01 0 .018-.016.018-.036 0-.02.009-.036.018-.036.01 0 .019-.025.019-.055s.008-.054.018-.054c.01 0 .018-.016.018-.036 0-.02.008-.036.018-.036.01 0 .018-.033.018-.072 0-.04.008-.073.018-.073.01 0 .018-.024.018-.054s.008-.054.018-.054c.01 0 .018-.025.018-.055s.008-.054.018-.054c.01 0 .019-.024.019-.054s.008-.054.018-.054c.01 0 .018-.041.018-.09 0-.05.008-.091.018-.091.01 0 .018-.04.018-.09 0-.05.008-.091.018-.091.01 0 .018-.04.018-.09 0-.05.008-.09.018-.09.01 0 .018-.061.018-.146 0-.084.008-.144.018-.144.01 0 .018-.06.018-.145 0-.084.008-.145.018-.145.012 0 .019-1.067.019-3.165s-.007-3.165-.019-3.165c-.01 0-.018-.066-.018-.163 0-.096-.007-.163-.018-.163-.01 0-.018-.054-.018-.126 0-.073-.008-.127-.018-.127-.01 0-.018-.04-.018-.09 0-.05-.008-.09-.018-.09-.01 0-.018-.033-.018-.073 0-.04-.008-.072-.018-.072-.01 0-.018-.041-.018-.09 0-.05-.008-.091-.018-.091-.01 0-.018-.025-.018-.055s-.009-.054-.019-.054-.018-.024-.018-.054-.008-.054-.018-.054c-.01 0-.018-.025-.018-.055s-.008-.054-.018-.054c-.01 0-.018-.024-.018-.054s-.008-.054-.018-.054c-.01 0-.018-.017-.018-.037 0-.02-.008-.036-.018-.036-.01 0-.018-.016-.018-.036 0-.02-.008-.036-.019-.036-.01 0-.018-.024-.018-.054s-.008-.055-.018-.055c-.01 0-.018-.016-.018-.036 0-.02-.008-.036-.018-.036-.01 0-.018-.014-.018-.032 0-.018-.016-.044-.036-.058-.02-.015-.036-.04-.036-.055s-.017-.04-.036-.054c-.02-.014-.037-.039-.037-.054 0-.016-.016-.04-.036-.054-.02-.015-.036-.037-.036-.05 0-.028-.407-.439-.436-.439-.01 0-.042-.024-.07-.054-.028-.03-.062-.054-.076-.054-.014 0-.037-.017-.05-.037-.015-.02-.041-.036-.06-.036-.017 0-.031-.008-.031-.018 0-.01-.015-.018-.032-.018-.018 0-.044-.016-.059-.036-.014-.02-.04-.036-.058-.036-.018 0-.032-.008-.032-.018 0-.01-.025-.018-.054-.018-.03 0-.055-.008-.055-.018 0-.01-.016-.018-.036-.018-.02 0-.036-.009-.036-.019s-.016-.018-.036-.018c-.02 0-.036-.008-.036-.018 0-.01-.025-.018-.055-.018s-.054-.008-.054-.018c0-.01-.024-.018-.054-.018s-.054-.008-.054-.018c0-.01-.025-.018-.055-.018s-.054-.008-.054-.018c0-.01-.032-.018-.072-.018-.04 0-.073-.008-.073-.019 0-.01-.032-.018-.072-.018-.04 0-.072-.008-.072-.018 0-.01-.04-.018-.09-.018-.05 0-.091-.008-.091-.018 0-.01-.048-.018-.109-.018-.06 0-.108-.008-.108-.018 0-.01-.066-.018-.163-.018-.096 0-.163-.007-.163-.018 0-.012-.614-.018-1.808-.018h-1.809v6.656zm26.368 0v6.656h5.173v-1.339h-3.328V22.28h2.676v-1.303h-2.676v-4.413h3.291V15.19h-5.136v6.656zm24.125 0v6.656H101.247V15.19H99.438v6.656zm3.979 0v6.656h1.592V23.98c0-3.003.006-4.522.018-4.522.01 0 .018.017.018.036 0 .02.008.037.018.037.01 0 .018.024.018.054s.008.054.018.054c.01 0 .018.016.018.036 0 .02.008.036.018.036.01 0 .018.025.018.055s.008.054.018.054c.01 0 .018.016.018.036 0 .02.009.036.019.036.009 0 .018.017.018.037 0 .02.008.036.018.036.01 0 .018.024.018.054s.008.054.018.054c.01 0 .018.017.018.036 0 .02.008.036.018.036.01 0 .018.017.018.037 0 .02.008.036.018.036.01 0 .018.024.018.054s.008.054.018.054c.01 0 .018.017.018.037 0 .02.009.036.019.036.009 0 .018.024.018.054s.008.054.018.054c.01 0 .018.016.018.036 0 .02.008.037.018.037.01 0 .018.016.018.036 0 .02.008.036.018.036.01 0 .018.024.018.054s.008.055.018.055c.01 0 .018.016.018.036 0 .02.008.036.018.036.01 0 .018.016.018.036 0 .02.009.036.019.036s.018.025.018.054c0 .03.008.055.018.055.01 0 .018.016.018.036 0 .02.008.036.018.036.01 0 .018.024.018.054s.008.055.018.055c.01 0 .018.016.018.036 0 .02.008.036.018.036.01 0 .018.016.018.036 0 .02.008.036.018.036.01 0 .018.025.018.055s.009.054.019.054.018.016.018.036c0 .02.008.036.018.036.01 0 .018.016.018.036 0 .02.008.037.018.037.01 0 .018.024.018.054s.008.054.018.054c.01 0 .018.016.018.036 0 .02.008.036.018.036.01 0 .018.025.018.055s.008.054.018.054c.01 0 .019.016.019.036 0 .02.008.036.018.036.01 0 .018.017.018.036 0 .02.008.037.018.037.01 0 .018.024.018.054s.008.054.018.054c.01 0 .018.016.018.036 0 .02.008.036.018.036.01 0 .018.017.018.037 0 .02.008.036.018.036.01 0 .018.024.018.054s.009.054.018.054c.01 0 .019.017.019.036 0 .02.008.037.018.037.01 0 .018.024.018.054s.008.054.018.054c.01 0 .018.016.018.036 0 .02.008.037.018.037.01 0 .018.016.018.036 0 .02.008.036.018.036.01 0 .018.024.018.054s.008.054.018.054c.01 0 .018.017.018.037 0 .02.009.036.018.036.01 0 .019.016.019.036 0 .02.008.036.018.036.01 0 .018.024.018.054s.008.055.018.055c.01 0 .018.016.018.036 0 .02.008.036.018.036.01 0 .018.024.018.054s.008.054.018.054c.01 0 .018.017.018.037 0 .02.008.036.018.036.01 0 .018.016.018.036 0 .02.009.036.018.036.01 0 .019.025.019.054 0 .03.008.055.018.055.01 0 .018.016.018.036 0 .02.008.036.018.036.01 0 .018.016.018.036 0 .02.008.036.018.036.01 0 .018.025.018.055s.008.054.018.054c.01 0 .018.016.018.036 0 .02.008.036.018.036.01 0 .018.025.018.055s.009.054.019.054c.009 0 .018.016.018.036 0 .02.008.036.018.036.01 0 .018.016.018.036 0 .02.008.037.018.037.01 0 .018.024.018.054s.008.054.018.054c.01 0 .018.016.018.036 0 .02.008.036.018.036.01 0 .018.017.018.037 0 .02.008.036.018.036.01 0 .018.024.018.054s.009.054.019.054c.009 0 .018.017.018.036 0 .02.008.037.018.037.01 0 .018.024.018.054s.008.054.018.054c.01 0 .018.016.018.036 0 .02.008.036.018.036.01 0 .018.017.018.037 0 .02.008.036.018.036.01 0 .018.024.018.054s.008.054.018.054c.01 0 .018.017.018.037 0 .02.009.036.019.036.009 0 .018.016.018.036 0 .02.008.036.018.036.01 0 .018.024.018.054s.008.055.018.055c.01 0 .018.016.018.036 0 .02.008.036.018.036.01 0 .018.024.018.054s.008.054.018.054c.01 0 .018.017.018.037 0 .02.008.036.018.036.01 0 .018.016.018.036 0 .02.009.036.019.036s.018.024.018.054.008.055.018.055c.01 0 .018.016.018.036 0 .02.008.036.018.036.01 0 .018.016.018.036 0 .02.008.036.018.036.01 0 .018.025.018.054 0 .03.008.055.018.055.01 0 .018.016.018.036 0 .02.008.036.018.036.01 0 .018.016.018.036 0 .02.009.037.019.037s.018.024.018.054.008.054.018.054c.01 0 .018.016.018.036 0 .02.008.036.018.036.01 0 .018.025.018.055s.008.054.018.054c.01 0 .018.016.018.036 0 .02.008.036.018.036.01 0 .018.017.018.036 0 .02.008.037.018.037.01 0 .019.024.019.054s.008.054.018.054c.01 0 .018.016.018.036 0 .02.008.036.018.036.01 0 .018.017.018.037 0 .02.008.036.018.036.01 0 .018.024.018.054s.008.054.018.054c.01 0 .018.017.018.037 0 .02.008.036.018.036.01 0 .018.024.018.054s.009.054.018.054c.01 0 .019.016.019.036 0 .02.008.037.018.037.01 0 .018.016.018.036 0 .02.008.036.018.036.01 0 .018.024.018.054s.008.054.018.054c.01 0 .018.017.018.037 0 .02.008.036.018.036.01 0 .018.016.018.036 0 .02.008.036.018.036.01 0 .018.024.018.054s.009.055.018.055c.01 0 .019.016.019.036 0 .02.008.036.018.036.01 0 .018.024.018.054s.008.055.018.055c.01 0 .018.016.018.036 0 .02.008.036.018.036.01 0 .018.016.018.036 0 .02.008.036.018.036.01 0 .018.025.018.054 0 .03.008.055.018.055.01 0 .018.016.018.036 0 .02.009.036.018.036.01 0 .019.016.019.036 0 .02.008.036.018.036.01 0 .018.025.018.055s.008.054.018.054c.01 0 .018.016.018.036 0 .02.008.036.018.036.01 0 .018.017.018.036 0 .02.008.037.018.037.01 0 .018.024.018.054s.008.054.018.054c.01 0 .018.013.018.029 0 .077.024.08.623.08H110V15.19H108.481v4.413c0 2.93-.006 4.413-.018 4.413-.01 0-.018-.016-.018-.036 0-.02-.008-.036-.018-.036-.01 0-.018-.025-.018-.054 0-.03-.009-.055-.019-.055-.009 0-.018-.016-.018-.036 0-.02-.008-.036-.018-.036-.01 0-.018-.016-.018-.036 0-.02-.008-.037-.018-.037-.01 0-.018-.024-.018-.054s-.008-.054-.018-.054c-.01 0-.018-.016-.018-.036 0-.02-.008-.036-.018-.036-.01 0-.018-.017-.018-.037 0-.02-.008-.036-.018-.036-.01 0-.018-.024-.018-.054s-.009-.054-.019-.054c-.009 0-.018-.017-.018-.036 0-.02-.008-.037-.018-.037-.01 0-.018-.016-.018-.036 0-.02-.008-.036-.018-.036-.01 0-.018-.024-.018-.054s-.008-.054-.018-.054c-.01 0-.018-.017-.018-.037 0-.02-.008-.036-.018-.036-.01 0-.018-.016-.018-.036 0-.02-.008-.036-.018-.036-.01 0-.018-.024-.018-.054s-.009-.055-.019-.055-.018-.016-.018-.036c0-.02-.008-.036-.018-.036-.01 0-.018-.016-.018-.036 0-.02-.008-.036-.018-.036-.01 0-.018-.025-.018-.055s-.008-.054-.018-.054c-.01 0-.018-.016-.018-.036 0-.02-.008-.036-.018-.036-.01 0-.018-.017-.018-.036 0-.02-.008-.037-.018-.037-.01 0-.019-.024-.019-.054s-.008-.054-.018-.054c-.01 0-.018-.016-.018-.036 0-.02-.008-.036-.018-.036-.01 0-.018-.017-.018-.037 0-.02-.008-.036-.018-.036-.01 0-.018-.024-.018-.054s-.008-.054-.018-.054c-.01 0-.018-.016-.018-.036 0-.02-.008-.037-.018-.037-.01 0-.018-.016-.018-.036 0-.02-.008-.036-.018-.036-.01 0-.019-.024-.019-.054s-.008-.055-.018-.055c-.01 0-.018-.016-.018-.036 0-.02-.008-.036-.018-.036-.01 0-.018-.016-.018-.036 0-.02-.008-.036-.018-.036-.01 0-.018-.025-.018-.054 0-.03-.008-.055-.018-.055-.01 0-.018-.016-.018-.036 0-.02-.008-.036-.018-.036-.01 0-.018-.016-.018-.036 0-.02-.009-.036-.018-.036-.01 0-.019-.025-.019-.055s-.008-.054-.018-.054c-.01 0-.018-.016-.018-.036 0-.02-.008-.036-.018-.036-.01 0-.018-.017-.018-.036 0-.02-.008-.037-.018-.037-.01 0-.018-.024-.018-.054s-.008-.054-.018-.054c-.01 0-.018-.016-.018-.036 0-.02-.008-.037-.018-.037-.01 0-.018-.016-.018-.036 0-.02-.009-.036-.018-.036-.01 0-.019-.024-.019-.054s-.008-.054-.018-.054c-.01 0-.018-.017-.018-.037 0-.02-.008-.036-.018-.036-.01 0-.018-.016-.018-.036 0-.02-.008-.036-.018-.036-.01 0-.018-.024-.018-.054s-.008-.055-.018-.055c-.01 0-.018-.016-.018-.036 0-.02-.008-.036-.018-.036-.01 0-.018-.016-.018-.036 0-.02-.009-.036-.018-.036-.01 0-.019-.025-.019-.055s-.008-.054-.018-.054c-.01 0-.018-.016-.018-.036 0-.02-.008-.036-.018-.036-.01 0-.018-.016-.018-.036 0-.02-.008-.037-.018-.037-.01 0-.018-.024-.018-.054s-.008-.054-.018-.054c-.01 0-.018-.016-.018-.036 0-.02-.008-.036-.018-.036-.01 0-.018-.025-.018-.055s-.009-.054-.019-.054c-.009 0-.018-.016-.018-.036 0-.02-.008-.036-.018-.036-.01 0-.018-.017-.018-.036 0-.02-.008-.037-.018-.037-.01 0-.018-.024-.018-.054s-.008-.054-.018-.054c-.01 0-.018-.016-.018-.036 0-.02-.008-.036-.018-.036-.01 0-.018-.017-.018-.037 0-.02-.008-.036-.018-.036-.01 0-.018-.024-.018-.054s-.009-.054-.019-.054c-.009 0-.018-.017-.018-.037 0-.02-.008-.036-.018-.036-.01 0-.018-.016-.018-.036 0-.02-.008-.036-.018-.036-.01 0-.018-.024-.018-.054s-.008-.055-.018-.055c-.01 0-.018-.016-.018-.036 0-.02-.008-.036-.018-.036-.01 0-.018-.016-.018-.036 0-.02-.008-.036-.018-.036-.01 0-.018-.025-.018-.055s-.009-.054-.019-.054c-.009 0-.018-.016-.018-.036 0-.02-.008-.036-.018-.036-.01 0-.018-.016-.018-.036 0-.02-.008-.036-.018-.036-.01 0-.018-.025-.018-.055s-.008-.054-.018-.054c-.01 0-.018-.016-.018-.036 0-.02-.008-.036-.018-.036-.01 0-.018-.017-.018-.037 0-.02-.008-.036-.018-.036-.01 0-.018-.024-.018-.054s-.009-.054-.019-.054-.018-.016-.018-.036c0-.02-.008-.036-.018-.036-.01 0-.018-.017-.018-.037 0-.02-.008-.036-.018-.036-.01 0-.018-.024-.018-.054s-.008-.054-.018-.054c-.01 0-.018-.017-.018-.037 0-.02-.008-.036-.018-.036-.01 0-.018-.016-.018-.036 0-.02-.008-.036-.018-.036-.01 0-.019-.024-.019-.054s-.008-.055-.018-.055c-.01 0-.018-.016-.018-.036 0-.02-.008-.036-.018-.036-.01 0-.018-.016-.018-.036 0-.02-.008-.036-.018-.036-.01 0-.018-.025-.018-.055s-.008-.054-.018-.054c-.01 0-.018-.016-.018-.036 0-.02-.008-.036-.018-.036-.01 0-.018-.016-.018-.036 0-.02-.008-.037-.018-.037-.01 0-.019-.024-.019-.054s-.008-.054-.018-.054c-.01 0-.018-.016-.018-.036 0-.02-.008-.036-.018-.036-.01 0-.018-.017-.018-.037 0-.02-.008-.036-.018-.036-.01 0-.018-.024-.018-.054s-.008-.054-.018-.054c-.01 0-.018-.017-.018-.036 0-.02-.008-.037-.018-.037-.01 0-.018-.016-.018-.036 0-.02-.009-.036-.018-.036-.01 0-.019-.024-.019-.054s-.008-.054-.018-.054c-.01 0-.018-.017-.018-.037 0-.02-.008-.036-.018-.036-.01 0-.018-.016-.018-.036 0-.02-.008-.036-.018-.036-.01 0-.018-.025-.018-.054 0-.03-.008-.055-.018-.055-.01 0-.018-.016-.018-.036 0-.02-.008-.036-.018-.036-.01 0-.018-.016-.018-.036 0-.02-.009-.036-.018-.036-.01 0-.019-.025-.019-.055s-.008-.054-.018-.054c-.01 0-.018-.016-.018-.036 0-.02-.008-.036-.018-.036-.01 0-.018-.017-.018-.036 0-.02-.008-.037-.018-.037-.01 0-.018-.024-.018-.054s-.008-.054-.018-.054c-.01 0-.018-.016-.018-.036 0-.02-.008-.036-.018-.036-.01 0-.018-.017-.018-.037 0-.02-.009-.036-.018-.036-.01 0-.019-.024-.019-.054s-.008-.054-.018-.054c-.01 0-.018-.017-.018-.037 0-.02-.008-.036-.018-.036-.01 0-.018-.016-.018-.036 0-.02-.008-.036-.018-.036-.01 0-.018-.024-.018-.054s-.008-.054-.018-.054c-.01 0-.018-.017-.018-.037 0-.02-.008-.036-.018-.036-.01 0-.018-.016-.018-.036 0-.02-.009-.036-.019-.036-.009 0-.018-.025-.018-.055s-.008-.054-.018-.054c-.01 0-.018-.012-.018-.028 0-.078-.02-.08-.677-.08h-.625v6.656zM61.243 16.51c0 .01.06.018.145.018.084 0 .145.008.145.018 0 .01.04.018.09.018.05 0 .09.009.09.018 0 .01.025.018.055.018s.054.009.054.019.022.018.05.018c.03 0 .061.015.076.036.015.02.041.036.059.036.017 0 .032.008.032.018 0 .01.013.018.028.018.016 0 .068.04.117.09.048.05.1.091.116.091s.028.013.028.029c0 .015.033.06.072.098.04.038.073.082.073.098 0 .015.008.028.018.028.01 0 .018.017.018.037 0 .02.008.036.018.036.01 0 .018.016.018.036 0 .02.008.036.018.036.01 0 .018.024.018.054s.008.055.018.055c.01 0 .019.024.019.054s.008.054.018.054c.01 0 .018.033.018.072 0 .04.008.073.018.073.01 0 .018.04.018.09 0 .05.008.09.018.09.01 0 .018.055.018.127 0 .073.008.127.018.127.011 0 .018.09.018.235s.007.235.018.235c.012 0 .018 1.085.018 3.22 0 2.134-.006 3.219-.018 3.219-.01 0-.018.09-.018.235s-.007.235-.018.235c-.01 0-.018.055-.018.127 0 .072-.008.126-.018.126-.01 0-.018.041-.018.09 0 .05-.008.091-.018.091-.01 0-.018.033-.018.073 0 .04-.008.072-.018.072-.01 0-.018.033-.018.072 0 .04-.009.073-.019.073s-.018.016-.018.036c0 .02-.008.036-.018.036-.01 0-.018.024-.018.054s-.008.055-.018.055c-.01 0-.018.016-.018.036 0 .02-.008.036-.018.036-.01 0-.018.013-.018.029s-.024.052-.054.08c-.03.027-.055.06-.055.07 0 .03-.23.255-.261.255-.016 0-.028.008-.028.018 0 .01-.015.018-.032.018-.018 0-.044.016-.058.036a.099.099 0 01-.077.037c-.027 0-.05.008-.05.018 0 .01-.016.018-.036.018-.02 0-.036.008-.036.018 0 .01-.025.018-.055.018s-.054.008-.054.018c0 .01-.04.018-.09.018-.05 0-.09.008-.09.018 0 .011-.08.018-.2.018-.12 0-.199.007-.199.018 0 .01-.032.018-.072.018-.04 0-.072-.008-.072-.018 0-.01-.079-.018-.2-.018-.12 0-.198-.007-.198-.018 0-.01-.04-.018-.09-.018-.05 0-.091-.008-.091-.018 0-.01-.024-.018-.054-.018s-.054-.008-.054-.018c0-.01-.025-.018-.055-.018s-.054-.008-.054-.018c0-.01-.016-.018-.036-.018-.02 0-.036-.009-.036-.019s-.015-.018-.032-.018c-.018 0-.044-.016-.059-.036-.014-.02-.036-.036-.05-.036-.03 0-.293-.264-.293-.294 0-.013-.017-.035-.037-.05-.02-.014-.036-.04-.036-.058 0-.018-.008-.032-.018-.032-.01 0-.018-.016-.018-.036 0-.02-.008-.036-.018-.036-.01 0-.018-.017-.018-.037 0-.02-.008-.036-.018-.036-.01 0-.018-.016-.018-.036 0-.02-.008-.036-.018-.036-.01 0-.018-.024-.018-.054s-.009-.055-.019-.055-.017-.024-.017-.054-.009-.054-.019-.054-.018-.04-.018-.09c0-.05-.008-.091-.018-.091-.01 0-.018-.048-.018-.109 0-.06-.008-.108-.018-.108-.01 0-.018-.066-.018-.163 0-.096-.007-.163-.018-.163-.012 0-.018-1.181-.018-3.509 0-2.327.006-3.508.018-3.508.01 0 .018-.067.018-.163 0-.097.007-.163.018-.163.01 0 .018-.04.018-.09 0-.05.008-.09.018-.09.01 0 .018-.041.018-.091 0-.05.008-.09.018-.09.01 0 .018-.025.018-.055s.009-.054.018-.054c.01 0 .019-.033.019-.072 0-.04.008-.073.018-.073.01 0 .018-.014.018-.032 0-.018.016-.044.036-.058.02-.015.036-.04.036-.058 0-.018.008-.033.018-.033.01 0 .018-.013.018-.029 0-.015.025-.051.055-.08.03-.027.054-.059.054-.07 0-.03.194-.219.225-.219.016 0 .028-.008.028-.018 0-.01.014-.018.032-.018.018 0 .044-.016.058-.036.015-.02.041-.036.059-.036.017 0 .032-.008.032-.018 0-.01.024-.018.054-.018s.054-.008.054-.018c0-.01.025-.018.055-.018s.054-.009.054-.019.04-.018.09-.018c.05 0 .09-.008.09-.018 0-.01.055-.018.127-.018.073 0 .127-.008.127-.018 0-.011.09-.018.235-.018s.235.007.235.018zm32.878 0c0 .01.06.018.145.018.085 0 .145.008.145.018 0 .01.032.018.072.018.04 0 .072.009.072.018 0 .01.025.018.055.018s.054.009.054.019.024.018.054.018.054.008.054.018c0 .01.015.018.033.018.017 0 .044.016.058.036.014.02.039.036.054.036.016 0 .04.017.055.036.014.02.036.037.05.037.028 0 .185.153.185.182 0 .01.024.043.054.07.03.029.054.064.054.08s.008.03.018.03c.01 0 .018.016.018.035 0 .02.008.037.018.037.01 0 .018.016.018.036 0 .02.009.036.019.036s.018.016.018.036c0 .02.008.036.018.036.01 0 .018.025.018.055s.008.054.018.054c.01 0 .018.032.018.072 0 .04.008.073.018.073.01 0 .018.04.018.09 0 .05.008.09.018.09.01 0 .018.049.018.109s.008.108.018.108c.011 0 .018.067.018.163 0 .097.008.163.019.163s.018 1.158.018 3.436c0 2.28-.007 3.437-.019 3.437-.01 0-.018.066-.018.163 0 .096-.007.163-.018.163-.01 0-.018.048-.018.108s-.008.109-.018.109c-.01 0-.018.048-.018.108s-.008.109-.018.109c-.01 0-.018.024-.018.054s-.008.054-.018.054c-.01 0-.018.033-.018.072 0 .04-.008.073-.018.073-.01 0-.018.016-.018.036 0 .02-.009.036-.019.036s-.018.017-.018.036c0 .02-.008.037-.018.037-.01 0-.018.016-.018.036 0 .02-.008.036-.018.036-.01 0-.018.013-.018.029s-.024.052-.054.08c-.03.027-.054.06-.054.07 0 .03-.23.255-.262.255-.015 0-.028.008-.028.018 0 .01-.014.018-.032.018-.018 0-.044.016-.058.036-.015.02-.04.037-.058.037-.018 0-.033.008-.033.018 0 .01-.024.018-.054.018s-.054.008-.054.018c0 .01-.016.018-.036.018-.02 0-.037.008-.037.018 0 .01-.048.018-.108.018s-.109.008-.109.018c0 .011-.078.018-.198.018-.121 0-.2.007-.2.018 0 .01-.024.018-.054.018s-.054-.008-.054-.018c0-.01-.084-.018-.217-.018-.132 0-.217-.007-.217-.018 0-.01-.04-.018-.09-.018-.05 0-.09-.008-.09-.018 0-.01-.025-.018-.055-.018s-.054-.008-.054-.018c0-.01-.017-.018-.036-.018-.02 0-.037-.008-.037-.018 0-.01-.022-.018-.05-.018a.099.099 0 01-.076-.037c-.015-.02-.04-.036-.058-.036-.018 0-.033-.008-.033-.018 0-.01-.012-.018-.027-.018-.033 0-.298-.261-.298-.294 0-.013-.016-.035-.036-.05-.02-.014-.037-.04-.037-.058 0-.018-.008-.032-.018-.032-.01 0-.018-.016-.018-.036 0-.02-.008-.036-.018-.036-.01 0-.018-.017-.018-.037 0-.02-.008-.036-.018-.036-.01 0-.018-.016-.018-.036 0-.02-.008-.036-.018-.036-.01 0-.018-.033-.018-.073 0-.04-.008-.072-.018-.072-.01 0-.018-.024-.018-.054s-.008-.054-.018-.054c-.01 0-.019-.049-.019-.109s-.008-.108-.018-.108c-.01 0-.018-.049-.018-.109s-.008-.108-.018-.108c-.01 0-.018-.067-.018-.163 0-.097-.007-.163-.018-.163-.012 0-.018-1.157-.018-3.436 0-2.28.006-3.437.018-3.437.01 0 .018-.066.018-.163 0-.096.007-.163.018-.163.01 0 .018-.048.018-.108s.008-.109.018-.109c.01 0 .018-.04.018-.09 0-.05.009-.09.019-.09s.018-.033.018-.073c0-.04.008-.072.018-.072.01 0 .018-.025.018-.054 0-.03.008-.055.018-.055.01 0 .018-.016.018-.036 0-.02.008-.036.018-.036.01 0 .018-.016.018-.036 0-.02.008-.036.018-.036.01 0 .018-.017.018-.037 0-.02.008-.036.018-.036.01 0 .018-.013.018-.029 0-.015.025-.051.055-.08.03-.027.054-.06.054-.07 0-.027.12-.146.146-.146.011 0 .043-.025.071-.055.028-.03.064-.054.08-.054s.029-.008.029-.018c0-.01.014-.018.032-.018.017 0 .044-.016.058-.036a.099.099 0 01.076-.036c.028 0 .05-.008.05-.018 0-.01.025-.018.055-.018s.054-.009.054-.019.04-.018.09-.018c.05 0 .09-.008.09-.018 0-.01.061-.018.146-.018.084 0 .144-.007.144-.018s.09-.018.235-.018.236.007.236.018zm-41.776.072c0 .01.055.018.127.018.072 0 .127.008.127.019 0 .01.04.018.09.018.05 0 .09.008.09.018 0 .01.025.018.055.018s.054.008.054.018c0 .01.016.018.036.018.02 0 .036.008.036.018 0 .01.025.018.054.018.03 0 .055.008.055.018 0 .01.014.018.032.018.018 0 .044.017.058.037.014.02.037.036.05.036.014 0 .057.032.095.072.038.04.082.072.098.072s.028.013.028.03c0 .015.025.051.055.079.03.028.054.062.054.076 0 .013.016.036.036.05.02.015.036.041.036.059 0 .017.008.032.018.032.01 0 .018.016.018.036 0 .02.009.036.019.036s.018.017.018.037c0 .02.008.036.018.036.01 0 .018.032.018.072 0 .04.008.072.018.072.01 0 .018.033.018.073 0 .04.008.072.018.072.01 0 .018.04.018.09 0 .05.008.09.018.09.01 0 .018.055.018.128 0 .072.008.126.018.126.01 0 .019.06.019.145 0 .084.007.145.018.145s.018.144.018.398c0 .253.006.397.018.397.012 0 .018.796.018 2.352 0 1.555-.006 2.35-.018 2.35-.012 0-.018.182-.018.507 0 .326-.007.507-.018.507-.012 0-.019.09-.019.235s-.006.235-.018.235c-.01 0-.018.054-.018.127 0 .072-.008.126-.018.126-.01 0-.018.041-.018.09 0 .05-.008.091-.018.091-.01 0-.018.033-.018.073 0 .04-.008.072-.018.072-.01 0-.018.024-.018.054s-.008.054-.018.054c-.01 0-.018.025-.018.055s-.008.054-.018.054c-.01 0-.019.016-.019.036 0 .02-.008.036-.018.036-.01 0-.018.017-.018.036 0 .02-.008.037-.018.037-.01 0-.018.016-.018.036 0 .02-.008.036-.018.036-.01 0-.018.012-.018.027 0 .034-.334.37-.367.37-.012 0-.035.017-.049.037-.014.02-.04.036-.058.036-.018 0-.032.008-.032.018 0 .01-.025.018-.055.018s-.054.009-.054.018c0 .01-.016.018-.036.018-.02 0-.036.009-.036.019s-.033.018-.073.018c-.04 0-.072.008-.072.018 0 .01-.024.018-.054.018s-.054.008-.054.018c0 .01-.055.018-.127.018-.072 0-.127.008-.127.018 0 .012-.27.018-.777.018h-.778V16.564h.778c.506 0 .777.007.777.018z" fill="#D9D9D9"/><defs><clipPath id="clip0"><path fill="#fff" transform="translate(16 9)" d="M0 0h25.994v25.994H0z"/></clipPath></defs></svg>