<svg width="121" height="40" fill="none" xmlns="http://www.w3.org/2000/svg"><path d="M60.94 20.889c0 3.704 2.792 5.704 5.74 5.704a10.445 10.445 0 004.964-1.334v1.556c-1.59.763-3.34 1.169-5.12 1.185C62.802 28 59 25.556 59 20.889 59 16.444 62.258 14 66.059 14c3.724 0 6.671 2.37 6.671 6.889H60.94zm.154-1.333h9.62c-.466-2.593-2.405-4.075-4.733-4.075-2.327 0-4.421 1.482-4.887 4v.075zm15.515 1.407c0-4.445 3.878-6.963 7.602-6.963 3.878 0 7.602 2.518 7.602 6.963 0 4.444-3.879 7.037-7.602 7.037-3.879 0-7.602-2.518-7.602-7.037zm7.602 5.63c2.792 0 5.663-2 5.663-5.63 0-3.556-2.87-5.556-5.663-5.556a5.817 5.817 0 00-2.217.405 5.606 5.606 0 00-1.868 1.208 5.31 5.31 0 00-1.215 1.816 5.116 5.116 0 00-.363 2.127c0 3.555 2.793 5.63 5.663 5.63zM99.57 21.11c-2.172-1.037-4.034-2.074-3.801-4.296C96.002 15.11 97.32 14 100.035 14c1.242 0 2.793.222 4.112 1.037l-1.241.815a6.486 6.486 0 00-2.328-.445c-1.551 0-2.715.297-2.87 1.482-.233 1.63 1.707 2.296 3.336 3.111 2.56 1.111 3.956 2 3.956 4.074 0 2.222-1.551 3.926-5.042 3.926a9.304 9.304 0 01-4.654-1.26l1.163-.888c1.009.444 2.172.74 3.258.74 2.638 0 3.491-1.259 3.491-2.518 0-1.407-1.164-1.852-3.646-2.963zM36.5 8l-6.696 8.372L27 28.748 36.5 34l9.5-5.252-2.861-12.428L36.5 8zm-7.955 20.176l2.118-9.412 4.807 13.26-6.925-3.848zm2.804-11.544l5.151-6.448 5.15 6.448-5.15 14.144-5.15-14.144zm6.124 15.392l4.807-13.26 2.118 9.412-6.925 3.848z" fill="#fff"/></svg>