<svg xmlns="http://www.w3.org/2000/svg" width="119pt" height="35pt" viewBox="0 0 119 35"><path d="M49.73 14.457v-.871h-4.667v7.707h4.667v-.871h-3.796V17.77h3.543v-.872h-3.543v-2.441zm7.758-.871h-5.62v.871h2.362v6.836h.883v-6.836h2.375zm7.735 0v3.293h-4.27v-3.293h-.871v7.707h.871v-3.547h4.27v3.547h.87v-7.707zm8.703.871v-.871h-4.668v7.707h4.668v-.871h-3.793V17.77h3.543v-.872h-3.543v-2.441zm7.347 6.836h1.086l-2.355-3.008c1.336-.164 2.07-1.043 2.07-2.32 0-1.387-.863-2.38-2.492-2.38h-2.91v7.708h.871v-2.984h1.43zm-3.73-6.836H79.5c1.156 0 1.691.648 1.691 1.508 0 .867-.527 1.531-1.691 1.531h-1.957zm12.078 0v-.871h-4.664v7.707h4.664v-.871h-3.793V17.77h3.543v-.872h-3.543v-2.441zm7.637-.871v4.625c0 1.629-.863 2.332-2.02 2.332-1.156 0-2.02-.703-2.02-2.332v-4.625h-.89v4.668c0 2.125 1.262 3.16 2.91 3.16 1.653 0 2.91-1.035 2.91-3.16v-4.668zm9.687 0l-2.332 3.676-2.336-3.676h-1.07v7.707h.871v-6.527l2.492 3.941h.082l2.493-3.941v6.527h.87v-7.707zm0 0" fill="#b6b6b6"/><path d="M25.785 14.332l-7.758 4.344-.656-1.176 7.758-4.34zm0 0" fill-rule="evenodd" fill="#7fca43"/><path d="M32.184 18.273l-7.77-4.32.652-1.176 7.77 4.32zm0 0" fill-rule="evenodd" fill="#a05f9e"/><path d="M25.426 3.465v20l-8.735-5.516 8.43-14.484zM18.457 17.5l5.711 3.613V7.695zm0 0" fill-rule="evenodd" fill="#ffe94d"/><path d="M25.426 3.465v20l8.793-5.543-8.426-14.457zM32.457 17.5l-5.719 3.613V7.695zm0 0" fill-rule="evenodd" fill="#ff9c92"/><path d="M25.484 31.535v-6.613L16.72 19.46l8.343 12.074zm-4.144-7.648l2.828 1.765.027 2.297zm0 0" fill-rule="evenodd" fill="#53d3e0"/><path d="M25.484 31.535V24.95l8.762-5.515-8.344 12.101zm4.114-7.648l-2.86 1.793v2.28zm0 0" fill-rule="evenodd" fill="#5a9ded"/></svg>