<svg width="56" height="16" fill="none" xmlns="http://www.w3.org/2000/svg"><path fill-rule="evenodd" clip-rule="evenodd" d="M15.09 0v.007c-.007 0-2.187-.007-2.769 2.096a2319.56 2319.56 0 01-2.076 7.4h-.416S8.293 4.058 7.753 2.095C7.17-.007 4.983 0 4.983 0H0v16h4.984V6.498h.415L8.307 16h3.46l2.908-9.495h.415V16h4.984V0H15.09zm18.205 0s-1.46.133-2.146 1.677l-3.53 7.825h-.415V0H22.22v16h4.707s1.53-.14 2.215-1.677l3.46-7.825h.416V16h4.984V0h-4.707zm6.923 7.267V16h4.984v-5.1h5.4c2.353 0 4.347-1.516 5.087-3.633H40.22z" fill="#4DB45E"/><path fill-rule="evenodd" clip-rule="evenodd" d="M50.6 0H39.518c.553 3.046 2.817 5.492 5.745 6.288a7.88 7.88 0 002.084.28h8.541c.077-.364.111-.734.111-1.118C56 2.438 53.583 0 50.6 0z" fill="url(#paint0_linear)"/><defs><linearGradient id="paint0_linear" x1="39.519" y1="3.284" x2="55.999" y2="3.284" gradientUnits="userSpaceOnUse"><stop offset=".3" stop-color="#00B4E6"/><stop offset="1" stop-color="#088CCB"/></linearGradient></defs></svg>