<svg width="141" height="40" fill="none" xmlns="http://www.w3.org/2000/svg"><path d="M39.824 7C32.744 7 27 12.728 27 19.793c0 1.412.23 2.77.653 4.04h3.835V13.07l8.336 8.316 8.336-8.316v10.764h3.836c.424-1.27.653-2.629.653-4.041C52.65 12.728 46.906 7 39.824 7z" fill="#F60"/><path d="M34.27 19.668v6.773h-5.404a12.824 12.824 0 0010.958 6.145c4.641 0 8.708-2.46 10.959-6.145h-5.404v-6.773l-5.555 5.541-5.554-5.54z" fill="#4C4C4C"/><path d="M121.633 23.435a3.313 3.313 0 01-2.467 1.043 3.49 3.49 0 01-2.27-.805c-.85-.686-1.274-1.62-1.274-2.803 0-1.058.338-1.933 1.013-2.62.673-.688 1.505-1.03 2.497-1.03.979 0 1.811.352 2.494 1.055.685.704 1.028 1.565 1.028 2.583 0 1.02-.34 1.878-1.021 2.577zm1.424-6.565c-1.089-1.092-2.39-1.64-3.906-1.64-.998 0-1.932.25-2.796.75a5.545 5.545 0 00-2.785 4.854c0 1.526.531 2.841 1.595 3.95 1.062 1.11 2.397 1.662 4.001 1.662 1.533 0 2.838-.538 3.913-1.618 1.076-1.078 1.612-2.399 1.612-3.958 0-1.571-.544-2.904-1.634-4zM78.365 23.435a3.314 3.314 0 01-2.467 1.043c-.854 0-1.61-.267-2.27-.805-.85-.686-1.274-1.62-1.274-2.803 0-1.058.338-1.933 1.013-2.62.673-.688 1.505-1.03 2.497-1.03.979 0 1.811.352 2.494 1.055.685.704 1.028 1.565 1.028 2.583 0 1.02-.34 1.878-1.02 2.577zm1.424-6.565c-1.088-1.092-2.39-1.64-3.906-1.64-.998 0-1.932.25-2.796.75a5.467 5.467 0 00-2.043 2.038 5.54 5.54 0 00-.742 2.817c0 1.524.531 2.84 1.595 3.948 1.063 1.11 2.397 1.663 4.001 1.663 1.533 0 2.838-.538 3.913-1.618 1.076-1.078 1.612-2.399 1.612-3.958 0-1.571-.544-2.904-1.634-4zM109.678 19.347c-.259.18-.381.268-1.064.268h-2.688v-2.294h2.605c.522 0 .615.04.829.12.213.078.383.208.511.387.127.18.19.393.19.637 0 .412-.128.706-.383.882zm.323 2.113c.712-.256 1.246-.63 1.601-1.124.355-.497.53-1.111.53-1.85 0-.7-.159-1.308-.48-1.82a2.725 2.725 0 00-1.273-1.1c-.527-.222-1.411-.334-2.654-.334h-3.937v11.212h2.138v-4.748h1.866l2.53 4.748h2.339l-2.66-4.984zM94.202 15.23h7.287v2.089h-5.161v2.294h5.161v2.053h-5.161v2.678h5.161v2.098h-7.287V15.23zM82.912 15.23h2.047l4.822 7.377V15.23h2.138v11.211h-2.055l-4.814-7.353v7.353h-2.138V15.23zM58.03 15.23h2.094l2.597 7.82 2.637-7.82h2.062l1.894 11.211H67.25l-1.207-7.08-2.392 7.08h-1.885l-2.36-7.08-1.23 7.08H56.09l1.94-11.211z" fill="#DCDCDC"/></svg>