<svg width="99" height="40" fill="none" xmlns="http://www.w3.org/2000/svg"><g clip-path="url(#clip0)"><path d="M76.43 22.19l-.087-.049a15.808 15.808 0 01-7.263-9.557c-.171-.645-.3-1.3-.388-1.962-.089-.668-.133-1.34-.139-2.014 0-.116-.011-.098.088-.154A15.61 15.61 0 0174.5 6.51a15.743 15.743 0 013.604-.028c2.157.231 4.18.883 6.072 1.951.027.015.054.033.082.046.032.016.046.04.044.075v.114a15.859 15.859 0 01-.28 2.834 15.745 15.745 0 01-4.241 8.086 15.741 15.741 0 01-3.223 2.527l-.129.075zM69.277 8.993v.093a14.276 14.276 0 00.36 3.135c.019.087.046.169.083.25a3.346 3.346 0 006.258-.499c.09-.324.121-.655.132-.989a3.98 3.98 0 012.442-3.6l.21-.082c.009-.004.025-.005.02-.023-.194-.07-1.362-.187-2.062-.2a14.245 14.245 0 00-7.443 1.915zm11.089 9.048c.041-.02.058-.051.078-.077a14.232 14.232 0 003.08-7.682c.035-.402.055-.804.055-1.208 0-.027-.003-.055-.004-.083l-.11-.064c-.308-.175-.622-.34-.943-.49a11.51 11.51 0 00-1.42-.571 3.3 3.3 0 00-1.8-.061 3.342 3.342 0 00-2.5 3.86c.182.97.7 1.72 1.53 2.248l.17.103a3.931 3.931 0 011.422 1.5c.358.66.518 1.367.477 2.118-.007.132-.022.263-.035.407zm-3.93 3.376l.1-.057a14.443 14.443 0 002.615-1.98.601.601 0 00.122-.167c.051-.101.103-.202.152-.304.378-.788.459-1.605.208-2.444a3.34 3.34 0 00-3.622-2.37c-.448.055-.867.199-1.258.42a3.991 3.991 0 01-4.447-.312c-.019-.014-.039-.025-.073-.047.011.037.016.058.024.078a14.363 14.363 0 005.355 6.68c.362.243.712.458.824.503z" fill="#000"/><path d="M69.277 8.994c.963-.559 1.97-.995 3.027-1.314a14.246 14.246 0 014.416-.602c.7.014 1.868.131 2.062.2.005.019-.011.02-.02.024-.07.028-.141.054-.21.083a3.98 3.98 0 00-2.442 3.6c-.01.334-.042.665-.133.988a3.346 3.346 0 01-6.257.498 1.224 1.224 0 01-.084-.248 14.28 14.28 0 01-.36-3.136v-.093z" fill="#F7A800"/><path d="M80.366 18.042c.013-.144.028-.275.035-.407a3.916 3.916 0 00-.477-2.118 3.93 3.93 0 00-1.423-1.5c-.056-.035-.113-.068-.168-.103-.831-.529-1.35-1.277-1.53-2.247A3.343 3.343 0 0179.3 7.806a3.3 3.3 0 011.8.06c.489.155.958.355 1.421.572.321.15.635.315.944.49l.109.064c.001.028.004.056.004.083a14.234 14.234 0 01-.319 2.961 14.228 14.228 0 01-2.816 5.929c-.02.026-.037.058-.078.077z" fill="#67B2E8"/><path d="M76.436 21.418c-.112-.045-.462-.26-.824-.504a14.37 14.37 0 01-5.355-6.68c-.008-.019-.013-.04-.024-.077.034.022.055.033.073.047a3.98 3.98 0 002.05.825 3.991 3.991 0 002.397-.514c.39-.22.81-.364 1.258-.42a3.34 3.34 0 013.622 2.371c.25.84.17 1.656-.208 2.444-.049.102-.1.203-.152.303a.598.598 0 01-.122.167 14.456 14.456 0 01-2.614 1.98l-.101.058z" fill="#00C4B3"/><path d="M18.649 14.354h3.694v1.87a7.97 7.97 0 01.693-.8c.25-.253.53-.478.838-.675a4.15 4.15 0 011.021-.467 4.284 4.284 0 011.264-.173c1.41 0 2.5.432 3.269 1.294.77.863 1.154 2.05 1.154 3.564v8.47h-3.694v-7.28c0-.877-.194-1.539-.583-1.985-.39-.446-.94-.67-1.653-.67-.713 0-1.276.224-1.69.67-.412.446-.619 1.108-.619 1.985v7.28h-3.694V14.353zM39.694 27.73a7.396 7.396 0 01-2.71-.488 6.263 6.263 0 01-2.164-1.391 6.43 6.43 0 01-1.422-2.136c-.34-.822-.51-1.737-.51-2.746v-.05c0-.927.158-1.806.474-2.635a6.706 6.706 0 011.325-2.173 6.217 6.217 0 012.03-1.465c.785-.357 1.656-.537 2.612-.537 1.085 0 2.025.196 2.82.586.793.39 1.454.915 1.98 1.575a6.566 6.566 0 011.167 2.27 9.43 9.43 0 01.365 3.137c-.009.162-.02.333-.037.512h-9.066c.178.846.547 1.485 1.106 1.916.56.432 1.252.647 2.078.647.616 0 1.167-.105 1.653-.317.486-.211.988-.553 1.507-1.025l2.114 1.88a6.562 6.562 0 01-2.236 1.794c-.875.43-1.904.646-3.087.646zm2.381-7.86c-.113-.83-.405-1.501-.875-2.014-.47-.512-1.093-.769-1.871-.769s-1.406.253-1.884.757c-.478.505-.79 1.18-.935 2.026h5.566zM47.978 14.354h3.695v1.87a7.97 7.97 0 01.692-.8c.251-.253.53-.478.839-.675a4.101 4.101 0 011.033-.467c.38-.115.806-.173 1.276-.173.859 0 1.6.18 2.224.541.623.361 1.106.877 1.446 1.55.567-.689 1.199-1.21 1.896-1.562.696-.352 1.49-.529 2.382-.529 1.377 0 2.455.407 3.232 1.22.778.815 1.167 2.011 1.167 3.59v8.518h-3.694v-7.28c0-.877-.187-1.539-.56-1.985-.372-.446-.907-.67-1.604-.67-.697 0-1.243.224-1.64.67-.398.446-.596 1.108-.596 1.985v7.28h-3.694v-7.28c0-.877-.187-1.539-.56-1.985-.372-.446-.907-.67-1.603-.67-.697 0-1.244.224-1.641.67-.397.446-.596 1.108-.596 1.985v7.28h-3.694V14.353z" fill="#BCBCBC"/></g><defs><clipPath id="clip0"><path fill="#fff" d="M0 0h99v40H0z"/></clipPath></defs></svg>