<svg width="99" height="40" fill="none" xmlns="http://www.w3.org/2000/svg"><path d="M52.63 14.26c.913.816 1.37 2.03 1.37 3.597V26h-2v-7.437c0-1.324-.283-2.296-.848-2.891-.565-.596-1.304-.883-2.239-.883a4.25 4.25 0 00-1.891.441 3.526 3.526 0 00-1.435 1.457c-.391.662-.565 1.523-.565 2.538V26H43V13.641l1.848.773.043.838a3.831 3.831 0 011.74-1.699 5.324 5.324 0 012.478-.552c1.42 0 2.594.42 3.521 1.258zM67.896 20.247h-9.011c.104 1.276.518 2.25 1.202 2.942.683.692 1.594 1.06 2.692 1.06a4.694 4.694 0 002.196-.477c.55-.285.973-.78 1.18-1.384l1.596.887a4.857 4.857 0 01-1.906 2.011c-.787.476-1.823.714-3.066.714-1.802 0-3.21-.584-4.246-1.73C57.497 23.124 57 21.523 57 19.49c0-2.033.476-3.611 1.47-4.758.995-1.146 2.362-1.73 4.164-1.73a5.27 5.27 0 012.9.779 4.922 4.922 0 011.844 2.098 6.93 6.93 0 01.621 2.962c-.003.47-.038.94-.103 1.406zm-7.81-4.52c-.642.649-1.035 1.557-1.18 2.747h7.25c-.125-1.168-.497-2.076-1.098-2.725-.6-.65-1.409-.995-2.424-.995s-1.905.324-2.547.973zM80.524 14.73C81.508 15.877 82 17.456 82 19.49c0 2.033-.492 3.633-1.476 4.78C79.54 25.416 78.202 26 76.49 26c-1.712 0-3.05-.584-4.034-1.73C71.472 23.123 71 21.523 71 19.49c0-2.034.492-3.613 1.456-4.76.964-1.146 2.322-1.73 4.034-1.73 1.712 0 3.07.584 4.034 1.73zm-6.73 1.277c-.65.843-.984 2.011-.984 3.482s.335 2.66.984 3.504c.65.844 1.555 1.277 2.696 1.277 1.142 0 2.066-.433 2.716-1.277.65-.843.964-2.011.964-3.504 0-1.492-.315-2.639-.964-3.482-.65-.844-1.555-1.277-2.716-1.277-1.16 0-2.046.411-2.696 1.277z" fill="#BBB"/><path d="M17 11.375v16.73L28.065 32V15.125L40 10.812 29.168 7 17 11.375z" fill="#00E599"/><path d="M29 15.04v9.066L40 28V11l-11 4.04z" fill="#00AF92"/></svg>