<svg width="128" height="40" fill="none" xmlns="http://www.w3.org/2000/svg"><path fill-rule="evenodd" clip-rule="evenodd" d="M23.64 11.212c.526-.6 1.006-1.11 1.463-1.539-7.736-.251-5.484 5.385-8.005 11.112-2.903 6.596.341 9.11 5.176 9.893a10.593 10.593 0 01-1.633-2.693c-3.135-3.977-1.873-11.222 3-16.773z" fill="#B3D234"/><path fill-rule="evenodd" clip-rule="evenodd" d="M42.257 18.238c-.72 2.043-2.041 4.336-3.909 6.592-1.456 1.759-3.074 3.143-4.745 4.146-1.93 1.26-4.327 2.005-7.005 2.005-1.5 0-2.973-.084-4.324-.303a8.856 8.856 0 002.896 2.284c6.994 3.409 7.436-2.923 14.837-6.136 4.155-1.805 4.17-5.332 2.25-8.588z" fill="#0095D9"/><path fill-rule="evenodd" clip-rule="evenodd" d="M33.6 11.649c1.033.19 2.011.531 2.888 1.03 2.35 1.34 4.489 3.389 5.769 5.559 1.26-3.576.673-6.388-2.084-6.897-3.03-.559-5.4-.738-7.676-2.34-2.803-1.973-5.261-1.322-7.394.672.15.005.304.012.462.021 2.96.176 5.783.756 8.036 1.955z" fill="#EEE809"/><path fill-rule="evenodd" clip-rule="evenodd" d="M23.64 11.212c-4.873 5.55-6.134 12.796-3 16.773-1.407-3.329-1.31-7.482.674-10.797 2.642-4.414 7.939-6.339 12.287-5.539-2.253-1.199-5.076-1.779-8.034-1.955a20.67 20.67 0 00-.464-.02c-.457.427-.937.939-1.462 1.538z" fill="#51B849"/><path fill-rule="evenodd" clip-rule="evenodd" d="M36.488 12.68a9.16 9.16 0 00-2.887-1.03c2.966 1.577 4.94 4.229 4.918 8.452-.02 3.664-1.898 6.903-4.916 8.874 1.67-1.002 3.29-2.387 4.745-4.145 1.868-2.257 3.189-4.55 3.909-6.593-1.28-2.17-3.42-4.22-5.77-5.558z" fill="#00845D"/><path fill-rule="evenodd" clip-rule="evenodd" d="M33.113 26.968a7.2 7.2 0 01-9.976-2.16c-2.16-3.363-1.092-7.693 2.152-10.017 3.628-2.598 8.28-1.574 9.976 2.16 1.654 3.642 1.197 7.848-2.152 10.017zm.488-15.32c-4.348-.799-9.645 1.125-12.286 5.54-1.984 3.315-2.083 7.468-.674 10.797.416.984.963 1.897 1.633 2.694 1.35.218 2.825.302 4.323.302 2.68 0 5.075-.744 7.006-2.005 3.018-1.97 4.897-5.21 4.916-8.874.023-4.224-1.952-6.875-4.918-8.453z" fill="#005121"/><path fill-rule="evenodd" clip-rule="evenodd" d="M88.984 17.332c-.756 0-1.483.202-2.162.6a4.313 4.313 0 00-1.597 1.614c-.381.674-.575 1.437-.575 2.27 0 1.244.416 2.264 1.27 3.12.855.856 1.858 1.273 3.064 1.273a4.4 4.4 0 002.22-.586 4.183 4.183 0 001.587-1.598c.38-.674.571-1.435.571-2.262 0-.821-.192-1.573-.57-2.234a4.297 4.297 0 00-1.607-1.596 4.341 4.341 0 00-2.201-.6zm.04 10.47c-1.68 0-3.118-.59-4.276-1.75-1.158-1.16-1.745-2.585-1.745-4.233 0-1.097.267-2.127.794-3.064a5.837 5.837 0 012.168-2.215 5.82 5.82 0 012.97-.8c1.715 0 3.171.585 4.33 1.74 1.157 1.157 1.745 2.598 1.745 4.287 0 1.672-.587 3.112-1.741 4.278-1.156 1.166-2.583 1.756-4.245 1.756zm11.626 0c-.71 0-1.364-.195-1.944-.577-.572-.379-1.102-1.012-1.575-1.883a.264.264 0 01.094-.35l.927-.56a.258.258 0 01.363.1c.6 1.112 1.283 1.677 2.031 1.677.321 0 .626-.077.908-.227a1.552 1.552 0 00.847-1.378c0-.315-.105-.62-.323-.931-.324-.464-.933-1.037-1.811-1.704-.939-.714-1.512-1.224-1.751-1.557-.416-.558-.628-1.177-.628-1.834 0-.523.127-1.007.377-1.439.25-.434.606-.78 1.06-1.028a3.02 3.02 0 011.469-.372c.557 0 1.085.14 1.57.419.484.278.975.765 1.501 1.488a.263.263 0 01-.053.364l-.889.68a.26.26 0 01-.366-.05c-.387-.52-.715-.86-.974-1.017a1.526 1.526 0 00-.811-.224c-.374 0-.667.108-.898.33-.228.22-.339.483-.339.804 0 .201.043.399.126.588.085.194.25.413.487.653.09.087.405.346 1.379 1.072.978.727 1.634 1.363 2.005 1.943.377.589.568 1.192.568 1.792 0 .868-.329 1.63-.979 2.265-.648.634-1.445.955-2.371.955zm-20.217-.277h-1.335a.179.179 0 01-.165-.112l-1.694-4.098a.124.124 0 00-.231 0l-1.7 4.098a.18.18 0 01-.165.112h-1.337a.18.18 0 01-.16-.255l2.436-5.452a.541.541 0 000-.452l-2.195-4.958a.277.277 0 01.25-.393h1.124c.109 0 .207.067.247.168l1.5 3.66a.132.132 0 00.246 0l1.51-3.662a.26.26 0 01.242-.166h1.136c.191 0 .318.2.237.374l-2.208 4.969a.546.546 0 000 .456l2.424 5.457a.18.18 0 01-.162.254zM51.698 16.328a.31.31 0 01.31-.312h3.932c1.935 0 3.503 1.58 3.503 3.53v.096c0 1.973-1.587 3.573-3.545 3.573h-2.393a.207.207 0 00-.207.208v3.79a.31.31 0 01-.309.312h-.981a.31.31 0 01-.31-.312V16.327zm1.6 5.066c0 .115.093.208.207.208h2.605a1.74 1.74 0 001.734-1.747v-.448c0-.983-.791-1.779-1.766-1.779h-2.573a.207.207 0 00-.207.208v3.558zm16.608 6.13a.284.284 0 01-.258-.164l-.862-1.844a.287.287 0 00-.259-.164h-5.379c-.11 0-.21.063-.258.164l-.867 1.845a.286.286 0 01-.258.164h-1.16a.288.288 0 01-.258-.41l5.126-10.935a.286.286 0 01.259-.165h.234c.112 0 .213.065.26.167l5.059 10.934a.287.287 0 01-.259.409h-1.12zm-6.096-3.968a.163.163 0 00.146.233h3.749c.127 0 .21-.133.157-.249l-1.853-3.96a.182.182 0 00-.33-.001l-1.869 3.977z" fill="#778F9B"/></svg>