<svg width="128" height="40" fill="none" xmlns="http://www.w3.org/2000/svg"><g clip-path="url(#clip0)"><path d="M46.981 17.061c-.224-.073-.698-.122-1.172-.122-1.422 0-2.944 1.13-2.944 2.527v6.657H39.62V14.245h3.119v1.2c.723-.882 2.046-1.445 3.518-1.445.368.003.735.036 1.098.098l-.375 2.963zM50.65 8c1.172 0 2.12.882 2.12 2.033 0 1.15-.948 2.032-2.12 2.032-1.174 0-2.122-.881-2.122-2.032S49.476 8 50.65 8zm1.62 18.123h-3.243V14.245h3.244v11.878zM61.852 14a5.605 5.605 0 00-3.542 1.2v-.955h-3.12V32h3.244v-6.71a5.166 5.166 0 003.244 1.078c1.796 0 3.517-.784 4.59-2.009.949-1.077 1.522-2.546 1.522-4.163 0-3.502-2.645-6.197-5.938-6.197zm-.394 9.478c-2.015 0-3.339-1.365-3.339-3.271 0-1.907 1.324-3.271 3.34-3.271 1.719 0 3.113 1.464 3.113 3.27 0 1.807-1.394 3.272-3.114 3.272zM87.477 26.123h-3.244V8.735h3.243v17.388zM100.701 24.237c-1.173 1.372-3.094 2.13-4.966 2.13-3.618 0-6.337-2.448-6.337-6.17 0-3.307 2.295-6.197 5.888-6.197C98.63 14 101 16.767 101 20.074c.002.303-.023.607-.075.906h-8.383c.174 1.665 1.546 2.816 3.268 2.816 1.372 0 2.47-.759 3.044-1.371l1.847 1.812zm-3.02-5.584c-.1-1.053-1.072-2.081-2.395-2.081-1.347 0-2.445 1.004-2.595 2.081h4.99zM76.374 14a5.604 5.604 0 00-3.543 1.2v-.955h-3.12V32h3.245v-6.71a5.165 5.165 0 003.243 1.078c1.797 0 3.518-.784 4.591-2.009.949-1.077 1.521-2.546 1.521-4.163 0-3.502-2.644-6.196-5.937-6.196zm-.394 9.478c-2.015 0-3.34-1.365-3.34-3.271 0-1.907 1.325-3.271 3.34-3.271 1.72 0 3.114 1.464 3.114 3.27 0 1.807-1.394 3.272-3.114 3.272z" fill="#BCBCBC"/><path d="M32.934 21.795c-.732-.415-1.557-.535-2.374-.563-.685-.023-1.708-.454-1.708-1.678 0-.912.753-1.646 1.709-1.679.816-.028 1.641-.148 2.373-.563a4.287 4.287 0 001.584-1.554 4.187 4.187 0 000-4.247 4.287 4.287 0 00-1.584-1.554 4.389 4.389 0 00-4.326 0 4.287 4.287 0 00-1.584 1.555 4.186 4.186 0 00-.58 2.123c0 .822.3 1.58.68 2.282.32.59.481 1.687-.616 2.308-.816.463-1.835.17-2.344-.63-.43-.674-.948-1.307-1.675-1.719a4.389 4.389 0 00-4.326 0 4.287 4.287 0 00-1.583 1.555 4.186 4.186 0 000 4.246c.38.645.925 1.181 1.583 1.554a4.388 4.388 0 004.326 0c.726-.412 1.245-1.044 1.675-1.718.352-.554 1.233-1.26 2.344-.63.815.461 1.067 1.474.615 2.308-.38.702-.678 1.46-.678 2.282 0 .745.2 1.477.58 2.123.38.645.925 1.181 1.583 1.554a4.389 4.389 0 004.326 0 4.286 4.286 0 001.584-1.554 4.186 4.186 0 000-4.246 4.287 4.287 0 00-1.584-1.555z" fill="url(#paint0_linear)"/></g><defs><linearGradient id="paint0_linear" x1="21.386" y1="12.508" x2="35.474" y2="26.862" gradientUnits="userSpaceOnUse"><stop stop-color="#00AAE4"/><stop offset="1" stop-color="#006097"/></linearGradient><clipPath id="clip0"><path fill="#fff" transform="translate(16 8)" d="M0 0h85v24H0z"/></clipPath></defs></svg>