<svg width="121" height="40" fill="none" xmlns="http://www.w3.org/2000/svg"><g clip-path="url(#clip0)" fill="#fff"><path d="M45.824 12.615l-3.06 1.45-14.774 7a7.683 7.683 0 01-.076-1.07 7.751 7.751 0 011.168-4.064 8.513 8.513 0 013.184-2.988 9.308 9.308 0 014.359-1.123 9.327 9.327 0 014.383 1.039l1.751-.83.262-.124a11.257 11.257 0 00-5.476-1.877 11.441 11.441 0 00-5.723 1.061c-1.766.838-3.249 2.113-4.284 3.685a9.485 9.485 0 00-1.552 5.986c.029.358-.056.715-.245 1.028a1.902 1.902 0 01-.817.73l-.924.438v2.043l2.719-1.29.88-.417.868-.411 15.576-7.382 1.75-.83 3.618-1.714v-2.042l-3.587 1.702zM49.41 15l-20.058 9.5-1.75.831L24 27.038v2.041l3.577-1.695 3.06-1.45 14.79-7.01c.05.357.075.716.075 1.076a7.75 7.75 0 01-1.168 4.07 8.513 8.513 0 01-3.188 2.99 9.31 9.31 0 01-4.364 1.122 9.326 9.326 0 01-4.387-1.046l-.107.053-1.899.9a11.257 11.257 0 005.475 1.877 11.442 11.442 0 005.722-1.06c1.767-.836 3.25-2.111 4.285-3.683a9.485 9.485 0 001.554-5.991 1.717 1.717 0 01.245-1.028c.189-.313.473-.567.816-.73l.925-.438V15zM79.624 16.418c-3.068 0-5.448 2.1-5.448 5.417 0 3.087 1.962 5.456 5.51 5.456 2.736 0 4.53-1.495 5.031-3.282h-1.962c-.48 1.029-1.398 1.728-3.068 1.728-1.65 0-3.403-1.087-3.465-3.339h8.641c.23-3.32-1.795-5.98-5.239-5.98zm-3.382 4.465c.168-2.1 1.712-2.951 3.382-2.951 2.025 0 3.173 1.476 3.235 2.951h-6.617zM62.624 18.961l-1.748-.369c-1.425-.292-2.473-.912-2.473-2.155 0-1.573 2.043-2.058 3.215-2.058 1.505 0 3.256.563 3.757 2.174h2.067c-.606-2.7-3.01-3.844-5.74-3.844-2.443 0-5.47 1.146-5.47 3.844 0 2.33 2.067 3.418 4.154 3.845l1.887.369c1.9.408 3.257.99 3.257 2.485 0 1.4-1.273 2.369-3.528 2.369-2.358 0-3.778-1.01-4.174-2.951h-2.092c.396 2.8 2.65 4.621 6.22 4.621 3.01 0 5.762-1.476 5.762-4.214 0-2.834-2.776-3.65-5.094-4.116zM71.796 13.971h-1.9v2.621h-1.774v1.418h1.775v6.407c0 2.175.5 2.621 2.651 2.621h1.377v-1.475h-.96c-1.086 0-1.169-.272-1.169-1.359V18.01h2.13v-1.418h-2.13v-2.621zM109.437 16.534c-1.483.058-2.61.7-3.173 1.883v-1.825h-1.859v10.446h1.9v-5.475c0-2.33.877-3.2 2.631-3.2.356 0 .712.026 1.064.078v-1.888a5.971 5.971 0 00-.563-.019zM102.578 23.1l.02-2.408c.021-2.971-1.315-4.31-4.467-4.31-2.17 0-4.342 1.262-4.509 3.514h1.962c.084-1.3.982-2.077 2.567-2.077 1.42 0 2.547.621 2.547 2.543v.252c-4.591.467-7.597 1.2-7.597 3.67 0 1.922 1.753 3.01 3.861 3.01 2.004 0 3.152-.6 3.841-1.689.016.481.065.96.146 1.436h1.92c-.229-.993-.313-2.177-.291-3.941zm-1.734-.427c0 2.465-1.69 3.223-3.465 3.223-1.356 0-2.17-.66-2.17-1.651 0-1.437 2.19-1.922 5.635-2.233v.661zM88.041 12.954h-1.9v14.084h1.9V12.954zM91.84 12.954h-1.9v14.084h1.9V12.954z"/></g><defs><clipPath id="clip0"><path fill="#fff" transform="translate(24 10)" d="M0 0h86v20H0z"/></clipPath></defs></svg>