<svg width="96" height="26" fill="none" xmlns="http://www.w3.org/2000/svg"><path d="M13.069 26c7.218 0 13.069-5.82 13.069-13S20.287 0 13.068 0C5.852 0 0 5.82 0 13s5.851 13 13.069 13z" fill="#26A17B"/><path d="M14.46 14.2v-.003c-.091.007-.558.034-1.595.034-.83 0-1.412-.023-1.618-.034v.002c-3.192-.14-5.572-.691-5.572-1.354 0-.66 2.382-1.214 5.572-1.354v2.159c.208.014.806.05 1.632.05.992 0 1.488-.042 1.58-.05v-2.157c3.186.142 5.56.694 5.56 1.354 0 .66-2.377 1.212-5.56 1.354V14.2zm0-2.93V9.337h4.443V6.393H6.805v2.945h4.444v1.931c-3.612.165-6.327.876-6.327 1.729 0 .852 2.717 1.563 6.327 1.73v6.19h3.212v-6.19c3.606-.165 6.316-.876 6.316-1.728 0-.851-2.71-1.564-6.316-1.729" fill="#fff"/><path d="M37.236 7.198v3.122h3.05v2.343h-3.071v4.751c0 1.05.582 1.561 1.435 1.561.426 0 .92-.134 1.324-.334l.762 2.32a6.166 6.166 0 01-2.265.468c-2.4.09-3.969-1.27-3.969-4.015v-4.75H32.44V10.32h2.063V7.488l2.734-.29zm52.597 2.976l.202 1.27c.853-1.36 1.996-1.56 3.118-1.56 1.143 0 2.242.445 2.847 1.047l-1.234 2.364c-.56-.469-1.075-.715-1.973-.715-1.435 0-2.758.758-2.758 2.788v5.8h-2.736V10.17l2.534.004zm-6.705 4.216c-.178-1.428-1.3-2.143-2.87-2.143-1.479 0-2.691.715-3.095 2.143h5.965zm-6.009 2.253c.179 1.36 1.368 2.343 3.297 2.343 1.008 0 2.332-.38 2.96-1.027l1.748 1.718c-1.166 1.204-3.071 1.785-4.754 1.785-3.812 0-6.079-2.343-6.079-5.866 0-3.347 2.288-5.756 5.877-5.756 3.7 0 6.011 2.276 5.585 6.803h-8.634zM65.055 5.555v6.111c.987-1.27 2.197-1.65 3.454-1.65 3.139 0 4.53 2.119 4.53 5.354v5.8h-2.736v-5.777c0-2.009-1.055-2.855-2.513-2.855-1.616 0-2.735 1.36-2.735 3.012v5.622h-2.736V5.557l2.736-.002zm-7.266 1.518v3.122h3.05v2.343h-3.071v4.75c0 1.05.584 1.562 1.435 1.562.426 0 .92-.134 1.324-.335l.762 2.32a6.166 6.166 0 01-2.265.469c-2.4.09-3.969-1.273-3.969-4.015v-4.751h-2.063v-2.343h2.063V7.363l2.734-.29zM50.23 14.39c-.178-1.428-1.3-2.143-2.87-2.143-1.48 0-2.691.715-3.095 2.143h5.965zm-6.009 2.253c.179 1.36 1.368 2.343 3.297 2.343 1.008 0 2.332-.38 2.96-1.027l1.748 1.718c-1.166 1.204-3.072 1.785-4.755 1.785-3.813 0-6.078-2.343-6.078-5.866 0-3.347 2.288-5.756 5.875-5.756 3.7 0 6.009 2.276 5.584 6.803h-8.631z" fill="#5B5A5D"/></svg>