<svg width="84" height="28" fill="none" xmlns="http://www.w3.org/2000/svg"><path fill-rule="evenodd" clip-rule="evenodd" d="M49.014 0h-5.378v27.5h1.997V17.071h3.381a2.314 2.314 0 002.136-2.267V2.266A2.314 2.314 0 0049.014 0zm.152 14.653a.578.578 0 01-.545.541h-2.99V1.882h2.99a.578.578 0 01.545.541v12.23zM54.867 0h1.99v25.612h4.464v1.887h-6.446L54.867 0zM69.2 0h-2.835l-3.066 27.5h1.782l.623-5.771h4.157l.622 5.77h1.79L69.2 0zm-1.362 3.087l1.829 16.918h-3.765l1.782-16.918h.154zm9.318 13.645L73.161 0h1.944l1.728 7.689 1.245 5.577h.154L79.63 7.69 81.26 0h1.944l-4.065 16.732v10.767h-1.982V16.732zM3.135 1.903H0V0h8.244v1.903H5.171v25.921H3.135V1.903zM16.684 0h-5.378v27.824h1.998V15.215h3.042c.294.015.53.247.554.542v12.067h1.99v-12.26a1.597 1.597 0 00-1.222-1.285 1.644 1.644 0 001.183-1.322V2.32A2.376 2.376 0 0016.685 0zm.195 12.77a.586.586 0 01-.553.54H13.3V1.91h3.027a.586.586 0 01.553.55v10.31zM23.054 0h1.998v25.294c.012.3.255.538.553.542h2.474a.586.586 0 00.553-.541V0h2.006v25.527a2.368 2.368 0 01-2.167 2.32h-3.112a2.452 2.452 0 01-2.305-2.32V0zm11.755 0h6.523v1.903h-4.518v9.963h3.726v1.833h-3.726v12.214h4.518v1.911h-6.523V0z" fill="#1D9BEA"/></svg>