<svg width="128" height="40" fill="none" xmlns="http://www.w3.org/2000/svg"><path d="M29 34c7.204 0 13-5.796 13-13S36.204 8 29 8s-13 5.796-13 13 5.796 13 13 13z" fill="#2775CA"/><path d="M32.575 23.058c0-1.895-1.138-2.546-3.413-2.816-1.624-.217-1.95-.65-1.95-1.409 0-.758.542-1.245 1.625-1.245.976 0 1.517.325 1.788 1.137.054.162.217.27.38.27h.866a.37.37 0 00.379-.378v-.055a2.706 2.706 0 00-2.438-2.22v-1.3c0-.217-.162-.38-.433-.434h-.812c-.217 0-.38.163-.434.434v1.246c-1.625.216-2.654 1.3-2.654 2.654 0 1.787 1.084 2.491 3.358 2.762 1.517.271 2.005.596 2.005 1.463 0 .866-.759 1.462-1.788 1.462-1.408 0-1.896-.596-2.058-1.408-.054-.217-.217-.325-.38-.325h-.92a.37.37 0 00-.38.379v.054c.217 1.354 1.084 2.33 2.872 2.6v1.3c0 .217.162.38.433.434h.812c.217 0 .38-.163.434-.434v-1.3c1.625-.27 2.708-1.408 2.708-2.87z" fill="#fff"/><path d="M26.238 28.746c-4.226-1.517-6.392-6.23-4.821-10.4.812-2.275 2.6-4.008 4.82-4.821.217-.108.326-.27.326-.542v-.758c0-.217-.109-.38-.325-.433-.055 0-.163 0-.217.054-5.146 1.625-7.963 7.096-6.338 12.241a9.745 9.745 0 006.338 6.338c.216.108.433 0 .487-.217.055-.054.055-.108.055-.216v-.759c0-.162-.163-.379-.325-.487zm5.741-16.9c-.216-.108-.433 0-.487.216-.055.055-.055.109-.055.217v.758c0 .217.163.434.325.542 4.225 1.517 6.392 6.23 4.821 10.4-.812 2.275-2.6 4.009-4.82 4.821-.217.108-.326.27-.326.542v.758c0 .217.109.38.325.433.055 0 .163 0 .217-.054 5.146-1.625 7.963-7.096 6.338-12.241a9.824 9.824 0 00-6.338-6.392zM56.82 17.758v6.087c0 1.012-.317 1.811-.952 2.4-.63.588-1.494.882-2.59.882-1.079 0-1.936-.286-2.57-.857-.635-.571-.959-1.356-.972-2.355v-6.157h1.905v6.1c0 .605.144 1.047.431 1.327.292.275.694.412 1.206.412 1.071 0 1.615-.563 1.632-1.688v-6.151h1.91zm6.354 6.817c0-.36-.127-.635-.38-.825-.254-.195-.711-.398-1.372-.61-.66-.215-1.182-.427-1.567-.634-1.05-.567-1.575-1.331-1.575-2.292 0-.499.14-.943.42-1.333.283-.393.687-.7 1.212-.92.529-.22 1.121-.33 1.777-.33.66 0 1.248.12 1.765.362.516.237.916.573 1.2 1.009.287.436.431.93.431 1.485h-1.904c0-.423-.134-.75-.4-.984-.267-.237-.641-.355-1.124-.355-.465 0-.827.1-1.085.298a.922.922 0 00-.387.775c0 .3.15.552.45.755.305.203.751.394 1.34.571 1.083.326 1.872.73 2.367 1.213.495.482.743 1.083.743 1.802 0 .8-.303 1.429-.908 1.886-.605.453-1.42.679-2.444.679-.71 0-1.358-.13-1.942-.387-.584-.263-1.03-.62-1.34-1.073-.304-.453-.456-.978-.456-1.574h1.91c0 1.02.61 1.53 1.828 1.53.453 0 .807-.091 1.06-.273a.906.906 0 00.381-.775zM66.38 27v-9.242h2.844c.812 0 1.538.184 2.177.552a3.797 3.797 0 011.504 1.562c.36.672.54 1.438.54 2.297v.426c0 .859-.178 1.623-.533 2.291a3.774 3.774 0 01-1.492 1.555c-.643.369-1.37.555-2.177.559H66.38zm1.904-7.7v6.17h.92c.745 0 1.315-.243 1.708-.73.394-.486.595-1.182.603-2.088v-.489c0-.94-.195-1.65-.584-2.133-.39-.486-.958-.73-1.707-.73h-.94zm16.822 4.767c-.115.978-.477 1.733-1.086 2.267-.605.529-1.411.793-2.418.793-1.092 0-1.968-.392-2.628-1.174-.656-.783-.984-1.83-.984-3.142v-.89c0-.858.152-1.613.457-2.265.309-.652.745-1.151 1.307-1.498.563-.352 1.215-.527 1.956-.527.981 0 1.768.275 2.36.825.593.546.938 1.303 1.036 2.273H83.88c-.105-.737-.336-1.27-.691-1.6-.352-.33-.845-.495-1.48-.495-.778 0-1.39.288-1.834.863-.44.576-.66 1.394-.66 2.457v.895c0 1.003.21 1.8.628 2.393.42.592 1.005.888 1.759.888.677 0 1.195-.152 1.555-.457.364-.309.605-.844.723-1.606h1.226zm1.174-.565c0-.672.131-1.278.393-1.815a2.988 2.988 0 011.105-1.244 3.023 3.023 0 011.618-.438c.936 0 1.691.324 2.267.971.58.648.87 1.509.87 2.584v.082c0 .669-.13 1.27-.388 1.803-.254.529-.62.941-1.098 1.238-.474.296-1.02.444-1.638.444-.93 0-1.686-.324-2.266-.971-.576-.648-.863-1.505-.863-2.571v-.083zm1.18.14c0 .762.176 1.373.527 1.835.356.46.83.692 1.422.692.597 0 1.07-.233 1.422-.699.351-.47.527-1.125.527-1.968 0-.753-.18-1.362-.54-1.828a1.694 1.694 0 00-1.421-.704c-.58 0-1.048.23-1.403.692-.356.46-.534 1.121-.534 1.98zM95.28 27h-1.174v-6.868h1.175V27zm-1.269-8.69a.71.71 0 01.172-.482c.118-.131.292-.197.52-.197.229 0 .402.066.52.197a.694.694 0 01.178.482c0 .19-.059.35-.177.476-.119.127-.292.19-.52.19-.23 0-.403-.063-.521-.19a.685.685 0 01-.172-.476zm4.266 1.822l.038.863c.525-.66 1.21-.99 2.057-.99 1.451 0 2.183.819 2.196 2.456V27h-1.174v-4.545c-.005-.495-.119-.861-.343-1.098-.22-.237-.565-.355-1.035-.355-.38 0-.715.101-1.003.304-.288.203-.512.47-.673.8V27h-1.174v-6.868h1.11z" fill="#fff"/></svg>