<svg width="101" height="24" fill="none" xmlns="http://www.w3.org/2000/svg"><g clip-path="url(#clip0)" fill-rule="evenodd" clip-rule="evenodd"><path d="M16.234 19.172l2.364-14.283h3.716L19.98 19.172h-3.746zM33.525 5.223c-.737-.304-1.904-.608-3.347-.608-3.684 0-6.294 1.945-6.294 4.741-.03 2.066 1.873 3.19 3.285 3.89 1.443.699 1.934 1.155 1.934 1.793 0 .972-1.166 1.398-2.241 1.398-1.504 0-2.303-.243-3.5-.76l-.491-.243-.522 3.221c.89.395 2.487.76 4.175.76 3.93 0 6.479-1.915 6.51-4.893 0-1.64-.983-2.887-3.132-3.89-1.32-.668-2.119-1.094-2.119-1.762.03-.608.676-1.246 2.15-1.246 1.227-.03 2.118.273 2.793.547l.338.152.46-3.1zm4.981 8.874l1.504-4.012c0 .03.307-.85.491-1.367l.276 1.246s.706 3.434.86 4.133h-3.131zm4.605-9.208h-2.886c-.89 0-1.566.273-1.965 1.185l-5.557 13.128h3.93s.645-1.763.798-2.158h4.79c.091.517.46 2.158.46 2.158h3.469L43.11 4.89zm-29.975 0l-3.653 9.755-.4-1.976c-.675-2.279-2.793-4.77-5.157-5.986l3.346 12.52h3.96L17.096 4.92h-3.96v-.03z" fill="#45619D"/><path d="M6.08 4.889H.06L0 5.162c4.698 1.185 7.799 4.042 9.057 7.476l-1.29-6.564c-.214-.912-.89-1.155-1.688-1.185z" fill="#E69E44"/></g><path fill-rule="evenodd" clip-rule="evenodd" d="M88.982 24l.62-.021.622-.043.6-.086.579-.107.578-.129.578-.15.557-.193.557-.214.536-.257.514-.257.493-.3.493-.3.471-.343.45-.343.428-.386.429-.407.407-.407.364-.428.364-.472.322-.471.321-.472.3-.514.257-.514.236-.536.214-.536.193-.557.171-.578.129-.579.107-.6.064-.6.043-.6.021-.621-.021-.622-.043-.6-.064-.6-.107-.6-.129-.578-.171-.558-.193-.557-.214-.535-.236-.536-.257-.514-.3-.515-.321-.471-.322-.472-.364-.45-.364-.45-.407-.407-.429-.407-.428-.364-.45-.364-.471-.343-.493-.3-.493-.279-.514-.278-.536-.236-.557-.214-.557-.193-.578-.172-.578-.128-.579-.107-.6-.065-.621-.043L88.982 0l-.6.021-.622.043-.6.065-.578.107-.578.128-.579.172-.557.193-.535.214-.536.236-.514.278-.514.279-.472.3-.47.343-.45.364-.45.364-.408.407-.407.407-.364.45-.364.45-.322.472-.32.471-.28.515-.278.514-.236.536-.214.535-.171.557-.172.558-.128.578-.107.6-.086.6-.043.6-.021.622.021.621.043.6.086.6.107.6.128.579.172.578.171.557.215.536.235.536.279.514.278.514.322.472.32.471.365.472.364.428.407.407.407.407.45.386.45.343.472.343.47.3.515.3.514.257.536.257.535.214.557.193.579.15.578.129.579.107.6.086.62.043.6.021z" fill="#EAAB4D"/><path fill-rule="evenodd" clip-rule="evenodd" d="M72.93 24l.62-.021.6-.043.6-.086.6-.107.579-.129.578-.15.557-.193.536-.214.535-.257.514-.257.493-.3.493-.3.471-.343.45-.343.429-.386.428-.407.386-.407.385-.428.343-.472.343-.471.3-.472.3-.514.257-.514.235-.536.215-.536.192-.557.172-.578.128-.579.108-.6.064-.6.043-.6.021-.621-.021-.622-.043-.6-.064-.6-.108-.6-.128-.578-.171-.558-.193-.557-.215-.535-.235-.536-.257-.514-.3-.515-.3-.471-.343-.472-.343-.45-.385-.45-.386-.407-.428-.407-.429-.364-.45-.364-.471-.343-.493-.3-.493-.279-.514-.278L77.6.943l-.536-.214-.557-.193-.578-.172-.579-.128-.6-.107-.6-.065-.6-.043L72.93 0l-.622.021-.6.043-.6.065-.6.107-.578.128-.579.172-.556.193-.536.214-.536.236-.514.278-.514.279-.471.3-.472.343-.45.364-.45.364-.407.407-.406.407-.386.45-.343.45-.343.472-.3.471-.3.515-.257.514-.257.536-.214.535-.193.557-.15.558-.128.578-.107.6-.086.6-.043.6-.021.622.021.621.043.6.086.6.107.6.128.579.15.578.193.557.214.536.257.536.257.514.3.514.3.472.343.471.343.472.386.428.406.407.408.407.45.386.45.343.47.343.472.3.514.3.514.257.536.257.535.214.558.193.578.15.578.129.6.107.6.086.6.043.621.021z" fill="#D24A48"/><path fill-rule="evenodd" clip-rule="evenodd" d="M79.55 4.607h6.385v-.664h-5.828l-.557.664zm-.947 1.436h7.328V5.4h-6.942l-.386.643zM77.875 7.5h8.056v-.664h-7.756l-.3.664zM77.4 8.936h8.528v-.643h-8.335l-.193.643zm.295 7.007h8.27V15.3H77.48l.214.643zm.597 1.457h7.67v-.664h-7.97l.3.664zm.857 1.436h6.813v-.643h-7.22l.407.643zm1.197 1.457h5.613v-.665h-6.192l.579.665zm-3.24-9.9h8.827v-.664h-8.699l-.128.664zm.137 4.114h8.613v-.664h-8.77l.157.664zm.297-1.457h8.313v-.643h-8.185l-.128.643zm-.631-1.35H85.8v-.643h-8.784l-.107.643z" fill="#EAAB4D"/><path fill-rule="evenodd" clip-rule="evenodd" d="M76.889 12.407h.878v.643h-.835l-.043-.643z" fill="#EAAB4D"/><defs><clipPath id="clip0"><path fill="#fff" transform="translate(0 4.615)" d="M0 0h46.143v14.769H0z"/></clipPath></defs></svg>