<svg width="119" height="40" fill="none" xmlns="http://www.w3.org/2000/svg"><path d="M28.413 22.224l-2.55 5.734H24l2.802-6.131a3.977 3.977 0 01-1.588-1.474c-.405-.65-.603-1.527-.603-2.65 0-.778.114-1.466.343-2.061.23-.596.543-1.084.94-1.474.397-.39.862-.687 1.39-.878a4.728 4.728 0 011.671-.29h2.405v14.965h-1.61v-5.734h-1.337v-.007zm1.337-7.888h-.856c-.32 0-.633.061-.939.176a2.19 2.19 0 00-.817.565c-.237.26-.427.603-.573 1.03-.145.428-.22.955-.22 1.589 0 .603.068 1.107.198 1.512.13.404.313.733.542.985.229.252.504.427.817.534.313.107.641.16.992.16h.856v-6.55z" fill="#EE2E24"/><path d="M39.126 17.413v10.545h-1.611V23.23h-2.428v4.727h-1.634V17.413h1.634v4.482h2.428v-4.482h1.61zm8.391 12.614h-1.466v-2.07h-4.52v2.07h-1.466v-3.413h.649a9.617 9.617 0 00.565-1.855c.137-.68.244-1.375.32-2.093.077-.717.123-1.45.146-2.199.023-.748.03-1.466.03-2.168v-.886h4.895v9.209h.84v3.405h.007zm-2.451-11.278h-1.817v.191c0 .558-.008 1.168-.03 1.825a30.406 30.406 0 01-.138 2.016c-.069.68-.168 1.351-.29 2.016a9.109 9.109 0 01-.527 1.825h2.802v-7.873zm9.544 8.499a3.901 3.901 0 01-1.153.626c-.435.152-.916.229-1.443.229-1.092 0-1.947-.42-2.573-1.268-.626-.847-.939-2.084-.939-3.71 0-.848.061-1.634.176-2.345.122-.71.305-1.328.565-1.855.26-.527.587-.931.992-1.222.405-.29.886-.442 1.443-.442.436 0 .833.084 1.191.26.36.175.672.457.924.847.252.39.443.893.588 1.52.138.618.206 1.373.206 2.267v.9H50.19c0 1.2.16 2.108.49 2.719.327.61.816.924 1.473.924.458 0 .87-.076 1.221-.244.36-.16.642-.321.848-.474l.39 1.268zm-2.932-8.644c-.504 0-.855.283-1.069.848-.213.565-.343 1.32-.397 2.268h2.703c0-.443-.023-.863-.06-1.245a4.644 4.644 0 00-.2-.993c-.091-.282-.213-.496-.373-.649a.848.848 0 00-.604-.229zm6.216 4.1v5.254H56.26V17.413h1.634v4.88l2.535-4.88h1.656l-2.619 4.963 2.993 5.59H60.68l-2.786-5.261zm8.39 5.399c-1.13 0-2.015-.45-2.656-1.352-.642-.9-.962-2.26-.962-4.07 0-.824.076-1.572.244-2.236.16-.672.397-1.237.71-1.703a3.39 3.39 0 011.168-1.092c.466-.26 1.008-.39 1.619-.39.473 0 .855.054 1.153.16.29.108.557.238.794.39l-.23 1.55a3.719 3.719 0 00-.785-.527 2.07 2.07 0 00-.955-.229c-.588 0-1.069.329-1.443.993-.374.657-.565 1.665-.565 3.008 0 1.329.16 2.36.473 3.085.313.725.81 1.084 1.474 1.084.405 0 .756-.069 1.046-.206.29-.137.534-.29.733-.466l.374 1.214a3.687 3.687 0 01-.939.573c-.344.145-.764.214-1.252.214zM79.578 27.958h-6.406l-.145 2.489h-.817v-3.322h.443c.359-.305.641-.855.84-1.634.198-.778.351-1.71.458-2.786.114-1.115.19-2.49.229-4.116.038-1.626.076-3.49.107-5.581h5.23v14.125h1.023v3.33h-.817l-.145-2.505zm-1.115-14.126h-3.245c-.03 1.917-.068 3.604-.122 5.047a96.878 96.878 0 01-.206 3.81c-.1 1.138-.237 2.07-.405 2.802-.175.733-.404 1.276-.68 1.627h4.666V13.832h-.008zM82.548 22.85c.03 1.458.23 2.565.603 3.329.374.763.947 1.145 1.718 1.145.352 0 .657-.053.924-.168.267-.114.489-.252.672-.405.206-.152.39-.35.542-.572l.313.794a2.383 2.383 0 01-.603.603c-.206.153-.466.29-.771.405a3.12 3.12 0 01-1.092.175c-1.115 0-1.94-.48-2.466-1.443-.527-.962-.794-2.306-.794-4.039 0-.863.076-1.634.229-2.313.153-.68.366-1.253.641-1.726.275-.473.596-.832.97-1.077a2.215 2.215 0 011.237-.366c.458 0 .87.122 1.237.359.359.236.664.595.9 1.069.237.473.405 1.061.505 1.771.099.703.107 1.527.023 2.459h-4.788zm2.115-4.81c-.557 0-1.038.343-1.435 1.03s-.619 1.688-.657 3.008h3.833c.084-1.404-.053-2.427-.405-3.069-.35-.641-.809-.97-1.336-.97zM93.765 22.918h-3.597v5.047h-.985V17.413h.985v4.665h3.597v-4.665h.984v10.545h-.984v-5.04zM97.07 17.413h.986v3.91h.77c1.009 0 1.811.274 2.406.817.603.542.901 1.366.901 2.466 0 1.114-.313 1.954-.939 2.512-.626.557-1.436.84-2.428.84H97.07V17.413zm.986 4.688v5.085h.626c.74 0 1.336-.198 1.802-.595.466-.397.687-1.046.687-1.955 0-.893-.206-1.534-.626-1.94-.42-.396-1.008-.595-1.756-.595h-.733zM104.79 18.245v9.713h-.962V17.413h4.459v.84h-3.497v-.008zM114.708 20.612a11.685 11.685 0 01.084-1.443h-.061a4.62 4.62 0 01-.252.68c-.099.214-.206.443-.313.68l-3.428 7.429h-.84V17.413h.924v7.322c0 .283-.008.535-.023.772-.015.236-.038.473-.061.71h.061c.069-.237.153-.474.252-.703.099-.229.199-.465.313-.702l3.428-7.407h.856V27.95h-.94v-7.338z" fill="#F7F7F7"/></svg>