<svg width="86" height="24" fill="none" xmlns="http://www.w3.org/2000/svg"><path fill-rule="evenodd" clip-rule="evenodd" d="M37.886.96h-3.062c-3.007 0-5.558 2.31-5.558 6.796 0 2.691 1.235 4.675 3.437 5.654l-4.108 7.502c-.134.245 0 .435.214.435h1.907c.161 0 .268-.054.322-.19l3.732-7.367h1.343v7.367c0 .081.08.19.188.19h1.665c.161 0 .215-.081.215-.217V1.232c0-.19-.107-.272-.295-.272zm-1.773 11.09h-1.127c-1.773 0-3.491-1.304-3.491-4.566 0-3.399 1.61-4.785 3.249-4.785h1.37v9.352z" fill="#FF0303"/><path fill-rule="evenodd" clip-rule="evenodd" d="M47.978 7.718h-1.665c-.135 0-.215.109-.215.19V13.1h-3.089V7.908c0-.136-.053-.19-.187-.19h-1.665c-.134 0-.215.081-.215.19V21.12c0 .136.053.217.188.217h1.692c.107 0 .187-.081.187-.217v-6.306h3.089v6.306c0 .136.08.217.215.217h1.665c.133 0 .187-.108.187-.217V7.909c0-.11-.08-.19-.187-.19zm38.014 12.749l-.215-.924c-.027-.082-.054-.109-.134-.109-.134 0-.86.299-1.907.299-2.04 0-3.034-1.984-3.034-5.138 0-2.773.832-5.518 2.228-5.518.376 0 .833.109 1.558.79.08.08.134.108.214.108.081 0 .162-.056.242-.191l.725-1.196a.448.448 0 00.081-.245c0-.109-.108-.19-.269-.271-1.1-.572-1.853-.68-2.497-.68-2.524 0-4.484 3.044-4.484 7.8 0 4.106 1.879 6.47 4.564 6.47 1.128 0 2.337-.543 2.82-.897.107-.08.134-.19.107-.298zM74.318 13.86l3.223-5.952c.053-.081.026-.19-.081-.19h-1.584c-.457 0-.618.163-.779.516l-2.417 5.084c-.134.299-.268.488-.403.57v-5.98c0-.109-.053-.19-.16-.19H70.37c-.08 0-.161.081-.161.19v13.238c0 .082.054.19.16.19h1.746c.108 0 .161-.081.161-.19v-6.823c.08.055.135.136.189.245l3.06 6.36c.162.327.404.408.753.408h1.718c.107 0 .134-.108.08-.19l-3.76-7.285h.001zm-15.386 5.764h-.322c-.403 0-.51-.163-.51-.489V7.908c0-.136-.053-.19-.16-.19h-5.372c-.133 0-.215.081-.215.19v.978c0 3.29-.187 7.53-1.906 10.738h-.59c-.162 0-.215.082-.215.218v3.968c0 .137.107.19.188.19h1.289c.295 0 .402-.217.402-.408v-2.256h5.747v2.474c0 .108.08.19.188.19h1.37c.16 0 .321-.136.321-.408v-3.75c0-.136-.08-.218-.215-.218zm-2.9 0H52.14c1.37-2.365 1.906-5.029 2.094-8.29.054-.707.08-1.442.08-1.903h1.72v10.193zM64.41 7.392c-2.899 0-4.188 3.697-4.188 7.72 0 4.104 1.826 6.55 4.51 6.55 1.316 0 2.472-.515 3.062-.897.108-.054.134-.135.108-.243l-.215-.925c-.027-.108-.08-.163-.215-.163-.107 0-.886.299-1.987.299-2.068 0-3.035-1.821-3.035-4.213v-.644s1.047.127 1.665.127h3.921v-1.142c0-4.213-1.478-6.469-3.625-6.469zm-.295 5.899c-.617 0-1.584.108-1.584.108s0-.407.054-.843c.241-2.31.805-3.478 1.745-3.478.86 0 1.397 1.195 1.53 3.289.027.434.027.924.027.924h-1.772z" fill="#fff"/><path fill-rule="evenodd" clip-rule="evenodd" d="M0 11.429c0-1.294.106-2.115 2.724-4.115C4.892 5.658 11.84 0 11.84 0v9.445h5.283V23.04H1.651C.743 23.04 0 22.28 0 21.35v-9.92z" fill="#FFCF01"/><path fill-rule="evenodd" clip-rule="evenodd" d="M11.842 9.445v5.473l-9.71 6.769L14.409 17.6V9.445h-2.566z" fill="#D3AC06"/><path fill-rule="evenodd" clip-rule="evenodd" d="M7.402 9.163c.568-.693 1.397-.937 1.853-.546.455.391.364 1.27-.204 1.961-.567.693-1.397.937-1.852.546-.455-.391-.364-1.27.203-1.961z" fill="#231F20"/></svg>