<svg width="40" height="40" fill="none" xmlns="http://www.w3.org/2000/svg"><path d="M27.372 30.737a10.267 10.267 0 01-1.84 2.261H21.16l.024-.074a1.362 1.362 0 01.8-.81 1.389 1.389 0 011.018.01c.248.102.458.27.609.486a5.205 5.205 0 001.5-1.81c.111-.224.205-.456.284-.697a5.847 5.847 0 01-1.09-.75 6.285 6.285 0 01-.332-.31c-.064-.066-.6-.615-.737-1.032-.002-.006-.01-.01-.013-.015.278-.513.794-1.086 1.302-1.514a5.906 5.906 0 01-.25-.655c-.776.586-1.646 1.564-1.948 2.28v0l-.002.002a.2.2 0 00.022.03c.099.139.452.808.884 1.217l.14.15c.025.027.05.05.075.074.307.309.644.59 1.008.833a4.39 4.39 0 01-.834 1.189 2.149 2.149 0 00-1.438-.304 2.16 2.16 0 00-.882.327c-.348.227-.624.55-.789.932-.055.126-.095.26-.124.398l-.007.043a1.99 1.99 0 00-.033.365l.001.075c.003.089.013.176.027.262l.01.043h5.442c.27-.236.53-.485.775-.745l.01-.01a10.976 10.976 0 001.601-2.2c.176-.317.334-.645.477-.98l.01-.027a5.831 5.831 0 01-.736-.198c-.172.396-.37.781-.592 1.154z" fill="#FFCA42" stroke="#FCBC3D" stroke-width=".2"/><path d="M38.214 22.23l-1.467-1.58-.04-.044-.02-.02-.004-.002a2.166 2.166 0 00-1.697-.63c-1.036.074-1.886.893-1.975 1.905-.053.603.16 1.198.585 1.634l2.091 2.23c.065.07.132.14.19.216.033.042.063.086.092.138a1.35 1.35 0 01.2.942l-.002.013-.002.006-.004.023-.005.026-.002.01c-.003.019-.008.036-.012.054l-.002.008c-.001.007-.005.015-.006.023-.002.008-.005.015-.006.023l-.002.004-.003.01-.014.04a1.356 1.356 0 01-.743.788.99.99 0 01-.227.078c-.12.037-.245.054-.374.05a1.08 1.08 0 01-.371-.05l-.053-.015a.058.058 0 01-.018-.006c-.012-.003-.023-.008-.036-.013l-.008-.003a.091.091 0 01-.012-.004l-.044-.016-.033-.012-.012-.005a1.534 1.534 0 01-.116-.05 1.396 1.396 0 01-.493-.476l-.02-.033.006.04a14.043 14.043 0 01-.094 5.227l-.04.19-.007.023-.003.014h-3.184a1.61 1.61 0 011.524-1.06c.265 0 .53.065.762.187l.02.011-.01-.02a15.013 15.013 0 00-2.455-3.833l-.001-.003h-.003a5.71 5.71 0 01-.315-.019v-.006h-.008a4.725 4.725 0 01-3.336-1.858 4.6 4.6 0 01-.9-3.406l.005-.026.023-.137.002-.009h-.088a9.46 9.46 0 00-6.25 2.898 9.137 9.137 0 00-2.553 6.34c0 .099-.001.208-.004.325a9.76 9.76 0 00-.002.616h-3.074a1.61 1.61 0 011.77-1.037c.249.04.54.129.705.216l.013.007v-.014c-.061-1.175-.447-2.42-1.116-3.602a11.208 11.208 0 00-2.587-3.07 4.67 4.67 0 01-1.1-1.515 4.518 4.518 0 01-.407-1.88c0-.827.166-1.568.493-2.201a4.03 4.03 0 011.465-1.574l.003.006 20.96-11.165a2.995 2.995 0 01-.456 3.743 3.053 3.053 0 01-.501.398l-15.371 8.207-.007.003.003.006a.776.776 0 001.043.3s14.29-7.619 14.344-7.645c.314.484.482 1.043.482 1.63 0 .657-.278 1.302-.709 1.8-.29.335-.641.558-1.027.767-.71.382-1.42.762-2.13 1.145l-2.274 1.217c-.216.117-.43.241-.652.35l-.006.003.005.006a.78.78 0 001.038.29s4.558-2.396 4.737-2.51c.815-.52 1.452-1.208 1.69-2.16a3.661 3.661 0 00.111-.909 3.737 3.737 0 00-.583-2.008c-.006-.009-.01-.018-.017-.027a3.778 3.778 0 001.518-3.02 3.729 3.729 0 00-.95-2.493l-14.387 7.588c-1.013-3.021-3.266-5.493-6.174-6.833-.005-.002-.143-.062-.271-.11a6.174 6.174 0 00-2.301-.442c-.6.001-1.182.087-1.73.246-1.06.309-2.216 1.014-2.837 1.804l-.005.006a.747.747 0 00-.066.845c-.124.068-.27.143-.44.23-.983.5-2.47 1.257-2.737 2.254-.065.24-.066.471-.004.69a.114.114 0 01-.02.103l-1.717 1.474c-.1.117-.12.28-.054.419l.012.038c.036.114.129.418.364.724.296.388.699.63 1.198.723.603.11.838.382.925.534.089.16.263.25.442.228.033-.003.053-.014.065-.03.024-.037.002-.096-.023-.165-.028-.076-.06-.164-.038-.239l.215-.706a.115.115 0 01.061-.07.13.13 0 01.099-.008c.25.083.506.186.517.209.005.01.005.084-.087.233-.602.966-.908 1.149-.963 1.177a.462.462 0 00-.056.791c.586.406 1.729.574 2.317.584.283 1.45.857 2.807 1.707 4.031l.006.01c.801 1.28.795 2.293.79 3.186v.2a9.85 9.85 0 01-1.215 4.752 4.38 4.38 0 01-.647.844 2.174 2.174 0 00-2.322.026 2.094 2.094 0 00-.914 1.335l-.005.028-.003.016a2.096 2.096 0 00-.033.367l.002.066v.01c.003.088.012.177.026.261l.005.026.003.019.002.006H9.21l.002-.002c.274-.239.535-.49.776-.745l.01-.01a10.808 10.808 0 002.078-3.182l.035-.086.021-.054c.085-.205.154-.39.212-.561l.007-.018.046-.14c.033-.1.065-.2.093-.3l.002-.004-.004-.003a11.362 11.362 0 00-.626-.6l-.008-.009-.004.013a15.297 15.297 0 01-.188.666l-.01.027c-.01.035-.021.07-.034.104l-.006.018c-.002.005-.003.011-.006.016a9.737 9.737 0 01-.86 1.851 9.72 9.72 0 01-.448.684 10.344 10.344 0 01-1.392 1.576H4.548l.02-.063a1.351 1.351 0 01.795-.805 1.39 1.39 0 011.013.012c.245.1.455.267.604.481l.004.007.006-.005a5.168 5.168 0 001.63-2.095 10.549 10.549 0 001.012-4.524c0-.557-.044-1.118-.132-1.673a3.3 3.3 0 00.228.17c.453.41.945.784 1.462 1.114.507.39.911.737 1.272 1.09.67.657 1.24 1.37 1.69 2.12a8.89 8.89 0 011.019 2.45c-.035-.003-.064-.006-.086-.006a2.331 2.331 0 00-1.793.836 2.235 2.235 0 00-.504 1.66l.001.007h4.613v-.008l-.007-.758c.003-.16.01-.334.014-.486.007-.187.011-.35.011-.446 0-2.293.892-4.428 2.512-6.013a8.663 8.663 0 014.753-2.38 5.348 5.348 0 001.45 3.59 5.577 5.577 0 003.498 1.734 13.795 13.795 0 011.604 2.322c-.5.11-.955.388-1.281.78a2.236 2.236 0 00-.503 1.662l.001.006h4.589l.001-.006c.029-.101.053-.203.079-.3a14.77 14.77 0 00.398-4.541 2.169 2.169 0 001.709-.503 2.07 2.07 0 00.714-1.316 2.065 2.065 0 00-.445-1.559l-.006-.008c-.052-.064-1.02-1.113-1.061-1.158l-1.204-1.303c-.301-.31-.453-.646-.453-.998 0-.745.62-1.352 1.382-1.352a1.396 1.396 0 01.963.38l.014.015a1.2 1.2 0 01.094.103l.997 1.075c-.27.38-.356.843-.24 1.303.138.547.568.978 1.124 1.124.452.118.911.054 1.295-.181a2.02 2.02 0 00.267-.195c.092-.084.178-.18.258-.287l.003-.004-1.718-1.809zm-31.66-8.447v.006c-.183.69-.4 1.72-.4 2.715 0 .444.03.898.087 1.35a11.28 11.28 0 00-.472-.057c-.367-.038-.746-.078-.85-.147a.115.115 0 01-.051-.084.113.113 0 01.03-.09c.238-.252.503-.613.788-1.07.035-.055.331-.552.133-.966-.214-.448-.52-.494-.84-.565l-.661-.135-.386.816c-.016.036-.031.06-.07.07-.04.008-.08 0-.11-.027-.17-.143-.342-.265-.74-.339-.452-.083-.541-.24-.678-.478a3.044 3.044 0 00-.136-.223.236.236 0 01.016-.285l1.259-.945.001-.002a.13.13 0 01.171-.021c.129.094.267.15.41.169a.76.76 0 00.58-.166s.153-.093.228-.198l.002-.001c.072-.1.098-.189.078-.266l-.003-.009-.008.005a.824.824 0 01-.356.084.826.826 0 01-.561-.229.769.769 0 01-.232-.549.665.665 0 01.064-.302c.212-.584 1.573-1.242 2.473-1.678l.327-.16c.292.698.292 1.354.292 1.746v.057c0 .345-.046.74-.135 1.138-.09.27-.174.552-.25.836zm3.904 10.313a9.937 9.937 0 01-.508-.464c-1.945-1.903-3.018-4.436-3.018-7.128 0-.896.124-1.791.367-2.663.02-.061.036-.12.055-.182.177-.583.36-1.184.36-1.852A5.416 5.416 0 006.954 9a5.19 5.19 0 01.942-.852 5.334 5.334 0 013.026-.933 5.66 5.66 0 012.055.407c.6.233 1.268.638 1.643.887a10.984 10.984 0 012.97 2.907 10.662 10.662 0 011.374 2.788l-6.515 3.436v-.001l-.01.006-.006.003c-.648.403-1.235 1.03-1.655 1.762a5.395 5.395 0 00-.715 2.676c.003.694.134 1.37.396 2.01zm27.761-.168a.813.813 0 01-.445-1.065l.605.653.422.442a.865.865 0 01-.582-.03z" fill="#FFCA42" stroke="#FCBC3D" stroke-width=".2"/></svg>