<svg width="81" height="20" fill="none" xmlns="http://www.w3.org/2000/svg"><path d="M4.254 5.332v2.179h5.58v3.176h-5.58v5.194H.915V2.156h9.468v3.176H4.254zm18.49-.236l-.018 10.784h-3.339v-1.158c-.687.842-1.669 1.412-3.044 1.412-2.75 0-4.874-2.312-4.874-5.648 0-3.355 2.16-5.649 4.852-5.649 1.375 0 2.397.588 3.084 1.47V5.091h3.34v.005zm-3.339 5.394c0-1.492-.982-2.472-2.28-2.472-1.295 0-2.277.98-2.277 2.472 0 1.51 1 2.473 2.276 2.473 1.295-.005 2.281-.963 2.281-2.473zm9.865-8.588c0 1.118-.844 1.92-2.023 1.92-1.138 0-2.021-.802-2.021-1.92C25.226.806 26.109 0 27.247 0c1.175 0 2.023.802 2.023 1.902zm-3.696 3.194h3.338V15.88h-3.338V5.096zM38.84 4.9v3.43c-.214-.018-.352-.04-.669-.04-1.571 0-3.084.472-3.084 2.922v4.664h-3.339V5.096h3.339v1.666c.67-1.314 1.767-1.92 3.142-1.92.255 0 .451.018.612.058zm1.17 7.568h3.38c.138.588.571 1.158 2.12 1.158 1.12 0 1.473-.294 1.473-.743 0-.433-.335-.53-2.178-.923-3.085-.668-4.343-1.492-4.343-3.39 0-2.334 1.865-3.706 4.99-3.706 3.044 0 4.54 1.314 4.87 3.372h-3.38c-.138-.507-.57-.864-1.628-.864-.982 0-1.473.294-1.473.766 0 .375.317.41 1.61.686 3.224.704 4.97 1.354 4.97 3.586 0 2.49-2.18 3.724-4.951 3.724-2.928 0-5.066-1.39-5.46-3.666zm23.546-1.978c0 3.333-2.12 5.649-4.874 5.649-1.375 0-2.357-.57-3.067-1.412v5.227h-3.339V5.096h3.34v1.216c.687-.882 1.709-1.47 3.084-1.47 2.696 0 4.856 2.294 4.856 5.649zm-3.379 0c0-1.492-.982-2.472-2.276-2.472-1.3 0-2.281.98-2.281 2.473 0 1.51.982 2.472 2.28 2.472 1.273-.004 2.277-.962 2.277-2.472zm8.843-8.588c0 1.118-.844 1.92-2.022 1.92-1.139 0-2.022-.802-2.022-1.92C64.976.806 65.859 0 66.998 0c1.173 0 2.022.802 2.022 1.902zm-3.696 3.194h3.339V15.88h-3.34V5.096zM81 9.136v6.745h-3.338v-6c0-1.177-.353-1.863-1.71-1.863-1.317 0-1.986.646-1.986 2.139v5.724h-3.339V5.096h3.339v1.216c.785-.962 1.79-1.47 3.125-1.47 2.437 0 3.91 1.666 3.91 4.294z" fill="#fff"/></svg>